<svg width="17" height="18" viewBox="0 0 17 18" fill="none" xmlns="http://www.w3.org/2000/svg">
<path d="M4.66687 17.3339C5.58735 17.3339 6.33354 16.5877 6.33354 15.6672C6.33354 14.7467 5.58735 14.0005 4.66687 14.0005C3.7464 14.0005 3.0002 14.7467 3.0002 15.6672C3.0002 16.5877 3.7464 17.3339 4.66687 17.3339Z" fill="white"/>
<path d="M13.0002 17.3339C13.9207 17.3339 14.6669 16.5877 14.6669 15.6672C14.6669 14.7467 13.9207 14.0005 13.0002 14.0005C12.0797 14.0005 11.3335 14.7467 11.3335 15.6672C11.3335 16.5877 12.0797 17.3339 13.0002 17.3339Z" fill="white"/>
<path d="M1.70619 0.755152C1.29455 0.549328 0.793984 0.716181 0.58816 1.12783C0.382335 1.53948 0.549189 2.04004 0.960838 2.24586L1.79709 2.66399C2.05522 2.79306 2.2282 3.04649 2.25433 3.3339L2.86581 10.0602C2.98287 11.3479 4.06253 12.3338 5.35554 12.3338H12.5763C13.6925 12.3338 14.6735 11.5939 14.9802 10.5206L15.9979 6.95838C16.3021 5.89368 15.5027 4.83384 14.3954 4.83384H4.44473C4.22923 4.83384 4.04929 4.66951 4.02978 4.4549L3.91415 3.18301C3.83576 2.32077 3.31684 1.56047 2.54245 1.17328L1.70619 0.755152Z" fill="white"/>
</svg>
