<svg width="47" height="61" viewBox="0 0 47 61" fill="none" xmlns="http://www.w3.org/2000/svg">
<g clip-path="url(#clip0)">
<path d="M0 0H39.95V60.3167L19.975 48.9583L0 60.3167V0Z" fill="#00FFB2"/>
<path d="M10.2336 19V5.83633H6.4791V6.40547C6.4791 6.91035 6.23125 7.1582 5.72637 7.1582H3.75273V10.5363H6.4791V19H10.2336ZM16.6348 19.1836C18.3514 19.1836 19.6641 18.7154 20.5637 17.7883C21.4541 16.8611 21.9039 15.732 21.9039 14.3918C21.9039 13.024 21.4816 11.95 20.6371 11.1605C19.7834 10.3711 18.7002 9.97637 17.3875 9.97637C16.5522 9.97637 15.827 10.1324 15.2303 10.4445H15.1109L15.267 8.93906H21.1512V5.83633H12.2193L11.4482 13.5473H15.0375C15.3772 13.0424 15.8729 12.7945 16.543 12.7945C17.0938 12.7945 17.4977 12.9414 17.7547 13.2443C18.0117 13.5473 18.1402 13.8961 18.1402 14.3C18.1402 14.7131 18.0025 15.0711 17.7363 15.3648C17.4701 15.6586 17.0662 15.8055 16.543 15.8055C16.0748 15.8055 15.726 15.6953 15.4873 15.475C15.2486 15.2547 15.1018 15.016 15.0375 14.7682H11.2738C11.4115 16.191 11.9807 17.2742 12.9629 18.0361C13.9451 18.798 15.166 19.1836 16.6348 19.1836ZM26.2672 19L34.4371 5.83633H32.1147L23.9356 19H26.2672ZM35.0522 18.3023C35.6213 17.7148 35.9059 16.9438 35.9059 15.9891C35.9059 15.0436 35.6213 14.2725 35.0522 13.6758C34.483 13.0883 33.7395 12.7945 32.8123 12.7945C31.8852 12.7945 31.1324 13.0883 30.5633 13.6758C29.985 14.2725 29.7004 15.0436 29.7004 15.9891C29.7004 16.9438 29.985 17.7148 30.5633 18.3023C31.1324 18.8898 31.8852 19.1836 32.8123 19.1836C33.7395 19.1836 34.483 18.8898 35.0522 18.3023ZM31.9861 16.9621C31.775 16.7326 31.674 16.4021 31.674 15.9891C31.674 15.576 31.775 15.2547 31.9861 15.0252C32.1973 14.7957 32.4727 14.6764 32.8123 14.6764C33.152 14.6764 33.4182 14.7957 33.6293 15.0252C33.8313 15.2547 33.9322 15.576 33.9322 15.9891C33.9322 16.4021 33.8313 16.7326 33.6293 16.9621C33.4182 17.1916 33.152 17.3109 32.8123 17.3109C32.4727 17.3109 32.1973 17.1916 31.9861 16.9621ZM27.8186 11.1605C28.3877 10.573 28.6723 9.80195 28.6723 8.84727C28.6723 7.89258 28.3877 7.12148 27.8186 6.53398C27.2402 5.94648 26.4967 5.65273 25.5695 5.65273C24.6424 5.65273 23.8897 5.94648 23.3205 6.53398C22.7514 7.12148 22.4668 7.89258 22.4668 8.84727C22.4668 9.80195 22.7514 10.573 23.3205 11.1605C23.8897 11.748 24.6424 12.0418 25.5695 12.0418C26.4967 12.0418 27.2402 11.748 27.8186 11.1605ZM24.7526 9.81113C24.5414 9.58164 24.4404 9.26035 24.4404 8.84727C24.4404 8.43418 24.5414 8.10371 24.7526 7.87422C24.9637 7.64473 25.2299 7.53457 25.5695 7.53457C25.9092 7.53457 26.1754 7.64473 26.3865 7.87422C26.5977 8.10371 26.6986 8.43418 26.6986 8.84727C26.6986 9.26035 26.5977 9.58164 26.3865 9.81113C26.1754 10.0406 25.9092 10.16 25.5695 10.16C25.2299 10.16 24.9637 10.0406 24.7526 9.81113Z" fill="#15193F"/>
<path d="M5.85278 29.628C6.21079 30.0365 6.66748 30.2407 7.22285 30.2407C7.77822 30.2407 8.23262 30.0365 8.58603 29.628C8.94404 29.2195 9.12305 28.6251 9.12305 27.8448C9.12305 27.0646 8.94404 26.4702 8.58603 26.0617C8.23262 25.6532 7.77822 25.4489 7.22285 25.4489C6.66748 25.4489 6.21079 25.6532 5.85278 26.0617C5.49478 26.4702 5.31577 27.0646 5.31577 27.8448C5.31577 28.6251 5.49478 29.2195 5.85278 29.628ZM6.94058 31.7209C5.96294 31.7209 5.17808 31.3836 4.58599 30.7089C3.9939 30.0342 3.69785 29.0818 3.69785 27.8517C3.69785 26.617 3.9939 25.6624 4.58599 24.9876C5.17808 24.3083 5.96294 23.9687 6.94058 23.9687C7.41792 23.9687 7.84707 24.0697 8.22803 24.2716C8.60898 24.4736 8.88437 24.7008 9.0542 24.9532H9.12305V21.7105H10.7479V31.5833H9.40532L9.19878 30.6676H9.12305C8.89814 30.9797 8.59521 31.2344 8.21426 31.4318C7.8333 31.6246 7.40874 31.7209 6.94058 31.7209ZM12.1614 31.5833V24.1133H13.7862V31.5833H12.1614ZM12.9669 23.2665C12.6778 23.2665 12.4345 23.1724 12.2372 22.9842C12.0444 22.796 11.948 22.5619 11.948 22.2819C11.948 21.9974 12.0444 21.761 12.2372 21.5728C12.4299 21.3846 12.6732 21.2905 12.9669 21.2905C13.2699 21.2905 13.5154 21.3846 13.7036 21.5728C13.8964 21.761 13.9928 21.9974 13.9928 22.2819C13.9928 22.5619 13.8964 22.796 13.7036 22.9842C13.5154 23.1724 13.2699 23.2665 12.9669 23.2665ZM17.7334 31.7209C16.8476 31.7209 16.1338 31.5098 15.5922 31.0875C15.0552 30.6653 14.711 30.103 14.5595 29.4008H16.322C16.3955 29.6532 16.5538 29.8575 16.7971 30.0135C17.0449 30.165 17.357 30.2407 17.7334 30.2407C18.6743 30.2407 19.1448 29.9837 19.1448 29.4696C19.1448 29.2172 18.9956 29.0244 18.6973 28.8913C18.4035 28.7582 18.0478 28.6526 17.6301 28.5746C17.2125 28.492 16.7902 28.3887 16.3633 28.2648C15.9411 28.1363 15.5808 27.8953 15.2824 27.5419C14.9887 27.1885 14.8418 26.7272 14.8418 26.1581C14.8418 25.5292 15.0897 25.0083 15.5854 24.5952C16.0857 24.1775 16.7764 23.9687 17.6577 23.9687C18.5435 23.9687 19.2458 24.1661 19.7644 24.5608C20.2831 24.9555 20.6158 25.4879 20.7627 26.1581H19.0002C18.812 25.6899 18.3668 25.4535 17.6646 25.4489C16.9118 25.4489 16.5355 25.6853 16.5355 26.1581C16.5355 26.3738 16.641 26.5505 16.8522 26.6882C17.0633 26.8213 17.3272 26.9154 17.6439 26.9705C17.9652 27.0209 18.3117 27.1013 18.6835 27.2114C19.0553 27.317 19.3995 27.4409 19.7162 27.5832C20.0375 27.7209 20.3037 27.9527 20.5149 28.2786C20.7306 28.5999 20.8384 28.9969 20.8384 29.4696C20.8384 30.1352 20.5745 30.6768 20.0467 31.0944C19.5189 31.5121 18.7478 31.7209 17.7334 31.7209ZM24.8545 31.7209C23.785 31.7209 22.929 31.379 22.2864 30.6951C21.6485 30.0066 21.3295 29.0565 21.3295 27.8448C21.3295 26.6331 21.6485 25.6853 22.2864 25.0014C22.9244 24.3129 23.7804 23.9687 24.8545 23.9687C25.7265 23.9687 26.4494 24.2028 27.0232 24.6709C27.5969 25.1345 27.9778 25.722 28.166 26.4334H26.5481C26.1809 25.7771 25.6164 25.4489 24.8545 25.4489C24.2807 25.4489 23.8195 25.6578 23.4706 26.0754C23.1218 26.4931 22.9474 27.0829 22.9474 27.8448C22.9474 28.6067 23.1218 29.1965 23.4706 29.6142C23.8195 30.0319 24.2807 30.2407 24.8545 30.2407C25.6164 30.2407 26.1809 29.9125 26.5481 29.2562H28.166C27.9778 29.9722 27.5969 30.562 27.0232 31.0256C26.4494 31.4892 25.7265 31.7209 24.8545 31.7209ZM34.7432 30.6951C34.1052 31.379 33.2492 31.7209 32.1752 31.7209C31.1057 31.7209 30.252 31.379 29.614 30.6951C28.976 30.0066 28.6571 29.0565 28.6571 27.8448C28.6571 26.6331 28.976 25.6853 29.614 25.0014C30.252 24.3129 31.1057 23.9687 32.1752 23.9687C33.2492 23.9687 34.1052 24.3129 34.7432 25.0014C35.3858 25.6853 35.7071 26.6331 35.7071 27.8448C35.7071 29.0565 35.3858 30.0066 34.7432 30.6951ZM30.812 29.628C31.17 30.0365 31.6267 30.2407 32.1821 30.2407C32.7374 30.2407 33.1918 30.0365 33.5452 29.628C33.9032 29.2195 34.0822 28.6251 34.0822 27.8448C34.0822 27.0646 33.9032 26.4702 33.5452 26.0617C33.1918 25.6532 32.7374 25.4489 32.1821 25.4489C31.6267 25.4489 31.17 25.6532 30.812 26.0617C30.454 26.4702 30.275 27.0646 30.275 27.8448C30.275 28.6251 30.454 29.2195 30.812 29.628ZM6.796 43.7209C5.979 43.7209 5.31577 43.4456 4.8063 42.8948C4.30142 42.3394 4.04897 41.605 4.04897 40.6917V36.1133H5.67378V40.554C5.67378 41.0818 5.81606 41.4949 6.10063 41.7932C6.38979 42.0916 6.76387 42.2407 7.22285 42.2407C7.7002 42.2407 8.08804 42.0778 8.38638 41.7519C8.68931 41.4214 8.84077 41.0129 8.84077 40.5264V36.1133H10.4656V43.5833H9.12305L8.9165 42.6676H8.84077C8.41851 43.3698 7.73691 43.7209 6.796 43.7209ZM11.8034 43.5833V36.1133H13.146L13.3525 37.029H13.4282C13.8505 36.3221 14.5321 35.9687 15.473 35.9687C16.29 35.9687 16.9509 36.2464 17.4558 36.8018C17.9653 37.3571 18.22 38.0892 18.22 38.998V43.5833H16.5952V39.1426C16.5952 38.6147 16.4529 38.2017 16.1684 37.9033C15.8838 37.6004 15.5097 37.4489 15.0461 37.4489C14.5688 37.4489 14.1787 37.6142 13.8757 37.9446C13.5774 38.2705 13.4282 38.679 13.4282 39.1701V43.5833H11.8034ZM22.1672 43.5833C21.5017 43.5833 20.983 43.402 20.6112 43.0394C20.2395 42.6768 20.0536 42.1765 20.0536 41.5385V37.5935H18.8556V36.1133H20.0536L20.267 34.1374H21.6784V36.1133H23.5097V37.5935H21.6784V41.325C21.6784 41.5408 21.7472 41.7244 21.8849 41.8758C22.0272 42.0273 22.2154 42.103 22.4495 42.103H23.5097V43.5833H22.1672Z" fill="#15193F"/>
</g>
<defs>
<clipPath id="clip0">
<rect width="47" height="60.3167" fill="white"/>
</clipPath>
</defs>
</svg>
