<svg width="19" height="20" viewBox="0 0 19 20" fill="none" xmlns="http://www.w3.org/2000/svg">
<path d="M5.00049 20.0005C6.10506 20.0005 7.00049 19.1051 7.00049 18.0005C7.00049 16.8959 6.10506 16.0005 5.00049 16.0005C3.89592 16.0005 3.00049 16.8959 3.00049 18.0005C3.00049 19.1051 3.89592 20.0005 5.00049 20.0005Z" fill="#15193F"/>
<path d="M15.0005 20.0005C16.1051 20.0005 17.0005 19.1051 17.0005 18.0005C17.0005 16.8959 16.1051 16.0005 15.0005 16.0005C13.8959 16.0005 13.0005 16.8959 13.0005 18.0005C13.0005 19.1051 13.8959 20.0005 15.0005 20.0005Z" fill="#15193F"/>
<path d="M1.44768 0.106036C0.953698 -0.140953 0.353025 0.0592712 0.106036 0.55325C-0.140953 1.04723 0.0592712 1.6479 0.55325 1.89489L1.55676 2.39664C1.86651 2.55152 2.07408 2.85564 2.10544 3.20054L2.83921 11.2721C2.97969 12.8173 4.27528 14.0005 5.82689 14.0005H14.4919C15.8313 14.0005 17.0085 13.1125 17.3764 11.8246L18.5978 7.54991C18.9628 6.27227 18.0035 5.00046 16.6747 5.00046H4.73392C4.47532 5.00046 4.25939 4.80327 4.23597 4.54573L4.09722 3.01946C4.00316 1.98478 3.38045 1.07242 2.45118 0.60779L1.44768 0.106036Z" fill="#15193F"/>
</svg>
