<svg width="92" height="30" viewBox="0 0 92 30" fill="none" xmlns="http://www.w3.org/2000/svg">
<path d="M18.8419 5.48165C18.2898 6.03146 17.5817 6.30636 16.7176 6.30636C15.8561 6.30636 15.1493 6.03146 14.5972 5.48165C14.0451 4.92918 13.7691 4.22192 13.7691 3.35985C13.7691 2.49511 14.0451 1.78651 14.5972 1.23404C15.1493 0.68157 15.8561 0.405334 16.7176 0.405334C17.5817 0.405334 18.2898 0.68157 18.8419 1.23404C19.394 1.78651 19.6701 2.49511 19.6701 3.35985C19.6701 4.22192 19.394 4.92918 18.8419 5.48165ZM15.1533 4.95721C15.5587 5.36556 16.0801 5.56973 16.7176 5.56973C17.3577 5.56973 17.8791 5.36556 18.2818 4.95721C18.6872 4.54619 18.8899 4.0124 18.8899 3.35584C18.8899 2.69929 18.6872 2.16683 18.2818 1.75849C17.8791 1.34747 17.3577 1.14196 16.7176 1.14196C16.0801 1.14196 15.5587 1.34747 15.1533 1.75849C14.7506 2.16683 14.5492 2.69929 14.5492 3.35584C14.5492 4.0124 14.7506 4.54619 15.1533 4.95721ZM15.6134 4.87314V1.79852H16.9256C17.2697 1.79852 17.539 1.89193 17.7337 2.07876C17.9311 2.26292 18.0298 2.51113 18.0298 2.82339C18.0298 3.05292 17.9698 3.25309 17.8498 3.4239C17.7297 3.59205 17.5577 3.70681 17.3337 3.7682L18.0738 4.87314H17.2537L16.5575 3.80823H16.3535V4.87314H15.6134ZM16.3535 3.19171H16.8856C17.1576 3.19171 17.2937 3.06893 17.2937 2.82339C17.2937 2.57785 17.1576 2.45508 16.8856 2.45508H16.3535V3.19171Z" fill="#15193F"/>
<path d="M26.5191 10.8915H29.5272C30.0113 10.8915 30.383 10.7676 30.6423 10.5198C30.9016 10.272 31.0313 9.9234 31.0313 9.4739C31.0313 9.02441 30.9016 8.67577 30.6423 8.42797C30.383 8.18017 30.0113 8.05628 29.5272 8.05628H26.5191V10.8915ZM23.8567 13.1909V0.795255H29.7001C30.9276 0.795255 31.8698 1.10356 32.5267 1.72017C33.1837 2.33102 33.5121 3.17526 33.5121 4.25288C33.5121 4.84068 33.3594 5.37085 33.054 5.84339C32.7543 6.31594 32.374 6.67034 31.913 6.90661C32.4316 7.14289 32.8552 7.50594 33.1837 7.99577C33.5179 8.4856 33.685 9.06763 33.685 9.74187C33.685 10.8137 33.3565 11.658 32.6996 12.2746C32.0484 12.8854 31.1091 13.1909 29.8816 13.1909H23.8567ZM26.5191 5.92983H29.3457C29.8298 5.92983 30.2015 5.80594 30.4608 5.55814C30.7201 5.31034 30.8498 4.96458 30.8498 4.52085C30.8498 4.07136 30.7201 3.72271 30.4608 3.47492C30.2015 3.22712 29.8298 3.10322 29.3457 3.10322H26.5191V5.92983Z" fill="#15193F"/>
<path d="M42.3664 12.0844C41.5481 12.9373 40.4244 13.3637 38.9952 13.3637C37.5661 13.3637 36.4424 12.9373 35.6241 12.0844C34.8057 11.2315 34.3966 10.0387 34.3966 8.50577C34.3966 6.96712 34.8057 5.77136 35.6241 4.91848C36.4424 4.05983 37.5661 3.63051 38.9952 3.63051C40.4244 3.63051 41.5481 4.05983 42.3664 4.91848C43.1905 5.77136 43.6025 6.96712 43.6025 8.50577C43.6025 10.0387 43.1905 11.2315 42.3664 12.0844ZM37.4739 10.4939C37.8773 10.9319 38.3844 11.1509 38.9952 11.1509C39.6119 11.1509 40.119 10.9319 40.5166 10.4939C40.92 10.0502 41.1217 9.38746 41.1217 8.50577C41.1217 7.61831 40.92 6.95272 40.5166 6.50899C40.119 6.06526 39.6119 5.84339 38.9952 5.84339C38.3844 5.84339 37.8773 6.06526 37.4739 6.50899C37.0705 6.95272 36.8688 7.61831 36.8688 8.50577C36.8688 9.38746 37.0705 10.0502 37.4739 10.4939Z" fill="#15193F"/>
<path d="M52.1889 12.0844C51.3706 12.9373 50.2468 13.3637 48.8177 13.3637C47.3885 13.3637 46.2648 12.9373 45.4465 12.0844C44.6282 11.2315 44.219 10.0387 44.219 8.50577C44.219 6.96712 44.6282 5.77136 45.4465 4.91848C46.2648 4.05983 47.3885 3.63051 48.8177 3.63051C50.2468 3.63051 51.3706 4.05983 52.1889 4.91848C53.0129 5.77136 53.425 6.96712 53.425 8.50577C53.425 10.0387 53.0129 11.2315 52.1889 12.0844ZM47.2963 10.4939C47.6997 10.9319 48.2068 11.1509 48.8177 11.1509C49.4343 11.1509 49.9414 10.9319 50.339 10.4939C50.7424 10.0502 50.9441 9.38746 50.9441 8.50577C50.9441 7.61831 50.7424 6.95272 50.339 6.50899C49.9414 6.06526 49.4343 5.84339 48.8177 5.84339C48.2068 5.84339 47.6997 6.06526 47.2963 6.50899C46.8929 6.95272 46.6912 7.61831 46.6912 8.50577C46.6912 9.38746 46.8929 10.0502 47.2963 10.4939Z" fill="#15193F"/>
<path d="M57.9313 13.3637C56.6462 13.3637 55.6665 13.0785 54.9923 12.508C54.3238 11.9375 53.9176 11.1912 53.7735 10.2692H56.4272C56.4733 10.5054 56.6318 10.7129 56.9027 10.8915C57.1793 11.0644 57.5221 11.1509 57.9313 11.1509C58.9916 11.1509 59.5247 10.9175 59.5304 10.4507C59.5304 10.2375 59.395 10.0675 59.1242 9.94068C58.8591 9.80814 58.5249 9.71594 58.1215 9.66407C57.7238 9.60645 57.2916 9.51424 56.8249 9.38746C56.3581 9.25492 55.923 9.09933 55.5196 8.92068C55.122 8.73628 54.7906 8.43373 54.5255 8.01306C54.2604 7.59238 54.1279 7.07661 54.1279 6.46577C54.1279 5.6417 54.4593 4.96458 55.122 4.43441C55.7904 3.89848 56.7269 3.63051 57.9313 3.63051C59.1818 3.63051 60.1384 3.89848 60.8011 4.43441C61.4638 4.97034 61.8643 5.67627 62.0027 6.55221H59.3489C59.2337 6.07967 58.7611 5.84339 57.9313 5.84339C57.5394 5.84339 57.234 5.9039 57.015 6.02492C56.8018 6.14017 56.6952 6.28712 56.6952 6.46577C56.6952 6.67899 56.8277 6.85187 57.0928 6.98441C57.3579 7.11119 57.6893 7.20051 58.0869 7.25238C58.4903 7.30424 58.9254 7.39645 59.3921 7.52899C59.8589 7.65577 60.2911 7.81136 60.6888 7.99577C61.0921 8.18017 61.4264 8.48272 61.6915 8.9034C61.9623 9.31831 62.0977 9.83407 62.0977 10.4507C62.0977 11.2978 61.7721 11.9951 61.121 12.5426C60.4698 13.09 59.4066 13.3637 57.9313 13.3637Z" fill="#15193F"/>
<path d="M66.6905 13.1909C64.7427 13.1909 63.7688 12.2775 63.7688 10.4507V6.11136H62.2647V3.81204H63.7688L64.1232 1.33119H66.2497V3.81204H68.4625V6.11136H66.2497V10.0012C66.2497 10.2605 66.3275 10.4737 66.4831 10.6409C66.6444 10.808 66.8605 10.8915 67.1314 10.8915H68.4625V13.1909H66.6905Z" fill="#15193F"/>
<path d="M69.615 13.1909V3.81204H72.0958V13.1909H69.615ZM71.8624 2.42898C71.5916 2.69983 71.2545 2.83526 70.8511 2.83526C70.4534 2.83526 70.1163 2.69983 69.8397 2.42898C69.5689 2.15814 69.4334 1.82102 69.4334 1.41763C69.4334 1.01424 69.5689 0.677119 69.8397 0.406271C70.1163 0.135424 70.4534 0 70.8511 0C71.2545 0 71.5916 0.135424 71.8624 0.406271C72.1333 0.677119 72.2687 1.01424 72.2687 1.41763C72.2687 1.82102 72.1333 2.15814 71.8624 2.42898Z" fill="#15193F"/>
<path d="M73.594 13.1909V3.81204H75.7205L75.9798 4.86661H76.0749C76.7145 4.04254 77.5386 3.63051 78.5471 3.63051C79.5844 3.63051 80.4199 3.97051 81.0538 4.65051C81.6877 5.33051 82.0047 6.25831 82.0047 7.4339V13.1909H79.5238V7.78831C79.5238 7.17746 79.3769 6.70204 79.083 6.36204C78.7891 6.01627 78.3742 5.84339 77.8383 5.84339C77.3081 5.84339 76.8816 6.02492 76.5589 6.38797C76.2362 6.74526 76.0749 7.21204 76.0749 7.78831V13.1909H73.594Z" fill="#15193F"/>
<path d="M87.5742 16.7349C85.1539 16.7349 83.6786 15.6717 83.1485 13.5453H85.7158C85.9059 14.1965 86.5254 14.522 87.5742 14.522C88.1851 14.522 88.6605 14.3722 89.0005 14.0726C89.3463 13.7787 89.5192 13.3666 89.5192 12.8364V11.5053H89.4327C89.208 11.7876 88.8766 12.0527 88.4386 12.3005C88.0064 12.5426 87.5108 12.6636 86.9519 12.6636C85.7359 12.6636 84.7678 12.2717 84.0475 11.488C83.3329 10.6985 82.9756 9.5834 82.9756 8.14272C82.9756 6.70204 83.3358 5.58983 84.0561 4.8061C84.7764 4.02238 85.7417 3.63051 86.9519 3.63051C87.9546 3.63051 88.8103 4.04254 89.5192 4.86661H89.6142L89.8736 3.81204H92V12.8364C92 14.0985 91.6312 15.0637 90.8936 15.7322C90.1559 16.4007 89.0495 16.7349 87.5742 16.7349ZM85.9924 9.82831C86.3612 10.2432 86.8568 10.4507 87.4792 10.4507C88.1073 10.4507 88.6029 10.2432 88.9659 9.82831C89.3347 9.4134 89.5192 8.85153 89.5192 8.14272C89.5192 7.4339 89.3347 6.87492 88.9659 6.46577C88.6029 6.05085 88.1073 5.84339 87.4792 5.84339C86.8568 5.84339 86.3612 6.05085 85.9924 6.46577C85.6293 6.87492 85.4478 7.4339 85.4478 8.14272C85.4478 8.85153 85.6293 9.4134 85.9924 9.82831Z" fill="#15193F"/>
<path d="M29.1795 28.9269L31.6604 18.3898H31.7468L34.2277 28.9269H36.4406L39.5351 16.5313H37.9446L35.3773 27.2413H35.2909L32.7236 16.5313H30.6836L28.1163 27.2413H28.0299L25.4626 16.5313H23.8721L26.9666 28.9269H29.1795Z" fill="#15193F"/>
<path d="M47.3089 27.8464C48.0869 27.0079 48.4759 25.8323 48.4759 24.3196C48.4759 22.8069 48.0869 21.64 47.3089 20.8015C46.531 19.963 45.5023 19.5481 44.2316 19.5481C42.9523 19.5481 41.9237 19.963 41.1457 20.8015C40.3677 21.64 39.9787 22.8069 39.9787 24.3196C39.9787 25.8323 40.3677 27.0079 41.1457 27.8464C41.9237 28.6849 42.9523 29.0998 44.2316 29.0998C45.5023 29.0998 46.531 28.6849 47.3089 27.8464ZM42.1138 26.9301C41.5779 26.3164 41.3099 25.4434 41.3099 24.3196C41.3099 23.2045 41.5779 22.3315 42.1138 21.7091C42.6498 21.0954 43.3586 20.7842 44.2316 20.7842C45.1047 20.7842 45.8048 21.0954 46.3494 21.7091C46.8854 22.3315 47.1533 23.2045 47.1533 24.3196C47.1533 25.4434 46.8854 26.3164 46.3494 26.9301C45.8048 27.5525 45.1047 27.8637 44.2316 27.8637C43.3586 27.8637 42.6498 27.5525 42.1138 26.9301Z" fill="#15193F"/>
<path d="M51.2274 28.9269V23.265C51.2274 22.5995 51.4608 22.0549 51.9363 21.614C52.4117 21.1732 52.9995 20.9571 53.7083 20.9571H54.6764V19.721H53.7083C52.55 19.721 51.7202 20.1359 51.2274 20.9571H51.141L50.9595 19.721H49.8963V28.9269H51.2274Z" fill="#15193F"/>
<path d="M56.9872 28.9269V16.5313H55.6646V28.9269H56.9872Z" fill="#15193F"/>
<path d="M60.5859 26.9388C60.0759 26.325 59.8165 25.452 59.8165 24.3196C59.8165 23.1872 60.0759 22.3142 60.5859 21.7005C61.0959 21.0867 61.7874 20.7842 62.6518 20.7842C63.5076 20.7842 64.1991 21.0867 64.7091 21.7005C65.2191 22.3142 65.4784 23.1872 65.4784 24.3196C65.4784 25.452 65.2191 26.325 64.7091 26.9388C64.1991 27.5525 63.5076 27.8637 62.6518 27.8637C61.7874 27.8637 61.0959 27.5525 60.5859 26.9388ZM62.4703 29.0998C63.8101 29.0998 64.8128 28.633 65.4784 27.6908H65.5649L65.7464 28.9269H66.8096V16.5313H65.4784V20.8706H65.392C64.7091 19.9889 63.7323 19.5481 62.4703 19.5481C61.286 19.5481 60.3265 19.963 59.5918 20.8015C58.8571 21.64 58.4854 22.8069 58.4854 24.3196C58.4854 25.8323 58.8571 27.0079 59.5918 27.8464C60.3265 28.6849 61.286 29.0998 62.4703 29.0998Z" fill="#15193F"/>
<g clip-path="url(#clip0)">
<path d="M13.1134 9.25684C16.7345 9.25684 19.6701 12.1924 19.6701 15.8135L13.1134 15.8135L13.1134 9.25684Z" fill="#0038FF"/>
<path d="M13.1134 9.25684L13.1134 15.8135L6.5567 15.8135L6.5567 9.25684L13.1134 9.25684Z" fill="#86A0FF"/>
<path d="M6.5567 9.25684L6.5567 15.8135L1.40185e-05 15.8135C1.41768e-05 12.1924 2.93554 9.25684 6.5567 9.25684Z" fill="#7996FE"/>
<path d="M19.6701 15.8135L19.6701 22.3702L13.1134 22.3702L13.1134 15.8135L19.6701 15.8135Z" fill="#1A4CFF"/>
<path d="M13.1134 15.8135L13.1134 22.3702L6.55669 22.3702L6.55669 15.8135L13.1134 15.8135Z" fill="#AABCFF"/>
<path d="M6.55669 15.8135L6.55669 22.3702L8.29647e-06 22.3702L8.58307e-06 15.8135L6.55669 15.8135Z" fill="#6889FF"/>
<path d="M19.6701 22.3702C19.6701 25.9914 16.7345 28.9269 13.1134 28.9269L13.1134 22.3702L19.6701 22.3702Z" fill="#2D5BFF"/>
<path d="M13.1134 22.3702L13.1134 28.9269L6.5567 28.9269L6.5567 22.3702L13.1134 22.3702Z" fill="#3F69FF"/>
<path d="M6.55669 22.3702L6.55669 28.9269C2.93554 28.9269 1.03321e-05 25.9914 1.04904e-05 22.3702L6.55669 22.3702Z" fill="#5278FF"/>
<path d="M12.7168 24.5479C12.5058 24.4328 12.3071 24.3008 12.0967 24.1612C11.9989 24.0962 11.8976 24.0289 11.7886 23.9587C11.5224 23.7876 11.5334 23.6416 11.5367 23.6202L11.8463 23.0839C11.8579 23.0864 11.8685 23.0868 11.8789 23.0824C11.895 23.0779 11.9073 23.0718 11.9167 23.0674C11.931 23.0604 11.9488 23.0516 12.0731 23.1234C12.2032 23.1985 12.4963 23.3884 12.6593 23.4949C12.7252 23.5379 12.7754 23.5708 12.796 23.5845C12.8191 23.6426 12.8285 23.7232 12.775 23.8159C12.6666 24.0037 12.6361 24.1244 12.2277 24.0763C12.2217 24.0639 12.1815 24.1184 12.2942 24.1671C12.4071 24.2158 12.5846 24.1752 12.6644 24.1364C12.7441 24.0976 12.9749 23.9268 12.9955 23.8985L13.1222 23.9309C13.1222 23.9309 13.254 23.9498 13.3291 23.9L13.3451 23.9105L13.1861 24.186C13.1861 24.186 13.0481 24.3265 12.9978 24.512C12.9866 24.5533 12.9887 24.5772 12.9973 24.5978C12.9324 24.6175 12.8435 24.6168 12.7168 24.5479ZM2.02003 16.3448L2.05086 16.3625C2.08246 16.3808 2.12309 16.3696 2.14156 16.3376C2.15616 16.3123 2.15218 16.2821 2.13461 16.2612L2.13684 16.2574L3.72133 17.1722L4.06049 17.368L3.99309 17.4847L2.01967 16.3454L2.02003 16.3448ZM-0.927222 14.644C-0.850335 14.6134 -0.768506 14.58 -0.768506 14.58L-0.647919 14.6496L1.03486 15.6211C1.03732 15.6255 1.03942 15.6303 1.04249 15.634L1.04017 15.638L1.17822 15.7177C1.15661 15.7191 1.13584 15.7298 1.12406 15.7502C1.1056 15.7821 1.11621 15.8229 1.14789 15.8412L1.61914 16.1133C1.61914 16.1133 1.61902 16.1139 1.61893 16.114L-0.927222 14.644ZM-0.868046 13.517C-0.81579 13.4265 -0.700911 13.3949 -0.611771 13.4463L-0.301723 13.6253L-0.327885 14.0476L-0.801149 13.7743C-0.890288 13.7229 -0.920211 13.6074 -0.868046 13.517ZM2.46745 15.6613L2.50042 15.6041L3.48282 16.1713L4.11713 16.5376L4.12791 16.5777L3.95963 16.7436L2.38198 15.8328L2.42828 15.7526L2.4181 15.7467L2.46745 15.6613ZM4.69495 16.9121L4.69486 16.9123L4.98223 17.0782L4.9872 17.0793C5.19107 17.1277 5.36707 17.1954 5.52516 17.2867C5.69474 17.3846 5.80467 17.4871 5.89303 17.5693C5.9479 17.6204 5.99111 17.6607 6.03374 17.6853L6.43541 17.9172L6.44054 17.9184C6.62554 17.9607 6.78765 18.0215 6.92229 18.0992C7.07378 18.1867 7.16244 18.2779 7.22717 18.3446C7.25638 18.3747 7.28042 18.3976 7.3039 18.415C7.25866 18.3994 7.23148 18.4243 7.21445 18.44C7.19295 18.4598 7.16871 18.4822 7.05496 18.4166L6.52975 18.1133C6.48448 18.0872 6.48627 18.0789 6.48892 18.0662C6.49811 18.0227 6.48943 17.9873 6.41707 17.9456L5.79806 17.5882C5.72577 17.5464 5.69065 17.5565 5.65762 17.5863C5.64799 17.5949 5.64169 17.6006 5.59634 17.5744L5.09481 17.2849C5.04955 17.2587 5.05134 17.2504 5.05406 17.2378C5.06318 17.1942 5.0545 17.1589 4.98213 17.1171L4.71767 16.9644L4.62751 16.9131L4.53391 17.0752L4.42753 17.0138L4.53841 16.8217L4.69495 16.9121ZM22.3766 28.731C22.3725 28.6535 22.3192 28.5771 22.1982 28.4753C22.1181 28.4084 21.9674 28.2818 21.7724 28.1181C20.9268 27.408 19.3528 26.0859 18.932 25.7609C18.8285 25.6811 18.7357 25.6177 18.6478 25.567C18.4523 25.4541 18.323 25.4294 18.2091 25.4075C18.1386 25.394 18.0775 25.3824 18.0063 25.3514C17.9674 25.3345 17.9229 25.3118 17.8746 25.2839C17.6707 25.1662 17.4548 24.9911 17.4345 24.9745C17.404 24.9454 16.9381 24.5018 16.7842 24.3553C16.7339 24.3075 16.6874 24.2712 16.6458 24.2472C16.5676 24.202 16.5225 24.2094 16.5026 24.218L16.4891 24.2237L16.4798 24.2351C16.4797 24.2352 16.4788 24.2363 16.4783 24.2369C16.3462 24.1295 16.1518 23.9735 16.1518 23.9735L16.0415 23.8414C16.1769 23.5867 15.9968 23.2197 15.9238 23.1483C15.9331 23.1411 15.9421 23.1321 15.9502 23.1182C16.0005 23.0309 15.973 22.5558 15.6815 22.3875L9.9537 19.0806L9.96116 19.0677L9.92088 18.9773L9.82172 18.9201L9.82691 18.9111L10.1174 19.0788L10.2353 18.8745C10.2665 18.8206 10.272 18.8067 10.218 18.7755C10.1354 18.7278 10.0028 18.828 10.0028 18.828L9.84164 18.7349C9.86262 18.6721 9.84474 18.6057 9.79404 18.5764C9.74341 18.5472 9.67688 18.5648 9.633 18.6145L9.60295 18.5971C9.52839 18.3908 9.24014 18.3404 9.24014 18.3404L9.11956 18.2708L9.1065 18.2211L8.92807 18.1181C8.91405 17.9134 8.73977 18.0094 8.73977 18.0094L8.58114 17.9178L8.55167 17.9689L8.50492 17.9419L8.50469 17.9423C8.49814 17.9107 8.48301 17.8835 8.44589 17.8621C8.28734 17.7706 8.21255 17.8391 8.14287 17.9598L8.11149 18.0142C8.10485 18.0018 8.09481 17.9901 8.08053 17.9819C8.0636 17.9721 8.0452 17.9689 8.0292 17.9713L8.05617 17.9246C8.08464 17.8752 8.0926 17.8485 8.02652 17.8104L7.97139 17.7786C7.97107 17.7743 7.97206 17.7702 7.97111 17.7658C7.96229 17.7233 7.92701 17.6869 7.85286 17.6441C7.76108 17.5911 7.20209 17.2825 6.61027 16.9559C6.03363 16.6375 5.43734 16.3084 5.34261 16.2537C5.2798 16.2174 5.2207 16.2074 5.16606 16.2213L5.09331 16.1793C5.036 16.1462 4.91132 16.0776 4.82359 16.2295L4.83905 16.2028L2.82145 15.0379C2.79342 15.0217 2.76618 15.0088 2.73949 14.998C2.73073 14.9945 2.72229 14.9923 2.71371 14.9892C2.69589 14.9831 2.67822 14.9774 2.66095 14.9734C2.65131 14.9711 2.64182 14.9696 2.63237 14.968C2.61643 14.9653 2.60069 14.9632 2.5852 14.9622C2.57578 14.9615 2.56653 14.9612 2.55722 14.9612C2.54168 14.961 2.52631 14.9618 2.51111 14.9632C2.50272 14.9639 2.49425 14.9646 2.48599 14.9658C2.46927 14.9683 2.45288 14.9717 2.4365 14.9757C2.43016 14.9772 2.42367 14.9784 2.41739 14.9801C2.371 14.993 2.32583 15.0114 2.2812 15.0331C2.27999 15.0338 2.27883 15.0343 2.27754 15.035C2.25567 15.0458 2.23384 15.0572 2.21209 15.0692L2.20979 15.0705C2.13765 15.1105 2.06604 15.1553 1.99202 15.1949C1.98826 15.1969 1.98444 15.1987 1.98068 15.2007C1.94523 15.2194 1.90916 15.2367 1.87223 15.2515C1.87004 15.2525 1.86787 15.2535 1.86572 15.2544C1.85434 15.2589 1.84271 15.2623 1.83121 15.2663C1.77218 15.2864 1.71057 15.2992 1.64528 15.3005L1.62703 15.29L1.62405 15.29C1.52089 15.2881 1.41825 15.2567 1.30994 15.1942L1.29976 15.1883L1.2949 15.1968C1.2902 15.1959 1.285 15.1965 1.27992 15.1965L-0.282973 14.2942L-0.211889 14.1711L-0.153423 13.1058C-0.113372 13.101 -0.0601802 13.0556 -0.0210676 12.9879C0.0283237 12.9023 0.0363094 12.8146 -0.00298041 12.7919L-0.106019 12.7324L-0.110367 12.7299L-0.278552 12.6328L-0.308524 12.6155L-0.385939 12.5708C-0.425229 12.5481 -0.497196 12.5989 -0.546587 12.6845C-0.584836 12.7507 -0.597929 12.818 -0.58372 12.8557L-0.594512 12.8494L-0.599375 12.8627C-0.60065 12.8662 -0.727361 13.2101 -0.912435 13.4114C-0.913632 13.4106 -0.914719 13.41 -0.915573 13.4095C-0.930326 13.4009 -0.95574 13.3915 -0.95684 13.3911L-0.96609 13.3878L-1.08265 13.5897C-1.09163 13.6041 -1.2463 13.7189 -1.34499 13.6619L-1.35327 13.6762L-1.49141 13.5965L-1.50298 13.5898C-1.57162 13.5502 -1.68211 13.6132 -1.74983 13.7305C-1.8175 13.8477 -1.81675 13.9748 -1.74811 14.0144L-1.73654 14.0211L-1.49203 14.1622C-1.49203 14.1622 -1.34833 14.272 -1.37279 14.5127C-1.36355 14.518 -1.26349 14.6327 -1.09515 14.6833C-1.07197 14.6985 -1.04767 14.7138 -1.02143 14.729L1.6075 16.2468C1.613 16.3199 1.6411 16.4061 1.73133 16.4582L1.82389 16.5116C1.82389 16.5116 1.88641 16.4286 1.95031 16.4655L1.95932 16.4499L4.16685 17.7244C4.10657 17.8934 4.23657 17.9688 4.43714 18.0846C4.51657 18.1304 4.63514 18.2227 4.78519 18.3394C5.0673 18.5591 5.4937 18.8911 6.04383 19.2087C6.81915 19.6563 7.28786 20.0049 7.51889 20.3057C7.56671 20.3776 7.63656 20.4239 7.6986 20.4597C7.72966 20.4777 7.76191 20.4946 7.79592 20.5125C7.83153 20.5311 7.86826 20.5503 7.90507 20.5716C7.93737 20.5902 7.96673 20.5953 7.99487 20.5873C8.00665 20.5839 8.01702 20.5776 8.02713 20.5703C8.09825 20.6012 8.15413 20.5976 8.19774 20.5756L8.21572 20.595L8.22195 20.5989C8.23389 20.6067 8.7324 20.9298 9.32305 21.3129L9.41722 21.5642C9.3575 21.6529 9.08172 22.036 8.51885 22.4397C7.92868 22.8629 6.89292 23.3961 5.31053 23.5321L5.30201 23.5336C5.26191 23.5448 5.26188 23.5776 5.26172 23.6658C5.26166 23.717 5.26293 23.7921 5.26561 23.8886C5.26999 24.0504 5.27823 24.2755 5.28998 24.5577C5.31016 25.0376 5.33401 25.523 5.33429 25.5278L5.33632 25.5717L5.38 25.5724C5.38894 25.5725 6.28536 25.5812 7.46107 25.2148C8.45775 24.9044 9.84877 24.2562 11.0292 22.9245C11.0771 22.9468 11.1491 22.9892 11.1646 23.049L11.1789 23.0572C11.0897 23.2139 11.014 23.3805 11.0784 23.4651L11.0778 23.4648C11.0778 23.4648 10.9719 23.7386 10.982 23.8487L11.0429 23.8839L11.1178 23.7542C11.1178 23.7542 11.1056 23.66 11.1848 23.6381L11.2132 23.6515L11.2593 23.5716L11.2584 23.5711C11.2929 23.5703 11.3293 23.5424 11.3461 23.63C11.344 23.6317 11.3589 23.6413 11.3795 23.6532C11.3816 23.75 11.4308 23.9212 11.7016 24.0952C11.8099 24.1648 11.9106 24.2317 12.0081 24.2964C12.1882 24.4159 12.3597 24.5301 12.5393 24.6338C12.5723 24.6528 12.6054 24.6714 12.6392 24.6898C12.8295 24.7935 12.97 24.7783 13.0659 24.7408C13.0889 24.8316 13.0974 24.9909 13.0512 25.3056C12.9377 26.0801 12.9017 26.6374 12.7723 27.0096C12.6431 27.3818 12.5452 27.4772 13.0904 27.7205C13.6354 27.9638 14.0231 27.687 14.1123 27.506C14.2013 27.3251 14.2756 26.3849 14.3504 26.0081C14.4252 25.6312 14.4846 25.4688 14.6508 25.3592C14.7758 25.2768 14.956 25.1013 14.9946 24.9947L15.0255 25.015L15.1801 24.9192C15.2588 24.9953 15.4254 25.1557 15.5219 25.2424C15.5475 25.2655 15.5681 25.2856 15.5869 25.3036C15.5309 25.4573 15.7232 25.695 16.018 26.0593C16.1087 26.1714 16.2117 26.2986 16.3172 26.4357C16.7494 26.9971 19.2854 30.6087 19.5679 31.1059C19.6422 31.2367 19.7232 31.3278 19.809 31.3773C20.0014 31.4884 20.2128 31.3951 20.4052 31.1133C20.7195 30.6296 22.0985 29.1218 22.2384 28.9736C22.318 28.889 22.3812 28.8221 22.3766 28.731Z" fill="white"/>
</g>
<defs>
<clipPath id="clip0">
<rect x="19.6701" y="9.25684" width="19.6701" height="19.6701" rx="9.83504" transform="rotate(90 19.6701 9.25684)" fill="white"/>
</clipPath>
</defs>
</svg>
