<svg width="20" height="20" viewBox="0 0 20 20" fill="none" xmlns="http://www.w3.org/2000/svg">
<path fill-rule="evenodd" clip-rule="evenodd" d="M10 1.83331C7.79174 1.83331 6.00067 3.62306 6.00002 5.8321V5.83331V5.8309V5.8321C5.99272 8.03381 7.77245 9.8254 9.97408 9.83331H9.9765H10C12.2087 9.83331 14 8.04207 14 5.83331C14 3.62371 12.2087 1.83331 10 1.83331Z" fill="white"/>
<path d="M5.54905 12.1685C6.7266 11.4477 8.30762 11 10 11C11.683 11 13.2632 11.4433 14.4424 12.1592C15.5968 12.8599 16.5 13.9152 16.5 15.1756C16.5 15.8183 16.2598 16.3606 15.8418 16.7852C15.4402 17.1929 14.8985 17.4696 14.3116 17.6631C13.1432 18.0483 11.5963 18.1667 10 18.1667C8.41346 18.1667 6.86731 18.0528 5.69757 17.6727C5.11006 17.4818 4.56644 17.2078 4.16292 16.8019C3.74239 16.3789 3.5 15.8368 3.5 15.1924C3.5 13.9343 4.39543 12.8747 5.54905 12.1685Z" fill="white"/>
</svg>