<svg width="81" height="43" viewBox="0 0 81 43" fill="none" xmlns="http://www.w3.org/2000/svg">
<path fill-rule="evenodd" clip-rule="evenodd" d="M80.7282 16.9672C80.7282 11.4043 77.9569 7.01492 72.6603 7.01492C67.3413 7.01492 64.123 11.4043 64.123 16.9237C64.123 23.4644 67.9223 26.7673 73.3754 26.7673C76.0349 26.7673 78.0463 26.1806 79.566 25.3549V21.0089C78.0463 21.7477 76.3031 22.2041 74.0906 22.2041C71.9228 22.2041 70.0008 21.4652 69.7549 18.9011H80.6835C80.6835 18.6186 80.7282 17.4887 80.7282 16.9672ZM69.6879 14.9028C69.6879 12.4474 71.2299 11.4261 72.6379 11.4261C74.0012 11.4261 75.4539 12.4474 75.4539 14.9028H69.6879Z" fill="#635BFF"/>
<path fill-rule="evenodd" clip-rule="evenodd" d="M55.4958 7.01492C53.3056 7.01492 51.8977 8.01449 51.1155 8.70985L50.8249 7.3626H45.9082V32.6996L51.4954 31.5479L51.5177 25.3983C52.3223 25.9633 53.5068 26.7673 55.4735 26.7673C59.4739 26.7673 63.1168 23.6382 63.1168 16.7499C63.0944 10.4482 59.4069 7.01492 55.4958 7.01492ZM54.1549 21.9868C52.8363 21.9868 52.0541 21.5304 51.5177 20.9655L51.4954 12.9037C52.0765 12.2735 52.881 11.8389 54.1549 11.8389C56.1886 11.8389 57.5966 14.0554 57.5966 16.902C57.5966 19.8138 56.211 21.9868 54.1549 21.9868Z" fill="#635BFF"/>
<path fill-rule="evenodd" clip-rule="evenodd" d="M38.2207 5.73288L43.8302 4.55947V0.148315L38.2207 1.3V5.73288Z" fill="#635BFF"/>
<path d="M43.8302 7.38437H38.2207V26.398H43.8302V7.38437Z" fill="#635BFF"/>
<path fill-rule="evenodd" clip-rule="evenodd" d="M32.2088 8.99235L31.8513 7.38434H27.0239V26.3979H32.6111V13.5121C33.9297 11.839 36.1646 12.1432 36.8574 12.3822V7.38434C36.1422 7.12358 33.5274 6.64553 32.2088 8.99235Z" fill="#635BFF"/>
<path fill-rule="evenodd" clip-rule="evenodd" d="M21.0345 2.66898L15.5814 3.79893L15.5591 21.2045C15.5591 24.4205 18.0398 26.7891 21.3474 26.7891C23.18 26.7891 24.5209 26.4631 25.2585 26.072V21.6608C24.5433 21.9433 21.0122 22.9429 21.0122 19.7269V12.0128H25.2585V7.38435H21.0122L21.0345 2.66898Z" fill="#635BFF"/>
<path fill-rule="evenodd" clip-rule="evenodd" d="M5.9267 12.9037C5.9267 12.0562 6.64186 11.7303 7.82634 11.7303C9.52485 11.7303 11.6703 12.2301 13.3688 13.121V8.01449C11.5139 7.29741 9.68129 7.01492 7.82634 7.01492C3.28955 7.01492 0.272461 9.31828 0.272461 13.1645C0.272461 19.1619 8.76499 18.2058 8.76499 20.7916C8.76499 21.7912 7.87104 22.1171 6.61951 22.1171C4.76456 22.1171 2.39559 21.3783 0.518297 20.3788V25.5505C2.59673 26.4196 4.69752 26.7891 6.61951 26.7891C11.2681 26.7891 14.4639 24.5509 14.4639 20.6612C14.4416 14.1858 5.9267 15.3374 5.9267 12.9037Z" fill="#635BFF"/>
<path d="M0 40.7743V30H4.26558C5.31899 30 6.18694 30.3331 6.86944 30.9993C7.55687 31.6605 7.90059 32.5095 7.90059 33.5464C7.90059 34.5782 7.55687 35.4247 6.86944 36.0859C6.18694 36.7471 5.31899 37.0777 4.26558 37.0777H1.89911V40.7743H0ZM1.89911 35.3872H4.10237C4.71068 35.3872 5.17804 35.2269 5.50445 34.9063C5.83581 34.5807 6.00148 34.1274 6.00148 33.5464C6.00148 32.9603 5.83581 32.507 5.50445 32.1864C5.1731 31.8608 4.70574 31.698 4.10237 31.698H1.89911V35.3872Z" fill="#15193F"/>
<path d="M11.0855 39.3919C11.6938 39.3919 12.1735 39.2341 12.5246 38.9185C12.8807 38.5979 13.0588 38.1647 13.0588 37.6187V37.2355H11.0855C10.1755 37.2355 9.718 37.5936 9.71306 38.3099C9.71306 38.6255 9.82928 38.8859 10.0617 39.0913C10.2991 39.2917 10.6404 39.3919 11.0855 39.3919ZM10.6997 40.9246C9.87873 40.9246 9.2185 40.6867 8.71899 40.2108C8.21949 39.735 7.96973 39.1289 7.96973 38.3926C7.96973 37.6663 8.2368 37.0627 8.77092 36.5818C9.30999 36.0959 10.0543 35.853 11.0039 35.853H13.0588V35.4623C13.0588 35.0015 12.9153 34.6433 12.6285 34.3879C12.3466 34.1324 11.9584 34.0047 11.4638 34.0047C11.078 34.0047 10.7615 34.0948 10.5142 34.2752C10.267 34.4555 10.1013 34.6734 10.0172 34.9288H8.22196C8.40495 34.2025 8.78081 33.6115 9.34956 33.1557C9.9183 32.6948 10.623 32.4644 11.4638 32.4644C12.5172 32.4644 13.3357 32.7324 13.9193 33.2684C14.5078 33.7993 14.8021 34.5306 14.8021 35.4623V40.7743H13.2813L13.1329 39.775H13.0588C12.8857 40.0806 12.5889 40.3486 12.1685 40.579C11.7482 40.8094 11.2586 40.9246 10.6997 40.9246Z" fill="#15193F"/>
<path d="M17.3861 43L18.2985 40.7743L15.0344 32.6222H16.9335L19.1368 38.3926H19.211L21.4142 32.6222H23.3134L19.211 43H17.3861Z" fill="#15193F"/>
<path d="M28.5184 38.6405C28.9042 39.0863 29.3938 39.3092 29.9872 39.3092C30.5857 39.3092 31.0777 39.0863 31.4635 38.6405C31.8493 38.1947 32.0421 37.546 32.0421 36.6945C32.0421 35.843 31.8493 35.1943 31.4635 34.7485C31.0777 34.3027 30.5857 34.0798 29.9872 34.0798C29.3938 34.0798 28.9042 34.3027 28.5184 34.7485C28.1326 35.1943 27.9398 35.843 27.9398 36.6945C27.9398 37.546 28.1326 38.1947 28.5184 38.6405ZM30.2914 40.9246C29.7869 40.9246 29.3295 40.8169 28.919 40.6015C28.5085 40.3861 28.1821 40.1106 27.9398 39.775H27.8656L27.6356 40.7743H26.189V30H27.9398V33.5389H28.0139C28.1969 33.2634 28.4937 33.0154 28.9042 32.795C29.3146 32.5746 29.7771 32.4644 30.2914 32.4644C31.3448 32.4644 32.1905 32.8351 32.8285 33.5764C33.4665 34.3127 33.7855 35.3546 33.7855 36.702C33.7855 38.0444 33.4665 39.0838 32.8285 39.8201C32.1905 40.5564 31.3448 40.9246 30.2914 40.9246Z" fill="#15193F"/>
<path d="M36.2809 43L36.9852 40.7743L33.7211 32.6222H35.6202L37.8234 38.3926H37.8976L40.1009 32.6222H42L38.1058 43H36.2809Z" fill="#15193F"/>
</svg>
