<svg width="81" height="43" viewBox="0 0 81 43" fill="none" xmlns="http://www.w3.org/2000/svg">
<path d="M65.2021 10.6116C65.2513 10.1508 65.314 9.72111 65.3408 9.2914C65.3856 8.63132 65.305 7.98453 65.1483 7.34217C64.9693 6.62007 64.629 5.98214 64.1187 5.44168C63.492 4.7816 62.7175 4.38289 61.8043 4.24556C61.0119 4.12595 60.2375 4.18354 59.4764 4.4139C58.505 4.70629 57.6992 5.25118 57.0322 6.00872C55.9265 7.27129 55.2192 8.72878 54.8342 10.3502C54.7088 10.8818 54.6417 11.4178 54.6059 11.9627C54.579 12.3792 54.5701 12.7867 54.6104 13.1987C54.7044 14.16 55.0401 15.015 55.6624 15.7637C56.3831 16.632 57.3321 16.9776 58.4334 17.013C59.4451 17.044 60.327 16.6719 61.1597 16.1536C61.7864 15.7681 62.3504 15.2986 62.8832 14.8024C63.8412 13.9075 64.7231 12.9373 65.596 11.9627C65.9944 11.5153 66.4018 11.0811 66.8047 10.6337C67.4672 9.90275 68.1387 9.18508 68.7834 8.44083C69.6026 7.49722 70.5919 6.81942 71.7782 6.42515C72.2259 6.27896 72.687 6.22137 73.1615 6.19479C73.7882 6.15492 74.4015 6.21251 75.0014 6.39857C76.2907 6.79727 77.1726 7.64785 77.7008 8.85725C78.0276 9.60593 78.1753 10.3989 78.2111 11.2096C78.2246 11.5197 78.2649 11.8343 78.2559 12.1444C78.2201 13.6417 77.947 15.0903 77.2308 16.4327C76.6443 17.5269 75.8967 18.4838 74.885 19.228C74.0747 19.8261 73.1794 20.2026 72.1722 20.3267C71.4111 20.4197 70.668 20.3843 69.9294 20.1938C69.2176 20.0077 68.5864 19.6666 68.0581 19.1527C67.9283 19.0287 67.803 18.9002 67.6329 18.7363C67.1494 21.0266 66.6749 23.2682 66.2003 25.5143C64.9514 25.5143 63.7382 25.5143 62.5026 25.5143C62.5877 25.1111 62.6683 24.7169 62.7489 24.3226C62.9861 23.1796 63.2279 22.0323 63.4651 20.8893C63.5054 20.6988 63.577 20.5349 63.7158 20.3887C64.4992 19.5514 65.2692 18.7008 66.0392 17.8547C66.7823 17.0396 67.5254 16.22 68.2954 15.3739C68.3312 15.458 68.3626 15.5245 68.3894 15.5954C68.6177 16.2023 68.9356 16.7428 69.4683 17.1415C70.2427 17.7218 71.0799 17.7705 71.9528 17.3984C72.7183 17.075 73.2466 16.4947 73.6271 15.777C74.1374 14.8201 74.4508 13.8012 74.5985 12.7336C74.6925 12.0602 74.6791 11.3868 74.4955 10.7223C74.3702 10.2704 73.8509 9.85402 73.3764 9.81858C72.8123 9.77428 72.3154 9.96034 71.8364 10.2306C71.25 10.5673 70.7307 10.9925 70.2383 11.4444C69.3877 12.233 68.6446 13.119 67.9373 14.0316C67.1852 15.0017 66.4376 15.9719 65.6542 16.9155C65.0857 17.6022 64.4903 18.2667 63.8009 18.847C63.3666 19.2103 62.8921 19.4938 62.3594 19.6888C61.4462 20.021 60.5105 20.2647 59.5391 20.3134C59.0198 20.34 58.5005 20.3798 57.9813 20.3577C56.2219 20.2824 54.6283 19.7641 53.2718 18.5945C52.2019 17.6731 51.5304 16.5301 51.1454 15.1967C50.8768 14.2708 50.7381 13.3228 50.7784 12.357C50.8231 11.4001 50.9574 10.4521 51.1947 9.52176C51.4498 8.51171 51.7811 7.5238 52.2512 6.59349C52.8376 5.43725 53.5762 4.38732 54.5522 3.51903C55.8504 2.35835 57.3456 1.57423 59.0691 1.22869C59.5973 1.12237 60.1345 1.07807 60.6717 1.02933C61.2581 0.971744 61.8356 1.00718 62.4131 1.06478C63.9396 1.2154 65.3229 1.72485 66.5137 2.71276C67.6866 3.68737 68.4387 4.9145 68.8505 6.36313C68.8863 6.49603 68.8684 6.58906 68.7744 6.69095C68.1701 7.3466 67.5657 8.00668 66.9658 8.66676C66.4466 9.23824 65.9317 9.80972 65.4125 10.3768C65.3632 10.4654 65.2916 10.5274 65.2021 10.6116Z" fill="#00B3FF"/>
<path fill-rule="evenodd" clip-rule="evenodd" d="M6.87882 1.00298H6.50872C5.49186 5.86188 4.47761 10.692 3.46399 15.5192C3.13857 17.0689 2.81322 18.6183 2.48787 20.1683C2.48485 20.1864 2.48582 20.2065 2.48683 20.2273C2.48734 20.2379 2.48787 20.2487 2.48787 20.2595C2.48987 20.2655 2.49099 20.2707 2.49201 20.2753C2.49331 20.2812 2.49444 20.2864 2.497 20.2915C2.49929 20.2938 2.50271 20.296 2.50785 20.2995C2.51299 20.3029 2.51985 20.3074 2.52899 20.3143H6.43105C6.67011 19.2072 6.9036 18.1021 7.13696 16.9975C7.42097 15.6531 7.7048 14.3096 7.99827 12.9648H8.40949C8.97602 12.9593 9.54255 12.9524 10.1091 12.9454C10.959 12.935 11.8089 12.9246 12.6588 12.9191C13.4629 12.9146 14.258 12.8188 15.0439 12.6545C15.9486 12.4629 16.803 12.1618 17.5615 11.6144C18.4616 10.962 19.1104 10.1135 19.5765 9.11437C20.2024 7.76855 20.4537 6.36799 20.239 4.89444C19.9603 2.96924 18.6763 1.63255 16.771 1.23108C15.8846 1.04404 14.9936 1.0121 14.098 1.00754C12.3815 0.997766 10.6626 0.999627 8.94299 1.00149C8.25501 1.00223 7.56691 1.00298 6.87882 1.00298ZM9.03089 9.78043H8.6288C8.77812 9.07227 8.92554 8.37417 9.07178 7.68171C9.31934 6.50948 9.56349 5.35338 9.80764 4.19187C9.85217 4.19016 9.89476 4.18781 9.93592 4.18554C10.0046 4.18175 10.0692 4.17819 10.1321 4.17819C10.4199 4.17819 10.7078 4.17695 10.9956 4.17572C11.6673 4.17285 12.3389 4.16997 13.0106 4.18275C13.5589 4.19187 14.1117 4.23293 14.66 4.28768C15.8435 4.40173 16.4649 5.27765 16.3415 6.47748C16.1679 8.16545 14.9022 9.31966 13.3944 9.5432C12.7867 9.63444 12.1744 9.69375 11.5622 9.72568C10.9984 9.75307 10.4367 9.76016 9.87429 9.76725C9.59344 9.7708 9.31242 9.77435 9.03089 9.78043Z" fill="#0B41BE"/>
<path fill-rule="evenodd" clip-rule="evenodd" d="M22.5736 8.46516C22.2323 8.92692 21.9741 9.42826 21.7904 10.0176C22.8527 10.1125 23.8937 10.2003 24.9263 10.2873C25.0421 10.2971 25.1577 10.3069 25.2733 10.3166C25.281 10.2991 25.2883 10.2823 25.2954 10.2662C25.3326 10.1813 25.362 10.1142 25.3914 10.0439C25.6409 9.45025 26.074 9.07205 26.691 8.89614C27.1636 8.76421 27.6449 8.75541 28.1174 8.82577C28.3668 8.86535 28.625 8.95771 28.8438 9.08524C29.2288 9.30952 29.4432 9.66134 29.452 10.1231C29.4607 10.4881 29.382 10.8355 29.2945 11.1874C29.2594 11.3457 29.1719 11.4248 29.0188 11.4556C28.8677 11.4831 28.7172 11.5147 28.5667 11.5463C28.3074 11.6008 28.0479 11.6553 27.7849 11.6887C27.163 11.7654 26.5391 11.8302 25.9145 11.895C25.6075 11.9269 25.3004 11.9588 24.9933 11.9921C24.2801 12.0713 23.58 12.2252 22.9018 12.4715C21.6635 12.9245 20.8365 13.7732 20.4864 15.0573C20.2895 15.7654 20.2677 16.4822 20.3902 17.2034C20.5871 18.3732 21.204 19.2572 22.2323 19.8377C23.1468 20.3566 24.1313 20.4094 25.1377 20.1983C26.1703 19.9784 27.0585 19.4815 27.8068 18.7338C27.8404 18.7001 27.874 18.6672 27.9108 18.6311C27.9555 18.5874 28.005 18.539 28.0649 18.4788C28.0878 18.6205 28.1066 18.7589 28.1249 18.8941C28.1764 19.2751 28.2245 19.6309 28.3537 19.9652C28.8044 20.0224 31.6135 20.0048 31.8279 19.9388C31.8203 19.9082 31.8135 19.8784 31.8068 19.849C31.7981 19.811 31.7897 19.7738 31.7798 19.7365C31.526 18.7866 31.4866 17.8191 31.6704 16.8516C31.7794 16.2793 31.8965 15.7083 32.0135 15.1379C32.1077 14.6783 32.2019 14.2192 32.2917 13.76C32.3566 13.4254 32.4291 13.0925 32.5016 12.7597C32.6929 11.8808 32.8841 11.0026 32.9349 10.0967C32.9743 9.42826 32.8737 8.79499 32.5367 8.21449C32.0029 7.28657 31.1803 6.74125 30.1696 6.4598C29.4738 6.2663 28.7606 6.20473 28.0387 6.20033C27.2904 6.19593 26.5466 6.23551 25.8115 6.40263C24.4901 6.70607 23.3918 7.36573 22.5736 8.46516ZM28.3767 13.7894C28.4916 13.77 28.6123 13.7496 28.7431 13.7292C28.7325 13.7904 28.724 13.8456 28.7161 13.8967C28.7013 13.9927 28.6888 14.0739 28.6688 14.1514C28.631 14.291 28.5949 14.4314 28.5588 14.5717C28.4653 14.9352 28.3718 15.2988 28.2487 15.651C27.8637 16.7461 27.0279 17.3134 25.9297 17.5377C25.5927 17.608 25.2602 17.6212 24.9233 17.5377C24.3195 17.3881 23.8906 17.0275 23.7681 16.4119C23.6456 15.8006 23.7638 15.2333 24.372 14.8023C24.7439 14.5384 25.1727 14.4021 25.6059 14.2834C26.3362 14.0851 27.0827 13.9799 27.8298 13.8746C27.8615 13.8701 27.8932 13.8657 27.9249 13.8612C28.0718 13.8408 28.2187 13.816 28.3767 13.7894Z" fill="#0B41BE"/>
<path d="M1.62517 24.0271L1 27L34.2925 25.5113L35.9143 22.5428L1.62517 24.0271Z" fill="#0B41BE"/>
<path d="M49.7407 6.20449C48.6513 6.20449 47.5575 6.20897 46.4681 6.20001C46.2556 6.20001 46.1493 6.2717 46.0474 6.45539C45.1396 8.17579 44.2229 9.89172 43.3063 11.6077C42.4516 13.1981 41.6501 14.811 41.0522 16.5225C41.039 16.5628 41.0035 16.5986 40.9593 16.6658C40.8441 14.8872 40.5917 13.1623 40.3614 11.4329C40.1311 9.69907 39.892 7.96074 39.6573 6.22689C38.4307 6.22689 37.2439 6.22689 36.0482 6.22689C36.0438 6.28514 36.0349 6.32546 36.0393 6.3613C36.2475 7.57544 36.46 8.79407 36.6682 10.0082C36.8586 11.1238 37.0534 12.2394 37.2439 13.3549C37.4564 14.5915 37.669 15.828 37.8815 17.0646C38.0365 17.9696 38.3421 19.7796 38.3421 19.7796L35.1714 25.5143C37.4697 25.5143 38.9001 25.5143 38.9001 25.5143C38.9001 25.5143 44.1831 16.7734 45.5072 14.3899C46.9818 11.7376 48.4565 9.08528 49.9311 6.43298C49.9665 6.37474 49.9887 6.30754 50.0285 6.21793C49.9178 6.21345 49.8293 6.20449 49.7407 6.20449Z" fill="#0B41BE"/>
<path d="M1 39.7743V29H5.26558C6.31899 29 7.18694 29.3331 7.86944 29.9993C8.55687 30.6605 8.90059 31.5095 8.90059 32.5464C8.90059 33.5782 8.55687 34.4247 7.86944 35.0859C7.18694 35.7471 6.31899 36.0777 5.26558 36.0777H2.89911V39.7743H1ZM2.89911 34.3872H5.10237C5.71068 34.3872 6.17804 34.2269 6.50445 33.9063C6.83581 33.5807 7.00148 33.1274 7.00148 32.5464C7.00148 31.9603 6.83581 31.507 6.50445 31.1864C6.1731 30.8608 5.70574 30.698 5.10237 30.698H2.89911V34.3872Z" fill="#15193F"/>
<path d="M12.0855 38.3919C12.6938 38.3919 13.1735 38.2341 13.5246 37.9185C13.8807 37.5979 14.0588 37.1647 14.0588 36.6187V36.2355H12.0855C11.1755 36.2355 10.718 36.5936 10.7131 37.3099C10.7131 37.6255 10.8293 37.8859 11.0617 38.0913C11.2991 38.2917 11.6404 38.3919 12.0855 38.3919ZM11.6997 39.9246C10.8787 39.9246 10.2185 39.6867 9.71899 39.2108C9.21949 38.735 8.96973 38.1289 8.96973 37.3926C8.96973 36.6663 9.2368 36.0627 9.77092 35.5818C10.31 35.0959 11.0543 34.853 12.0039 34.853H14.0588V34.4623C14.0588 34.0015 13.9153 33.6433 13.6285 33.3879C13.3466 33.1324 12.9584 33.0047 12.4638 33.0047C12.078 33.0047 11.7615 33.0948 11.5142 33.2752C11.267 33.4555 11.1013 33.6734 11.0172 33.9288H9.22196C9.40495 33.2025 9.78081 32.6115 10.3496 32.1557C10.9183 31.6948 11.623 31.4644 12.4638 31.4644C13.5172 31.4644 14.3357 31.7324 14.9193 32.2684C15.5078 32.7993 15.8021 33.5306 15.8021 34.4623V39.7743H14.2813L14.1329 38.775H14.0588C13.8857 39.0806 13.5889 39.3486 13.1685 39.579C12.7482 39.8094 12.2586 39.9246 11.6997 39.9246Z" fill="#15193F"/>
<path d="M18.3861 42L19.2985 39.7743L16.0344 31.6222H17.9335L20.1368 37.3926H20.211L22.4142 31.6222H24.3134L20.211 42H18.3861Z" fill="#15193F"/>
<path d="M29.5184 37.6405C29.9042 38.0863 30.3938 38.3092 30.9872 38.3092C31.5857 38.3092 32.0777 38.0863 32.4635 37.6405C32.8493 37.1947 33.0421 36.546 33.0421 35.6945C33.0421 34.843 32.8493 34.1943 32.4635 33.7485C32.0777 33.3027 31.5857 33.0798 30.9872 33.0798C30.3938 33.0798 29.9042 33.3027 29.5184 33.7485C29.1326 34.1943 28.9398 34.843 28.9398 35.6945C28.9398 36.546 29.1326 37.1947 29.5184 37.6405ZM31.2914 39.9246C30.7869 39.9246 30.3295 39.8169 29.919 39.6015C29.5085 39.3861 29.1821 39.1106 28.9398 38.775H28.8656L28.6356 39.7743H27.189V29H28.9398V32.5389H29.0139C29.1969 32.2634 29.4937 32.0154 29.9042 31.795C30.3146 31.5746 30.7771 31.4644 31.2914 31.4644C32.3448 31.4644 33.1905 31.8351 33.8285 32.5764C34.4665 33.3127 34.7855 34.3546 34.7855 35.702C34.7855 37.0444 34.4665 38.0838 33.8285 38.8201C33.1905 39.5564 32.3448 39.9246 31.2914 39.9246Z" fill="#15193F"/>
<path d="M37.2809 42L37.9852 39.7743L34.7211 31.6222H36.6202L38.8234 37.3926H38.8976L41.1009 31.6222H43L39.1058 42H37.2809Z" fill="#15193F"/>
</svg>
