<svg width="249" height="50" viewBox="0 0 249 50" fill="none" xmlns="http://www.w3.org/2000/svg">
<g clip-path="url(#clip0)">
<path fill-rule="evenodd" clip-rule="evenodd" d="M0.0249023 31.1933C0.0249023 28.9156 1.88475 27.0688 4.1778 27.0688H49.4373C51.7313 27.0688 53.5901 28.9156 53.5901 31.1933V45.9328C53.5901 48.2092 51.7313 50.0563 49.4373 50.0563H4.1778C1.88475 50.0563 0.0249023 48.2092 0.0249023 45.9328V31.1933Z" fill="#000268"/>
<path fill-rule="evenodd" clip-rule="evenodd" d="M1.729 31.3356V45.7941C1.729 47.2172 2.89152 48.3714 4.32551 48.3714H28.0374V28.7583H4.32551C2.89152 28.7583 1.729 29.9125 1.729 31.3356ZM34.1641 38.4927C34.1641 39.4132 33.7079 40.0459 32.9525 40.0459C32.2852 40.0459 31.729 39.4132 31.729 38.5702C31.729 37.7049 32.2182 37.0616 32.9525 37.0616C33.7312 37.0616 34.1641 37.7272 34.1641 38.4927ZM29.7291 43.7723H31.729V40.6329H31.7513C32.1301 41.3209 32.8865 41.5758 33.5865 41.5758C35.3089 41.5758 36.2313 40.1564 36.2313 38.4481C36.2313 37.0509 35.3536 35.5303 33.7526 35.5303C32.8418 35.5303 31.9971 35.8968 31.5959 36.7068H31.5736V35.6645H29.7291V43.7723ZM38.9629 39.6126C38.9629 39.0584 39.4958 38.8484 40.1748 38.8484C40.4746 38.8484 40.7641 38.8694 41.0195 38.8814C41.0195 39.5576 40.5416 40.2455 39.7853 40.2455C39.3184 40.2455 38.9629 40.0129 38.9629 39.6126ZM42.9971 41.443C42.9087 40.9887 42.8863 40.5331 42.8863 40.0788V37.9269C42.8863 36.1633 41.6088 35.5303 40.1301 35.5303C39.2747 35.5303 38.53 35.6525 37.8184 35.9413L37.8524 37.2952C38.4063 36.984 39.0523 36.8619 39.6969 36.8619C40.4182 36.8619 41.0075 37.0732 41.0195 37.861C40.7641 37.8164 40.4075 37.7824 40.0854 37.7824C39.0193 37.7824 37.0961 37.9938 37.0961 39.757C37.0961 41.011 38.1182 41.5758 39.263 41.5758C40.0854 41.5758 40.6417 41.2553 41.0972 40.5331H41.1195C41.1195 40.8336 41.1522 41.1318 41.1642 41.443H42.9971ZM43.8971 43.7723C44.3086 43.8615 44.7195 43.9065 45.1417 43.9065C46.9759 43.9065 47.4087 42.4973 47.9756 41.044L50.0993 35.6645H48.098L46.9088 39.4355H46.8865L45.6416 35.6645H43.4863L45.831 41.5758C45.6863 42.0863 45.3088 42.3752 44.8192 42.3752C44.5404 42.3752 44.297 42.3412 44.0299 42.2531L43.8971 43.7723Z" fill="white"/>
<path fill-rule="evenodd" clip-rule="evenodd" d="M6.61479 38.5043C6.61479 37.7165 7.00429 37.0616 7.74896 37.0616C8.64905 37.0616 9.02656 37.7824 9.02656 38.4257C9.02656 39.3134 8.45962 39.9121 7.74896 39.9121C7.14903 39.9121 6.61479 39.4026 6.61479 38.5043ZM10.9608 35.6644H9.14894V36.7068H9.12792C8.70439 35.9966 8.01475 35.5303 7.1597 35.5303C5.35954 35.5303 4.54785 36.8183 4.54785 38.5372C4.54785 40.2455 5.53729 41.443 7.12535 41.443C7.92671 41.443 8.59368 41.1318 9.07123 40.4556H9.09358V40.7667C9.09358 41.8976 8.4713 42.4411 7.31611 42.4411C6.48205 42.4411 5.97016 42.2637 5.35954 41.9645L5.2595 43.54C5.72539 43.7068 6.51475 43.9065 7.47151 43.9065C9.80557 43.9065 10.9608 43.1407 10.9608 40.7667V35.6644ZM14.3419 33.2576H12.341V34.7216H14.3419V33.2576ZM12.3421 41.443H14.3419V35.6644H12.3421V41.443ZM19.9125 35.5972C19.7124 35.5646 19.4676 35.5303 19.2348 35.5303C18.3678 35.5303 17.8679 35.9966 17.5231 36.7291H17.5007V35.6644H15.6782V41.443H17.6785V39.0035C17.6785 37.8716 18.2017 37.1954 19.1348 37.1954C19.3689 37.1954 19.59 37.1954 19.8124 37.2609L19.9125 35.5972ZM23.3571 40.1787C22.4347 40.1787 22.0572 39.4132 22.0572 38.5595C22.0572 37.6942 22.4347 36.9288 23.3571 36.9288C24.2805 36.9288 24.6583 37.6942 24.6583 38.5595C24.6583 39.4132 24.2805 40.1787 23.3571 40.1787ZM23.3571 41.5758C25.2689 41.5758 26.7253 40.4675 26.7253 38.5595C26.7253 36.6399 25.2689 35.5303 23.3571 35.5303C21.4455 35.5303 19.9902 36.6399 19.9902 38.5595C19.9902 40.4675 21.4455 41.5758 23.3571 41.5758Z" fill="#FF0007"/>
</g>
<g clip-path="url(#clip1)">
<path d="M74.2557 37.7196C74.2455 37.4055 74.0971 37.2434 73.809 37.2328H72.2702C71.906 37.255 71.7179 37.4544 71.7091 37.8294V40.5911C71.7179 40.9782 71.9259 41.1756 72.3304 41.1868H73.7407C73.8871 41.1868 74.0088 41.1326 74.1058 41.0218C74.2072 40.9385 74.2557 40.8316 74.2557 40.699V37.7196ZM69.7334 37.3276C69.7436 36.6366 69.8978 36.1116 70.197 35.7525C70.3537 35.602 70.5496 35.4762 70.7882 35.3722C71.036 35.2614 71.2761 35.2076 71.5089 35.2076H74.3333C75.5792 35.2183 76.2125 35.8982 76.2324 37.2488V41.4055C76.2232 41.885 76.035 42.3012 75.6713 42.6491C75.311 43.015 74.8808 43.2013 74.3798 43.2124H71.7091V46.2092H69.7334V37.3276Z" fill="white"/>
<path d="M79.799 40.7856C79.799 40.9013 79.8523 40.9927 79.9566 41.0614C80.0497 41.1437 80.1671 41.1868 80.3155 41.1868H81.8329C82.1758 41.1868 82.3538 41.0542 82.364 40.7856V40.2204C82.364 39.9117 82.1831 39.7559 81.8184 39.7559H80.3155C80.1176 39.7559 79.9809 39.7888 79.9047 39.8507C79.8344 39.9238 79.799 40.0685 79.799 40.2828V40.7856ZM82.364 37.6707C82.3742 37.3678 82.1971 37.2231 81.8325 37.2328H77.8533V35.2076H82.3334C83.6385 35.2289 84.3009 35.858 84.3232 37.1002V41.3368C84.3121 41.8725 84.1477 42.3143 83.8286 42.6656C83.4949 43.0295 83.0647 43.2124 82.5376 43.2124H79.8295C78.5114 43.2013 77.8431 42.6007 77.8228 41.4069V39.7723C77.8329 38.5248 78.4716 37.8909 79.7359 37.8691H82.364V37.6707Z" fill="white"/>
<path d="M89.872 44.1836C90.0286 44.1739 90.1644 44.1178 90.2745 44.0171C90.3802 43.9232 90.4336 43.8153 90.4336 43.6929V43.2124H87.904C87.5742 43.2124 87.3104 43.1703 87.1135 43.0866C86.9054 43.0106 86.6984 42.8688 86.4898 42.6675C86.2924 42.4541 86.1503 42.231 86.064 41.9978C85.9743 41.7844 85.9287 41.5129 85.9287 41.1868V35.2076H87.904V40.5451C87.904 40.9729 88.079 41.1868 88.4336 41.1868H89.8283C89.9942 41.1868 90.1382 41.1326 90.259 41.0218C90.3754 40.9279 90.4336 40.8166 90.4336 40.6859V35.2076H92.3928V44.0283C92.3817 44.681 92.2139 45.2037 91.8904 45.6C91.5621 45.9963 91.113 46.199 90.5402 46.2092H85.9287V44.1836H89.872Z" fill="white"/>
<path d="M93.9443 41.1868H97.4647C97.7867 41.1756 97.954 41.0469 97.9642 40.8001V40.6182C97.9642 40.5654 97.9482 40.5069 97.9172 40.444C97.8386 40.2911 97.7421 40.2151 97.6272 40.2151H95.8818C95.3638 40.2049 94.922 40.0268 94.5505 39.6833C94.1747 39.3658 93.9822 38.9753 93.971 38.5171V37.0068C93.9914 35.8285 94.633 35.2289 95.8968 35.2076H99.9797V37.2328H96.5205C96.1146 37.2328 95.9099 37.3571 95.9099 37.6049V37.8009C95.9099 38.0578 96.1189 38.1866 96.5355 38.1866H98.2756C98.7392 38.1972 99.1344 38.3743 99.4637 38.7198C99.7964 39.0677 99.9691 39.4815 99.9797 39.962V41.4394C99.9691 41.8545 99.7765 42.2688 99.4065 42.682C99.2261 42.8848 99.0413 43.0241 98.8565 43.103C98.6655 43.1756 98.406 43.2124 98.0748 43.2124H93.9443V41.1868Z" fill="white"/>
<path d="M103.361 40.7856C103.361 40.9013 103.414 40.9927 103.521 41.0614C103.613 41.1437 103.731 41.1868 103.877 41.1868H105.397C105.74 41.1868 105.917 41.0542 105.927 40.7856V40.2204C105.927 39.9117 105.744 39.7559 105.381 39.7559H103.877C103.68 39.7559 103.543 39.7888 103.468 39.8507C103.397 39.9238 103.361 40.0685 103.361 40.2828V40.7856ZM105.927 37.6707C105.936 37.3678 105.759 37.2231 105.394 37.2328H101.416V35.2076H105.897C107.201 35.2289 107.864 35.858 107.884 37.1002V41.3368C107.874 41.8725 107.708 42.3143 107.391 42.6656C107.059 43.0295 106.629 43.2124 106.101 43.2124H103.391C102.073 43.2013 101.405 42.6007 101.386 41.4069V39.7723C101.395 38.5248 102.033 37.8909 103.298 37.8691H105.927V37.6707Z" fill="white"/>
<path d="M109.49 34.0593C109.502 33.5125 109.704 33.0736 110.1 32.7446C110.484 32.4102 110.988 32.2384 111.612 32.2287H112.867V34.1852H112.107C111.689 34.1948 111.476 34.3942 111.467 34.7794V35.2081H112.867V37.2352H111.467V43.2134H109.49V34.0593Z" fill="white"/>
<path d="M118.486 37.633V37.586C118.486 37.482 118.444 37.3934 118.359 37.3276C118.266 37.2638 118.154 37.2328 118.019 37.2328H116.643C116.467 37.2328 116.325 37.2821 116.215 37.3833C116.078 37.4767 116.008 37.5996 116.008 37.751V38.564L118.486 37.633ZM116.04 40.4957V40.622C116.04 40.7842 116.082 40.9129 116.168 41.0063C116.23 41.1258 116.314 41.1868 116.425 41.1868H120.483V43.2124H116.168C115.774 43.2124 115.467 43.1756 115.25 43.1021C115.013 43.0241 114.8 42.8969 114.615 42.7198C114.397 42.5054 114.25 42.2872 114.175 42.0626C114.094 41.8284 114.054 41.5178 114.054 41.1306L114.037 37.077C114.058 35.8522 114.7 35.2289 115.96 35.2076H118.623C119.853 35.2289 120.476 35.874 120.496 37.1462V38.7474L116.04 40.4957Z" fill="white"/>
<path d="M124.678 43.2124C124.379 43.2124 124.106 43.1848 123.858 43.1345C123.599 43.0924 123.34 42.9724 123.076 42.7697C122.805 42.534 122.617 42.2698 122.514 41.978C122.406 41.691 122.353 41.3659 122.353 41V37.2202C122.342 36.912 122.373 36.6415 122.445 36.4068C122.512 36.1726 122.652 35.9432 122.863 35.7187C123.103 35.483 123.348 35.3262 123.607 35.2493C123.857 35.1869 124.137 35.1554 124.452 35.1554H127.48V35.6292H124.523C124 35.6292 123.59 35.7361 123.29 35.9505C122.983 36.1842 122.826 36.5873 122.826 37.1554V40.9376C122.826 41.2037 122.867 41.4626 122.948 41.7123C123.031 41.9577 123.169 42.173 123.367 42.3612C123.583 42.5243 123.797 42.6259 124.006 42.6676C124.224 42.7155 124.458 42.7382 124.705 42.7382H127.528V43.2124H124.678Z" fill="white"/>
<path d="M135.269 38.3085H131.299C130.824 38.3192 130.451 38.4658 130.183 38.7484C129.905 39.0354 129.768 39.4288 129.768 39.9287V41.135C129.768 41.3688 129.792 41.5826 129.843 41.7752C129.893 41.978 130.018 42.159 130.214 42.3143C130.557 42.5979 130.937 42.7382 131.352 42.7382H133.758C134.763 42.7276 135.269 42.1991 135.269 41.15V38.3085ZM135.741 41.032C135.741 41.3363 135.717 41.6035 135.678 41.8386C135.614 42.0941 135.483 42.3404 135.283 42.5746C134.869 43.0106 134.355 43.2231 133.741 43.2124H131.381C130.767 43.2124 130.27 43.0295 129.885 42.6656C129.492 42.3061 129.292 41.8062 129.292 41.165V39.9466C129.312 38.5718 129.999 37.8677 131.351 37.8358H135.283V37.3025C135.283 36.8631 135.156 36.4784 134.902 36.1474C134.741 35.9326 134.55 35.7889 134.334 35.7148C134.115 35.6577 133.87 35.6292 133.597 35.6292H129.307V35.1554H133.373C133.745 35.1554 134.082 35.1816 134.386 35.2329C134.543 35.2638 134.685 35.3248 134.816 35.4129C134.955 35.4966 135.085 35.619 135.206 35.7797C135.57 36.249 135.748 36.7905 135.741 37.4003V41.032Z" fill="white"/>
<path d="M140.18 35.6292C139.079 35.6495 138.536 36.249 138.557 37.4288V43.2124H138.084V37.4307C138.062 35.9132 138.786 35.1554 140.256 35.1554H140.782V35.6292H140.18Z" fill="white"/>
<path d="M148.177 35.6315H144.435C144.165 35.6315 143.924 35.6615 143.706 35.7186C143.478 35.7699 143.258 35.9078 143.052 36.1324C142.855 36.3371 142.73 36.5398 142.679 36.7426C142.609 36.9473 142.578 37.1926 142.589 37.4786V41.1659C142.589 41.7791 142.767 42.1962 143.128 42.4202C143.306 42.5243 143.501 42.6022 143.72 42.6544C143.938 42.7125 144.182 42.7411 144.45 42.7411H146.086C146.697 42.7411 147.197 42.6007 147.582 42.3176C147.968 42.052 148.164 41.5937 148.177 40.9404V35.6315ZM148.649 40.9729C148.608 42.4991 147.798 43.2472 146.222 43.2158H144.468C144.097 43.2158 143.766 43.1833 143.473 43.1219C143.171 43.044 142.883 42.8606 142.605 42.5746C142.396 42.3176 142.261 42.0578 142.208 41.7916C142.135 41.526 142.104 41.2303 142.115 40.9075V37.4665C142.135 35.9166 142.918 35.1462 144.464 35.1578H148.177V32.5452H148.649V40.9729Z" fill="white"/>
<path d="M58.7592 34.9035C58.9144 34.8353 59.0696 34.782 59.2248 34.7486C59.51 33.3898 60.7161 32.3707 62.1617 32.3707C63.6084 32.3707 64.815 33.3913 65.0997 34.7496C65.5434 34.8338 65.9105 35.0129 66.1967 35.2795C66.2083 35.0187 66.1976 34.7675 66.1666 34.5309C65.9838 32.4782 64.2587 30.8672 62.1554 30.8672C59.9901 30.8672 58.2272 32.5798 58.1356 34.7206C58.123 34.9054 58.1191 35.098 58.1259 35.2993C58.3077 35.1464 58.5153 35.009 58.7592 34.9035Z" fill="#E3001B"/>
<path d="M64.5115 35.2076H59.6861C59.4538 35.2076 59.2133 35.2614 58.9654 35.3722C58.7264 35.4762 58.5304 35.602 58.3733 35.7525C58.0741 36.1116 57.9208 36.6366 57.9102 37.3276V41.0914C57.9208 41.7839 58.0741 42.3085 58.3733 42.6656C58.5304 42.8185 58.7264 42.9443 58.9654 43.0493C59.2133 43.1577 59.4538 43.2124 59.6861 43.2124H64.5115C65.7579 43.2013 66.3917 42.519 66.4116 41.1703V37.2487C66.3917 35.8982 65.7579 35.2183 64.5115 35.2076Z" fill="#E3001B"/>
</g>
<g clip-path="url(#clip2)">
<path fill-rule="evenodd" clip-rule="evenodd" d="M75.2592 21.6885C75.2592 22.3621 74.7092 22.9123 74.0357 22.9123H39.8944C39.2209 22.9123 38.6709 22.3621 38.6709 21.6885V1.26294C38.6709 0.589259 39.2209 0.039093 39.8944 0.039093H74.0358C74.7093 0.039093 75.2593 0.589259 75.2593 1.26294L75.2592 21.6885Z" fill="#14477C"/>
<path fill-rule="evenodd" clip-rule="evenodd" d="M61.355 18.0366L61.6918 18.03L62.029 18.0094L62.3587 17.961L62.6818 17.906L62.998 17.8304L63.3141 17.7482L63.6165 17.6379L63.919 17.5214L64.2074 17.3902L64.4892 17.246L64.7645 17.0877L65.0326 16.9162L65.2938 16.7306L65.5413 16.5381L65.7748 16.3318L66.0081 16.1115L66.2215 15.8846L66.4281 15.644L66.6271 15.3964L66.8127 15.1424L66.9776 14.8741L67.1429 14.5993L67.2801 14.3174L67.4177 14.0219L67.5346 13.7259L67.6379 13.4168L67.7272 13.1072L67.8024 12.7911L67.8578 12.4608L67.8991 12.138L67.9263 11.8007L67.933 11.4644L67.9263 11.1271L67.8991 10.7902L67.8578 10.467L67.8024 10.1444L67.7272 9.82766L67.6379 9.51865L67.5346 9.20895L67.4177 8.91351L67.2801 8.62455L67.1429 8.34276L66.9776 8.06783L66.8127 7.79968L66.6271 7.54549L66.4281 7.29793L66.2215 7.05739L66.0081 6.83049L65.7748 6.61724L65.5413 6.41101L65.2938 6.21186L65.0326 6.03284L64.7645 5.86084L64.4892 5.70302L64.2074 5.55831L63.919 5.42771L63.6165 5.31121L63.3141 5.2079L62.998 5.11862L62.6818 5.04299L62.3587 4.98802L62.029 4.94669L61.6918 4.91902L61.355 4.91238L61.0182 4.91902L60.6886 4.94669L60.3584 4.98802L60.0357 5.04299L59.7191 5.11862L59.4031 5.2079L59.1002 5.31121L58.8049 5.42771L58.516 5.55831L58.2342 5.70302L57.9595 5.86084L57.6913 6.03284L57.4372 6.21186L57.1892 6.41101L56.9488 6.61724L56.7224 6.83049L56.502 7.05739L56.303 7.29793L56.1033 7.54549L55.9248 7.79968L55.7529 8.06783L55.5951 8.34276L55.4504 8.62455L55.3199 8.91351L55.2029 9.20895L55.1001 9.51865L55.0108 9.82766L54.9348 10.1444L54.8803 10.467L54.8389 10.7902L54.8112 11.1271L54.8042 11.4644L54.8112 11.8007L54.8389 12.138L54.8803 12.4608L54.9348 12.7911L55.0108 13.1072L55.1001 13.4168L55.2029 13.7259L55.3199 14.0219L55.4504 14.3174L55.5951 14.5993L55.7529 14.8741L55.9248 15.1424L56.1033 15.3964L56.303 15.644L56.502 15.8846L56.7224 16.1115L56.9488 16.3318L57.1892 16.5381L57.4372 16.7306L57.6913 16.9162L57.9595 17.0877L58.2342 17.246L58.516 17.3902L58.8049 17.5214L59.1002 17.6379L59.4031 17.7482L59.7191 17.8304L60.0357 17.906L60.3584 17.961L60.6886 18.0094L61.0182 18.03L61.355 18.0366Z" fill="#FBB230"/>
<path fill-rule="evenodd" clip-rule="evenodd" d="M52.5779 18.0366L52.9146 18.03L53.2443 18.0094L53.5745 17.961L53.8972 17.906L54.2138 17.8304L54.5303 17.7482L54.8323 17.6379L55.1277 17.5214L55.4167 17.3902L55.6984 17.246L55.9732 17.0877L56.2413 16.9162L56.4955 16.7306L56.7435 16.5381L56.984 16.3318L57.2103 16.1115L57.4307 15.8846L57.6302 15.644L57.8294 15.3964L58.0079 15.1424L58.1797 14.8741L58.3375 14.5993L58.4823 14.3174L58.6129 14.0219L58.7298 13.7259L58.8326 13.4168L58.9223 13.1072L58.998 12.7911L59.0525 12.4608L59.0937 12.138L59.1215 11.8007L59.1285 11.4644L59.1215 11.1271L59.0937 10.7902L59.0525 10.467L58.998 10.1444L58.9223 9.82766L58.8326 9.51865L58.7298 9.20895L58.6129 8.91351L58.4823 8.62455L58.3375 8.34276L58.1797 8.06783L58.0079 7.79968L57.8294 7.54549L57.6302 7.29793L57.4307 7.05739L57.2103 6.83049L56.984 6.61724L56.7435 6.41101L56.4955 6.21186L56.2413 6.03284L55.9732 5.86084L55.6984 5.70302L55.4167 5.55831L55.1277 5.42771L54.8323 5.31121L54.5303 5.2079L54.2138 5.11862L53.8972 5.04299L53.5745 4.98802L53.2443 4.94669L52.9146 4.91902L52.5779 4.91238L52.2411 4.91902L51.9039 4.94669L51.5741 4.98802L51.2511 5.04299L50.9354 5.11862L50.6189 5.2079L50.3164 5.31121L50.0139 5.42771L49.7255 5.55831L49.4438 5.70302L49.1684 5.86084L48.9008 6.03284L48.6396 6.21186L48.3917 6.41101L48.1582 6.61724L47.9247 6.83049L47.7115 7.05739L47.5048 7.29793L47.3058 7.54549L47.1202 7.79968L46.9553 8.06783L46.79 8.34276L46.6528 8.62455L46.5152 8.91351L46.3983 9.20895L46.2955 9.51865L46.2057 9.82766L46.1372 10.1444L46.0751 10.467L46.0343 10.7902L46.0066 11.1271L46 11.4644L46.0066 11.8007L46.0343 12.138L46.0751 12.4608L46.1372 12.7911L46.2057 13.1072L46.2955 13.4168L46.3983 13.7259L46.5152 14.0219L46.6528 14.3174L46.79 14.5993L46.9553 14.8741L47.1202 15.1424L47.3058 15.3964L47.5048 15.644L47.7115 15.8846L47.9247 16.1115L48.1582 16.3318L48.3917 16.5381L48.6396 16.7306L48.9008 16.9162L49.1684 17.0877L49.4438 17.246L49.7255 17.3902L50.0139 17.5214L50.3164 17.6379L50.6189 17.7482L50.9354 17.8304L51.2511 17.906L51.5741 17.961L51.9039 18.0094L52.2411 18.03L52.5779 18.0366Z" fill="#EB2230"/>
<path fill-rule="evenodd" clip-rule="evenodd" d="M56.1997 7.42854H59.685V7.07095H56.5021L56.1997 7.42854Z" fill="#FBB230"/>
<path fill-rule="evenodd" clip-rule="evenodd" d="M55.6777 8.21915H59.6853V7.86157H55.8839L55.6777 8.21915Z" fill="#FBB230"/>
<path fill-rule="evenodd" clip-rule="evenodd" d="M55.2856 9.00977H59.685V8.65219H55.4439L55.2856 9.00977Z" fill="#FBB230"/>
<path fill-rule="evenodd" clip-rule="evenodd" d="M55.0176 9.80044H59.6851V9.44995H55.1274L55.0176 9.80044Z" fill="#FBB230"/>
<path fill-rule="evenodd" clip-rule="evenodd" d="M55.1754 13.6366H59.6986V13.2792H55.0659L55.1754 13.6366Z" fill="#FBB230"/>
<path fill-rule="evenodd" clip-rule="evenodd" d="M55.5057 14.4273H59.6988V14.0698H55.3408L55.5057 14.4273Z" fill="#FBB230"/>
<path fill-rule="evenodd" clip-rule="evenodd" d="M55.9798 15.218H59.6985V14.8605H55.7529L55.9798 15.218Z" fill="#FBB230"/>
<path fill-rule="evenodd" clip-rule="evenodd" d="M56.6261 16.0086H59.6985V15.6511H56.3101L56.6261 16.0086Z" fill="#FBB230"/>
<path fill-rule="evenodd" clip-rule="evenodd" d="M54.8599 10.5911H59.6852V10.2402H54.9285L54.8599 10.5911Z" fill="#FBB230"/>
<path fill-rule="evenodd" clip-rule="evenodd" d="M57.8013 12.846H59.6436V12.4885H57.8703L57.8013 12.846Z" fill="#FBB230"/>
<path fill-rule="evenodd" clip-rule="evenodd" d="M57.9458 12.0553H59.6439V11.6978H58.0149L57.9458 12.0553Z" fill="#FBB230"/>
<path fill-rule="evenodd" clip-rule="evenodd" d="M54.7358 11.6978H55.2169V12.0553H54.7637L54.7358 11.6978Z" fill="#FBB230"/>
<path fill-rule="evenodd" clip-rule="evenodd" d="M67.3007 15.163C67.4727 15.163 67.6103 15.3072 67.6103 15.4721C67.6103 15.6441 67.4727 15.7817 67.3007 15.7817C67.1288 15.7817 66.9917 15.6441 66.9917 15.4721C66.9917 15.3072 67.1288 15.163 67.3007 15.163ZM67.3007 15.218C67.4454 15.218 67.5619 15.3349 67.5619 15.4721C67.5619 15.6168 67.4455 15.7337 67.3007 15.7337C67.1636 15.7337 67.0461 15.6169 67.0461 15.4721C67.0461 15.3349 67.1636 15.218 67.3007 15.218Z" fill="#FBB230"/>
<path d="M67.1846 15.611V15.3485H67.2949C67.3223 15.3485 67.3431 15.3485 67.3572 15.3557C67.3704 15.3623 67.378 15.3693 67.3845 15.376C67.3912 15.3901 67.3982 15.4038 67.3982 15.4175C67.3982 15.4382 67.3912 15.459 67.3845 15.4661C67.3704 15.4798 67.3501 15.4869 67.3288 15.4935C67.343 15.5006 67.35 15.5076 67.3571 15.5142C67.3637 15.5213 67.3779 15.535 67.3845 15.5557L67.4189 15.611H67.357L67.3151 15.5487C67.3079 15.5279 67.2947 15.5214 67.2877 15.5143C67.2877 15.5076 67.2806 15.5076 67.2739 15.5006C67.2669 15.5006 67.2599 15.5006 67.2461 15.5006H67.2391V15.611H67.1846ZM67.2393 15.459H67.2742C67.3015 15.459 67.3153 15.459 67.3223 15.4524C67.3289 15.4524 67.3366 15.4524 67.3366 15.4453C67.3432 15.4382 67.3432 15.4317 67.3432 15.4245C67.3432 15.4174 67.3432 15.4108 67.3366 15.4038C67.3289 15.3966 67.3223 15.3966 67.3154 15.39C67.3154 15.39 67.3016 15.39 67.2809 15.39H67.2394V15.459H67.2393Z" fill="#FBB230"/>
<path fill-rule="evenodd" clip-rule="evenodd" d="M67.2324 12.5778C67.4043 12.5778 67.5415 12.7154 67.5415 12.8874C67.5415 13.0594 67.4043 13.1965 67.2324 13.1965C67.0605 13.1965 66.9233 13.0594 66.9233 12.8874C66.9233 12.7154 67.0605 12.5778 67.2324 12.5778ZM67.2324 12.6327C67.377 12.6327 67.4936 12.7496 67.4936 12.8874C67.4936 13.0315 67.3771 13.1486 67.2324 13.1486C67.0878 13.1486 66.9712 13.0315 66.9712 12.8874C66.9712 12.7497 67.0877 12.6327 67.2324 12.6327Z" fill="white"/>
<path d="M67.1152 13.0192V12.7634H67.2257C67.2534 12.7634 67.2742 12.7634 67.2879 12.7704C67.295 12.7704 67.3082 12.7842 67.3153 12.7912C67.3223 12.8049 67.3289 12.8185 67.3289 12.8328C67.3289 12.8535 67.3223 12.8672 67.3082 12.8808C67.3016 12.8946 67.2809 12.9016 67.2601 12.9087C67.2672 12.9153 67.2809 12.9224 67.2879 12.9294C67.295 12.936 67.3016 12.9498 67.3153 12.9706L67.3501 13.0192H67.2879L67.2463 12.9639C67.2326 12.9432 67.2255 12.9294 67.2185 12.9294C67.2119 12.9224 67.2119 12.9153 67.2052 12.9153C67.1976 12.9153 67.1911 12.9153 67.1774 12.9153H67.1637V13.0191H67.1152V13.0192ZM67.1638 12.8743H67.2053C67.2326 12.8743 67.2463 12.8743 67.2534 12.8672C67.2601 12.8672 67.2672 12.8601 67.2672 12.8601C67.2742 12.8535 67.2742 12.8464 67.2742 12.8394C67.2742 12.8328 67.2672 12.8186 67.2672 12.8186C67.2601 12.812 67.2534 12.8049 67.2464 12.8049C67.2395 12.8049 67.2257 12.8049 67.2054 12.8049H67.1639V12.8743H67.1638Z" fill="white"/>
<path fill-rule="evenodd" clip-rule="evenodd" d="M62.8125 13.0658L63.2591 10.7287H63.8158L63.8848 10.9692C63.9877 10.8659 64.1595 10.7287 64.5033 10.7287L64.3315 11.3474C64.1802 11.3474 63.9463 11.3197 63.7543 11.7735C63.61 12.1174 63.541 12.6877 63.4653 13.0658H62.8125Z" fill="white"/>
<path fill-rule="evenodd" clip-rule="evenodd" d="M54.3854 10.1443H55.0034L54.8662 10.763H55.2101L55.1068 11.2441H54.7977L54.6258 12.1724C54.5916 12.3443 54.6258 12.5163 54.9696 12.4472L54.9011 12.963C54.53 13.2449 53.787 13.0387 53.9039 12.3443L54.3854 10.1443Z" fill="white"/>
<path fill-rule="evenodd" clip-rule="evenodd" d="M57.1416 12.0347C57.2102 11.6566 57.3821 10.7287 56.2756 10.7287C55.2447 10.7287 55.107 11.7599 55.107 11.897C55.0732 12.0347 55.0732 13.0658 56.1727 13.0658C56.4474 13.0658 56.8325 13.0315 57.0044 12.9629L57.1073 12.4814C57.0044 12.5162 56.6536 12.5504 56.3788 12.5504C56.1384 12.5504 55.726 12.5504 55.7946 12.0346H57.1416V12.0347Z" fill="white"/>
<path fill-rule="evenodd" clip-rule="evenodd" d="M49.6425 13.0659L50.1924 10.2472H49.1202L48.3639 11.9661L48.2263 10.2472H47.2297L46.6797 13.0659H47.2983L47.7111 11.0379L47.883 13.0659H48.4673L49.3606 11.0722L48.9825 13.0659H49.6425Z" fill="white"/>
<path fill-rule="evenodd" clip-rule="evenodd" d="M50.3639 10.7973L50.261 11.3131C50.4329 11.3131 50.8452 11.2441 51.0514 11.2441C51.2576 11.2441 51.5325 11.2099 51.4296 11.5537C51.2576 11.5537 50.1233 11.3817 49.9514 12.3786C49.8556 13.0386 50.639 13.2793 51.1199 12.963L51.1889 13.1002H51.7728L52.0137 11.8284C52.2679 10.6803 51.1614 10.6596 50.3639 10.7973Z" fill="white"/>
<path fill-rule="evenodd" clip-rule="evenodd" d="M60.5997 11.0036C60.4415 10.9072 60.3451 10.9072 60.146 10.9072C59.9535 10.9072 59.4997 11.0998 59.4378 11.6152C59.3414 12.2616 59.7609 12.5505 60.3724 12.3579L60.5378 12.908C59.4932 13.4304 58.4958 12.6191 58.826 11.354C59.0937 10.3984 60.3588 9.82112 60.9915 10.6117L60.5997 11.0036Z" fill="white"/>
<path fill-rule="evenodd" clip-rule="evenodd" d="M66.0503 11.0035C64.366 9.73836 63.7128 13.0659 65.0189 13.0659C65.2251 13.0659 65.4317 12.963 65.569 12.894L65.6375 13.0659H66.3251L66.8752 10.1096H66.2219L66.0503 11.0035Z" fill="white"/>
<path fill-rule="evenodd" clip-rule="evenodd" d="M61.094 10.7973L60.9911 11.3131C61.1625 11.3131 61.5754 11.2441 61.7811 11.2441C61.9878 11.2441 62.2283 11.2099 62.1597 11.5537C61.9878 11.5537 60.8535 11.3817 60.6821 12.3786C60.6125 12.8597 61.0254 13.1002 61.3349 13.1002C61.6439 13.1002 61.7472 13.0316 61.8501 12.963L61.9187 13.1002H62.5034L62.7439 11.8284C63.0052 10.6803 61.8981 10.6596 61.094 10.7973Z" fill="white"/>
<path fill-rule="evenodd" clip-rule="evenodd" d="M55.7944 11.588H56.5849C56.6742 10.9622 55.925 11.0862 55.7944 11.588Z" fill="#EB2230"/>
<path fill-rule="evenodd" clip-rule="evenodd" d="M51.3269 12.0347C51.2236 12.0347 50.9831 11.9661 50.7764 12.1038C50.5707 12.2409 50.5017 12.4815 50.7426 12.5505C50.9483 12.619 51.2236 12.4815 51.2921 12.2752L51.3269 12.0347Z" fill="#EB2230"/>
<path fill-rule="evenodd" clip-rule="evenodd" d="M65.7406 11.3817C65.5344 11.1064 65.0878 11.3132 64.9502 11.8284C64.8473 12.1723 65.0535 12.4129 65.2597 12.4129C65.6928 12.413 65.9539 11.705 65.7406 11.3817Z" fill="#FBB230"/>
<path fill-rule="evenodd" clip-rule="evenodd" d="M62.0905 12.0347C61.9878 12.0347 61.7472 11.9661 61.5406 12.1038C61.3349 12.2409 61.2658 12.4815 61.5068 12.5505C61.7125 12.619 62.0221 12.4815 62.0563 12.2752L62.0905 12.0347Z" fill="#FBB230"/>
<path fill-rule="evenodd" clip-rule="evenodd" d="M57.1416 13.1002L57.1764 12.8597L57.5887 10.763H58.1383L58.2069 11.0035C58.3102 10.9002 58.4821 10.763 58.8259 10.763L58.6539 11.3817C58.5234 11.3817 58.2482 11.354 58.042 11.9041C57.9251 12.2203 57.8565 12.7568 57.7945 13.1002H57.1416Z" fill="white"/>
<path fill-rule="evenodd" clip-rule="evenodd" d="M53.815 11.3268H53.7872H53.76L53.7329 11.3198L53.7052 11.3131H53.6775L53.6502 11.306C53.5262 11.2925 53.4233 11.2854 53.2999 11.2925C52.9833 11.3197 52.8462 11.5188 53.1139 11.6701C53.3271 11.7941 53.4924 11.7734 53.6362 11.9111C53.9458 12.1996 53.7874 12.7567 53.4436 12.9696L53.3821 12.9972L53.3135 13.0249L53.238 13.0451L53.1694 13.0658C52.8392 13.1208 52.3926 13.1071 52.0693 12.9972L52.1587 12.5364C52.4198 12.5913 52.8463 12.7083 53.0454 12.5711C53.2723 12.4199 53.0661 12.2408 52.9007 12.1653L52.8186 12.138L52.7364 12.1038C52.0831 11.8077 52.2348 11.0171 52.8529 10.8522C53.1004 10.7973 53.348 10.7973 53.6025 10.8179H53.6503C53.7124 10.8246 53.7674 10.8317 53.8223 10.8452H53.8495L53.8702 10.8522H53.8908L53.9044 10.8593H53.9251L53.815 11.3268Z" fill="white"/>
</g>
<g clip-path="url(#clip3)">
<path fill-rule="evenodd" clip-rule="evenodd" d="M36.6483 21.6608C36.6483 22.335 36.1038 22.8786 35.4284 22.8786H1.18639C0.510765 22.8786 -0.0336914 22.335 -0.0336914 21.6608V1.21139C-0.0336914 0.53715 0.510765 -0.00637817 1.18639 -0.00637817H35.4284C36.1038 -0.00637817 36.6483 0.53715 36.6483 1.21139V21.6608Z" fill="#3A58A8"/>
<path fill-rule="evenodd" clip-rule="evenodd" d="M16.8472 14.8764H15.0552L16.1786 8.0025H17.9707L16.8472 14.8764Z" fill="white"/>
<path fill-rule="evenodd" clip-rule="evenodd" d="M13.546 8.0025L11.8434 12.73L11.6366 11.7116L11.0368 8.62218C11.0368 8.62218 10.9613 8.0025 10.1822 8.0025H7.36316L7.32861 8.11948C7.32861 8.11948 8.1902 8.29865 9.20352 8.90429L10.7613 14.8764H12.6292L15.4757 8.0025H13.546Z" fill="white"/>
<path fill-rule="evenodd" clip-rule="evenodd" d="M27.6412 14.8764H29.2883L27.8547 8.0025H26.4143C25.7456 8.0025 25.5874 8.51879 25.5874 8.51879L22.9126 14.8764H24.7806L25.1532 13.8514H27.4345L27.6412 14.8764ZM25.6697 12.4479L26.614 9.87421L27.1447 12.4479H25.6697Z" fill="white"/>
<path fill-rule="evenodd" clip-rule="evenodd" d="M23.0578 9.65426L23.3127 8.1817C23.3127 8.1817 22.5199 7.87885 21.7 7.87885C20.8108 7.87885 18.695 8.27098 18.695 10.1564C18.695 11.9318 21.1759 11.9524 21.1759 12.8881C21.1759 13.8172 18.95 13.6516 18.2192 13.0603L17.9502 14.6085C17.9502 14.6085 18.75 14.994 19.9769 14.994C21.1964 14.994 23.0438 14.3607 23.0438 12.6403C23.0438 10.8584 20.5418 10.6864 20.5418 9.90859C20.5418 9.13805 22.286 9.23434 23.0578 9.65426Z" fill="white"/>
<path fill-rule="evenodd" clip-rule="evenodd" d="M11.6366 11.7116L11.0368 8.62218C11.0368 8.62218 10.9613 8.0025 10.1822 8.0025H7.36316L7.32861 8.11948C7.32861 8.11948 8.68666 8.40158 9.98913 9.4543C11.23 10.4591 11.6366 11.7116 11.6366 11.7116Z" fill="#FAA634"/>
</g>
<g clip-path="url(#clip4)">
<g clip-path="url(#clip5)">
<path fill-rule="evenodd" clip-rule="evenodd" d="M152.564 21.6539C152.564 22.3266 152.012 22.876 151.337 22.876H117.095C116.419 22.876 115.868 22.3266 115.868 21.6539V1.25629C115.868 0.583074 116.419 0.0341187 117.095 0.0341187H151.337C152.012 0.0341187 152.564 0.583074 152.564 1.25629V21.6539H152.564Z" fill="#872165"/>
<path fill-rule="evenodd" clip-rule="evenodd" d="M140.693 8.45782L142.519 8.12859V15.1107H140.693V8.45782ZM143.361 8.45782V15.1107H145.188V8.12859L143.361 8.45782ZM138.087 15.1107H139.921V10.0027H138.087V15.1107ZM126.016 10.7238C125.788 10.7096 125.257 10.6754 125.257 10.1951C125.257 9.61846 126.023 9.61846 126.312 9.61846C126.822 9.61846 127.477 9.76914 127.946 9.90657C127.946 9.90657 128.208 10.0027 128.428 10.0919L128.449 10.0989V10.0783V8.51979L128.422 8.50609C127.87 8.31384 127.222 8.12852 126.029 8.12852C123.975 8.12852 123.244 9.32289 123.244 10.3456C123.244 10.9363 123.492 12.323 125.857 12.4882C126.057 12.4953 126.588 12.5294 126.588 13.0234C126.588 13.4353 126.153 13.6755 125.423 13.6755C124.616 13.6755 123.844 13.4701 123.368 13.2777V14.9117C124.079 15.097 124.871 15.1861 125.809 15.1861C127.822 15.1861 128.718 14.0536 128.718 12.9343C128.718 11.6644 127.712 10.8401 126.016 10.7238ZM137.06 9.9272C135.37 9.9821 134.516 10.7375 134.516 12.241V15.1107H136.356V12.7697C136.356 11.8699 136.474 11.4857 137.542 11.4515V9.95492C137.363 9.92065 137.06 9.9272 137.06 9.9272ZM132.103 9.99573C132.061 10.0988 131.772 10.9227 131.062 11.7742V8.12852L129.18 8.49901V15.1106H131.062V13.0647C131.613 13.882 131.882 15.1106 131.882 15.1106H134.137C133.916 14.1836 132.937 12.4812 132.937 12.4812C133.813 11.3758 134.199 10.1951 134.261 9.99565H132.103V9.99573ZM139.004 9.51522C139.5 9.51522 139.907 9.11702 139.907 8.61588C139.907 8.12144 139.5 7.72308 139.004 7.72308C138.507 7.72308 138.101 8.12136 138.101 8.61588C138.101 9.11702 138.507 9.51522 139.004 9.51522Z" fill="white"/>
</g>
</g>
<path d="M190.75 46.1477C190.75 47.2293 189.75 48.1125 188.526 48.1125H156.356C155.132 48.1125 154.132 47.2293 154.132 46.1477V27.2045C154.132 26.1229 155.132 25.2398 156.356 25.2398H188.515C189.739 25.2398 190.738 26.1229 190.738 27.2045V46.1477H190.75Z" fill="white"/>
<path d="M183.552 31.6302H182.227H176.096H174.771L173.873 32.5233L170.976 35.4109L170.077 36.304H168.752H162.734H161.409L162.285 35.401L162.7 34.9743L163.576 34.0713H162.251H160.544H159.59C158.86 34.0713 158.265 34.6171 158.265 35.272V37.594V37.8123C158.265 38.4772 158.86 39.013 159.59 39.013H159.96H173.884H174.883C175.613 39.013 176.613 38.6062 177.095 38.1199L179.409 35.7979L183.552 31.6302Z" fill="#004E91"/>
<path d="M185.315 28.9212C186.045 28.9212 186.64 29.467 186.64 30.1219V32.6622C186.64 33.3271 186.045 33.8629 185.315 33.8629H184.596H182.654H181.329L182.216 32.9698L182.654 32.5233L183.541 31.6302H174.76L170.077 36.2941H161.353L167.607 30.0425L167.843 29.8044C168.337 29.3181 169.336 28.9113 170.066 28.9113H170.369H185.315V28.9212Z" fill="#FFDD00"/>
<path d="M186.64 44.3318V43.9646C186.64 43.915 186.606 43.8852 186.528 43.8852H186.258C186.18 43.8852 186.123 43.8753 186.112 43.8455C186.09 43.8158 186.09 43.7562 186.09 43.657V42.2678H186.528C186.561 42.2678 186.584 42.2578 186.606 42.238C186.629 42.2182 186.64 42.1983 186.64 42.1685V41.7815C186.64 41.7518 186.629 41.7319 186.606 41.7121C186.584 41.6922 186.561 41.6823 186.528 41.6823H186.09V41.1762C186.09 41.1465 186.079 41.1266 186.067 41.1167C186.045 41.1068 186.022 41.0968 186 41.0968H185.989L185.337 41.1961C185.304 41.206 185.281 41.2159 185.259 41.2258C185.236 41.2457 185.225 41.2655 185.225 41.2854V41.6724H184.787C184.754 41.6724 184.731 41.6823 184.709 41.7021C184.686 41.722 184.675 41.7418 184.675 41.7716V42.0892C184.675 42.1189 184.686 42.1388 184.709 42.1487C184.731 42.1685 184.754 42.1785 184.787 42.1884L185.225 42.2479V43.6372C185.225 43.8058 185.248 43.9448 185.281 44.0539C185.326 44.1631 185.382 44.2425 185.45 44.302C185.528 44.3615 185.618 44.4012 185.73 44.4211C185.843 44.4409 185.978 44.4508 186.123 44.4508C186.202 44.4508 186.269 44.4508 186.337 44.4409C186.393 44.431 186.472 44.4211 186.55 44.4112C186.606 44.4112 186.64 44.3814 186.64 44.3318ZM184.304 44.2822V43.8555C184.304 43.8257 184.293 43.8058 184.271 43.7959C184.248 43.786 184.226 43.7761 184.203 43.7761H184.192C184.091 43.786 183.99 43.7959 183.9 43.7959C183.81 43.8058 183.687 43.8058 183.53 43.8058C183.473 43.8058 183.406 43.7959 183.361 43.7761C183.305 43.7562 183.26 43.7265 183.215 43.6868C183.17 43.6471 183.148 43.5875 183.125 43.5181C183.103 43.4486 183.092 43.3593 183.092 43.2502V42.8532C183.092 42.7441 183.103 42.6548 183.125 42.5853C183.148 42.5158 183.182 42.4563 183.215 42.4166C183.26 42.3769 183.305 42.3472 183.361 42.3273C183.417 42.3075 183.473 42.2975 183.53 42.2975C183.687 42.2975 183.81 42.2975 183.9 42.3075C183.99 42.3174 184.091 42.3174 184.192 42.3273H184.203C184.237 42.3273 184.259 42.3174 184.271 42.3075C184.293 42.2975 184.304 42.2777 184.304 42.2479V41.8212C184.304 41.7815 184.293 41.7617 184.282 41.7518C184.259 41.7418 184.237 41.722 184.192 41.7121C184.114 41.6922 184.024 41.6823 183.9 41.6625C183.777 41.6426 183.642 41.6426 183.473 41.6426C183.092 41.6426 182.789 41.7418 182.553 41.9502C182.328 42.1586 182.205 42.4563 182.205 42.8532V43.2502C182.205 43.6372 182.317 43.9448 182.553 44.1532C182.777 44.3615 183.092 44.4608 183.473 44.4608C183.631 44.4608 183.777 44.4508 183.9 44.4409C184.024 44.4211 184.125 44.4112 184.192 44.3913C184.237 44.3814 184.259 44.3715 184.282 44.3516C184.304 44.3417 184.304 44.3119 184.304 44.2822ZM180.79 43.7761C180.722 43.8058 180.655 43.8257 180.576 43.8455C180.498 43.8654 180.419 43.8753 180.341 43.8753C180.228 43.8753 180.138 43.8654 180.082 43.8356C180.026 43.8058 180.004 43.7463 180.004 43.6372V43.5975C180.004 43.5379 180.015 43.4883 180.026 43.4486C180.037 43.4089 180.071 43.3692 180.105 43.3395C180.138 43.3097 180.195 43.2898 180.251 43.27C180.307 43.2601 180.386 43.2502 180.487 43.2502H180.79V43.7761ZM181.643 42.6151C181.643 42.4365 181.609 42.2876 181.553 42.1685C181.497 42.0495 181.407 41.9502 181.306 41.8708C181.194 41.7915 181.07 41.7319 180.913 41.7021C180.756 41.6625 180.576 41.6426 180.386 41.6426C180.206 41.6426 180.026 41.6525 179.858 41.6724C179.689 41.6922 179.555 41.7121 179.454 41.7418C179.386 41.7617 179.352 41.7915 179.352 41.851V42.238C179.352 42.2678 179.364 42.2876 179.375 42.3075C179.397 42.3174 179.42 42.3273 179.442 42.3273H179.465C179.51 42.3273 179.566 42.3174 179.622 42.3174C179.689 42.3174 179.757 42.3075 179.835 42.3075C179.914 42.3075 180.004 42.2975 180.094 42.2975C180.183 42.2975 180.273 42.2975 180.352 42.2975C180.475 42.2975 180.576 42.3174 180.644 42.3571C180.711 42.3968 180.756 42.4861 180.756 42.625V42.7937H180.464C180.004 42.7937 179.656 42.8532 179.454 42.9822C179.24 43.1112 179.139 43.3196 179.139 43.5975V43.6372C179.139 43.7959 179.162 43.9249 179.218 44.0242C179.274 44.1333 179.341 44.2127 179.431 44.2822C179.521 44.3417 179.611 44.3913 179.723 44.4211C179.835 44.4508 179.948 44.4608 180.071 44.4608C180.228 44.4608 180.374 44.4409 180.487 44.4012C180.599 44.3615 180.711 44.3119 180.823 44.2425V44.3218C180.823 44.3516 180.835 44.3715 180.857 44.3913C180.88 44.4112 180.902 44.4211 180.936 44.4211H181.542C181.576 44.4211 181.598 44.4112 181.621 44.3913C181.643 44.3715 181.654 44.3516 181.654 44.3218V42.6151H181.643ZM178.757 44.3318V43.9646C178.757 43.915 178.724 43.8852 178.645 43.8852H178.387C178.308 43.8852 178.252 43.8753 178.241 43.8455C178.218 43.8158 178.218 43.7562 178.218 43.657V42.2678H178.656C178.69 42.2678 178.712 42.2578 178.735 42.238C178.757 42.2182 178.769 42.1983 178.769 42.1685V41.7815C178.769 41.7518 178.757 41.7319 178.735 41.7121C178.712 41.6922 178.69 41.6823 178.656 41.6823H178.218V41.1762C178.218 41.1465 178.207 41.1266 178.196 41.1167C178.173 41.1068 178.151 41.0968 178.129 41.0968H178.117L177.466 41.1961C177.432 41.206 177.41 41.2159 177.387 41.2258C177.365 41.2457 177.354 41.2655 177.354 41.2854V41.6724H176.916C176.882 41.6724 176.86 41.6823 176.837 41.7021C176.815 41.722 176.804 41.7418 176.804 41.7716V42.0892C176.804 42.1189 176.815 42.1388 176.837 42.1487C176.86 42.1685 176.882 42.1785 176.916 42.1884L177.354 42.2479V43.6372C177.354 43.8058 177.376 43.9448 177.41 44.0539C177.455 44.1631 177.511 44.2425 177.578 44.302C177.646 44.3615 177.747 44.4012 177.859 44.4211C177.971 44.4409 178.106 44.4508 178.252 44.4508C178.331 44.4508 178.398 44.4508 178.465 44.4409C178.522 44.431 178.6 44.4211 178.679 44.4112C178.724 44.4112 178.757 44.3814 178.757 44.3318ZM176.399 44.3218V42.7342C176.399 42.5853 176.388 42.4464 176.354 42.3075C176.332 42.1785 176.276 42.0594 176.208 41.9602C176.141 41.8609 176.04 41.7815 175.916 41.7319C175.793 41.6724 175.636 41.6426 175.434 41.6426C175.265 41.6426 175.108 41.6625 174.973 41.7021C174.838 41.7418 174.704 41.8014 174.547 41.9006V41.7815C174.547 41.7518 174.535 41.7319 174.513 41.7121C174.49 41.6922 174.468 41.6823 174.434 41.6823H173.828C173.794 41.6823 173.772 41.6922 173.749 41.7121C173.727 41.7319 173.716 41.7518 173.716 41.7815V44.3218C173.716 44.3516 173.727 44.3715 173.749 44.3913C173.772 44.4112 173.794 44.4211 173.828 44.4211H174.479C174.513 44.4211 174.535 44.4112 174.558 44.3913C174.58 44.3715 174.591 44.3516 174.591 44.3218V42.4464C174.681 42.4067 174.771 42.367 174.861 42.3372C174.94 42.3075 175.029 42.2975 175.108 42.2975C175.187 42.2975 175.254 42.3075 175.31 42.3174C175.366 42.3273 175.4 42.3571 175.434 42.3868C175.467 42.4265 175.479 42.4662 175.49 42.5258C175.501 42.5853 175.501 42.6548 175.501 42.7342V44.3218C175.501 44.3516 175.512 44.3715 175.535 44.3913C175.557 44.4112 175.58 44.4211 175.613 44.4211H176.265C176.298 44.4211 176.321 44.4112 176.343 44.3913C176.388 44.3715 176.399 44.3417 176.399 44.3218ZM172.312 43.2204C172.312 43.6074 172.155 43.8058 171.829 43.8058C171.672 43.8058 171.548 43.7562 171.47 43.657C171.391 43.5578 171.346 43.4089 171.346 43.2204V42.883C171.346 42.6845 171.391 42.5456 171.47 42.4464C171.548 42.3472 171.672 42.2975 171.829 42.2975C172.144 42.2975 172.312 42.496 172.312 42.883V43.2204ZM173.188 42.883C173.188 42.6945 173.154 42.5158 173.098 42.367C173.042 42.2182 172.952 42.0892 172.84 41.98C172.727 41.8708 172.581 41.7915 172.413 41.7319C172.245 41.6724 172.054 41.6426 171.829 41.6426C171.605 41.6426 171.414 41.6724 171.245 41.7319C171.077 41.7915 170.931 41.8708 170.819 41.98C170.706 42.0892 170.616 42.2182 170.56 42.367C170.504 42.5158 170.47 42.6945 170.47 42.883V43.2204C170.47 43.4089 170.504 43.5875 170.56 43.7364C170.616 43.8852 170.706 44.0142 170.819 44.1234C170.931 44.2325 171.077 44.3119 171.245 44.3715C171.414 44.431 171.605 44.4608 171.829 44.4608C172.054 44.4608 172.245 44.431 172.413 44.3715C172.581 44.3119 172.727 44.2325 172.84 44.1234C172.952 44.0142 173.042 43.8852 173.098 43.7364C173.154 43.5875 173.188 43.4089 173.188 43.2204V42.883ZM170.178 44.2822V43.8555C170.178 43.8257 170.167 43.8058 170.145 43.7959C170.122 43.786 170.1 43.7761 170.066 43.7761H170.055C169.954 43.786 169.853 43.7959 169.763 43.7959C169.673 43.7959 169.55 43.8058 169.392 43.8058C169.336 43.8058 169.269 43.7959 169.224 43.7761C169.168 43.7562 169.123 43.7265 169.078 43.6868C169.033 43.6471 169.011 43.5875 168.988 43.5181C168.966 43.4486 168.955 43.3593 168.955 43.2502V42.8532C168.955 42.7441 168.966 42.6548 168.988 42.5853C169.011 42.5158 169.044 42.4563 169.078 42.4166C169.123 42.3769 169.168 42.3472 169.224 42.3273C169.28 42.3075 169.336 42.2975 169.392 42.2975C169.55 42.2975 169.673 42.2975 169.763 42.3075C169.853 42.3174 169.954 42.3174 170.055 42.3273H170.066C170.1 42.3273 170.122 42.3174 170.145 42.3075C170.167 42.2975 170.178 42.2777 170.178 42.2479V41.8212C170.178 41.7815 170.167 41.7617 170.156 41.7518C170.134 41.7418 170.111 41.722 170.066 41.7121C169.988 41.6922 169.898 41.6823 169.774 41.6625C169.651 41.6426 169.516 41.6426 169.348 41.6426C168.966 41.6426 168.663 41.7418 168.427 41.9502C168.202 42.1586 168.079 42.4563 168.079 42.8532V43.2502C168.079 43.6372 168.191 43.9448 168.427 44.1532C168.651 44.3615 168.966 44.4608 169.348 44.4608C169.505 44.4608 169.651 44.4508 169.774 44.4409C169.898 44.4211 169.988 44.4112 170.066 44.3913C170.111 44.3814 170.134 44.3715 170.156 44.3516C170.178 44.3417 170.178 44.3119 170.178 44.2822ZM167.528 44.3218V42.7342C167.528 42.5853 167.517 42.4464 167.484 42.3075C167.461 42.1785 167.405 42.0594 167.338 41.9602C167.27 41.8609 167.169 41.7815 167.046 41.7319C166.922 41.6724 166.765 41.6426 166.563 41.6426C166.394 41.6426 166.237 41.6625 166.102 41.7021C165.968 41.7418 165.833 41.8014 165.676 41.9006V41.7815C165.676 41.7518 165.664 41.7319 165.642 41.7121C165.62 41.6922 165.597 41.6823 165.563 41.6823H164.957C164.923 41.6823 164.901 41.6922 164.878 41.7121C164.856 41.7319 164.845 41.7518 164.845 41.7815V44.3218C164.845 44.3516 164.856 44.3715 164.878 44.3913C164.901 44.4112 164.923 44.4211 164.957 44.4211H165.608C165.642 44.4211 165.664 44.4112 165.687 44.3913C165.709 44.3715 165.721 44.3516 165.721 44.3218V42.4464C165.81 42.4067 165.9 42.367 165.99 42.3372C166.069 42.3075 166.159 42.2975 166.237 42.2975C166.316 42.2975 166.383 42.3075 166.439 42.3174C166.495 42.3273 166.529 42.3571 166.563 42.3868C166.596 42.4265 166.608 42.4662 166.619 42.5258C166.63 42.5853 166.63 42.6548 166.63 42.7342V44.3218C166.63 44.3516 166.641 44.3715 166.664 44.3913C166.686 44.4112 166.709 44.4211 166.742 44.4211H167.394C167.427 44.4211 167.45 44.4112 167.472 44.3913C167.506 44.3715 167.528 44.3417 167.528 44.3218ZM163.351 43.7761C163.284 43.8058 163.217 43.8257 163.138 43.8455C163.059 43.8654 162.981 43.8753 162.902 43.8753C162.79 43.8753 162.7 43.8654 162.644 43.8356C162.588 43.8058 162.565 43.7463 162.565 43.6372V43.5975C162.565 43.5379 162.577 43.4883 162.588 43.4486C162.599 43.4089 162.633 43.3692 162.666 43.3395C162.7 43.3097 162.756 43.2898 162.812 43.27C162.868 43.2601 162.947 43.2502 163.048 43.2502H163.351V43.7761ZM164.216 42.6151C164.216 42.4365 164.182 42.2876 164.126 42.1685C164.07 42.0495 163.98 41.9502 163.879 41.8708C163.767 41.7915 163.643 41.7319 163.486 41.7021C163.329 41.6625 163.149 41.6426 162.958 41.6426C162.779 41.6426 162.599 41.6525 162.431 41.6724C162.262 41.6922 162.127 41.7121 162.026 41.7418C161.959 41.7617 161.925 41.7915 161.925 41.851V42.238C161.925 42.2678 161.936 42.2876 161.948 42.3075C161.97 42.3174 161.993 42.3273 162.015 42.3273H162.038C162.082 42.3273 162.139 42.3174 162.195 42.3174C162.262 42.3174 162.33 42.3075 162.419 42.3075C162.498 42.3075 162.588 42.2975 162.678 42.2975C162.767 42.2975 162.857 42.2975 162.936 42.2975C163.059 42.2975 163.16 42.3174 163.228 42.3571C163.295 42.3968 163.34 42.4861 163.34 42.625V42.7937H163.048C162.588 42.7937 162.24 42.8532 162.038 42.9822C161.835 43.1112 161.723 43.3196 161.723 43.5975V43.6372C161.723 43.7959 161.746 43.9249 161.802 44.0242C161.858 44.1333 161.925 44.2127 162.015 44.2822C162.105 44.3417 162.195 44.3913 162.307 44.4211C162.419 44.4508 162.532 44.4608 162.655 44.4608C162.812 44.4608 162.958 44.4409 163.071 44.4012C163.183 44.3615 163.295 44.3119 163.407 44.2425V44.3218C163.407 44.3516 163.419 44.3715 163.441 44.3913C163.464 44.4112 163.486 44.4211 163.52 44.4211H164.126C164.16 44.4211 164.182 44.4112 164.205 44.3913C164.227 44.3715 164.238 44.3516 164.238 44.3218V42.6151H164.216ZM160.353 43.3692C160.353 43.4982 160.297 43.6074 160.196 43.6768C160.095 43.7463 159.893 43.786 159.623 43.786H159.534C159.489 43.786 159.444 43.786 159.399 43.786C159.354 43.786 159.309 43.786 159.264 43.786H159.174V42.8929H159.781C159.994 42.8929 160.151 42.9326 160.23 43.0219C160.308 43.1112 160.353 43.2105 160.353 43.3196V43.3692ZM160.331 41.9502C160.331 41.9998 160.32 42.0495 160.308 42.0991C160.286 42.1487 160.263 42.1884 160.218 42.2182C160.174 42.2479 160.117 42.2777 160.05 42.2975C159.983 42.3174 159.893 42.3273 159.781 42.3273H159.174V41.5037C159.197 41.5037 159.219 41.5037 159.253 41.5037C159.286 41.5037 159.331 41.5037 159.376 41.5037H159.5H159.59C159.87 41.5037 160.061 41.5335 160.174 41.593C160.286 41.6525 160.342 41.7518 160.342 41.8808V41.9502H160.331ZM161.252 43.3196C161.252 43.1509 161.207 43.012 161.117 42.8929C161.027 42.7738 160.915 42.6746 160.769 42.6151C160.915 42.5555 161.027 42.4563 161.106 42.3372C161.184 42.2082 161.229 42.0693 161.229 41.9205V41.8311C161.229 41.6426 161.184 41.4838 161.106 41.3548C161.027 41.2258 160.903 41.1266 160.757 41.0472C160.611 40.9678 160.432 40.9182 160.218 40.8785C160.005 40.8488 159.781 40.8289 159.522 40.8289C159.432 40.8289 159.343 40.8289 159.253 40.8289C159.163 40.8289 159.073 40.8388 158.983 40.8388C158.893 40.8388 158.815 40.8488 158.736 40.8587C158.658 40.8686 158.602 40.8686 158.557 40.8785C158.456 40.8984 158.377 40.9182 158.332 40.9678C158.287 41.0075 158.265 41.0869 158.265 41.1961V44.0936C158.265 44.2028 158.287 44.2722 158.332 44.3218C158.377 44.3615 158.456 44.3913 158.557 44.4112C158.613 44.4211 158.68 44.431 158.747 44.431C158.826 44.4409 158.905 44.4409 158.995 44.4508C159.084 44.4508 159.174 44.4608 159.264 44.4608C159.354 44.4608 159.455 44.4608 159.545 44.4608C159.781 44.4608 160.005 44.4409 160.207 44.4112C160.409 44.3814 160.6 44.3218 160.746 44.2425C160.903 44.1631 161.016 44.0539 161.117 43.915C161.207 43.7761 161.252 43.5975 161.252 43.3891V43.3196Z" fill="#004E91"/>
<path d="M201.994 37.9488H197.752V45.1604H201.994V37.9488Z" fill="#494949"/>
<path d="M201.994 37.9488V45.1604H197.752" fill="black"/>
<path d="M199.873 37.0155C201.185 37.0155 202.249 35.9519 202.249 34.6399C202.249 33.3279 201.185 32.2643 199.873 32.2643C198.561 32.2643 197.498 33.3279 197.498 34.6399C197.498 35.9519 198.561 37.0155 199.873 37.0155Z" fill="#494949"/>
<path d="M201.528 32.9431C202.461 33.8764 202.461 35.4035 201.528 36.3368C200.594 37.2701 199.067 37.2701 198.134 36.3368" fill="black"/>
<path d="M210.053 25.222H194.782V48.1295H210.053C213.023 48.0871 215.908 47.2811 217.774 45.6691C220.023 43.7601 221.125 40.7058 221.125 36.6333C221.125 34.6819 220.786 32.9427 220.192 31.4579C219.641 30.0156 218.835 28.8278 217.774 27.8521C215.865 26.1976 213.023 25.2644 210.053 25.222ZM209.629 26.9188C212.556 26.9188 215.017 27.64 216.714 29.1247C218.623 30.8216 219.598 33.2396 219.598 36.6333C219.556 43.3359 216.289 46.4327 209.629 46.4327C209.12 46.4327 197.751 46.4327 196.479 46.4327C196.479 45.16 196.479 28.1915 196.479 26.9188C197.751 26.9188 209.078 26.9188 209.629 26.9188Z" fill="black"/>
<path d="M212.303 34.9793C212.939 34.9793 212.43 34.9793 213.066 34.9793C212.981 34.9793 212.812 34.2582 212.685 33.9188C212.557 34.2582 212.345 34.9793 212.303 34.9793Z" fill="#CC1B69"/>
<path d="M204.794 36.1247C204.922 36.0823 205.006 35.9975 205.091 35.955C205.176 35.8702 205.219 35.7429 205.261 35.6157C205.303 35.446 205.346 35.1914 205.346 34.8945C205.346 34.5975 205.303 34.3854 205.261 34.2158C205.219 34.0885 205.134 33.9612 205.049 33.8764C204.964 33.7915 204.837 33.7915 204.709 33.7491C204.625 33.7491 204.455 33.7491 204.073 33.7491C204.073 33.7491 204.073 33.7491 203.649 33.7491V36.2944C204.073 36.2944 204.285 36.2944 204.285 36.2944C204.54 36.252 204.709 36.1247 204.794 36.1247Z" fill="#CC1B69"/>
<path d="M215.146 37.1004V32.8582H216.419C216.419 32.8582 216.419 35.4035 216.419 35.8277C216.419 35.8277 217.776 35.8277 218.158 35.8277C217.776 29.8887 213.237 28.6161 208.995 28.6161H203.692V32.8582H204.414C204.753 32.8582 205.007 32.8158 205.22 32.9007C205.474 32.9855 205.686 33.0703 205.856 33.2825C206.026 33.4521 206.153 33.6642 206.28 33.9612C206.365 34.2157 206.407 34.5551 206.407 34.9369C206.407 35.2763 206.365 35.5732 206.28 35.8277C206.195 36.1247 206.026 36.3792 205.813 36.5913C205.644 36.7186 205.474 36.9307 205.22 37.0155C205.05 37.058 204.795 37.1852 204.456 37.1852H203.692V45.2453H208.995C213.449 45.2453 218.158 43.9727 218.201 37.1852H215.146V37.1004ZM210.48 37.1004H207.086V32.8582H210.056V33.7067C210.056 33.7067 208.359 33.7067 207.935 33.7067V34.1309C208.359 34.1309 210.056 34.1309 210.056 34.1309V35.4035C210.056 35.4035 208.359 35.4035 207.935 35.4035C207.935 35.4035 207.935 35.8277 207.935 36.252C208.359 36.252 210.48 36.252 210.48 36.252V37.1004ZM213.746 37.1004C213.746 37.1004 213.449 36.252 213.407 36.252C213.28 36.252 212.092 36.252 211.965 36.252C211.922 36.252 211.625 37.1004 211.625 37.1004H210.522L212.177 32.8582H213.195L214.892 37.1004H213.746Z" fill="#F42588"/>
<path d="M203.692 32.8594H204.413C204.752 32.8594 205.007 32.817 205.219 32.9018C205.474 32.9867 205.686 33.0715 205.855 33.2836C206.025 33.4533 206.152 33.6654 206.28 33.9624C206.364 34.2169 206.407 34.5563 206.407 34.9381C206.407 35.2774 206.364 35.5744 206.28 35.8289C206.195 36.1259 206.025 36.3804 205.813 36.5925C205.643 36.7198 205.474 36.9319 205.219 37.0167C205.049 37.0591 204.795 37.1864 204.455 37.1864H203.692V45.2465H208.995C213.449 45.2465 218.158 43.9738 218.2 37.1864H215.146V32.8594H216.418C216.418 32.8594 216.418 35.4047 216.418 35.8289C216.418 35.8289 217.776 35.8289 218.158 35.8289C217.776 29.8899 213.152 28.7445 208.91 28.7445L203.692 32.8594ZM210.055 37.1016H207.086V32.8594H210.055V33.7078C210.055 33.7078 208.358 33.7078 207.934 33.7078V34.5563C208.231 34.5563 207.849 34.5563 210.055 34.5563V35.4047C210.055 35.4047 208.358 35.4047 207.934 35.4047C207.934 35.4047 207.934 35.8289 207.934 36.2531C208.358 36.2531 210.055 36.2531 210.055 36.2531V37.1016ZM213.746 37.1016C213.746 37.1016 213.449 36.2531 213.406 36.2531C213.279 36.2531 212.091 36.2531 211.964 36.2531C211.922 36.2531 211.625 37.1016 211.625 37.1016H210.522L212.176 32.8594H213.194L214.891 37.1016H213.746Z" fill="#CC1B69"/>
<path d="M216.418 32.8582C216.418 32.8582 216.418 35.4035 216.418 35.8277C217.903 35.8277 217.436 35.8277 218.157 35.8277C218.03 34.1309 217.733 33.0279 217.054 32.0098L216.164 32.8582H216.418Z" fill="#B50662"/>
<path d="M215.145 33.6642L213.957 34.9793L214.848 37.1004H213.745C213.745 37.1004 213.448 36.252 213.406 36.252C213.363 36.252 213.151 36.252 212.897 36.252L203.691 45.0756V45.1605H208.994C213.448 45.1605 218.157 43.8878 218.2 37.1004H215.145V33.6642Z" fill="#B50662"/>
<path d="M194.782 25.222V48.1295L196.479 46.4327C196.479 44.9055 196.479 28.1915 196.479 26.9188C197.751 26.9188 209.078 26.9188 209.629 26.9188C211.708 26.9188 213.49 27.3006 215.017 27.9793L216.247 26.7915C214.508 25.7734 212.175 25.2644 210.053 25.222H194.782Z" fill="#494949"/>
<path d="M201.863 37.9528H197.508V45.3553H201.863V37.9528Z" fill="#D7D7D7"/>
<path d="M201.863 37.9528V45.3553H197.508" fill="white"/>
<path d="M199.685 36.9948C201.032 36.9948 202.123 35.9031 202.123 34.5564C202.123 33.2097 201.032 32.1179 199.685 32.1179C198.338 32.1179 197.247 33.2097 197.247 34.5564C197.247 35.9031 198.338 36.9948 199.685 36.9948Z" fill="#D7D7D7"/>
<path d="M201.383 32.8147C202.341 33.7726 202.341 35.3402 201.383 36.2982C200.425 37.2561 198.858 37.2561 197.9 36.2982" fill="white"/>
<path d="M210.135 24.8893H194.459V48.4029H210.135C213.183 48.3594 216.144 47.532 218.06 45.8774C220.368 43.9179 221.5 40.7827 221.5 36.6025C221.5 34.5995 221.151 32.8142 220.542 31.2902C219.976 29.8097 219.148 28.5905 218.06 27.589C216.1 25.8908 213.183 24.9328 210.135 24.8893ZM209.699 26.631C212.704 26.631 215.229 27.3712 216.971 28.8953C218.931 30.637 219.932 33.119 219.932 36.6025C219.889 43.4825 216.536 46.6612 209.699 46.6612C209.177 46.6612 197.507 46.6612 196.201 46.6612C196.201 45.3548 196.201 27.9373 196.201 26.631C197.507 26.631 209.133 26.631 209.699 26.631Z" fill="white"/>
<path d="M212.443 34.9048C213.097 34.9048 212.574 34.9048 213.227 34.9048C213.14 34.9048 212.966 34.1645 212.835 33.8162C212.705 34.1645 212.487 34.9048 212.443 34.9048Z" fill="#CC1B69"/>
<path d="M204.736 36.0805C204.867 36.0369 204.954 35.9499 205.041 35.9063C205.128 35.8192 205.172 35.6886 205.215 35.558C205.259 35.3838 205.302 35.1225 205.302 34.8177C205.302 34.5129 205.259 34.2952 205.215 34.121C205.172 33.9904 205.085 33.8597 204.997 33.7727C204.91 33.6856 204.78 33.6856 204.649 33.642C204.562 33.642 204.388 33.642 203.996 33.642C203.996 33.642 203.996 33.642 203.561 33.642V36.2547C203.996 36.2547 204.214 36.2547 204.214 36.2547C204.475 36.2111 204.649 36.0805 204.736 36.0805Z" fill="#CC1B69"/>
<path d="M215.362 37.082V32.7276H216.668C216.668 32.7276 216.668 35.3402 216.668 35.7757C216.668 35.7757 218.062 35.7757 218.453 35.7757C218.062 29.6795 213.402 28.3732 209.048 28.3732H203.605V32.7276H204.345C204.694 32.7276 204.955 32.684 205.173 32.7711C205.434 32.8582 205.652 32.9453 205.826 33.163C206 33.3372 206.131 33.5549 206.261 33.8597C206.348 34.121 206.392 34.4693 206.392 34.8612C206.392 35.2096 206.348 35.5144 206.261 35.7757C206.174 36.0805 206 36.3417 205.782 36.5594C205.608 36.6901 205.434 36.9078 205.173 36.9949C204.998 37.0384 204.737 37.1691 204.389 37.1691H203.605V45.4424H209.048C213.62 45.4424 218.453 44.1361 218.497 37.1691H215.362V37.082ZM210.572 37.082H207.088V32.7276H210.137V33.5985C210.137 33.5985 208.395 33.5985 207.959 33.5985V34.0339C208.395 34.0339 210.137 34.0339 210.137 34.0339V35.3402C210.137 35.3402 208.395 35.3402 207.959 35.3402C207.959 35.3402 207.959 35.7757 207.959 36.2111C208.395 36.2111 210.572 36.2111 210.572 36.2111V37.082ZM213.925 37.082C213.925 37.082 213.62 36.2111 213.577 36.2111C213.446 36.2111 212.227 36.2111 212.096 36.2111C212.052 36.2111 211.748 37.082 211.748 37.082H210.616L212.314 32.7276H213.359L215.101 37.082H213.925Z" fill="#FF0C91"/>
<path d="M203.604 32.7295H204.345C204.693 32.7295 204.954 32.686 205.172 32.7731C205.433 32.8602 205.651 32.9472 205.825 33.165C205.999 33.3391 206.13 33.5569 206.261 33.8617C206.348 34.1229 206.391 34.4713 206.391 34.8632C206.391 35.2115 206.348 35.5163 206.261 35.7776C206.174 36.0824 205.999 36.3437 205.782 36.5614C205.608 36.692 205.433 36.9097 205.172 36.9968C204.998 37.0404 204.737 37.171 204.388 37.171H203.604V45.4443H209.047C213.62 45.4443 218.453 44.138 218.496 37.171H215.361V32.7295H216.668C216.668 32.7295 216.668 35.3421 216.668 35.7776C216.668 35.7776 218.061 35.7776 218.453 35.7776C218.061 29.6815 213.315 28.5058 208.96 28.5058L203.604 32.7295ZM210.136 37.0839H207.088V32.7295H210.136V33.6004C210.136 33.6004 208.394 33.6004 207.959 33.6004V34.4713C208.264 34.4713 207.872 34.4713 210.136 34.4713V35.3421C210.136 35.3421 208.394 35.3421 207.959 35.3421C207.959 35.3421 207.959 35.7776 207.959 36.213C208.394 36.213 210.136 36.213 210.136 36.213V37.0839ZM213.924 37.0839C213.924 37.0839 213.62 36.213 213.576 36.213C213.445 36.213 212.226 36.213 212.096 36.213C212.052 36.213 211.747 37.0839 211.747 37.0839H210.615L212.313 32.7295H213.358L215.1 37.0839H213.924Z" fill="#CC1B69"/>
<path d="M216.667 32.7276C216.667 32.7276 216.667 35.3402 216.667 35.7756C218.191 35.7756 217.712 35.7756 218.452 35.7756C218.322 34.0339 218.017 32.9017 217.32 31.8567L216.406 32.7276H216.667Z" fill="#B50662"/>
<path d="M215.361 33.5549L214.142 34.9048L215.056 37.082H213.924C213.924 37.082 213.619 36.2111 213.576 36.2111C213.532 36.2111 213.314 36.2111 213.053 36.2111L203.604 45.2682V45.3553H209.047C213.619 45.3553 218.452 44.049 218.496 37.082H215.361V33.5549Z" fill="#B50662"/>
<path d="M194.459 24.8893V48.4029L196.201 46.6612C196.201 45.0936 196.201 27.9373 196.201 26.631C197.507 26.631 209.133 26.631 209.699 26.631C211.833 26.631 213.662 27.0229 215.229 27.7196L216.492 26.5004C214.707 25.4553 212.312 24.9328 210.135 24.8893H194.459Z" fill="#D7D7D7"/>
<g clip-path="url(#clip6)">
<path d="M170.918 3.69919H167.602C167.602 6.41499 166.352 8.89334 164.181 10.5258L162.872 11.5053L167.959 18.4209H172.138L167.453 12.0543C169.669 9.85796 170.918 6.88988 170.918 3.69919Z" fill="white"/>
<path d="M162.455 3.69919H159.064V18.4209H162.455V3.69919Z" fill="white"/>
<path d="M176.317 3.69919H173.119V18.4209H176.317V3.69919Z" fill="white"/>
<path d="M204.367 7.95837C203.148 7.95837 201.988 8.32938 201.214 9.38305V8.24034H198.18V18.4209H201.259V13.0783C201.259 11.5349 202.3 10.7781 203.549 10.7781C204.888 10.7781 205.661 11.5794 205.661 13.0635V18.4357H208.71V11.9504C208.71 9.57598 206.821 7.95837 204.367 7.95837Z" fill="white"/>
<path d="M185.984 8.24034V8.89332C185.122 8.2997 184.081 7.95837 182.95 7.95837C179.976 7.95837 177.566 10.3625 177.566 13.3306C177.566 16.2987 179.976 18.7028 182.95 18.7028C184.081 18.7028 185.122 18.3615 185.984 17.7679V18.4209H189.033V8.24034H185.984ZM183.203 15.9425C181.671 15.9425 180.437 14.7701 180.437 13.3306C180.437 11.8911 181.671 10.7187 183.203 10.7187C184.735 10.7187 185.97 11.8911 185.97 13.3306C185.97 14.7701 184.735 15.9425 183.203 15.9425Z" fill="white"/>
<path d="M193.763 9.56115V8.24036H190.64V18.4209H193.778V13.672C193.778 12.0692 195.518 11.2084 196.723 11.2084C196.738 11.2084 196.752 11.2084 196.752 11.2084V8.24036C195.518 8.24036 194.373 8.77461 193.763 9.56115Z" fill="white"/>
<path d="M218.199 8.24034V8.89332C217.336 8.2997 216.295 7.95837 215.165 7.95837C212.19 7.95837 209.781 10.3625 209.781 13.3306C209.781 16.2987 212.19 18.7028 215.165 18.7028C216.295 18.7028 217.336 18.3615 218.199 17.7679V18.4209H221.248V8.24034H218.199ZM215.418 15.9425C213.886 15.9425 212.651 14.7701 212.651 13.3306C212.651 11.8911 213.886 10.7187 215.418 10.7187C216.949 10.7187 218.184 11.8911 218.184 13.3306C218.199 14.7701 216.949 15.9425 215.418 15.9425Z" fill="white"/>
<path d="M223.613 8.53713C223.613 8.38872 223.509 8.29968 223.345 8.29968H223.062V9.07138H223.196V8.78942H223.345L223.464 9.07138H223.613L223.479 8.75974C223.568 8.71521 223.613 8.64101 223.613 8.53713ZM223.345 8.65585H223.196V8.41841H223.345C223.434 8.41841 223.479 8.46293 223.479 8.53713C223.479 8.61133 223.449 8.65585 223.345 8.65585Z" fill="white"/>
<path d="M223.301 7.97321C222.899 7.97321 222.572 8.2997 222.572 8.70039C222.587 9.10108 222.899 9.42757 223.301 9.42757C223.702 9.42757 224.029 9.10108 224.029 8.70039C224.029 8.2997 223.702 7.97321 223.301 7.97321ZM223.301 9.294C222.973 9.294 222.721 9.02688 222.721 8.70039C222.721 8.3739 222.988 8.10677 223.301 8.10677C223.628 8.10677 223.881 8.3739 223.881 8.70039C223.881 9.02688 223.613 9.294 223.301 9.294Z" fill="white"/>
<path d="M224.505 14.8146C223.449 14.8146 222.586 15.6754 222.586 16.7291C222.586 17.7827 223.449 18.6435 224.505 18.6435C225.561 18.6435 226.424 17.7827 226.424 16.7291C226.424 15.6605 225.561 14.8146 224.505 14.8146Z" fill="white"/>
</g>
<g clip-path="url(#clip7)">
<path d="M247.869 39.9015C246.363 45.9439 240.243 49.6212 234.2 48.1144C228.159 46.6079 224.482 40.4877 225.989 34.4457C227.495 28.4026 233.615 24.7249 239.656 26.2314C245.699 27.7378 249.376 33.8588 247.869 39.9015Z" fill="#F7931A"/>
<path d="M241.901 35.5663C242.126 34.0655 240.983 33.2587 239.421 32.7205L239.928 30.6874L238.69 30.379L238.197 32.3585C237.871 32.2774 237.537 32.2009 237.205 32.1252L237.702 30.1327L236.465 29.8242L235.958 31.8566C235.689 31.7953 235.424 31.7346 235.168 31.6708L235.169 31.6645L233.463 31.2384L233.133 32.5601C233.133 32.5601 234.052 32.7705 234.032 32.7836C234.533 32.9087 234.624 33.2404 234.609 33.5033L234.032 35.8194C234.066 35.8282 234.111 35.8409 234.16 35.8606C234.119 35.8504 234.075 35.8391 234.029 35.8282L233.22 39.0727C233.159 39.2249 233.003 39.4533 232.653 39.3666C232.665 39.3846 231.754 39.1421 231.754 39.1421L231.139 40.5587L232.75 40.9601C233.049 41.0352 233.343 41.1138 233.632 41.1878L233.12 43.2441L234.356 43.5525L234.863 41.5181C235.201 41.6097 235.528 41.6943 235.849 41.774L235.344 43.7989L236.581 44.1073L237.093 42.0549C239.204 42.4542 240.79 42.2932 241.458 40.3845C241.997 38.8478 241.432 37.9613 240.321 37.3833C241.13 37.1968 241.739 36.665 241.901 35.5663ZM239.074 39.5312C238.691 41.068 236.104 40.2372 235.265 40.0289L235.945 37.3047C236.784 37.514 239.474 37.9286 239.074 39.5312ZM239.457 35.5441C239.108 36.942 236.954 36.2318 236.256 36.0576L236.872 33.5868C237.57 33.761 239.82 34.0859 239.457 35.5441Z" fill="white"/>
</g>
<path fill-rule="evenodd" clip-rule="evenodd" d="M111.584 2.3135e-07C109.763 4.04034e-07 90.4927 -3.66692e-07 79.7308 2.3135e-07C78.8207 2.81924e-07 77.9106 0.914909 77.9106 1.82982V20.128C77.9106 21.9578 78.8207 22.8727 80.6409 22.8727C90.7936 22.8727 109.763 22.8727 111.584 22.8727C113.404 22.8727 114.314 21.9578 114.314 20.128V2.74473C114.314 0.914909 113.404 2.3135e-07 111.584 2.3135e-07Z" fill="#306FC5"/>
<path fill-rule="evenodd" clip-rule="evenodd" d="M80.9857 8.3772L80.2806 6.65008L79.5796 8.3772H80.9857ZM96.5175 7.68946C96.376 7.77584 96.2085 7.77871 96.008 7.77871H94.7566V6.81643H96.025C96.2045 6.81643 96.3918 6.82453 96.5135 6.89457C96.6471 6.95769 96.7298 7.09202 96.7298 7.27758C96.7298 7.46693 96.6511 7.61929 96.5175 7.68946C96.5175 7.68946 96.6511 7.61929 96.5175 7.68946ZM105.445 8.3772L104.732 6.65008L104.023 8.3772H105.445ZM88.804 10.2466H87.748L87.7441 6.85354L86.2504 10.2466H85.346L83.8485 6.85054V10.2466H81.7534L81.3576 9.28029H79.2128L78.813 10.2466H77.6942L79.5388 5.91426H81.0693L82.8212 10.0161V5.91426H84.5024L85.8505 8.85325L87.0888 5.91426H88.8038V10.2466H88.804ZM93.0127 10.2466H89.5717V5.91426H93.0127V6.81643H90.6018V7.59734H92.9549V8.4854H90.6018V9.35059H93.0127V10.2466ZM97.8645 7.08105C97.8645 7.77179 97.406 8.12866 97.1387 8.23581C97.3641 8.32206 97.5566 8.47442 97.6482 8.60065C97.7937 8.81614 97.8188 9.00862 97.8188 9.39554V10.2466H96.7798L96.7759 9.70028C96.7759 9.43958 96.8007 9.06468 96.6133 8.85625C96.4628 8.70389 96.2334 8.67083 95.8625 8.67083H94.7567V10.2466H93.7267V5.91426H96.096C96.6224 5.91426 97.0103 5.92824 97.3433 6.12177C97.6692 6.3153 97.8645 6.59781 97.8645 7.08105C97.8645 7.08105 97.8645 6.59781 97.8645 7.08105ZM99.513 10.2466H98.4619V5.91426H99.513V10.2466ZM111.707 10.2466H110.247L108.294 6.99493V10.2466H106.197L105.796 9.28029H103.656L103.267 10.2466H102.062C101.561 10.2466 100.927 10.1353 100.568 9.76744C100.206 9.3996 100.018 8.90134 100.018 8.1135C100.018 7.47098 100.13 6.8836 100.573 6.41944C100.906 6.07368 101.427 5.91426 102.137 5.91426H103.134V6.84257H102.158C101.782 6.84257 101.57 6.89876 101.366 7.09921C101.19 7.28163 101.069 7.62648 101.069 8.08057C101.069 8.54473 101.161 8.87938 101.353 9.098C101.511 9.26944 101.799 9.32145 102.071 9.32145H102.533L103.985 5.91439H105.528L107.272 10.0122V5.91439H108.841L110.651 8.93165V5.91439H111.707V10.2466ZM77.6823 11.0976H79.4422L79.8391 10.1353H80.7275L81.1233 11.0976H84.5862V10.3619L84.8953 11.1007H86.693L87.0021 10.3509V11.0976H95.6081L95.6041 9.51799H95.7706C95.8872 9.52204 95.9213 9.53288 95.9213 9.72641V11.0976H100.372V10.7299C100.731 10.9233 101.29 11.0976 102.025 11.0976H103.897L104.298 10.1353H105.186L105.578 11.0976H109.187V10.1835L109.733 11.0976H112.625V5.05521H109.763V5.76882L109.362 5.05521H106.426V5.76882L106.058 5.05521H102.091C101.427 5.05521 100.844 5.14838 100.372 5.40803V5.05521H97.6351V5.40803C97.3351 5.14041 96.9263 5.05521 96.4718 5.05521H86.4717L85.8007 6.61585L85.1116 5.05521H81.9619V5.76882L81.6158 5.05521H78.9296L77.6821 7.92808V11.0976H77.6823ZM114.322 14.2879H112.444C112.257 14.2879 112.133 14.2949 112.028 14.3661C111.919 14.4363 111.877 14.5404 111.877 14.6779C111.877 14.8414 111.969 14.9526 112.102 15.0007C112.211 15.0387 112.328 15.0498 112.499 15.0498L113.058 15.0648C113.621 15.0788 113.997 15.1762 114.226 15.4136C114.268 15.4467 114.293 15.4838 114.322 15.5209V14.2879ZM114.322 17.1448C114.072 17.5126 113.584 17.6991 112.924 17.6991H110.935V16.7699H112.916C113.112 16.7699 113.25 16.7439 113.333 16.6626C113.405 16.5956 113.455 16.4982 113.455 16.3799C113.455 16.2537 113.405 16.1535 113.329 16.0934C113.254 16.0273 113.145 15.9972 112.966 15.9972C111.999 15.9641 110.792 16.0273 110.792 14.656C110.792 14.0274 111.189 13.3658 112.27 13.3658H114.322V12.5036H112.415C111.84 12.5036 111.422 12.6421 111.126 12.8575V12.5036H108.306C107.856 12.5036 107.326 12.616 107.076 12.8575V12.5036H102.041V12.8575C101.64 12.5669 100.964 12.5036 100.652 12.5036H97.3302V12.8575C97.0131 12.5488 96.3081 12.5036 95.8784 12.5036H92.1612L91.3106 13.4291L90.5139 12.5036H84.9613V18.5502H90.4094L91.2859 17.6101L92.1116 18.5502L95.4698 18.5532V17.1308H95.8C96.2456 17.1377 96.7711 17.1197 97.2348 16.9182V18.55H100.005V16.9741H100.138C100.309 16.9741 100.326 16.9812 100.326 17.1525V18.5499H108.74C109.275 18.5499 109.833 18.4124 110.142 18.163V18.5499H112.811C113.367 18.5499 113.909 18.4716 114.322 18.2712V17.1448ZM110.213 15.4136C110.413 15.6223 110.521 15.8857 110.521 16.3317C110.521 17.264 109.942 17.6991 108.903 17.6991H106.896V16.7699H108.895C109.09 16.7699 109.229 16.7439 109.316 16.6626C109.386 16.5956 109.437 16.4982 109.437 16.3799C109.437 16.2537 109.382 16.1535 109.311 16.0934C109.233 16.0273 109.124 15.9972 108.945 15.9972C107.981 15.9641 106.775 16.0273 106.775 14.656C106.775 14.0274 107.168 13.3658 108.248 13.3658H110.313V14.2881H108.423C108.236 14.2881 108.114 14.2952 108.01 14.3664C107.898 14.4366 107.856 14.5407 107.856 14.6782C107.856 14.8416 107.952 14.9529 108.081 15.0009C108.19 15.039 108.307 15.0501 108.482 15.0501L109.037 15.0651C109.596 15.0788 109.98 15.176 110.213 15.4136C110.213 15.4136 109.98 15.176 110.213 15.4136ZM100.918 15.146C100.78 15.2282 100.61 15.2352 100.409 15.2352H99.158V14.262H100.426C100.61 14.262 100.793 14.2659 100.918 14.3403C101.051 14.4104 101.131 14.5446 101.131 14.7301C101.131 14.9155 101.051 15.0648 100.918 15.146C100.918 15.146 101.051 15.0648 100.918 15.146ZM101.54 15.6853C101.769 15.7703 101.957 15.9228 102.045 16.0491C102.19 16.2606 102.211 16.4581 102.215 16.84V17.6991H101.181V17.1569C101.181 16.8962 101.206 16.5102 101.015 16.3087C100.864 16.1535 100.635 16.1164 100.259 16.1164H99.1581V17.6991H98.1231V13.3657H100.501C101.023 13.3657 101.403 13.3888 101.741 13.5702C102.066 13.7676 102.27 14.0381 102.27 14.5325C102.27 15.2241 101.811 15.5771 101.54 15.6853C101.54 15.6853 101.811 15.5771 101.54 15.6853ZM102.841 13.3657H106.279V14.2618H103.867V15.0497H106.22V15.9338H103.867V16.796L106.279 16.7999V17.6991H102.841V13.3657ZM95.8915 15.3655H94.5603V14.262H95.9035C96.2753 14.262 96.5335 14.4143 96.5335 14.7933C96.5335 15.1681 96.2873 15.3655 95.8915 15.3655ZM93.5344 17.305L91.9528 15.5398L93.5344 13.8308V17.305ZM89.4501 16.796H86.9175V15.9338H89.179V15.0497H86.9175V14.2618H89.5L90.6267 15.5247L89.4501 16.796ZM97.6394 14.7933C97.6394 15.9971 96.746 16.2456 95.8456 16.2456H94.5603V17.6991H92.5582L91.2898 16.2646L89.9716 17.6991H85.8914V13.3657H90.0344L91.3018 14.7861L92.612 13.3657H95.9035C96.7209 13.3657 97.6394 13.5932 97.6394 14.7933C97.6394 14.7933 97.6394 13.5932 97.6394 14.7933Z" fill="white"/>
<defs>
<clipPath id="clip0">
<rect width="53.6145" height="22.8727" fill="white" transform="translate(0 27.1273)"/>
</clipPath>
<clipPath id="clip1">
<rect width="90.6515" height="15.4234" fill="white" transform="translate(57.9541 30.8264)"/>
</clipPath>
<clipPath id="clip2">
<rect width="36.6173" height="22.8727" fill="white" transform="translate(38.7153)"/>
</clipPath>
<clipPath id="clip3">
<rect width="36.6173" height="22.8727" fill="white"/>
</clipPath>
<clipPath id="clip4">
<rect width="36.6173" height="22.8727" fill="white" transform="translate(116.147)"/>
</clipPath>
<clipPath id="clip5">
<rect width="36.6173" height="22.8727" fill="white" transform="translate(115.907)"/>
</clipPath>
<clipPath id="clip6">
<rect width="67.3591" height="15.0037" fill="white" transform="translate(159.064 3.69919)"/>
</clipPath>
<clipPath id="clip7">
<rect width="22.558" height="22.558" fill="white" transform="translate(225.649 25.8942)"/>
</clipPath>
</defs>
</svg>
