<svg width="328" height="52" viewBox="0 0 328 52" fill="none" xmlns="http://www.w3.org/2000/svg">
<g clip-path="url(#clip0)">
<path fill-rule="evenodd" clip-rule="evenodd" d="M184.815 31.7523C184.815 29.4143 186.724 27.5187 189.078 27.5187H235.535C237.89 27.5187 239.798 29.4143 239.798 31.7523V46.8817C239.798 49.2183 237.89 51.1143 235.535 51.1143H189.078C186.724 51.1143 184.815 49.2183 184.815 46.8817V31.7523Z" fill="#000268"/>
<path fill-rule="evenodd" clip-rule="evenodd" d="M186.564 31.899V46.74C186.564 48.2008 187.757 49.3855 189.229 49.3855H213.568V29.2535H189.229C187.757 29.2535 186.564 30.4382 186.564 31.899ZM219.857 39.2454C219.857 40.1903 219.389 40.8397 218.614 40.8397C217.929 40.8397 217.358 40.1903 217.358 39.325C217.358 38.4368 217.86 37.7764 218.614 37.7764C219.413 37.7764 219.857 38.4597 219.857 39.2454ZM215.305 44.6647H217.358V41.4423H217.381C217.769 42.1484 218.546 42.4101 219.264 42.4101C221.032 42.4101 221.979 40.9531 221.979 39.1996C221.979 37.7655 221.078 36.2047 219.435 36.2047C218.5 36.2047 217.633 36.5808 217.221 37.4123H217.198V36.3423H215.305V44.6647ZM224.783 40.3949C224.783 39.8261 225.33 39.6106 226.027 39.6106C226.335 39.6106 226.632 39.6321 226.894 39.6444C226.894 40.3385 226.403 41.0447 225.627 41.0447C225.148 41.0447 224.783 40.8059 224.783 40.3949ZM228.924 42.2738C228.833 41.8075 228.81 41.3398 228.81 40.8735V38.6646C228.81 36.8544 227.499 36.2047 225.981 36.2047C225.103 36.2047 224.339 36.33 223.608 36.6266L223.643 38.0162C224.212 37.6968 224.875 37.5715 225.536 37.5715C226.277 37.5715 226.882 37.7884 226.894 38.597C226.632 38.5512 226.266 38.5164 225.935 38.5164C224.841 38.5164 222.867 38.7333 222.867 40.5432C222.867 41.8304 223.916 42.4101 225.091 42.4101C225.935 42.4101 226.506 42.0811 226.974 41.3398H226.997C226.997 41.6483 227.03 41.9544 227.043 42.2738H228.924ZM229.848 44.6647C230.27 44.7563 230.692 44.8024 231.125 44.8024C233.008 44.8024 233.452 43.356 234.034 41.8642L236.214 36.3423H234.16L232.939 40.2132H232.916L231.638 36.3423H229.426L231.833 42.4101C231.684 42.9341 231.297 43.2306 230.794 43.2306C230.508 43.2306 230.258 43.1958 229.984 43.1053L229.848 44.6647Z" fill="white"/>
<path fill-rule="evenodd" clip-rule="evenodd" d="M191.579 39.2573C191.579 38.4487 191.979 37.7764 192.743 37.7764C193.667 37.7764 194.055 38.5163 194.055 39.1767C194.055 40.0878 193.473 40.7023 192.743 40.7023C192.128 40.7023 191.579 40.1793 191.579 39.2573ZM196.04 36.3423H194.18V37.4122H194.159C193.724 36.6833 193.016 36.2046 192.138 36.2046C190.291 36.2046 189.458 37.5267 189.458 39.2911C189.458 41.0446 190.473 42.2738 192.103 42.2738C192.926 42.2738 193.61 41.9543 194.101 41.2602H194.124V41.5796C194.124 42.7404 193.485 43.2983 192.299 43.2983C191.443 43.2983 190.917 43.1162 190.291 42.8091L190.188 44.4263C190.666 44.5974 191.476 44.8024 192.459 44.8024C194.854 44.8024 196.04 44.0163 196.04 41.5796V36.3423ZM199.511 33.8718H197.457V35.3745H199.511V33.8718ZM197.458 42.2738H199.511V36.3423H197.458V42.2738ZM205.229 36.2733C205.023 36.2398 204.772 36.2046 204.533 36.2046C203.643 36.2046 203.13 36.6833 202.776 37.4351H202.753V36.3423H200.882V42.2738H202.936V39.7697C202.936 38.6079 203.473 37.9137 204.43 37.9137C204.671 37.9137 204.898 37.9137 205.126 37.981L205.229 36.2733ZM208.764 40.976C207.818 40.976 207.43 40.1903 207.43 39.314C207.43 38.4258 207.818 37.6401 208.764 37.6401C209.712 37.6401 210.1 38.4258 210.1 39.314C210.1 40.1903 209.712 40.976 208.764 40.976ZM208.764 42.4101C210.727 42.4101 212.222 41.2725 212.222 39.314C212.222 37.3436 210.727 36.2046 208.764 36.2046C206.802 36.2046 205.308 37.3436 205.308 39.314C205.308 41.2725 206.802 42.4101 208.764 42.4101Z" fill="#FF0007"/>
</g>
<g clip-path="url(#clip1)">
<path d="M246.799 27.5793C244.705 27.5793 243.011 29.2628 243.011 31.3411V47.2959C243.011 49.3726 244.705 51.057 246.799 51.057H262.872C264.964 51.057 266.659 49.3727 266.659 47.2959V47.1326C266.589 47.1035 260.513 44.5876 257.425 43.1135C255.342 45.6588 252.655 47.203 249.865 47.203C245.147 47.203 243.545 43.1038 245.778 40.4053C246.266 39.8171 247.094 39.2551 248.38 38.9405C250.392 38.4498 253.594 39.2469 256.594 40.23C257.134 39.2428 257.588 38.1556 257.926 36.9981H248.679V36.0683H253.447V34.4011H247.672V33.4705H253.447V31.0923C253.447 31.0923 253.447 30.6917 253.856 30.6917H256.187V33.4705H261.897V34.4011H256.187V36.0683H260.848C260.402 37.882 259.725 39.5515 258.875 41.0171C260.289 41.525 261.559 42.0068 262.505 42.3214C265.661 43.3698 266.545 43.4979 266.66 43.5113V31.3412C266.66 29.2628 264.965 27.5794 262.872 27.5794H246.799L246.799 27.5793ZM249.392 40.2996C249.19 40.302 248.986 40.3129 248.781 40.3329C248.191 40.3919 247.081 40.6508 246.475 41.1832C244.657 42.757 245.745 45.6339 249.424 45.6339C251.563 45.6339 253.699 44.2766 255.378 42.1033C253.214 41.055 251.35 40.2771 249.392 40.2996L249.392 40.2996Z" fill="#00A1E9"/>
<path d="M307.79 43.9003L306.734 46.1827L305.663 43.9003H304.616L306.246 47.0559V49.2571H307.206V47.0559L307.212 47.0436L308.835 43.9003L307.79 43.9003ZM300.061 45.2811L300.805 47.5028H299.29L300.061 45.2811ZM301.034 48.1779L301.393 49.2568H302.399L300.418 43.8999H299.648L297.674 49.2568H298.681L299.055 48.1779H301.034ZM293.524 46.4611H292.455V44.6285H293.524C294.061 44.6285 294.382 45.0963 294.382 45.5485C294.382 45.9908 294.082 46.461 293.524 46.461V46.4611ZM293.578 43.9002H291.488V49.257H292.455V47.1975H293.578C294.622 47.1975 295.351 46.5192 295.351 45.5485C295.351 44.5777 294.622 43.9002 293.578 43.9002L293.578 43.9002ZM286.596 49.2571H287.565V43.9002H286.596V49.2571ZM279.789 43.9003V49.2572H283.046V48.5273H280.757V43.9003L279.789 43.9003ZM274.276 45.2811L275.02 47.5028H273.506L274.276 45.2811ZM275.25 48.1779L275.609 49.2568H276.614L274.633 43.8999H273.864L271.89 49.2568H272.896L273.27 48.1779H275.25ZM282.062 33.4283H277.911V31.9472H282.725V31.0247H277.911V29.1479H275.765C275.53 29.1479 275.34 29.3445 275.34 29.5862V31.0248H270.56V31.9472H275.34V33.4283H271.306V34.3499H279.341C279.341 34.3499 278.896 36.081 276.692 37.9413C274.717 36.4528 274.057 35.2674 274.057 35.2674H271.901C272.773 36.7724 274.012 37.9774 275.347 38.9334C274.121 39.7264 272.531 40.4908 270.476 41.1027V42.207C270.476 42.207 273.647 41.6115 276.712 39.8133C279.782 41.5975 282.865 42.207 282.865 42.207V41.1617C280.892 40.4465 279.329 39.6601 278.101 38.9015C279.879 37.59 281.438 35.8098 282.062 33.4283L282.062 33.4283ZM295.546 29.3327H293.385V31.5806H288.059V32.4859H293.385V40.5677C293.366 40.7529 293.22 40.8971 293.036 40.9069H291.938V41.8433H294.739C295.182 41.8252 295.536 41.4591 295.546 41.0052V32.4858H296.423V31.5806H295.546L295.546 29.3327ZM290.989 34.0108C290.91 33.8503 290.749 33.7397 290.561 33.738H288.761L290.164 38.1356H292.294L290.989 34.0108ZM285.672 29.2263L283.193 35.0632H285.095V42.0085H287.174V32.7958H286.42L287.986 29.2264L285.672 29.2263ZM309.782 41.6899L309.023 39.1356C308.972 38.9726 308.824 38.8546 308.647 38.8546H306.634L307.218 40.8166H304.851V37.0155H309.499V36.111H304.851V34.3219H309.499V33.4174H297.9V34.3219H302.547V36.111H297.9V37.0155H302.547V40.8166H297.9V41.7211H309.783L309.773 41.69L309.782 41.6899ZM300.317 31.2595H307.086V32.5939H309.504V31.0129C309.503 31.0096 309.503 31.0079 309.503 31.0039C309.503 30.6483 309.224 30.3608 308.877 30.355H304.964V29.1106H302.434V30.355H297.899V32.594H300.317L300.317 31.2595Z" fill="white"/>
</g>
<g clip-path="url(#clip2)">
<path fill-rule="evenodd" clip-rule="evenodd" d="M77.2512 23.2623C77.2512 23.9538 76.6867 24.5185 75.9953 24.5185H40.9507C40.2593 24.5185 39.6948 23.9538 39.6948 23.2623V2.29635C39.6948 1.60485 40.2593 1.04013 40.9507 1.04013H75.9954C76.6867 1.04013 77.2513 1.60485 77.2513 2.29635L77.2512 23.2623Z" fill="#14477C"/>
<path fill-rule="evenodd" clip-rule="evenodd" d="M62.9795 19.5138L63.3252 19.5071L63.6713 19.4859L64.0097 19.4362L64.3414 19.3798L64.666 19.3021L64.9904 19.2178L65.3008 19.1045L65.6114 18.9849L65.9074 18.8503L66.1966 18.7023L66.4792 18.5398L66.7544 18.3638L67.0225 18.1733L67.2765 17.9756L67.5162 17.7639L67.7557 17.5378L67.9747 17.3049L68.1868 17.0579L68.3911 16.8038L68.5815 16.543L68.7509 16.2676L68.9205 15.9856L69.0613 15.6962L69.2026 15.3929L69.3226 15.0891L69.4286 14.7718L69.5203 14.454L69.5975 14.1295L69.6543 13.7905L69.6967 13.4592L69.7246 13.113L69.7315 12.7677L69.7246 12.4215L69.6967 12.0757L69.6543 11.744L69.5975 11.4128L69.5203 11.0877L69.4286 10.7705L69.3226 10.4526L69.2026 10.1493L69.0613 9.85274L68.9205 9.56349L68.7509 9.28129L68.5815 9.00605L68.3911 8.74513L68.1868 8.49102L67.9747 8.24411L67.7557 8.01121L67.5162 7.79232L67.2765 7.58063L67.0225 7.37622L66.7544 7.19246L66.4792 7.01591L66.1966 6.85391L65.9074 6.70537L65.6114 6.57132L65.3008 6.45173L64.9904 6.34569L64.666 6.25405L64.3414 6.17642L64.0097 6.11999L63.6713 6.07757L63.3252 6.04917L62.9795 6.04236L62.6338 6.04917L62.2954 6.07757L61.9565 6.11999L61.6253 6.17642L61.3003 6.25405L60.9759 6.34569L60.6651 6.45173L60.3619 6.57132L60.0654 6.70537L59.7762 6.85391L59.4942 7.01591L59.2188 7.19246L58.958 7.37622L58.7034 7.58063L58.4567 7.79232L58.2243 8.01121L57.9981 8.24411L57.7938 8.49102L57.5889 8.74513L57.4056 9.00605L57.2292 9.28129L57.0672 9.56349L56.9187 9.85274L56.7847 10.1493L56.6646 10.4526L56.5591 10.7705L56.4675 11.0877L56.3894 11.4128L56.3335 11.744L56.291 12.0757L56.2626 12.4215L56.2554 12.7677L56.2626 13.113L56.291 13.4592L56.3335 13.7905L56.3894 14.1295L56.4675 14.454L56.5591 14.7718L56.6646 15.0891L56.7847 15.3929L56.9187 15.6962L57.0672 15.9856L57.2292 16.2676L57.4056 16.543L57.5889 16.8038L57.7938 17.0579L57.9981 17.3049L58.2243 17.5378L58.4567 17.7639L58.7034 17.9756L58.958 18.1733L59.2188 18.3638L59.4942 18.5398L59.7762 18.7023L60.0654 18.8503L60.3619 18.9849L60.6651 19.1045L60.9759 19.2178L61.3003 19.3021L61.6253 19.3798L61.9565 19.4362L62.2954 19.4859L62.6338 19.5071L62.9795 19.5138Z" fill="#FBB230"/>
<path fill-rule="evenodd" clip-rule="evenodd" d="M53.9697 19.5138L54.3154 19.5071L54.6538 19.4859L54.9927 19.4362L55.3239 19.3798L55.6489 19.3021L55.9737 19.2178L56.2838 19.1045L56.587 18.9849L56.8836 18.8503L57.1727 18.7023L57.4549 18.5398L57.73 18.3638L57.9909 18.1733L58.2455 17.9756L58.4924 17.7639L58.7247 17.5378L58.9509 17.3049L59.1557 17.0579L59.3602 16.8038L59.5433 16.543L59.7198 16.2676L59.8817 15.9856L60.0303 15.6962L60.1643 15.3929L60.2844 15.0891L60.3899 14.7718L60.4819 14.454L60.5596 14.1295L60.6156 13.7905L60.6579 13.4592L60.6865 13.113L60.6936 12.7677L60.6865 12.4215L60.6579 12.0757L60.6156 11.744L60.5596 11.4128L60.4819 11.0877L60.3899 10.7705L60.2844 10.4526L60.1643 10.1493L60.0303 9.85274L59.8817 9.56349L59.7198 9.28129L59.5433 9.00605L59.3602 8.74513L59.1557 8.49102L58.9509 8.24411L58.7247 8.01121L58.4924 7.79232L58.2455 7.58063L57.9909 7.37622L57.73 7.19246L57.4549 7.01591L57.1727 6.85391L56.8836 6.70537L56.587 6.57132L56.2838 6.45173L55.9737 6.34569L55.6489 6.25405L55.3239 6.17642L54.9927 6.11999L54.6538 6.07757L54.3154 6.04917L53.9697 6.04236L53.624 6.04917L53.2779 6.07757L52.9394 6.11999L52.6078 6.17642L52.2838 6.25405L51.9588 6.34569L51.6484 6.45173L51.3378 6.57132L51.0418 6.70537L50.7526 6.85391L50.47 7.01591L50.1953 7.19246L49.9272 7.37622L49.6727 7.58063L49.4331 7.79232L49.1934 8.01121L48.9746 8.24411L48.7624 8.49102L48.5581 8.74513L48.3676 9.00605L48.1983 9.28129L48.0287 9.56349L47.8878 9.85274L47.7466 10.1493L47.6266 10.4526L47.521 10.7705L47.4289 11.0877L47.3586 11.4128L47.2948 11.744L47.253 12.0757L47.2245 12.4215L47.2178 12.7677L47.2245 13.113L47.253 13.4592L47.2948 13.7905L47.3586 14.1295L47.4289 14.454L47.521 14.7718L47.6266 15.0891L47.7466 15.3929L47.8878 15.6962L48.0287 15.9856L48.1983 16.2676L48.3676 16.543L48.5581 16.8038L48.7624 17.0579L48.9746 17.3049L49.1934 17.5378L49.4331 17.7639L49.6727 17.9756L49.9272 18.1733L50.1953 18.3638L50.47 18.5398L50.7526 18.7023L51.0418 18.8503L51.3378 18.9849L51.6484 19.1045L51.9588 19.2178L52.2838 19.3021L52.6078 19.3798L52.9394 19.4362L53.2779 19.4859L53.624 19.5071L53.9697 19.5138Z" fill="#EB2230"/>
<path fill-rule="evenodd" clip-rule="evenodd" d="M57.6875 8.62507H61.265V8.25803H57.9979L57.6875 8.62507Z" fill="#FBB230"/>
<path fill-rule="evenodd" clip-rule="evenodd" d="M57.1514 9.43659H61.265V9.06955H57.363L57.1514 9.43659Z" fill="#FBB230"/>
<path fill-rule="evenodd" clip-rule="evenodd" d="M56.7495 10.2481H61.2652V9.8811H56.9119L56.7495 10.2481Z" fill="#FBB230"/>
<path fill-rule="evenodd" clip-rule="evenodd" d="M56.4741 11.0597H61.2651V10.7H56.5869L56.4741 11.0597Z" fill="#FBB230"/>
<path fill-rule="evenodd" clip-rule="evenodd" d="M56.6363 14.9974H61.2792V14.6305H56.5239L56.6363 14.9974Z" fill="#FBB230"/>
<path fill-rule="evenodd" clip-rule="evenodd" d="M56.9749 15.809H61.2789V15.442H56.8057L56.9749 15.809Z" fill="#FBB230"/>
<path fill-rule="evenodd" clip-rule="evenodd" d="M57.4619 16.6206H61.2789V16.2536H57.229L57.4619 16.6206Z" fill="#FBB230"/>
<path fill-rule="evenodd" clip-rule="evenodd" d="M58.1252 17.4322H61.2789V17.0651H57.8008L58.1252 17.4322Z" fill="#FBB230"/>
<path fill-rule="evenodd" clip-rule="evenodd" d="M56.312 11.8713H61.265V11.5111H56.3825L56.312 11.8713Z" fill="#FBB230"/>
<path fill-rule="evenodd" clip-rule="evenodd" d="M59.3315 14.1859H61.2226V13.8189H59.4024L59.3315 14.1859Z" fill="#FBB230"/>
<path fill-rule="evenodd" clip-rule="evenodd" d="M59.4795 13.3743H61.2225V13.0074H59.5504L59.4795 13.3743Z" fill="#FBB230"/>
<path fill-rule="evenodd" clip-rule="evenodd" d="M56.1846 13.0074H56.6784V13.3743H56.2131L56.1846 13.0074Z" fill="#FBB230"/>
<path fill-rule="evenodd" clip-rule="evenodd" d="M69.0823 16.5641C69.2589 16.5641 69.4001 16.7122 69.4001 16.8814C69.4001 17.058 69.2589 17.1992 69.0823 17.1992C68.9059 17.1992 68.7651 17.058 68.7651 16.8814C68.7651 16.7122 68.9059 16.5641 69.0823 16.5641ZM69.0823 16.6206C69.2308 16.6206 69.3504 16.7406 69.3504 16.8814C69.3504 17.03 69.2309 17.15 69.0823 17.15C68.9416 17.15 68.821 17.03 68.821 16.8814C68.821 16.7406 68.9416 16.6206 69.0823 16.6206Z" fill="#FBB230"/>
<path d="M68.9629 17.024V16.7546H69.0762C69.1042 16.7546 69.1256 16.7546 69.1401 16.7619C69.1537 16.7687 69.1614 16.7759 69.1681 16.7828C69.175 16.7973 69.1822 16.8114 69.1822 16.8254C69.1822 16.8467 69.175 16.868 69.1681 16.8753C69.1536 16.8894 69.1328 16.8966 69.1109 16.9034C69.1255 16.9107 69.1327 16.9179 69.14 16.9247C69.1468 16.9319 69.1613 16.946 69.1681 16.9673L69.2034 17.024H69.1399L69.0968 16.9601C69.0895 16.9388 69.0759 16.932 69.0688 16.9248C69.0688 16.9179 69.0615 16.9179 69.0546 16.9107C69.0474 16.9107 69.0402 16.9107 69.0261 16.9107H69.0189V17.024H68.9629ZM69.0191 16.868H69.0549C69.0829 16.868 69.0971 16.868 69.1043 16.8612C69.1111 16.8612 69.1189 16.8612 69.1189 16.8539C69.1257 16.8467 69.1257 16.8399 69.1257 16.8326C69.1257 16.8253 69.1257 16.8185 69.1189 16.8113C69.1111 16.8039 69.1043 16.8039 69.0972 16.7971C69.0972 16.7971 69.083 16.7971 69.0618 16.7971H69.0192V16.868H69.0191Z" fill="#FBB230"/>
<path fill-rule="evenodd" clip-rule="evenodd" d="M69.012 13.9106C69.1885 13.9106 69.3293 14.0518 69.3293 14.2284C69.3293 14.4049 69.1885 14.5457 69.012 14.5457C68.8356 14.5457 68.6948 14.4049 68.6948 14.2284C68.6948 14.0518 68.8356 13.9106 69.012 13.9106ZM69.012 13.9669C69.1605 13.9669 69.2802 14.0869 69.2802 14.2283C69.2802 14.3763 69.1606 14.4964 69.012 14.4964C68.8636 14.4964 68.744 14.3763 68.744 14.2283C68.744 14.087 68.8635 13.9669 69.012 13.9669Z" fill="white"/>
<path d="M68.8921 14.3637V14.101H69.0054C69.0339 14.101 69.0553 14.101 69.0694 14.1083C69.0766 14.1083 69.0901 14.1224 69.0974 14.1296C69.1047 14.1437 69.1114 14.1577 69.1114 14.1723C69.1114 14.1936 69.1047 14.2076 69.0901 14.2216C69.0834 14.2357 69.0621 14.2429 69.0408 14.2502C69.0481 14.257 69.0621 14.2643 69.0694 14.2715C69.0766 14.2783 69.0834 14.2924 69.0974 14.3137L69.1332 14.3637H69.0693L69.0266 14.3069C69.0125 14.2856 69.0053 14.2715 68.9981 14.2715C68.9913 14.2643 68.9913 14.257 68.9845 14.257C68.9767 14.257 68.9699 14.257 68.9559 14.257H68.9419V14.3636H68.8921V14.3637ZM68.9419 14.2149H68.9845C69.0126 14.2149 69.0267 14.2149 69.0339 14.2077C69.0408 14.2077 69.0481 14.2004 69.0481 14.2004C69.0553 14.1936 69.0553 14.1863 69.0553 14.179C69.0553 14.1723 69.0481 14.1577 69.0481 14.1577C69.0408 14.151 69.0339 14.1437 69.0268 14.1437C69.0196 14.1437 69.0054 14.1437 68.9846 14.1437H68.942V14.2149H68.9419Z" fill="white"/>
<path fill-rule="evenodd" clip-rule="evenodd" d="M64.4751 14.4115L64.9335 12.0126H65.5049L65.5757 12.2594C65.6814 12.1534 65.8577 12.0126 66.2106 12.0126L66.0342 12.6477C65.879 12.6477 65.6389 12.6192 65.4418 13.085C65.2937 13.438 65.2229 14.0234 65.1452 14.4115H64.4751Z" fill="white"/>
<path fill-rule="evenodd" clip-rule="evenodd" d="M55.8252 11.4128H56.4596L56.3188 12.0477H56.6717L56.5657 12.5416H56.2484L56.072 13.4945C56.0369 13.6709 56.072 13.8475 56.4249 13.7765L56.3545 14.306C55.9736 14.5953 55.211 14.3836 55.331 13.6709L55.8252 11.4128Z" fill="white"/>
<path fill-rule="evenodd" clip-rule="evenodd" d="M58.6541 13.3531C58.7246 12.965 58.9011 12.0126 57.7652 12.0126C56.7071 12.0126 56.5657 13.071 56.5657 13.2118C56.531 13.3531 56.531 14.4115 57.6596 14.4115C57.9416 14.4115 58.3369 14.3763 58.5134 14.3059L58.619 13.8117C58.5134 13.8474 58.1533 13.8825 57.8712 13.8825C57.6245 13.8825 57.2012 13.8825 57.2715 13.353H58.6541V13.3531Z" fill="white"/>
<path fill-rule="evenodd" clip-rule="evenodd" d="M50.9567 14.4116L51.5212 11.5183H50.4206L49.6443 13.2827L49.5031 11.5183H48.4801L47.9155 14.4116H48.5505L48.9742 12.3299L49.1507 14.4116H49.7504L50.6674 12.3651L50.2793 14.4116H50.9567Z" fill="white"/>
<path fill-rule="evenodd" clip-rule="evenodd" d="M51.6973 12.0829L51.5917 12.6124C51.7681 12.6124 52.1914 12.5416 52.403 12.5416C52.6147 12.5416 52.8968 12.5065 52.7912 12.8594C52.6147 12.8594 51.4503 12.6829 51.2739 13.7061C51.1755 14.3836 51.9797 14.6306 52.4733 14.306L52.5442 14.4468H53.1435L53.3907 13.1414C53.6517 11.9629 52.5159 11.9417 51.6973 12.0829Z" fill="white"/>
<path fill-rule="evenodd" clip-rule="evenodd" d="M62.2035 12.2947C62.0411 12.1958 61.9422 12.1958 61.7378 12.1958C61.5402 12.1958 61.0744 12.3935 61.0108 12.9225C60.9119 13.586 61.3425 13.8826 61.9702 13.6849L62.1399 14.2495C61.0677 14.7858 60.044 13.9529 60.3829 12.6544C60.6577 11.6735 61.9562 11.081 62.6056 11.8924L62.2035 12.2947Z" fill="white"/>
<path fill-rule="evenodd" clip-rule="evenodd" d="M67.7986 12.2947C66.0697 10.996 65.3992 14.4116 66.7399 14.4116C66.9515 14.4116 67.1636 14.3059 67.3045 14.2351L67.3748 14.4116H68.0806L68.6452 11.3771H67.9747L67.7986 12.2947Z" fill="white"/>
<path fill-rule="evenodd" clip-rule="evenodd" d="M62.7116 12.0829L62.6059 12.6124C62.7818 12.6124 63.2057 12.5416 63.4168 12.5416C63.629 12.5416 63.8758 12.5065 63.8054 12.8594C63.629 12.8594 62.4647 12.6829 62.2887 13.7061C62.2173 14.1999 62.6411 14.4468 62.9588 14.4468C63.276 14.4468 63.382 14.3764 63.4876 14.306L63.5581 14.4468H64.1583L64.405 13.1414C64.6733 11.9629 63.5369 11.9417 62.7116 12.0829Z" fill="white"/>
<path fill-rule="evenodd" clip-rule="evenodd" d="M57.2715 12.8946H58.0829C58.1745 12.2523 57.4055 12.3795 57.2715 12.8946Z" fill="#EB2230"/>
<path fill-rule="evenodd" clip-rule="evenodd" d="M52.6858 13.3531C52.5797 13.3531 52.3329 13.2827 52.1207 13.424C51.9096 13.5648 51.8387 13.8117 52.086 13.8825C52.2971 13.9529 52.5797 13.8117 52.65 13.6L52.6858 13.3531Z" fill="#EB2230"/>
<path fill-rule="evenodd" clip-rule="evenodd" d="M67.4805 12.6828C67.2689 12.4002 66.8104 12.6125 66.6691 13.1414C66.5636 13.4944 66.7752 13.7413 66.9869 13.7413C67.4314 13.7414 67.6994 13.0146 67.4805 12.6828Z" fill="#FBB230"/>
<path fill-rule="evenodd" clip-rule="evenodd" d="M63.7345 13.3531C63.6291 13.3531 63.3821 13.2827 63.17 13.424C62.9589 13.5648 62.888 13.8117 63.1353 13.8825C63.3465 13.9529 63.6643 13.8117 63.6994 13.6L63.7345 13.3531Z" fill="#FBB230"/>
<path fill-rule="evenodd" clip-rule="evenodd" d="M58.6543 14.4468L58.6901 14.1999L59.1133 12.0478H59.6774L59.7477 12.2947C59.8538 12.1886 60.0303 12.0478 60.3832 12.0478L60.2066 12.6828C60.0726 12.6828 59.7902 12.6544 59.5785 13.2191C59.4585 13.5436 59.3881 14.0943 59.3244 14.4468H58.6543Z" fill="white"/>
<path fill-rule="evenodd" clip-rule="evenodd" d="M55.2391 12.6265H55.2106H55.1827L55.1548 12.6193L55.1264 12.6124H55.098L55.0699 12.6052C54.9427 12.5912 54.8371 12.584 54.7103 12.5912C54.3854 12.6192 54.2446 12.8236 54.5195 12.9789C54.7384 13.1062 54.908 13.0849 55.0555 13.2262C55.3734 13.5224 55.2108 14.0942 54.8579 14.3127L54.7948 14.3411L54.7243 14.3695L54.6468 14.3903L54.5765 14.4115C54.2375 14.4679 53.7791 14.4539 53.4473 14.3411L53.539 13.868C53.807 13.9245 54.2448 14.0445 54.4492 13.9037C54.6821 13.7485 54.4704 13.5647 54.3007 13.4872L54.2163 13.4591L54.132 13.424C53.4614 13.1201 53.6171 12.3086 54.2515 12.1394C54.5056 12.0829 54.7597 12.0829 55.021 12.1042H55.0701C55.1338 12.111 55.1902 12.1182 55.2466 12.1322H55.2746L55.2958 12.1394H55.317L55.3309 12.1466H55.3521L55.2391 12.6265Z" fill="white"/>
</g>
<g clip-path="url(#clip3)">
<path fill-rule="evenodd" clip-rule="evenodd" d="M37.6168 23.2337C37.6168 23.9258 37.058 24.4837 36.3647 24.4837H1.21671C0.523217 24.4837 -0.0356445 23.9258 -0.0356445 23.2337V2.24324C-0.0356445 1.55116 0.523217 0.993256 1.21671 0.993256H36.3647C37.058 0.993256 37.6168 1.55116 37.6168 2.24324V23.2337Z" fill="#3A58A8"/>
<path fill-rule="evenodd" clip-rule="evenodd" d="M17.2931 16.27H15.4536L16.6068 9.21423H18.4463L17.2931 16.27Z" fill="white"/>
<path fill-rule="evenodd" clip-rule="evenodd" d="M13.9043 9.21423L12.1567 14.0669L11.9445 13.0214L11.3288 9.85031C11.3288 9.85031 11.2512 9.21423 10.4516 9.21423H7.55792L7.52246 9.33431C7.52246 9.33431 8.40685 9.51821 9.44698 10.1399L11.046 16.27H12.9633L15.8851 9.21423H13.9043Z" fill="white"/>
<path fill-rule="evenodd" clip-rule="evenodd" d="M28.3727 16.27H30.0634L28.5919 9.21423H27.1134C26.427 9.21423 26.2646 9.74418 26.2646 9.74418L23.519 16.27H25.4364L25.8189 15.2178H28.1606L28.3727 16.27ZM26.3491 13.7773L27.3184 11.1355L27.8631 13.7773H26.3491Z" fill="white"/>
<path fill-rule="evenodd" clip-rule="evenodd" d="M23.6676 10.9097L23.9292 9.39818C23.9292 9.39818 23.1155 9.08731 22.2738 9.08731C21.3611 9.08731 19.1893 9.48982 19.1893 11.4252C19.1893 13.2475 21.7358 13.2687 21.7358 14.2291C21.7358 15.1828 19.451 15.0128 18.7009 14.4058L18.4248 15.995C18.4248 15.995 19.2458 16.3907 20.5051 16.3907C21.7569 16.3907 23.6531 15.7407 23.6531 13.9748C23.6531 12.1457 21.085 11.9691 21.085 11.1708C21.085 10.3798 22.8753 10.4787 23.6676 10.9097Z" fill="white"/>
<path fill-rule="evenodd" clip-rule="evenodd" d="M11.9445 13.0215L11.3288 9.85031C11.3288 9.85031 11.2512 9.21423 10.4516 9.21423H7.55792L7.52246 9.33431C7.52246 9.33431 8.91644 9.62387 10.2534 10.7044C11.5271 11.7358 11.9445 13.0215 11.9445 13.0215Z" fill="#FAA634"/>
</g>
<g clip-path="url(#clip4)">
<path fill-rule="evenodd" clip-rule="evenodd" d="M113.785 1C111.917 1 92.1361 1 81.0895 1C80.1554 1 79.2212 1.93912 79.2212 2.87823V21.6605C79.2212 23.5388 80.1554 24.4779 82.0237 24.4779C92.445 24.4779 111.917 24.4779 113.785 24.4779C115.653 24.4779 116.588 23.5388 116.588 21.6605V3.81735C116.588 1.93912 115.653 1 113.785 1Z" fill="#306FC5"/>
<path fill-rule="evenodd" clip-rule="evenodd" d="M82.3773 9.59882L81.6536 7.82601L80.934 9.59882H82.3773ZM98.32 8.89289C98.1747 8.98155 98.0029 8.9845 97.797 8.9845H96.5126V7.99676H97.8145C97.9988 7.99676 98.191 8.00507 98.3159 8.07697C98.4531 8.14175 98.5379 8.27964 98.5379 8.47011C98.5379 8.66446 98.4572 8.82086 98.32 8.89289C98.32 8.89289 98.4572 8.82086 98.32 8.89289ZM107.483 9.59882L106.752 7.82601L106.024 9.59882H107.483ZM90.4024 11.5177H89.3185L89.3145 8.03485L87.7813 11.5177H86.853L85.3158 8.03176V11.5177H83.1653L82.759 10.5258H80.5575L80.1471 11.5177H78.9987L80.8921 7.07071H82.4631L84.2614 11.2811V7.07071H85.9871L87.3708 10.0875L88.6419 7.07071H90.4023V11.5177H90.4024ZM94.7225 11.5177H91.1904V7.07071H94.7225V7.99676H92.2478V8.79833H94.6632V9.70988H92.2478V10.598H94.7225V11.5177ZM99.7027 8.26837C99.7027 8.97739 99.232 9.3437 98.9577 9.45369C99.189 9.54222 99.3866 9.69861 99.4807 9.82819C99.63 10.0494 99.6557 10.2469 99.6557 10.6441V11.5177H98.5893L98.5853 10.9569C98.5853 10.6893 98.6108 10.3045 98.4184 10.0905C98.2639 9.93415 98.0284 9.90021 97.6477 9.90021H96.5127V11.5177H95.4554V7.07071H97.8873C98.4277 7.07071 98.8258 7.08507 99.1677 7.28371C99.5022 7.48236 99.7027 7.77235 99.7027 8.26837C99.7027 8.26837 99.7027 7.77235 99.7027 8.26837ZM101.395 11.5177H100.316V7.07071H101.395V11.5177ZM113.911 11.5177H112.413L110.408 8.17998V11.5177H108.255L107.844 10.5258H105.647L105.248 11.5177H104.011C103.497 11.5177 102.846 11.4034 102.478 11.0258C102.106 10.6483 101.913 10.1368 101.913 9.32814C101.913 8.66862 102.028 8.0657 102.483 7.58927C102.825 7.23435 103.36 7.07071 104.088 7.07071H105.112V8.02358H104.11C103.724 8.02358 103.506 8.08126 103.296 8.28702C103.116 8.47426 102.992 8.82824 102.992 9.29434C102.992 9.77078 103.087 10.1143 103.283 10.3387C103.446 10.5147 103.742 10.5681 104.02 10.5681H104.495L105.985 7.07085H107.569L109.359 11.2771V7.07085H110.969L112.828 10.1679V7.07085H113.911V11.5177ZM78.9865 12.3912H80.793L81.2004 11.4034H82.1123L82.5186 12.3912H86.0731V11.636L86.3904 12.3944H88.2356L88.5529 11.6247V12.3912H97.3866L97.3825 10.7698H97.5534C97.6731 10.7739 97.708 10.7851 97.708 10.9837V12.3912H102.277V12.0137C102.645 12.2122 103.219 12.3912 103.973 12.3912H105.895L106.306 11.4034H107.218L107.62 12.3912H111.324V11.4529L111.885 12.3912H114.853V6.18893H111.916V6.92143L111.505 6.18893H108.491V6.92143L108.113 6.18893H104.041C103.36 6.18893 102.761 6.28457 102.277 6.55109V6.18893H99.4672V6.55109C99.1593 6.27639 98.7397 6.18893 98.2731 6.18893H88.0084L87.3197 7.79086L86.6124 6.18893H83.3793V6.92143L83.0241 6.18893H80.2668L78.9863 9.13781V12.3912H78.9865ZM116.595 15.6658H114.668C114.476 15.6658 114.348 15.6731 114.241 15.7462C114.129 15.8182 114.086 15.9251 114.086 16.0662C114.086 16.234 114.18 16.3482 114.317 16.3975C114.429 16.4366 114.549 16.448 114.725 16.448L115.298 16.4634C115.876 16.4777 116.262 16.5777 116.497 16.8214C116.54 16.8553 116.566 16.8934 116.595 16.9315V15.6658ZM116.595 18.5984C116.339 18.9759 115.838 19.1673 115.161 19.1673H113.119V18.2135H115.152C115.354 18.2135 115.495 18.1868 115.58 18.1034C115.654 18.0346 115.705 17.9347 115.705 17.8133C115.705 17.6837 115.654 17.5808 115.576 17.5191C115.499 17.4513 115.388 17.4204 115.204 17.4204C114.211 17.3865 112.972 17.4513 112.972 16.0437C112.972 15.3985 113.38 14.7194 114.489 14.7194H116.595V13.8344H114.639C114.048 13.8344 113.619 13.9766 113.315 14.1976V13.8344H110.421C109.958 13.8344 109.415 13.9498 109.158 14.1976V13.8344H103.989V14.1976C103.578 13.8993 102.884 13.8344 102.563 13.8344H99.1542V14.1976C98.8288 13.8808 98.1051 13.8344 97.664 13.8344H93.8485L92.9754 14.7843L92.1576 13.8344H86.458V20.0409H92.0503L92.95 19.076L93.7975 20.0409L97.2446 20.044V18.584H97.5835C98.0409 18.5911 98.5803 18.5726 99.0563 18.3658V20.0408H101.9V18.4232H102.037C102.212 18.4232 102.229 18.4304 102.229 18.6063V20.0407H110.866C111.415 20.0407 111.988 19.8996 112.305 19.6435V20.0407H115.045C115.615 20.0407 116.172 19.9603 116.595 19.7546V18.5984ZM112.378 16.8214C112.584 17.0356 112.694 17.306 112.694 17.7638C112.694 18.7207 112.099 19.1673 111.033 19.1673H108.974V18.2135H111.025C111.225 18.2135 111.368 18.1868 111.457 18.1034C111.529 18.0346 111.582 17.9347 111.582 17.8133C111.582 17.6837 111.525 17.5808 111.453 17.5191C111.372 17.4513 111.26 17.4204 111.076 17.4204C110.087 17.3865 108.849 17.4513 108.849 16.0437C108.849 15.3985 109.252 14.7194 110.361 14.7194H112.48V15.6661H110.541C110.348 15.6661 110.223 15.6734 110.117 15.7465C110.001 15.8185 109.958 15.9254 109.958 16.0665C109.958 16.2343 110.057 16.3484 110.19 16.3978C110.301 16.4368 110.421 16.4482 110.601 16.4482L111.17 16.4637C111.744 16.4777 112.138 16.5775 112.378 16.8214C112.378 16.8214 112.138 16.5775 112.378 16.8214ZM102.837 16.5467C102.696 16.6311 102.521 16.6383 102.315 16.6383H101.03V15.6393H102.332C102.521 15.6393 102.709 15.6433 102.837 15.7196C102.974 15.7917 103.056 15.9294 103.056 16.1197C103.056 16.3101 102.974 16.4634 102.837 16.5467C102.837 16.5467 102.974 16.4634 102.837 16.5467ZM103.476 17.1002C103.711 17.1876 103.903 17.3441 103.993 17.4737C104.143 17.6908 104.164 17.8935 104.169 18.2856V19.1673H103.107V18.6108C103.107 18.3432 103.133 17.947 102.936 17.7402C102.782 17.5808 102.546 17.5427 102.16 17.5427H101.031V19.1673H99.9681V14.7193H102.409C102.944 14.7193 103.334 14.743 103.681 14.9292C104.015 15.1319 104.225 15.4095 104.225 15.9169C104.225 16.6269 103.754 16.9892 103.476 17.1002C103.476 17.1002 103.754 16.9892 103.476 17.1002ZM104.811 14.7193H108.34V15.6392H105.864V16.4478H108.28V17.3554H105.864V18.2404L108.34 18.2444V19.1673H104.811V14.7193ZM97.6775 16.772H96.3111V15.6393H97.6897C98.0715 15.6393 98.3365 15.7957 98.3365 16.1847C98.3365 16.5694 98.0837 16.772 97.6775 16.772ZM95.258 18.7628L93.6346 16.951L95.258 15.1967V18.7628ZM91.0657 18.2404H88.4661V17.3554H90.7874V16.4478H88.4661V15.6392H91.1169L92.2734 16.9354L91.0657 18.2404ZM99.4716 16.1847C99.4716 17.4203 98.5546 17.6754 97.6304 17.6754H96.3111V19.1673H94.256L92.954 17.6949L91.601 19.1673H87.4128V14.7193H91.6654L92.9663 16.1773L94.3112 14.7193H97.6897C98.5288 14.7193 99.4716 14.9528 99.4716 16.1847C99.4716 16.1847 99.4716 14.9528 99.4716 16.1847Z" fill="white"/>
</g>
<path d="M277.249 19.9507L277.249 19.9512L277.131 20.3706L277.131 20.3706L277.125 20.3903C277.05 20.6549 276.982 20.8968 276.921 21.1321C276.83 20.7368 276.719 20.3156 276.617 19.9382C276.617 19.9381 276.617 19.9381 276.617 19.938L275.825 16.95L275.825 16.9499L275.811 16.897L275.801 16.8597H275.762H275.243H275.205L275.195 16.8958L274.309 19.9564C274.175 20.3922 274.054 20.7934 273.96 21.1545C273.899 20.9047 273.832 20.6368 273.761 20.3588C273.756 20.336 273.75 20.3131 273.744 20.2901L273.744 20.2899L272.884 16.9502L272.884 16.9502L272.884 16.9496L272.87 16.8967L272.86 16.8597H272.822H272.222H272.157L272.174 16.9225L273.614 22.3757L273.614 22.3759L273.628 22.4291L273.638 22.4666H273.676H274.187H274.225L274.235 22.4308L275.161 19.3068C275.161 19.3067 275.161 19.3067 275.162 19.3066C275.293 18.8724 275.399 18.5132 275.481 18.1962C275.555 18.527 275.649 18.8882 275.762 19.3014C275.762 19.3015 275.762 19.3016 275.762 19.3017L276.563 22.3762L276.563 22.3762L276.577 22.4292L276.586 22.4666H276.625H277.144H277.181L277.191 22.4309L278.814 17.0162L278.814 17.016L278.842 16.9243L278.862 16.8597H278.794H278.192H278.154L278.144 16.8956L277.249 19.9507Z" fill="white" stroke="white" stroke-width="0.1"/>
<path d="M282.008 22.2821L282.008 22.2819L282.093 22.2342L282.138 22.2095L282.112 22.1656L281.86 21.7283L281.837 21.6889L281.796 21.7078L281.736 21.7351L281.736 21.7352C281.545 21.8237 281.284 21.9153 280.793 21.9153C280.396 21.9153 280.085 21.7852 279.869 21.5459C279.66 21.3148 279.535 20.9763 279.511 20.54H282.221H282.261L282.27 20.5008L282.288 20.4194L282.288 20.4191C282.307 20.3318 282.307 20.2674 282.307 20.1609V20.1583C282.307 20.0085 282.286 19.4824 282.013 19.0233C281.727 18.542 281.277 18.2984 280.683 18.2984C280.129 18.2984 279.665 18.5204 279.339 18.9084C279.014 19.2957 278.831 19.8449 278.831 20.4964C278.831 21.1045 279.022 21.617 279.358 21.978C279.696 22.3393 280.175 22.545 280.746 22.545C281.456 22.545 281.862 22.3627 282.008 22.2821ZM281.299 19.1675L281.299 19.1675C281.52 19.3922 281.585 19.7135 281.602 19.9339H279.551C279.627 19.566 279.787 19.3167 279.977 19.1576C280.177 18.99 280.415 18.9199 280.635 18.9199C280.918 18.9199 281.139 19.0045 281.299 19.1675Z" fill="white" stroke="white" stroke-width="0.1"/>
<path d="M286.694 21.696H286.693L286.683 21.7006C286.393 21.8341 285.983 21.9154 285.587 21.9154C284.928 21.9154 284.408 21.7076 284.052 21.331C283.696 20.954 283.499 20.4018 283.499 19.7025C283.499 18.9759 283.702 18.4019 284.069 18.01C284.436 17.6185 284.972 17.4027 285.65 17.4027C286.025 17.4027 286.38 17.4735 286.649 17.6001L286.649 17.6001L286.708 17.6281L286.75 17.6477L286.773 17.6078L287.042 17.1409L287.068 17.0967L287.023 17.0721L286.943 17.0279L286.918 17.0718L286.943 17.0279C286.829 16.9655 286.415 16.7729 285.642 16.7729C284.795 16.7729 284.083 17.0657 283.583 17.5797C283.083 18.0935 282.799 18.8245 282.799 19.6943C282.799 20.7401 283.156 21.4548 283.67 21.9074C284.184 22.359 284.849 22.5453 285.461 22.5453C286.146 22.5453 286.683 22.4001 286.961 22.2615L286.961 22.2614L287.049 22.2173L287.096 22.1934L287.069 22.1476L286.807 21.6937L286.784 21.6542L286.743 21.6733L286.694 21.696Z" fill="white" stroke="white" stroke-width="0.1"/>
<path d="M288.586 18.5396C288.48 18.6004 288.38 18.6781 288.29 18.7689V16.8232V16.7732H288.24H287.656H287.606V16.8232V22.4165V22.4665H287.656H288.24H288.29V22.4165V20.0093C288.29 19.8665 288.297 19.7801 288.329 19.6822C288.486 19.241 288.898 18.9358 289.324 18.9358C289.52 18.9358 289.67 18.9806 289.787 19.0523C289.904 19.124 289.99 19.2243 290.052 19.3394C290.178 19.5712 290.209 19.8597 290.209 20.0799V22.4164V22.4664H290.259H290.843H290.893V22.4164V20.0407V20.0407C290.893 19.2213 290.592 18.7817 290.252 18.5494C289.915 18.3194 289.549 18.2986 289.426 18.2986C289.123 18.2986 288.831 18.3819 288.586 18.5396Z" fill="white" stroke="white" stroke-width="0.1"/>
<path d="M296.11 17.5872V17.5372H296.06H295.475H295.425V17.5872V18.4217H294.838H294.788V18.4717V18.949V18.999H294.838H295.425V21.2281C295.425 21.6853 295.51 22.0175 295.695 22.2278C295.863 22.4428 296.131 22.553 296.46 22.553C296.686 22.553 296.884 22.5178 297.048 22.446C297.048 22.446 297.048 22.446 297.048 22.4459L297.142 22.4047L297.194 22.3823L297.166 22.3339L296.92 21.9088L296.902 21.8771L296.866 21.885L296.816 21.8961C296.815 21.8961 296.815 21.8961 296.815 21.8962C296.731 21.914 296.628 21.9237 296.507 21.9237C296.363 21.9237 296.269 21.8782 296.208 21.786C296.144 21.6891 296.11 21.5328 296.11 21.2988V18.9991H297.137H297.187V18.9491V18.4718V18.4218H297.137H296.11V17.5872Z" fill="white" stroke="white" stroke-width="0.1"/>
<path d="M299.79 16.9247L299.79 16.9247L299.705 16.9401L299.663 16.9476V16.9894V22.4167V22.4667H299.713H300.298H300.348V22.4167V20.2381C300.494 20.2598 300.655 20.2649 300.84 20.2649C301.55 20.2649 302.145 20.0399 302.51 19.6247C302.786 19.3216 302.919 18.9387 302.919 18.4599C302.919 17.9908 302.763 17.5926 302.463 17.3119C302.131 16.9875 301.607 16.8205 300.957 16.8205C300.566 16.8205 300.174 16.8558 299.79 16.9247ZM300.348 19.6015V17.4801C300.467 17.4624 300.665 17.4421 300.941 17.4421C301.361 17.4421 301.684 17.5414 301.901 17.7204C302.117 17.8983 302.235 18.16 302.235 18.4994C302.235 18.8666 302.11 19.15 301.882 19.3425C301.653 19.5361 301.313 19.6431 300.871 19.6431C300.709 19.6431 300.513 19.6376 300.348 19.6015Z" fill="white" stroke="white" stroke-width="0.1"/>
<path d="M309.306 18.3849H309.272L309.259 18.4173L308.315 20.9285C308.315 20.9286 308.315 20.9286 308.315 20.9287C308.259 21.0736 308.208 21.2179 308.163 21.3503C308.116 21.2131 308.067 21.0766 308.019 20.9511L308.019 20.9511L308.019 20.9503L307.028 18.4818L307.028 18.4816L307.003 18.4166L306.99 18.3849H306.956H306.332H306.258L306.285 18.4535L307.742 22.0942C307.742 22.0942 307.742 22.0943 307.742 22.0943C307.772 22.171 307.777 22.1995 307.778 22.2041C307.778 22.2045 307.778 22.2051 307.778 22.2059C307.777 22.2081 307.777 22.211 307.776 22.2146C307.774 22.2219 307.772 22.2308 307.768 22.2411C307.761 22.2617 307.752 22.2854 307.743 22.3086C307.558 22.7468 307.317 23.0404 307.148 23.2089C306.918 23.4304 306.669 23.5444 306.541 23.5921L306.435 23.6309L306.379 23.6513L306.409 23.7029L306.686 24.1809L306.707 24.2178L306.747 24.2026L306.803 24.1812C306.906 24.1419 307.175 24.0254 307.473 23.7737L307.473 23.7737L307.474 23.7731C307.987 23.3253 308.309 22.6469 308.79 21.4108C308.79 21.4107 308.79 21.4106 308.79 21.4105L309.939 18.552L309.939 18.5516L309.98 18.454L310.008 18.3849H309.933H309.306Z" fill="white" stroke="white" stroke-width="0.1"/>
<path d="M293.812 22.1255C293.597 22.3251 293.235 22.5529 292.704 22.5529C292.275 22.5529 291.958 22.3999 291.749 22.172C291.54 21.9451 291.442 21.6471 291.442 21.3613C291.442 20.9844 291.569 20.6644 291.823 20.4139L291.858 20.4494L291.822 20.4139C292.212 20.0275 292.863 19.8335 293.745 19.8234C293.737 19.4874 293.658 19.2582 293.511 19.1128L293.511 19.1127C293.384 18.987 293.196 18.9196 292.945 18.9196H292.932C292.617 18.9196 292.318 19.0065 292.091 19.161L292.091 19.1613L292.091 19.1613L292.027 19.2039L291.983 19.2336L291.956 19.1874L291.703 18.7484L291.678 18.7059L291.72 18.6805L291.78 18.6447C292.11 18.4275 292.555 18.2983 292.971 18.2983C293.442 18.2983 293.81 18.439 294.059 18.72C294.307 18.9999 294.43 19.4112 294.43 19.9383V21.4162C294.43 21.7011 294.437 22.0017 294.483 22.2886L293.812 22.1255ZM293.812 22.1255L293.842 22.4214L293.846 22.4664H293.891H294.453H294.511L294.502 22.4084L294.483 22.2886L293.812 22.1255ZM293.715 21.2779L293.715 21.2779L293.715 21.28C293.607 21.5941 293.298 21.9312 292.743 21.9312C292.602 21.9312 292.452 21.889 292.338 21.7908C292.225 21.6937 292.142 21.5376 292.142 21.2986V21.2986C292.142 21.0928 292.209 20.9269 292.338 20.8006L292.304 20.7648L292.338 20.8007C292.578 20.5684 293.038 20.4431 293.723 20.4431L293.745 20.4432L293.746 21.1017C293.746 21.1018 293.746 21.1018 293.746 21.1018C293.746 21.1483 293.74 21.215 293.715 21.2779Z" fill="white" stroke="white" stroke-width="0.1"/>
<path d="M303.343 18.617L303.343 18.617L303.342 18.6173L303.283 18.6543L303.243 18.68L303.267 18.7217L303.518 19.1558L303.544 19.2006L303.588 19.1732L303.65 19.1342C303.65 19.1342 303.65 19.1342 303.65 19.1341C303.872 18.9966 304.155 18.9196 304.449 18.9196H304.463C304.714 18.9196 304.901 18.9869 305.028 19.1125C305.175 19.2581 305.255 19.4874 305.262 19.8236C304.381 19.8335 303.73 20.0279 303.34 20.4137L303.34 20.4137C303.087 20.6644 302.959 20.9842 302.959 21.3615C302.959 21.6473 303.058 21.9451 303.266 22.1721C303.475 22.3999 303.792 22.5529 304.221 22.5529C304.752 22.5529 305.114 22.3254 305.329 22.1257L305.359 22.4214L305.363 22.4664H305.409H305.971H306.029L306.02 22.4085L306.001 22.2886L306.001 22.2885C305.954 22.0006 305.947 21.7008 305.947 21.4162V19.9383C305.947 19.4112 305.824 18.9999 305.576 18.72C305.327 18.4391 304.96 18.2983 304.489 18.2983C304.096 18.2983 303.668 18.4172 303.343 18.617ZM305.233 21.2781L305.233 21.2781L305.232 21.2802C305.125 21.5937 304.815 21.9312 304.261 21.9312C304.119 21.9312 303.969 21.8891 303.855 21.7908C303.742 21.6938 303.659 21.5377 303.659 21.2986C303.659 21.0928 303.726 20.9268 303.856 20.8006C304.095 20.5684 304.555 20.4431 305.24 20.4431L305.262 20.4432L305.263 21.1017C305.263 21.1018 305.263 21.1018 305.263 21.1018C305.263 21.1487 305.257 21.2157 305.233 21.2781Z" fill="white" stroke="white" stroke-width="0.1"/>
<path d="M298.964 5.10944V5.00944H298.864H291.096H290.996V5.10944V5.80634V5.90634H291.096H298.864H298.964V5.80634V5.10944Z" fill="white" stroke="white" stroke-width="0.2"/>
<path d="M298.964 7.28497V7.18497H298.864H291.096H290.996V7.28497V8.03594V8.13594H291.096H298.864H298.964V8.03594V7.28497Z" fill="white" stroke="white" stroke-width="0.2"/>
<path d="M291.193 13.7203V13.8203H291.293H298.667H298.767V13.7203V9.51569V9.41569H298.667H291.293H291.193V9.51569V13.7203ZM292.144 10.3119H297.816V12.9228H292.144V10.3119Z" fill="white" stroke="white" stroke-width="0.2"/>
<path d="M288.964 14.2566H289.064V14.1566V4.50551C289.503 3.55781 289.891 2.53785 290.208 1.50508L290.231 1.429L290.162 1.38915L289.468 0.987441L289.357 0.923124L289.322 1.04671C288.638 3.45418 287.638 5.64029 286.383 7.46803L286.348 7.5202L286.379 7.57489L286.794 8.28687L286.874 8.42451L286.963 8.29261C287.339 7.73584 287.734 7.09549 288.113 6.42036V14.1566V14.2566H288.213H288.964Z" fill="white" stroke="white" stroke-width="0.2"/>
<path d="M317.502 14.2566H317.602V14.1566V4.50551C318.041 3.55781 318.429 2.53785 318.746 1.50508L318.77 1.429L318.701 1.38915L318.006 0.987441L317.895 0.923123L317.86 1.04671C317.177 3.45419 316.177 5.6403 314.922 7.46801L314.886 7.52019L314.918 7.57489L315.332 8.28687L315.412 8.42451L315.501 8.29261C315.878 7.73584 316.272 7.09549 316.652 6.42036V14.1566V14.2566H316.752H317.502Z" fill="white" stroke="white" stroke-width="0.2"/>
<path d="M299.779 2.87887V2.77887H299.679H295.491L295.649 2.68748L295.649 2.68749L295.65 2.68683L295.668 2.67649L295.746 2.63041L295.708 2.54842L295.7 2.53211C295.643 2.39931 295.497 2.09298 295.344 1.77259C295.201 1.47195 295.054 1.16345 294.983 1.00514L294.975 0.984033L294.931 0.878886L294.832 0.935778L294.14 1.33522L294.055 1.38425L294.102 1.47016L294.112 1.4882C294.357 1.94903 294.567 2.37062 294.756 2.77898H290.334H290.234V2.87898V3.63038V3.73038H290.334H299.679H299.779V3.63038V2.87887Z" fill="white" stroke="white" stroke-width="0.2"/>
<path d="M279.645 2.30853V2.20853H279.545H278.848H278.748V2.30853V4.65701H277.633V1.27518V1.17518H277.533H276.836H276.736V1.27518V4.65701H275.566V2.30853V2.20853H275.466H274.769H274.669V2.30853V5.4537V5.5537H274.769H279.545H279.645V5.4537V2.30853Z" fill="white" stroke="white" stroke-width="0.2"/>
<path d="M279.318 6.82349V6.72349H279.218H274.986H274.886V6.82349V7.52039V7.62039H274.986H279.218H279.318V7.52039V6.82349Z" fill="white" stroke="white" stroke-width="0.2"/>
<path d="M278.829 11.2982V8.8909V8.7909H278.729H275.15H275.05V8.8909V9.94826H275.049L275.05 9.95525C275.15 11.3846 274.792 12.3788 274.017 12.9442L274.001 12.9553L273.928 13.0081L273.973 13.0862L274.361 13.7584L274.361 13.7586L274.374 13.7811L274.433 13.8834L274.524 13.808L274.544 13.7916C274.544 13.7916 274.544 13.7916 274.544 13.7916C275.586 12.9344 276.073 11.726 276.001 10.216V9.68759H277.932V11.1397C277.919 11.4108 277.906 11.578 277.875 11.7088C277.846 11.8347 277.799 11.9289 277.712 12.0505L277.704 12.0614L277.665 12.1141L277.698 12.1706L278.126 12.9117L278.184 13.0123L278.275 12.9398L278.295 12.9237L278.295 12.9236C278.672 12.6217 279.313 12.072 280.199 11.2917L280.211 11.2814L280.276 11.2275L280.234 11.1546L279.898 10.5721L279.898 10.5715L279.884 10.5486L279.824 10.4454L279.733 10.5233L278.829 11.2982Z" fill="white" stroke="white" stroke-width="0.2"/>
<path d="M271.261 4.49534L271.203 4.54959L271.242 4.61826L271.663 5.34629L271.728 5.45922L271.82 5.36698C272.909 4.27695 273.839 2.96792 274.529 1.55307L274.569 1.46935L274.489 1.4227L273.839 1.04684L273.746 0.993178L273.699 1.08938C273.032 2.45034 272.196 3.61753 271.261 4.49534Z" fill="white" stroke="white" stroke-width="0.2"/>
<path d="M271.062 8.87739L271.015 8.93124L271.051 8.99313L271.436 9.66089L271.437 9.66182L271.451 9.68824L271.522 9.81393L271.615 9.70357L271.635 9.68046C271.635 9.68035 271.635 9.68024 271.635 9.68013C271.984 9.27299 272.326 8.84694 272.656 8.41024V14.1565V14.2565H272.756H273.453H273.553V14.1565V6.98657C273.865 6.42806 274.167 5.80636 274.45 5.13744L274.45 5.13744L274.451 5.1366L274.458 5.11937L274.491 5.03838L274.415 4.99462L273.742 4.60615L273.642 4.54841L273.599 4.65579L273.59 4.67945C273.59 4.67949 273.59 4.67953 273.59 4.67957C272.949 6.28044 272.102 7.68861 271.072 8.86546L271.072 8.86554L271.062 8.87739Z" fill="white" stroke="white" stroke-width="0.2"/>
<path d="M284.755 3.66787V3.56787H284.655H281.702C281.958 2.79076 282.242 1.89812 282.342 1.12475L282.356 1.01218L282.243 1.01201L281.516 1.01093L281.435 1.01081L281.418 1.09007C280.967 3.2018 280.281 5.03019 279.399 6.46937L279.368 6.5201L279.397 6.57163L279.837 7.33348L279.93 7.49433L280.013 7.3282L280.335 6.68535C280.388 6.59351 280.436 6.50773 280.48 6.4283C280.7 8.14181 281.061 9.54165 281.559 10.592C281.053 11.4509 280.284 12.3459 279.266 13.2531C279.266 13.2532 279.266 13.2534 279.266 13.2535L279.253 13.2642L279.191 13.3183L279.232 13.3896L279.633 14.085L279.633 14.0851L279.635 14.0875L279.649 14.1111L279.714 14.2164L279.804 14.1309L279.823 14.1129C279.823 14.1128 279.823 14.1127 279.823 14.1125C280.855 13.1461 281.596 12.2862 282.025 11.5532C282.498 12.3503 283.241 13.284 284.095 14.1498L284.114 14.1698L284.206 14.264L284.272 14.15L284.685 13.4367L284.685 13.4367L284.686 13.4345L284.694 13.4191L284.731 13.3522L284.676 13.2993L284.664 13.2873L284.663 13.287C283.717 12.3835 282.967 11.4499 282.542 10.6534C283.318 9.21026 283.801 7.12638 283.986 4.46466H284.655V4.36477H284.755V4.36466V4.26466V3.66787ZM281.392 4.46477H283.089C282.95 6.55248 282.611 8.24687 282.086 9.51245C281.676 8.36917 281.367 6.85691 281.168 5.00838C281.229 4.82929 281.304 4.64675 281.392 4.46477Z" fill="white" stroke="white" stroke-width="0.2"/>
<path d="M323.218 13.0913L323.117 13.0906V13.1913V13.942V14.042H323.217C323.367 14.042 323.495 14.0414 323.605 14.0407C323.625 14.0406 323.644 14.0404 323.662 14.0403C323.746 14.0398 323.816 14.0393 323.873 14.0393C324.626 14.0393 325.058 13.8774 325.398 13.5378L325.398 13.5377C325.73 13.2054 325.879 12.7065 325.861 12.0761V5.19959H327.78H327.88V5.09959V4.35078V4.25078H327.78H325.861V1.13226V1.03226H325.761H325.008H324.908V1.13226V4.25078H318.812H318.712V4.35078V5.09959V5.19959H318.812H324.908V12.0795C324.908 12.4368 324.798 12.6828 324.6 12.8426C324.397 13.0059 324.084 13.093 323.652 13.093C323.499 13.093 323.356 13.0921 323.218 13.0913Z" fill="white" stroke="white" stroke-width="0.2"/>
<path d="M321.88 10.7489L321.925 10.8514L322.022 10.795L322.768 10.3598L322.848 10.3129L322.807 10.2294C322.408 9.41605 321.873 8.33743 321.212 7.01258L321.164 6.91703L321.072 6.97091L320.392 7.36809L320.31 7.4158L320.353 7.49998C320.81 8.39174 321.321 9.47999 321.88 10.7489Z" fill="white" stroke="white" stroke-width="0.2"/>
<path d="M314.224 3.72618H314.124H308.315V6.00051H311.382H311.409L311.432 6.01392L312.05 6.37051L312.113 6.40695L312.097 6.47816C312.09 6.51322 312.053 6.63404 311.981 6.8161M314.224 3.72618L311.888 6.77933M314.224 3.72618V3.62618V2.88362V2.78362H314.124H308.315L314.224 3.72618ZM311.981 6.8161L311.888 6.77933M311.981 6.8161C311.981 6.81609 311.981 6.81607 311.981 6.81606L311.888 6.77933M311.981 6.8161C311.679 7.58054 310.725 9.51917 308.471 11.3045M311.888 6.77933C311.589 7.53456 310.639 9.46905 308.383 11.2466C308.412 11.2659 308.442 11.2852 308.471 11.3045M308.471 11.3045C309.724 12.1187 311.486 12.86 313.528 13.3551L313.655 13.3857L313.593 13.4999L313.224 14.1829L313.187 14.2501L313.113 14.2327C310.922 13.7198 309.031 12.8523 307.687 11.8811M308.471 11.3045C308.444 11.3262 308.416 11.348 308.388 11.3697C309.634 12.1854 311.381 12.9269 313.405 13.4277M307.687 11.8811L313.405 13.4277M307.687 11.8811C306.312 12.8188 304.541 13.6686 302.265 14.2208L302.192 14.2384L302.155 14.1736L301.716 13.4138L301.649 13.2977L301.779 13.2665C304.097 12.7126 305.729 12.0122 306.928 11.2874M307.687 11.8811L306.928 11.2874M313.405 13.4277C313.438 13.436 313.471 13.4442 313.505 13.4523M313.405 13.4277L313.417 13.4048L313.505 13.4523M313.505 13.4523L313.456 13.5433C313.464 13.5454 313.473 13.5474 313.481 13.5495L313.505 13.4523ZM303.612 6.10051L303.612 6.20051H303.612V6.10051ZM303.612 6.10051H303.712V6.10043L303.612 6.10051ZM306.928 11.2874C304.722 9.42767 303.786 7.39746 303.554 6.81647C303.554 6.81642 303.554 6.81638 303.554 6.81633L306.928 11.2874ZM307.689 11.7587C309.024 12.7376 310.925 13.6177 313.136 14.1353L307.689 11.7587ZM307.689 11.7587C306.316 12.7052 304.538 13.5664 302.241 14.1236L307.689 11.7587ZM301.803 13.3638C301.837 13.3557 301.87 13.3475 301.904 13.3394L301.889 13.3138L301.803 13.3638ZM301.803 13.3638L301.826 13.4611C301.836 13.4587 301.845 13.4564 301.855 13.4541L301.803 13.3638ZM309.596 9.02652L309.596 9.02653C309.128 9.56026 308.545 10.1617 307.713 10.7646C305.77 9.27528 304.867 7.66498 304.515 6.87933H310.967C310.777 7.34713 310.378 8.13474 309.596 9.02652ZM307.454 6.10051H307.354V6.00051H307.454V6.10051ZM303.513 6.61778V6.61786L303.613 6.61778H303.513ZM307.354 3.72618H307.454V3.62618H307.354V3.72618ZM307.454 2.88362H307.354V2.78362H307.454V2.88362ZM308.215 2.88362V2.78362L308.315 2.88362H308.215ZM308.215 3.62618H308.315L308.215 3.72618V3.62618ZM308.215 6.10051V6.00051L308.315 6.10051H308.215Z" fill="white" stroke="white" stroke-width="0.2"/>
<path d="M249.967 14.6106C249.853 14.6661 249.724 14.6983 249.588 14.6983C249.271 14.6983 248.996 14.5306 248.852 14.2823L248.796 14.1657L246.492 9.29433C246.467 9.24138 246.452 9.18144 246.452 9.12312C246.452 8.89861 246.641 8.71674 246.874 8.71674C246.968 8.71674 247.056 8.74692 247.126 8.79731L249.845 10.6625C250.044 10.7876 250.281 10.861 250.536 10.861C250.689 10.861 250.834 10.8337 250.969 10.7862L263.756 5.30333C261.464 2.7009 257.69 1 253.418 1C246.428 1 240.761 5.54933 240.761 11.1616C240.761 14.2232 242.466 16.9794 245.134 18.8423C245.348 18.9895 245.489 19.2314 245.489 19.5044C245.489 19.5947 245.469 19.6771 245.444 19.7632C245.231 20.5291 244.89 21.7557 244.874 21.8131C244.847 21.9092 244.806 22.0097 244.806 22.1102C244.806 22.3347 244.995 22.5166 245.228 22.5166C245.319 22.5166 245.394 22.4838 245.472 22.4409L248.242 20.8997C248.451 20.784 248.671 20.712 248.915 20.712C249.044 20.712 249.169 20.7313 249.286 20.766C250.579 21.1242 251.974 21.3232 253.418 21.3232C260.408 21.3232 266.075 16.7736 266.075 11.1616C266.075 9.46171 265.552 7.86083 264.633 6.45256L250.06 14.5591L249.967 14.6106Z" fill="#03FF01"/>
<path d="M235.94 24.4212H202.233C201.16 24.4118 200.293 23.5947 200.293 22.5852V2.77927C200.293 1.76502 201.17 0.943298 202.253 0.943298H235.92C237.003 0.943298 237.88 1.76502 237.88 2.77927V22.5899C237.875 23.5947 237.013 24.4118 235.94 24.4212Z" fill="#EF809F"/>
<path d="M211.571 21.9307C212.423 21.9307 213.074 21.3955 213.074 20.6113C213.074 19.8835 212.523 19.5689 211.847 19.3811C211.416 19.2637 211.145 19.1744 211.145 18.888C211.145 18.6485 211.331 18.4607 211.626 18.4607C211.877 18.4607 212.062 18.5969 212.197 18.8035L212.904 18.3856C212.683 17.9301 212.187 17.6953 211.651 17.6953C210.799 17.6953 210.258 18.2682 210.258 18.935C210.258 19.4656 210.599 19.8741 211.436 20.1042C211.892 20.2263 212.182 20.3108 212.182 20.6489C212.182 20.9682 211.937 21.1654 211.581 21.1654C211.2 21.1654 210.91 20.9353 210.734 20.724L210.148 21.2734C210.464 21.6772 210.975 21.9307 211.571 21.9307ZM215.013 21.9307C214.112 21.9307 213.38 21.2546 213.38 20.4329C213.38 19.6111 214.112 18.935 215.013 18.935C215.915 18.935 216.647 19.6111 216.647 20.4329C216.647 21.2546 215.915 21.9307 215.013 21.9307ZM215.013 21.1795C215.449 21.1795 215.795 20.8555 215.795 20.4329C215.795 20.0103 215.449 19.6863 215.013 19.6863C214.573 19.6863 214.232 20.0103 214.232 20.4329C214.232 20.8602 214.578 21.1795 215.013 21.1795ZM218.757 18.4983V17.747H218.631C217.594 17.747 217.083 18.395 217.083 19.1557V21.8556H217.935V20.6723C217.935 20.2779 218.26 19.9962 218.731 19.9868V19.2261C218.396 19.2261 218.125 19.32 217.935 19.5078V19.2026C217.935 18.7049 218.281 18.4795 218.757 18.4983ZM220.616 21.9307C219.714 21.9307 218.982 21.2546 218.982 20.4329C218.982 19.6111 219.714 18.935 220.616 18.935C221.517 18.935 222.249 19.6111 222.249 20.4329C222.249 21.2546 221.517 21.9307 220.616 21.9307ZM220.616 21.1795C221.056 21.1795 221.397 20.8555 221.397 20.4329C221.397 20.0103 221.051 19.6863 220.616 19.6863C220.18 19.6863 219.834 20.0103 219.834 20.4329C219.834 20.8602 220.18 21.1795 220.616 21.1795ZM223.537 19.3388V19.0148H222.71V21.8556H223.562V20.5596C223.562 20.0901 223.858 19.8271 224.369 19.8271V18.9725C223.983 18.9585 223.707 19.0805 223.537 19.3388ZM225.712 20.4047V19.7097C225.902 19.8976 226.168 19.9915 226.508 19.9915V19.2355C226.047 19.2261 225.712 18.935 225.712 18.5499V18.1039H224.86V20.4516C224.86 21.2123 225.366 21.8603 226.408 21.8603H226.533V21.109C226.057 21.1231 225.712 20.9024 225.712 20.4047ZM227.551 21.9026C227.861 21.9026 228.122 21.6631 228.122 21.3673C228.122 21.0762 227.866 20.832 227.551 20.832C227.235 20.832 226.979 21.0715 226.979 21.3673C226.979 21.6631 227.235 21.9026 227.551 21.9026Z" fill="white"/>
<path d="M217.734 11.8587C218 12.1029 218.005 12.502 217.745 12.7509L217.694 12.8026C217.434 13.0514 217.008 13.0561 216.742 12.812L215.239 11.4174C214.823 11.0276 214.768 10.5487 215.029 10.2951L215.079 10.2435C215.294 10.0322 215.65 10.0134 215.896 10.1918C216.011 10.2763 216.181 10.2576 216.276 10.1496C216.367 10.0416 216.346 9.88191 216.231 9.7927C215.765 9.44992 215.099 9.49218 214.688 9.88661L214.638 9.93826C214.152 10.4078 214.247 11.2014 214.853 11.7695L216.362 13.1782C216.848 13.6149 217.614 13.6055 218.085 13.1547L218.14 13.1031C218.601 12.6523 218.591 11.9386 218.115 11.4972C218.01 11.3986 217.84 11.3986 217.734 11.5019C217.624 11.6005 217.624 11.7601 217.734 11.8587ZM216.833 4.29418L217.449 9.03671C217.464 9.17288 217.599 9.27618 217.75 9.2574C217.895 9.24331 218.005 9.11653 217.985 8.97567L217.369 4.21435L217.364 4.18618C217.258 3.79175 217.519 3.35037 217.87 3.27993C218.065 3.24237 218.271 3.27524 218.436 3.37854C218.601 3.48184 218.717 3.64149 218.757 3.82462L219.829 8.11638C219.864 8.25255 220.009 8.33707 220.155 8.3042C220.3 8.27133 220.39 8.13516 220.355 7.99899L219.288 3.72132C219.223 3.41141 219.022 3.13437 218.737 2.95594C218.451 2.77751 218.095 2.71646 217.76 2.7822C217.098 2.91368 216.667 3.6368 216.833 4.29418Z" fill="white"/>
<path d="M222.484 9.86307L223.702 4.18143C223.842 3.571 223.457 2.95588 222.81 2.77745C222.089 2.60841 221.362 3.00284 221.177 3.66961L219.829 7.99424C219.789 8.13041 219.869 8.27127 220.014 8.30884C220.159 8.3464 220.31 8.27127 220.35 8.1351L221.698 3.80578C221.813 3.40666 222.244 3.16718 222.665 3.26579C223.026 3.36909 223.251 3.72126 223.171 4.07813L221.953 9.76447C221.923 9.90064 222.018 10.0368 222.164 10.065C222.314 10.0885 222.459 9.99924 222.484 9.86307ZM219.423 15.3381C217.494 15.3381 215.885 14.014 215.885 12.131C215.885 11.9902 215.765 11.8775 215.615 11.8775C215.464 11.8775 215.344 11.9902 215.344 12.131C215.344 14.3098 217.213 15.8452 219.423 15.8452C219.573 15.8452 219.693 15.7325 219.693 15.5917C219.693 15.4508 219.573 15.3381 219.423 15.3381ZM218.471 10.9102C218.431 11.0511 218.335 11.1778 218.205 11.2577L218.145 11.2905C217.834 11.4877 217.413 11.4126 217.203 11.1215L216.02 9.47334C215.7 9.01318 215.74 8.53423 216.051 8.33232L216.106 8.29475C216.507 8.07876 216.842 8.2431 217.188 8.71735L218.175 10.0979C218.26 10.2152 218.426 10.2434 218.551 10.1683C218.676 10.0932 218.706 9.93351 218.626 9.81612L217.639 8.43562C217.148 7.76885 216.547 7.47303 215.82 7.86745L215.745 7.91441C215.164 8.28536 215.093 9.08361 215.57 9.75508L216.752 11.4079C217.133 11.9291 217.885 12.0653 218.441 11.7131L218.501 11.6756C218.736 11.5253 218.907 11.2999 218.987 11.0417C219.027 10.9055 218.942 10.7693 218.796 10.7318C218.656 10.6942 218.511 10.774 218.471 10.9102Z" fill="white"/>
<path d="M220.26 11.746C219.699 12.0418 219.348 12.5912 219.308 13.4317C219.298 13.5726 219.413 13.69 219.563 13.6994C219.714 13.7041 219.839 13.6008 219.849 13.4599C219.889 12.6992 220.205 12.2907 220.711 12.1123C220.981 12.0183 221.277 11.9996 221.537 12.023L221.603 12.0324C221.948 12.0935 222.059 11.6098 221.713 11.5347L219.633 11.098C218.661 10.8491 218.511 10.5111 218.691 9.9476C218.771 9.70343 218.927 9.57665 219.172 9.525C219.333 9.49213 219.508 9.49682 219.678 9.525C219.729 9.53439 219.764 9.53909 219.779 9.54378L222.935 10.234L222.996 10.2528C223.046 10.2716 223.101 10.3092 223.156 10.3608C223.366 10.5721 223.487 10.9712 223.427 11.6286C223.221 13.9294 222.079 15.3569 219.363 15.3334C219.212 15.3334 219.092 15.4461 219.092 15.5823C219.092 15.7232 219.212 15.8358 219.358 15.8358C222.404 15.8593 223.737 14.2018 223.963 11.6662C224.033 10.8773 223.878 10.3373 223.552 10.0133C223.371 9.83491 223.181 9.75039 223.036 9.7316L219.914 9.05075C219.894 9.04605 219.844 9.03196 219.774 9.02257C219.538 8.98501 219.293 8.98031 219.052 9.02727C218.631 9.11648 218.311 9.36535 218.175 9.79734C217.915 10.6097 218.19 11.2483 219.503 11.5817L220.26 11.746Z" fill="white"/>
<path d="M127.449 40.1367L132.79 40.1259L132.597 41.3429L128.127 45.5969H131.875L131.66 46.9H126.146L126.372 45.5538L130.647 41.4506H127.233L127.449 40.1367Z" fill="white"/>
<path d="M121.622 38.0582C121.504 37.9397 121.342 37.8428 121.159 37.7674C120.965 37.692 120.75 37.6381 120.534 37.5951C120.265 37.552 120.007 37.5304 119.824 37.5197C119.651 37.5089 119.544 37.5089 119.544 37.5089H117.207H115.473L113.922 46.9001H115.376L115.947 43.4215L118.768 43.4322C118.768 43.4322 119.867 43.4753 120.642 43.0661C121.418 42.6568 121.633 41.7198 121.633 41.7198C121.633 41.7198 121.719 41.3752 121.795 40.9444C121.87 40.4813 121.956 39.9213 121.988 39.6198C122.01 39.4905 122.021 39.4044 122.021 39.4044C122.021 39.4044 122.042 39.3074 122.042 39.1567C122.042 38.952 122.01 38.6397 121.848 38.3382C121.773 38.2412 121.708 38.1443 121.622 38.0582ZM120.502 39.7167C120.502 39.7382 120.373 40.4921 120.201 41.386C120.136 41.7306 119.878 41.9137 119.576 41.9783C119.081 42.086 118.542 42.0645 118.542 42.0645L116.184 42.0537L116.7 38.9305L118.833 38.9413C118.833 38.9413 118.973 38.9413 119.177 38.9413C119.404 38.9413 119.705 38.952 119.964 38.9844C120.179 39.0167 120.351 39.0597 120.405 39.1244C120.481 39.2105 120.502 39.329 120.513 39.4367C120.524 39.5767 120.502 39.7059 120.502 39.7167Z" fill="white"/>
<path d="M140.017 37.5089H141.417L139.855 46.9001H138.455L140.017 37.5089Z" fill="white"/>
<path d="M147.48 40.1367L148.826 40.1259L149.3 44.8969L151.357 40.1259H153.016L153.5 44.9184L155.557 40.1259H156.957L153.996 46.9H152.348L151.874 42.1614L149.785 46.9H148.169L147.48 40.1367Z" fill="white"/>
<path d="M137.443 40.1906C137.055 40.0614 136.376 40.0399 135.795 40.0399C135.235 40.0506 134.987 40.0722 134.772 40.1152C134.772 40.1152 133.781 40.2552 133.221 40.9553C132.661 41.6553 132.488 43.1738 132.488 43.1738C132.488 43.1738 132.155 44.8539 132.252 45.4139C132.348 45.9739 132.521 46.4909 133.156 46.7386C133.792 46.9863 134.33 46.9755 134.33 46.9755C134.33 46.9755 135.461 47.0617 136.312 46.8678C137.163 46.674 137.615 46.0709 137.615 46.0709C137.615 46.0709 137.819 45.8124 137.959 45.5001C138.099 45.1878 138.143 44.9831 138.153 44.9508L138.239 44.5847H136.786C136.786 44.5847 136.71 45.5432 135.924 45.6293C135.138 45.7155 134.729 45.6832 134.567 45.6724C134.416 45.6616 133.576 45.7047 133.641 45.0047C133.641 44.9939 133.641 44.9831 133.641 44.9616C133.673 44.1646 133.77 43.96 133.77 43.96L138.326 43.9492L138.519 42.8184C138.767 41.5368 138.606 40.5676 137.443 40.1906ZM137.13 42.6569H134.007L134.125 42.1615C134.125 42.1615 134.233 41.7738 134.449 41.6122C134.664 41.4507 134.944 41.4184 135.202 41.3968C135.461 41.3753 136.15 41.3214 136.721 41.4399C136.904 41.4722 137.087 41.5799 137.13 41.7415C137.249 42.0969 137.13 42.6569 137.13 42.6569Z" fill="white"/>
<path d="M133.673 44.9723C133.673 44.9835 133.673 44.9948 133.673 45.0061C133.662 45.0624 133.673 44.9723 133.673 44.9723Z" fill="white"/>
<path d="M146.026 40.1906C145.638 40.0614 144.96 40.0399 144.378 40.0399C143.818 40.0506 143.571 40.0722 143.355 40.1152C143.355 40.1152 142.364 40.2552 141.804 40.9553C141.244 41.6553 141.072 43.1738 141.072 43.1738C141.072 43.1738 140.738 44.8539 140.835 45.4139C140.932 45.9739 141.104 46.4909 141.74 46.7386C142.375 46.9863 142.914 46.9755 142.914 46.9755C142.914 46.9755 144.044 47.0617 144.895 46.8678C145.746 46.6632 146.198 46.0709 146.198 46.0709C146.198 46.0709 146.403 45.8124 146.543 45.5001C146.683 45.1878 146.726 44.9831 146.737 44.9508L146.823 44.5847H145.369C145.369 44.5847 145.294 45.5432 144.507 45.6293C143.721 45.7155 143.312 45.6832 143.151 45.6832C143 45.6724 142.16 45.7155 142.224 45.0154C142.224 45.0047 142.224 44.9939 142.224 44.9724C142.257 44.1754 142.354 43.9708 142.354 43.9708L146.909 43.96L147.103 42.8292C147.351 41.5476 147.2 40.5676 146.026 40.1906ZM145.714 42.6569H142.59L142.709 42.1615C142.709 42.1615 142.817 41.7738 143.032 41.6122C143.247 41.4507 143.527 41.4184 143.786 41.3968C144.044 41.3753 144.734 41.3214 145.304 41.4399C145.488 41.4722 145.671 41.5799 145.714 41.7415C145.832 42.0969 145.714 42.6569 145.714 42.6569Z" fill="white"/>
<path d="M158.562 40.1367L159.456 45.0908L161.987 40.1367L163.409 40.1475L159.758 47.2232C159.758 47.2232 159.101 48.5047 158.691 48.8278C158.282 49.1509 158.034 49.3017 157.701 49.334C157.367 49.3663 157.227 49.3879 156.914 49.334L156.57 49.2694L156.785 48.0093C156.785 48.0093 157.356 48.117 157.69 47.977C158.024 47.8478 158.293 47.2662 158.293 47.2662L158.465 46.9754L157.141 40.1152L158.562 40.1367Z" fill="white"/>
<path d="M163.936 40.8045H165.401L165.487 40.2337C165.487 40.2337 165.649 39.1998 165.993 39.006C166.101 38.9414 166.284 38.8875 166.499 38.8444C166.887 38.7798 167.372 38.769 167.77 38.7798C168.384 38.8013 168.61 38.8121 169.235 38.8767C169.86 38.9521 169.698 39.5445 169.698 39.5445L169.58 40.4383C169.58 40.4383 169.526 40.8368 169.386 41.0845C169.256 41.3107 168.912 41.4615 168.707 41.5261C168.223 41.6876 166.564 42.1076 166.564 42.1076L165.261 42.4846C165.261 42.4846 164.464 42.7215 164.012 43.2061C163.559 43.7015 163.387 44.2616 163.322 44.5631C163.258 44.8539 162.913 46.8894 162.913 46.8894H169.946L170.183 45.4893L164.625 45.5001L164.722 44.9293C164.722 44.9293 164.787 44.337 165.024 44.1431C165.099 44.0785 165.132 44.0031 165.584 43.8416C165.853 43.7446 166.758 43.5077 166.758 43.5077L168.858 42.9369C168.858 42.9369 170 42.6461 170.452 42.0107C170.904 41.3861 171.077 40.1906 171.077 40.1906C171.077 40.1906 171.195 39.0275 171.109 38.6613C171.012 38.2952 170.667 37.8644 170.258 37.6705C169.838 37.4874 169.407 37.369 168.136 37.3905C166.876 37.4121 166.241 37.4659 165.606 37.7028C164.959 37.9398 164.593 38.3706 164.356 38.9737C164.087 39.566 163.936 40.8045 163.936 40.8045Z" fill="white"/>
<path d="M177.172 43.4215L178.163 37.5197H176.418L170.98 43.3568L170.732 44.8323H175.481L175.137 46.9108H176.601L176.946 44.8323H178.292L178.529 43.4215H177.172ZM175.729 43.4215H172.66L176.397 39.4367L175.729 43.4215Z" fill="white"/>
<path d="M124.702 38.2843H129.182C129.182 38.2843 130.184 37.4766 130.895 36.9489C131.606 36.4319 132.909 35.6027 132.909 35.6027L130.378 34.418C130.378 34.418 128.235 35.7427 127.33 36.3673C126.447 36.9489 124.702 38.2843 124.702 38.2843Z" fill="white"/>
<path d="M134.32 34.7735L132.241 33.3734C132.241 33.3734 134.115 32.3072 136.624 31.3057C139.123 30.3149 140.458 29.8948 140.458 29.8948L140.878 31.8765C140.878 31.8765 138.477 32.6842 137.098 33.3304C135.677 33.9442 134.32 34.7735 134.32 34.7735Z" fill="white"/>
<path d="M142.418 31.4456L142.052 29.421C142.052 29.421 144.615 28.7425 146.963 28.3009C149.311 27.8593 152.423 27.6547 152.423 27.6547L151.39 30.7887C151.39 30.7887 148.654 30.4118 146.08 30.7672C144.088 31.0041 142.418 31.4456 142.418 31.4456Z" fill="white"/>
<path d="M153.026 31.0579L154.76 27.5793C154.76 27.5793 158.551 27.5039 161.825 28.0101C165.099 28.5162 168.093 29.2917 168.029 29.324L159.725 33.6642C159.725 33.6642 157.787 32.4364 155.374 31.6825C154.017 31.2841 153.026 31.0579 153.026 31.0579Z" fill="white"/>
<path d="M161.222 34.6119L163.042 36.0012H178.034C178.034 36.0012 178.001 35.5165 177.603 34.8273C177.355 34.3965 176.903 33.9442 176.429 33.4703C176.257 33.298 175.567 32.7595 175.05 32.4256C173.726 31.5641 172.983 31.2302 171.615 30.6163L161.222 34.6119Z" fill="white"/>
<path d="M125.671 40.1259C125.111 40.1259 124.573 40.3521 124.12 40.5998L124.196 40.1259H122.71L121.514 46.8677H123.011L123.668 43.1307C123.808 42.3768 124.368 41.4398 125.477 41.4398H126.253L126.49 40.1259H125.671Z" fill="white"/>
<path d="M100.351 38.0524H97.3571C97.0241 38.0524 96.7532 37.7824 96.7532 37.4444C96.7532 37.1064 97.0241 36.8089 97.3571 36.8089H101.915V34.5208H97.3571C95.7663 34.5208 94.472 35.8406 94.472 37.4555C94.472 39.0704 95.7663 40.3903 97.3571 40.3903H100.31C100.643 40.3903 100.914 40.6592 100.914 40.9971C100.914 41.3351 100.643 41.584 100.31 41.584H93.9776C93.44 42.6286 92.9172 43.5239 91.856 43.9716H100.351C101.915 43.9487 103.194 42.6016 103.194 41.001C103.194 39.4005 101.915 38.0753 100.351 38.0524Z" fill="white"/>
<path d="M88.8745 34.5208C86.3372 34.5208 84.2705 36.6365 84.2705 39.2363V39.3357V49.0452H86.5677V43.9716H88.8698C91.4072 43.9716 93.4665 41.8277 93.4665 39.228C93.4665 36.6283 91.412 34.5208 88.8745 34.5208ZM88.8745 41.584H86.5677V39.228C86.5677 37.9114 87.5977 36.8403 88.8745 36.8403C90.1514 36.8403 91.1902 37.9114 91.1902 39.228C91.1902 40.5446 90.1514 41.584 88.8745 41.584Z" fill="white"/>
<path d="M76.9979 43.9716C74.8258 43.9716 72.9997 42.3965 72.5056 40.3387C72.5056 40.3387 72.3628 39.6583 72.3628 39.2103C72.3628 38.7623 72.4979 38.0749 72.4979 38.0749C72.9957 36.0222 74.8195 34.4936 76.988 34.4936C79.5385 34.4936 81.6313 36.6036 81.6313 39.1991V40.3405H74.8553C75.2554 41.1364 76.0647 41.5841 76.9979 41.5841H83.0892L83.0976 34.8531C83.0976 33.8496 82.2909 33.0286 81.3048 33.0286H72.6713C71.6852 33.0286 70.8784 33.8247 70.8784 34.8283V43.6145C70.8784 44.618 71.6852 45.4639 72.6713 45.4639H81.3048C82.1897 45.4639 82.9279 44.8172 83.0705 43.9716H76.9979Z" fill="#FF0C91"/>
<path d="M76.988 36.7271C76.0584 36.7271 75.2499 37.3063 74.8481 38.0524H79.128C78.7262 37.3063 77.9178 36.7271 76.988 36.7271Z" fill="#C8036F"/>
<path d="M80.8982 30.1714C80.8982 28.027 79.147 26.2886 76.9869 26.2886C74.8626 26.2886 73.1349 27.9701 73.0781 30.0654C73.0772 30.0742 73.0779 30.0828 73.0779 30.0919V31.2588C73.0779 31.3983 73.1896 31.5363 73.3302 31.5363H74.7691C74.9097 31.5363 75.033 31.3983 75.033 31.2588V30.1714C75.033 29.1005 75.9093 28.2293 76.988 28.2293C78.0667 28.2293 78.9431 29.1005 78.9431 30.1714V31.2588C78.9431 31.3983 79.0571 31.5363 79.1977 31.5363H80.6367C80.7773 31.5363 80.8982 31.3983 80.8982 31.2588V30.1714Z" fill="#FF0C91"/>
<path d="M91.4522 47.0059L91.2442 48.2045C91.1402 48.8104 90.7501 49.0879 90.2213 49.0879C89.7735 49.0879 89.4268 48.7908 89.5279 48.2055L89.7359 47.0059H90.0567L89.8485 48.2046C89.785 48.5782 89.9497 48.7909 90.2617 48.7909C90.5825 48.7909 90.857 48.5968 90.9233 48.2055L91.1314 47.0059H91.4522V47.0059ZM90.1924 46.6305C90.1924 46.7305 90.2676 46.7775 90.3485 46.7775C90.4496 46.7775 90.5594 46.704 90.5594 46.5658C90.5594 46.4688 90.4957 46.4189 90.4119 46.4189C90.3081 46.4189 90.1924 46.4865 90.1924 46.6305ZM90.8859 46.6276C90.8859 46.7305 90.9639 46.7775 91.0477 46.7775C91.1373 46.7775 91.2558 46.704 91.2558 46.5688C91.2558 46.4719 91.1863 46.4189 91.1084 46.4189C91.0044 46.4189 90.8859 46.4865 90.8859 46.6276Z" fill="white"/>
<path d="M92.2272 47.0059L92.0827 47.8341C92.2069 47.6636 92.4554 47.5736 92.6288 47.5736C92.9871 47.5736 93.2355 47.7872 93.2355 48.184C93.2355 48.7457 92.8513 49.0834 92.3602 49.0834C92.1694 49.0834 92.0076 49.0113 91.9094 48.829L91.8545 49.0452H91.5742L91.9296 47.0059H92.2272ZM92.0019 48.4037C91.9904 48.6448 92.1434 48.8006 92.3659 48.8006C92.6461 48.8006 92.9177 48.58 92.9351 48.2449C92.9466 48.0008 92.7907 47.8567 92.5738 47.8567C92.2965 47.8567 92.0191 48.0832 92.0019 48.4037Z" fill="white"/>
<path d="M93.8195 48.4483C93.8079 48.6473 93.961 48.8097 94.2211 48.8097C94.3656 48.8097 94.5562 48.7523 94.6602 48.6523L94.8221 48.8426C94.6459 49.0072 94.3858 49.0891 94.1662 49.0891C93.756 49.0891 93.5161 48.8391 93.5161 48.4568C93.5161 47.9481 93.909 47.569 94.4117 47.569C94.8712 47.569 95.1312 47.8514 94.9752 48.4483H93.8195ZM94.7325 48.1996C94.7556 47.9509 94.6112 47.8497 94.3713 47.8497C94.1546 47.8497 93.9553 47.9509 93.8686 48.1996H94.7325Z" fill="white"/>
<path d="M95.7704 47.6027L95.7559 47.7945C95.8947 47.609 96.0623 47.5712 96.2153 47.5712C96.354 47.5712 96.4782 47.6213 96.5447 47.6947L96.3656 47.9594C96.302 47.9008 96.2384 47.8714 96.1286 47.8714C95.9235 47.8714 95.7213 47.9966 95.675 48.2641L95.5394 49.0452H95.2417L95.4931 47.6027H95.7704Z" fill="white"/>
<path d="M97.9782 47.6027L98.1284 48.7435L98.6716 47.6027H99.0038L98.2584 49.0452H97.9088L97.7673 48.0936L97.539 48.5663L97.2905 49.0452H96.9438L96.6924 47.6027H97.0276L97.1749 48.7435L97.721 47.6027H97.9782Z" fill="white"/>
<path d="M99.3859 48.4483C99.3743 48.6473 99.5274 48.8097 99.7875 48.8097C99.932 48.8097 100.123 48.7523 100.227 48.6523L100.388 48.8426C100.212 49.0072 99.9522 49.0891 99.7326 49.0891C99.3224 49.0891 99.0825 48.8391 99.0825 48.4568C99.0825 47.9481 99.4754 47.569 99.9782 47.569C100.438 47.569 100.698 47.8514 100.542 48.4483H99.3859ZM100.299 48.1996C100.322 47.9509 100.178 47.8497 99.9377 47.8497C99.721 47.8497 99.5217 47.9509 99.4349 48.1996H100.299Z" fill="white"/>
<path d="M101.357 47.6027L101.106 49.0452H100.808L101.06 47.6027H101.357ZM101.094 47.2098C101.094 47.3126 101.169 47.3658 101.25 47.3658C101.366 47.3658 101.473 47.2892 101.473 47.1452C101.473 47.0481 101.4 46.9922 101.322 46.9922C101.215 46.9922 101.094 47.0628 101.094 47.2098Z" fill="white"/>
<path d="M102.678 47.9595C102.585 47.8537 102.467 47.8243 102.326 47.8243C102.129 47.8243 101.99 47.8919 101.99 48.0183C101.99 48.1242 102.103 48.1684 102.271 48.1831C102.531 48.2065 102.863 48.2948 102.794 48.6682C102.744 48.9387 102.479 49.0975 102.109 49.0975C101.878 49.0975 101.655 49.0445 101.505 48.83L101.698 48.6153C101.805 48.7652 101.993 48.827 102.161 48.83C102.302 48.83 102.47 48.777 102.496 48.6418C102.522 48.5124 102.409 48.4625 102.201 48.4418C101.958 48.4182 101.693 48.3272 101.693 48.0537C101.693 47.692 102.077 47.5656 102.366 47.5656C102.585 47.5656 102.747 47.6155 102.88 47.7596L102.678 47.9595Z" fill="white"/>
<path d="M103.617 47.6027L103.481 48.3795C103.438 48.6266 103.548 48.7972 103.796 48.7972C104.03 48.7972 104.23 48.5999 104.27 48.3589L104.4 47.6027H104.698L104.446 49.0452H104.178L104.198 48.8362C104.03 48.9979 103.866 49.0741 103.666 49.0741C103.317 49.0741 103.109 48.8191 103.184 48.3811L103.32 47.6027H103.617Z" fill="white"/>
<path d="M106.004 49.0452L106.14 48.2732C106.183 48.0232 106.1 47.8576 105.828 47.8576C105.591 47.8576 105.392 48.0516 105.351 48.2897L105.221 49.0452H104.924L105.175 47.6027H105.447L105.427 47.8136C105.591 47.6577 105.762 47.5808 105.947 47.5808C106.293 47.5808 106.519 47.8263 106.441 48.2704L106.305 49.0452H106.004Z" fill="white"/>
<path d="M107.013 49.2442C106.993 49.4431 107.143 49.5236 107.394 49.5236C107.614 49.5236 107.851 49.3988 107.906 49.0813L107.949 48.8336C107.819 49.0188 107.582 49.0919 107.406 49.0919C107.042 49.0919 106.788 48.8713 106.788 48.4713C106.788 47.9009 107.204 47.5715 107.675 47.5715C107.874 47.5715 108.053 47.6679 108.117 47.8325L108.166 47.6026H108.455L108.206 49.088C108.114 49.638 107.712 49.8086 107.345 49.8086C106.906 49.8086 106.663 49.5922 106.724 49.2441H107.013V49.2442ZM107.097 48.4125C107.097 48.6593 107.256 48.8094 107.484 48.8094C108.099 48.8094 108.264 47.8479 107.648 47.8479C107.357 47.8479 107.097 48.0683 107.097 48.4125Z" fill="white"/>
<path d="M37.5861 48.3687C37.5861 49.4789 36.5603 50.3854 35.304 50.3854H2.28214C1.02581 50.3854 0 49.4789 0 48.3687V28.9243C0 27.8141 1.02581 26.9075 2.28214 26.9075H35.2925C36.5488 26.9075 37.5746 27.8141 37.5746 28.9243V48.3687H37.5861Z" fill="white"/>
<path d="M30.1982 33.467H28.8381H22.5449H21.1849L20.2628 34.3837L17.2891 37.3478L16.367 38.2645H15.0069H8.82903H7.46897L8.36799 37.3376L8.79445 36.8996L9.69348 35.9727H8.33341H6.58147H5.60176C4.85257 35.9727 4.2417 36.5329 4.2417 37.2052V39.5886V39.8127C4.2417 40.4951 4.85257 41.0451 5.60176 41.0451H5.98212H20.2743H21.3001C22.0493 41.0451 23.0751 40.6275 23.5707 40.1284L25.9451 37.745L30.1982 33.467Z" fill="#004E91"/>
<path d="M32.008 30.6864C32.7572 30.6864 33.3681 31.2466 33.3681 31.9188V34.5263C33.3681 35.2088 32.7572 35.7588 32.008 35.7588H31.2703H29.2764H27.9163L28.8268 34.8421L29.2764 34.3837L30.1869 33.467H21.1736L16.3673 38.2543H7.41162L13.8316 31.8373L14.0736 31.5929C14.5808 31.0938 15.6066 30.6762 16.3558 30.6762H16.667H32.008V30.6864Z" fill="#FFDD00"/>
<path d="M33.3678 46.5046V46.1278C33.3678 46.0768 33.3332 46.0463 33.2525 46.0463H32.9759C32.8952 46.0463 32.8376 46.0361 32.8261 46.0055C32.803 45.975 32.803 45.9139 32.803 45.812V44.386H33.2525C33.2871 44.386 33.3102 44.3758 33.3332 44.3555C33.3563 44.3351 33.3678 44.3147 33.3678 44.2842V43.8869C33.3678 43.8564 33.3563 43.836 33.3332 43.8156C33.3102 43.7953 33.2871 43.7851 33.2525 43.7851H32.803V43.2656C32.803 43.2351 32.7915 43.2147 32.78 43.2045C32.7569 43.1943 32.7339 43.1841 32.7108 43.1841H32.6993L32.0308 43.286C31.9962 43.2962 31.9732 43.3064 31.9501 43.3165C31.9271 43.3369 31.9155 43.3573 31.9155 43.3777V43.7749H31.466C31.4314 43.7749 31.4084 43.7851 31.3853 43.8055C31.3623 43.8258 31.3508 43.8462 31.3508 43.8768V44.2027C31.3508 44.2333 31.3623 44.2536 31.3853 44.2638C31.4084 44.2842 31.4314 44.2944 31.466 44.3045L31.9155 44.3657V45.7917C31.9155 45.9648 31.9386 46.1074 31.9732 46.2194C32.0193 46.3315 32.0769 46.413 32.146 46.4741C32.2267 46.5352 32.3189 46.5759 32.4342 46.5963C32.5495 46.6167 32.6878 46.6269 32.8376 46.6269C32.9183 46.6269 32.9874 46.6269 33.0566 46.6167C33.1142 46.6065 33.1949 46.5963 33.2756 46.5861C33.3332 46.5861 33.3678 46.5556 33.3678 46.5046ZM30.9704 46.4537V46.0157C30.9704 45.9852 30.9589 45.9648 30.9358 45.9546C30.9128 45.9444 30.8897 45.9343 30.8667 45.9343H30.8551C30.7514 45.9444 30.6477 45.9546 30.5555 45.9546C30.4633 45.9648 30.3365 45.9648 30.1751 45.9648C30.1175 45.9648 30.0483 45.9546 30.0022 45.9343C29.9446 45.9139 29.8985 45.8833 29.8524 45.8426C29.8063 45.8018 29.7832 45.7407 29.7602 45.6694C29.7371 45.5981 29.7256 45.5065 29.7256 45.3944V44.987C29.7256 44.8749 29.7371 44.7833 29.7602 44.712C29.7832 44.6407 29.8178 44.5796 29.8524 44.5388C29.8985 44.4981 29.9446 44.4675 30.0022 44.4471C30.0598 44.4268 30.1175 44.4166 30.1751 44.4166C30.3365 44.4166 30.4633 44.4166 30.5555 44.4268C30.6477 44.437 30.7514 44.437 30.8551 44.4471H30.8667C30.9012 44.4471 30.9243 44.437 30.9358 44.4268C30.9589 44.4166 30.9704 44.3962 30.9704 44.3657V43.9277C30.9704 43.8869 30.9589 43.8666 30.9473 43.8564C30.9243 43.8462 30.9012 43.8258 30.8551 43.8156C30.7745 43.7953 30.6823 43.7851 30.5555 43.7647C30.4287 43.7443 30.2904 43.7443 30.1175 43.7443C29.7256 43.7443 29.4144 43.8462 29.1723 44.0601C28.9418 44.274 28.815 44.5796 28.815 44.987V45.3944C28.815 45.7917 28.9303 46.1074 29.1723 46.3213C29.4029 46.5352 29.7256 46.6371 30.1175 46.6371C30.2788 46.6371 30.4287 46.6269 30.5555 46.6167C30.6823 46.5963 30.786 46.5861 30.8551 46.5658C30.9012 46.5556 30.9243 46.5454 30.9473 46.525C30.9704 46.5148 30.9704 46.4843 30.9704 46.4537ZM27.3628 45.9343C27.2936 45.9648 27.2245 45.9852 27.1438 46.0055C27.0631 46.0259 26.9824 46.0361 26.9017 46.0361C26.7865 46.0361 26.6943 46.0259 26.6366 45.9954C26.579 45.9648 26.556 45.9037 26.556 45.7917V45.7509C26.556 45.6898 26.5675 45.6389 26.579 45.5981C26.5905 45.5574 26.6251 45.5166 26.6597 45.4861C26.6943 45.4555 26.7519 45.4352 26.8095 45.4148C26.8672 45.4046 26.9478 45.3944 27.0516 45.3944H27.3628V45.9343ZM28.2387 44.7425C28.2387 44.5592 28.2042 44.4064 28.1465 44.2842C28.0889 44.162 27.9967 44.0601 27.893 43.9786C27.7777 43.8971 27.6509 43.836 27.4896 43.8055C27.3282 43.7647 27.1438 43.7443 26.9478 43.7443C26.7634 43.7443 26.579 43.7545 26.4061 43.7749C26.2332 43.7953 26.0949 43.8156 25.9912 43.8462C25.922 43.8666 25.8875 43.8971 25.8875 43.9582V44.3555C25.8875 44.386 25.899 44.4064 25.9105 44.4268C25.9336 44.437 25.9566 44.4471 25.9797 44.4471H26.0027C26.0488 44.4471 26.1064 44.437 26.1641 44.437C26.2332 44.437 26.3024 44.4268 26.3831 44.4268C26.4637 44.4268 26.556 44.4166 26.6482 44.4166C26.7404 44.4166 26.8326 44.4166 26.9133 44.4166C27.04 44.4166 27.1438 44.437 27.2129 44.4777C27.2821 44.5184 27.3282 44.6101 27.3282 44.7527V44.9259H27.0285C26.556 44.9259 26.1987 44.987 25.9912 45.1194C25.7722 45.2518 25.6685 45.4657 25.6685 45.7509V45.7917C25.6685 45.9546 25.6915 46.087 25.7491 46.1889C25.8068 46.3009 25.8759 46.3824 25.9681 46.4537C26.0603 46.5148 26.1525 46.5658 26.2678 46.5963C26.3831 46.6269 26.4983 46.6371 26.6251 46.6371C26.7865 46.6371 26.9363 46.6167 27.0516 46.5759C27.1668 46.5352 27.2821 46.4843 27.3974 46.413V46.4945C27.3974 46.525 27.4089 46.5454 27.4319 46.5658C27.455 46.5861 27.478 46.5963 27.5126 46.5963H28.135C28.1696 46.5963 28.1926 46.5861 28.2157 46.5658C28.2387 46.5454 28.2503 46.525 28.2503 46.4945V44.7425H28.2387ZM25.2766 46.5046V46.1278C25.2766 46.0768 25.242 46.0463 25.1613 46.0463H24.8962C24.8155 46.0463 24.7579 46.0361 24.7464 46.0055C24.7233 45.975 24.7233 45.9139 24.7233 45.812V44.386H25.1728C25.2074 44.386 25.2305 44.3758 25.2535 44.3555C25.2766 44.3351 25.2881 44.3147 25.2881 44.2842V43.8869C25.2881 43.8564 25.2766 43.836 25.2535 43.8156C25.2305 43.7953 25.2074 43.7851 25.1728 43.7851H24.7233V43.2656C24.7233 43.2351 24.7118 43.2147 24.7003 43.2045C24.6772 43.1943 24.6542 43.1841 24.6311 43.1841H24.6196L23.9511 43.286C23.9165 43.2962 23.8935 43.3064 23.8704 43.3165C23.8474 43.3369 23.8358 43.3573 23.8358 43.3777V43.7749H23.3863C23.3517 43.7749 23.3287 43.7851 23.3056 43.8055C23.2826 43.8258 23.2711 43.8462 23.2711 43.8768V44.2027C23.2711 44.2333 23.2826 44.2536 23.3056 44.2638C23.3287 44.2842 23.3517 44.2944 23.3863 44.3045L23.8358 44.3657V45.7917C23.8358 45.9648 23.8589 46.1074 23.8935 46.2194C23.9396 46.3315 23.9972 46.413 24.0663 46.4741C24.1355 46.5352 24.2392 46.5759 24.3545 46.5963C24.4698 46.6167 24.6081 46.6269 24.7579 46.6269C24.8386 46.6269 24.9077 46.6269 24.9769 46.6167C25.0345 46.6065 25.1152 46.5963 25.1959 46.5861C25.242 46.5861 25.2766 46.5556 25.2766 46.5046ZM22.8561 46.4945V44.8648C22.8561 44.712 22.8446 44.5694 22.81 44.4268C22.787 44.2944 22.7293 44.1721 22.6602 44.0703C22.591 43.9684 22.4873 43.8869 22.3605 43.836C22.2337 43.7749 22.0724 43.7443 21.8649 43.7443C21.692 43.7443 21.5306 43.7647 21.3923 43.8055C21.254 43.8462 21.1157 43.9073 20.9543 44.0092V43.8869C20.9543 43.8564 20.9428 43.836 20.9198 43.8156C20.8967 43.7953 20.8737 43.7851 20.8391 43.7851H20.2167C20.1821 43.7851 20.159 43.7953 20.136 43.8156C20.1129 43.836 20.1014 43.8564 20.1014 43.8869V46.4945C20.1014 46.525 20.1129 46.5454 20.136 46.5658C20.159 46.5861 20.1821 46.5963 20.2167 46.5963H20.8852C20.9198 46.5963 20.9428 46.5861 20.9659 46.5658C20.9889 46.5454 21.0004 46.525 21.0004 46.4945V44.5694C21.0927 44.5286 21.1849 44.4879 21.2771 44.4573C21.3577 44.4268 21.45 44.4166 21.5306 44.4166C21.6113 44.4166 21.6805 44.4268 21.7381 44.437C21.7957 44.4471 21.8303 44.4777 21.8649 44.5083C21.8995 44.549 21.911 44.5897 21.9225 44.6509C21.934 44.712 21.934 44.7833 21.934 44.8648V46.4945C21.934 46.525 21.9456 46.5454 21.9686 46.5658C21.9917 46.5861 22.0147 46.5963 22.0493 46.5963H22.7178C22.7524 46.5963 22.7754 46.5861 22.7985 46.5658C22.8446 46.5454 22.8561 46.5148 22.8561 46.4945ZM18.6607 45.3639C18.6607 45.7611 18.4993 45.9648 18.1651 45.9648C18.0037 45.9648 17.8769 45.9139 17.7962 45.812C17.7155 45.7102 17.6694 45.5574 17.6694 45.3639V45.0175C17.6694 44.8138 17.7155 44.6712 17.7962 44.5694C17.8769 44.4675 18.0037 44.4166 18.1651 44.4166C18.4878 44.4166 18.6607 44.6203 18.6607 45.0175V45.3639ZM19.5597 45.0175C19.5597 44.824 19.5251 44.6407 19.4675 44.4879C19.4099 44.3351 19.3177 44.2027 19.2024 44.0907C19.0871 43.9786 18.9373 43.8971 18.7644 43.836C18.5915 43.7749 18.3956 43.7443 18.1651 43.7443C17.9345 43.7443 17.7386 43.7749 17.5657 43.836C17.3928 43.8971 17.243 43.9786 17.1277 44.0907C17.0125 44.2027 16.9203 44.3351 16.8626 44.4879C16.805 44.6407 16.7704 44.824 16.7704 45.0175V45.3639C16.7704 45.5574 16.805 45.7407 16.8626 45.8935C16.9203 46.0463 17.0125 46.1787 17.1277 46.2907C17.243 46.4028 17.3928 46.4843 17.5657 46.5454C17.7386 46.6065 17.9345 46.6371 18.1651 46.6371C18.3956 46.6371 18.5915 46.6065 18.7644 46.5454C18.9373 46.4843 19.0871 46.4028 19.2024 46.2907C19.3177 46.1787 19.4099 46.0463 19.4675 45.8935C19.5251 45.7407 19.5597 45.5574 19.5597 45.3639V45.0175ZM16.4707 46.4537V46.0157C16.4707 45.9852 16.4592 45.9648 16.4362 45.9546C16.4131 45.9444 16.3901 45.9343 16.3555 45.9343H16.344C16.2402 45.9444 16.1365 45.9546 16.0443 45.9546C15.9521 45.9546 15.8253 45.9648 15.6639 45.9648C15.6063 45.9648 15.5371 45.9546 15.491 45.9343C15.4334 45.9139 15.3873 45.8833 15.3412 45.8426C15.2951 45.8018 15.272 45.7407 15.249 45.6694C15.2259 45.5981 15.2144 45.5065 15.2144 45.3944V44.987C15.2144 44.8749 15.2259 44.7833 15.249 44.712C15.272 44.6407 15.3066 44.5796 15.3412 44.5388C15.3873 44.4981 15.4334 44.4675 15.491 44.4471C15.5487 44.4268 15.6063 44.4166 15.6639 44.4166C15.8253 44.4166 15.9521 44.4166 16.0443 44.4268C16.1365 44.437 16.2402 44.437 16.344 44.4471H16.3555C16.3901 44.4471 16.4131 44.437 16.4362 44.4268C16.4592 44.4166 16.4707 44.3962 16.4707 44.3657V43.9277C16.4707 43.8869 16.4592 43.8666 16.4477 43.8564C16.4246 43.8462 16.4016 43.8258 16.3555 43.8156C16.2748 43.7953 16.1826 43.7851 16.0558 43.7647C15.929 43.7443 15.7907 43.7443 15.6178 43.7443C15.2259 43.7443 14.9147 43.8462 14.6727 44.0601C14.4422 44.274 14.3154 44.5796 14.3154 44.987V45.3944C14.3154 45.7917 14.4306 46.1074 14.6727 46.3213C14.9032 46.5352 15.2259 46.6371 15.6178 46.6371C15.7792 46.6371 15.929 46.6269 16.0558 46.6167C16.1826 46.5963 16.2748 46.5861 16.3555 46.5658C16.4016 46.5556 16.4246 46.5454 16.4477 46.525C16.4707 46.5148 16.4707 46.4843 16.4707 46.4537ZM13.7506 46.4945V44.8648C13.7506 44.712 13.7391 44.5694 13.7045 44.4268C13.6815 44.2944 13.6238 44.1721 13.5547 44.0703C13.4855 43.9684 13.3818 43.8869 13.255 43.836C13.1282 43.7749 12.9669 43.7443 12.7594 43.7443C12.5865 43.7443 12.4251 43.7647 12.2868 43.8055C12.1485 43.8462 12.0102 43.9073 11.8488 44.0092V43.8869C11.8488 43.8564 11.8373 43.836 11.8143 43.8156C11.7912 43.7953 11.7682 43.7851 11.7336 43.7851H11.1112C11.0766 43.7851 11.0535 43.7953 11.0305 43.8156C11.0074 43.836 10.9959 43.8564 10.9959 43.8869V46.4945C10.9959 46.525 11.0074 46.5454 11.0305 46.5658C11.0535 46.5861 11.0766 46.5963 11.1112 46.5963H11.7797C11.8143 46.5963 11.8373 46.5861 11.8604 46.5658C11.8834 46.5454 11.8949 46.525 11.8949 46.4945V44.5694C11.9871 44.5286 12.0794 44.4879 12.1716 44.4573C12.2522 44.4268 12.3444 44.4166 12.4251 44.4166C12.5058 44.4166 12.575 44.4268 12.6326 44.437C12.6902 44.4471 12.7248 44.4777 12.7594 44.5083C12.794 44.549 12.8055 44.5897 12.817 44.6509C12.8285 44.712 12.8285 44.7833 12.8285 44.8648V46.4945C12.8285 46.525 12.8401 46.5454 12.8631 46.5658C12.8862 46.5861 12.9092 46.5963 12.9438 46.5963H13.6123C13.6469 46.5963 13.6699 46.5861 13.693 46.5658C13.7276 46.5454 13.7506 46.5148 13.7506 46.4945ZM9.46296 45.9343C9.3938 45.9648 9.32465 45.9852 9.24397 46.0055C9.16328 46.0259 9.0826 46.0361 9.00192 46.0361C8.88666 46.0361 8.79445 46.0259 8.73682 45.9954C8.67919 45.9648 8.65614 45.9037 8.65614 45.7917V45.7509C8.65614 45.6898 8.66767 45.6389 8.67919 45.5981C8.69072 45.5574 8.7253 45.5166 8.75988 45.4861C8.79445 45.4555 8.85208 45.4352 8.90971 45.4148C8.96734 45.4046 9.04802 45.3944 9.15176 45.3944H9.46296V45.9343ZM10.3505 44.7425C10.3505 44.5592 10.3159 44.4064 10.2583 44.2842C10.2006 44.162 10.1084 44.0601 10.0047 43.9786C9.88942 43.8971 9.76263 43.836 9.60127 43.8055C9.43991 43.7647 9.25549 43.7443 9.05955 43.7443C8.87513 43.7443 8.69072 43.7545 8.51783 43.7749C8.34494 43.7953 8.20663 43.8156 8.1029 43.8462C8.03374 43.8666 7.99916 43.8971 7.99916 43.9582V44.3555C7.99916 44.386 8.01069 44.4064 8.02221 44.4268C8.04527 44.437 8.06832 44.4471 8.09137 44.4471H8.11442C8.16053 44.4471 8.21816 44.437 8.27579 44.437C8.34494 44.437 8.4141 44.4268 8.5063 44.4268C8.58699 44.4268 8.67919 44.4166 8.7714 44.4166C8.86361 44.4166 8.95582 44.4166 9.0365 44.4166C9.16328 44.4166 9.26702 44.437 9.33617 44.4777C9.40533 44.5184 9.45143 44.6101 9.45143 44.7527V44.9259H9.15176C8.67919 44.9259 8.32189 44.987 8.11442 45.1194C7.90695 45.2518 7.79169 45.4657 7.79169 45.7509V45.7917C7.79169 45.9546 7.81475 46.087 7.87238 46.1889C7.93001 46.3009 7.99916 46.3824 8.09137 46.4537C8.18358 46.5148 8.27579 46.5658 8.39105 46.5963C8.5063 46.6269 8.62156 46.6371 8.74835 46.6371C8.90971 46.6371 9.05955 46.6167 9.17481 46.5759C9.29007 46.5352 9.40533 46.4843 9.52059 46.413V46.4945C9.52059 46.525 9.53211 46.5454 9.55517 46.5658C9.57822 46.5861 9.60127 46.5963 9.63585 46.5963H10.2583C10.2928 46.5963 10.3159 46.5861 10.3389 46.5658C10.362 46.5454 10.3735 46.525 10.3735 46.4945V44.7425H10.3505ZM6.38553 45.5166C6.38553 45.6491 6.3279 45.7611 6.22416 45.8324C6.12043 45.9037 5.91296 45.9444 5.63634 45.9444H5.54413C5.49803 45.9444 5.45193 45.9444 5.40582 45.9444C5.35972 45.9444 5.31361 45.9444 5.26751 45.9444H5.1753V45.0277H5.7977C6.0167 45.0277 6.17806 45.0685 6.25874 45.1601C6.33942 45.2518 6.38553 45.3537 6.38553 45.4657V45.5166ZM6.36248 44.0601C6.36248 44.111 6.35095 44.1619 6.33942 44.2129C6.31637 44.2638 6.29332 44.3045 6.24722 44.3351C6.20111 44.3657 6.14348 44.3962 6.07433 44.4166C6.00517 44.437 5.91296 44.4471 5.7977 44.4471H5.1753V43.6017C5.19835 43.6017 5.22141 43.6017 5.25598 43.6017C5.29056 43.6017 5.33667 43.6017 5.38277 43.6017H5.50955H5.60176C5.88991 43.6017 6.08585 43.6323 6.20111 43.6934C6.31637 43.7545 6.374 43.8564 6.374 43.9888V44.0601H6.36248ZM7.3076 45.4657C7.3076 45.2926 7.2615 45.15 7.16929 45.0277C7.07709 44.9055 6.96183 44.8036 6.81199 44.7425C6.96183 44.6814 7.07709 44.5796 7.15777 44.4573C7.23845 44.3249 7.28455 44.1823 7.28455 44.0295V43.9379C7.28455 43.7443 7.23845 43.5814 7.15777 43.449C7.07709 43.3165 6.9503 43.2147 6.80046 43.1332C6.65062 43.0517 6.46621 43.0008 6.24722 42.96C6.02822 42.9295 5.7977 42.9091 5.53261 42.9091C5.4404 42.9091 5.34819 42.9091 5.25598 42.9091C5.16378 42.9091 5.07157 42.9193 4.97936 42.9193C4.88715 42.9193 4.80647 42.9295 4.72579 42.9397C4.64511 42.9499 4.58748 42.9499 4.54137 42.96C4.43764 42.9804 4.35696 43.0008 4.31086 43.0517C4.26475 43.0925 4.2417 43.1739 4.2417 43.286V46.2602C4.2417 46.3722 4.26475 46.4435 4.31086 46.4945C4.35696 46.5352 4.43764 46.5658 4.54137 46.5861C4.599 46.5963 4.66816 46.6065 4.73732 46.6065C4.818 46.6167 4.89868 46.6167 4.99089 46.6269C5.08309 46.6269 5.1753 46.6371 5.26751 46.6371C5.35972 46.6371 5.46345 46.6371 5.55566 46.6371C5.7977 46.6371 6.02822 46.6167 6.23569 46.5861C6.44316 46.5556 6.6391 46.4945 6.78894 46.413C6.9503 46.3315 7.06556 46.2194 7.16929 46.0768C7.2615 45.9342 7.3076 45.7509 7.3076 45.537V45.4657Z" fill="#004E91"/>
<path d="M47.8627 39.9528H43.5083V47.3553H47.8627V39.9528Z" fill="#D7D7D7"/>
<path d="M47.8627 39.9528V47.3553H43.5083" fill="white"/>
<path d="M45.685 38.9948C47.0318 38.9948 48.1235 37.9031 48.1235 36.5564C48.1235 35.2097 47.0318 34.1179 45.685 34.1179C44.3383 34.1179 43.2466 35.2097 43.2466 36.5564C43.2466 37.9031 44.3383 38.9948 45.685 38.9948Z" fill="#D7D7D7"/>
<path d="M47.3834 34.8147C48.3414 35.7726 48.3414 37.3402 47.3834 38.2982C46.4254 39.2561 44.8579 39.2561 43.8999 38.2982" fill="white"/>
<path d="M56.1348 26.8893H40.459V50.4029H56.1348C59.1828 50.3594 62.1438 49.532 64.0597 47.8774C66.3676 45.9179 67.4997 42.7827 67.4997 38.6025C67.4997 36.5995 67.1513 34.8142 66.5417 33.2902C65.9757 31.8097 65.1483 30.5905 64.0597 29.589C62.1003 27.8908 59.1828 26.9328 56.1348 26.8893ZM55.6993 28.631C58.7038 28.631 61.2294 29.3712 62.9711 30.8953C64.9306 32.637 65.9321 35.119 65.9321 38.6025C65.8886 45.4825 62.5357 48.6612 55.6993 48.6612C55.1768 48.6612 43.5071 48.6612 42.2007 48.6612C42.2007 47.3548 42.2007 29.9373 42.2007 28.631C43.5071 28.631 55.1332 28.631 55.6993 28.631Z" fill="white"/>
<path d="M58.4434 36.9048C59.0965 36.9048 58.574 36.9048 59.2271 36.9048C59.1401 36.9048 58.9659 36.1645 58.8353 35.8162C58.7046 36.1645 58.4869 36.9048 58.4434 36.9048Z" fill="#CC1B69"/>
<path d="M50.7362 38.0805C50.8669 38.0369 50.9539 37.9499 51.041 37.9063C51.1281 37.8192 51.1717 37.6886 51.2152 37.558C51.2588 37.3838 51.3023 37.1225 51.3023 36.8177C51.3023 36.5129 51.2588 36.2952 51.2152 36.121C51.1717 35.9904 51.0846 35.8597 50.9975 35.7727C50.9104 35.6856 50.7798 35.6856 50.6491 35.642C50.5621 35.642 50.3879 35.642 49.996 35.642C49.996 35.642 49.996 35.642 49.5605 35.642V38.2547C49.996 38.2547 50.2137 38.2547 50.2137 38.2547C50.475 38.2111 50.6491 38.0805 50.7362 38.0805Z" fill="#CC1B69"/>
<path d="M61.3618 39.082V34.7276H62.6681C62.6681 34.7276 62.6681 37.3402 62.6681 37.7757C62.6681 37.7757 64.0615 37.7757 64.4534 37.7757C64.0615 31.6795 59.4023 30.3732 55.048 30.3732H49.605V34.7276H50.3452C50.6936 34.7276 50.9548 34.684 51.1726 34.7711C51.4338 34.8582 51.6515 34.9453 51.8257 35.163C51.9999 35.3372 52.1305 35.5549 52.2612 35.8597C52.3482 36.121 52.3918 36.4693 52.3918 36.8612C52.3918 37.2096 52.3482 37.5144 52.2612 37.7757C52.1741 38.0805 51.9999 38.3417 51.7822 38.5594C51.608 38.6901 51.4338 38.9078 51.1726 38.9949C50.9984 39.0384 50.7371 39.1691 50.3888 39.1691H49.605V47.4424H55.048C59.6201 47.4424 64.4534 46.1361 64.497 39.1691H61.3618V39.082ZM56.572 39.082H53.0885V34.7276H56.1366V35.5985C56.1366 35.5985 54.3948 35.5985 53.9594 35.5985V36.0339C54.3948 36.0339 56.1366 36.0339 56.1366 36.0339V37.3402C56.1366 37.3402 54.3948 37.3402 53.9594 37.3402C53.9594 37.3402 53.9594 37.7757 53.9594 38.2111C54.3948 38.2111 56.572 38.2111 56.572 38.2111V39.082ZM59.9249 39.082C59.9249 39.082 59.6201 38.2111 59.5765 38.2111C59.4459 38.2111 58.2267 38.2111 58.096 38.2111C58.0525 38.2111 57.7477 39.082 57.7477 39.082H56.6155L58.3137 34.7276H59.3588L61.1005 39.082H59.9249Z" fill="#FF0C91"/>
<path d="M49.6045 34.7295H50.3447C50.6931 34.7295 50.9544 34.686 51.1721 34.7731C51.4333 34.8602 51.6511 34.9472 51.8252 35.165C51.9994 35.3391 52.13 35.5569 52.2607 35.8617C52.3478 36.1229 52.3913 36.4713 52.3913 36.8632C52.3913 37.2115 52.3478 37.5163 52.2607 37.7776C52.1736 38.0824 51.9994 38.3437 51.7817 38.5614C51.6075 38.692 51.4333 38.9097 51.1721 38.9968C50.9979 39.0404 50.7366 39.171 50.3883 39.171H49.6045V47.4443H55.0475C59.6196 47.4443 64.4529 46.138 64.4965 39.171H61.3613V34.7295H62.6676C62.6676 34.7295 62.6676 37.3421 62.6676 37.7776C62.6676 37.7776 64.061 37.7776 64.4529 37.7776C64.061 31.6815 59.3148 30.5058 54.9604 30.5058L49.6045 34.7295ZM56.1361 39.0839H53.088V34.7295H56.1361V35.6004C56.1361 35.6004 54.3943 35.6004 53.9589 35.6004V36.4713C54.2637 36.4713 53.8718 36.4713 56.1361 36.4713V37.3421C56.1361 37.3421 54.3943 37.3421 53.9589 37.3421C53.9589 37.3421 53.9589 37.7776 53.9589 38.213C54.3943 38.213 56.1361 38.213 56.1361 38.213V39.0839ZM59.9244 39.0839C59.9244 39.0839 59.6196 38.213 59.576 38.213C59.4454 38.213 58.2262 38.213 58.0955 38.213C58.052 38.213 57.7472 39.0839 57.7472 39.0839H56.615L58.3133 34.7295H59.3583L61.1001 39.0839H59.9244Z" fill="#CC1B69"/>
<path d="M62.667 34.7276C62.667 34.7276 62.667 37.3402 62.667 37.7756C64.1911 37.7756 63.7121 37.7756 64.4523 37.7756C64.3217 36.0339 64.0169 34.9017 63.3202 33.8567L62.4058 34.7276H62.667Z" fill="#B50662"/>
<path d="M61.3608 35.5549L60.1416 36.9048L61.056 39.082H59.9239C59.9239 39.082 59.6191 38.2111 59.5755 38.2111C59.532 38.2111 59.3143 38.2111 59.053 38.2111L49.604 47.2682V47.3553H55.047C59.6191 47.3553 64.4524 46.049 64.496 39.082H61.3608V35.5549Z" fill="#B50662"/>
<path d="M40.459 26.8893V50.4029L42.2007 48.6612C42.2007 47.0936 42.2007 29.9373 42.2007 28.631C43.5071 28.631 55.1332 28.631 55.6993 28.631C57.833 28.631 59.6618 29.0229 61.2294 29.7196L62.4922 28.5004C60.7069 27.4553 58.3119 26.9328 56.1348 26.8893H40.459Z" fill="#D7D7D7"/>
<g clip-path="url(#clip5)">
<path d="M153.479 1.00003H121.915C121.688 1.00003 121.438 1.02218 121.211 1.06648C120.984 1.11078 120.757 1.17722 120.53 1.28797C120.326 1.37656 120.121 1.53161 119.962 1.68665C119.803 1.84169 119.644 2.04103 119.554 2.24037C119.44 2.43971 119.372 2.6612 119.326 2.90484C119.281 3.12633 119.281 3.36997 119.258 3.59146V21.8643C119.258 22.0858 119.281 22.3295 119.326 22.5509C119.372 22.7724 119.44 22.9939 119.554 23.2154C119.667 23.4148 119.803 23.6141 119.962 23.7691C120.121 23.9242 120.326 24.0792 120.53 24.1678C120.734 24.2786 120.961 24.345 121.211 24.3893C121.438 24.4336 121.688 24.4336 121.915 24.4558H154.183C154.41 24.4558 154.66 24.4336 154.887 24.3893C155.114 24.345 155.341 24.2786 155.568 24.1678C155.772 24.0571 155.977 23.9242 156.136 23.7691C156.295 23.6141 156.454 23.4148 156.544 23.2154C156.658 23.0161 156.726 22.7946 156.771 22.5509C156.817 22.3295 156.817 22.0858 156.84 21.8643V21.5542V4.27807V3.90154V3.59146C156.84 3.36997 156.817 3.12633 156.771 2.90484C156.726 2.68335 156.658 2.46186 156.544 2.24037C156.431 2.04103 156.295 1.84169 156.136 1.68665C155.977 1.53161 155.772 1.37656 155.568 1.28797C155.364 1.17722 155.136 1.11078 154.887 1.06648C154.66 1.02218 154.41 1.02218 154.183 1.00003H153.479V1.00003Z" fill="black"/>
<path d="M153.479 1.77518H154.183C154.365 1.77518 154.569 1.79733 154.773 1.81947C154.955 1.84162 155.091 1.88592 155.227 1.95237C155.364 2.01882 155.477 2.10741 155.591 2.21816C155.704 2.3289 155.795 2.43965 155.863 2.57254C155.931 2.70543 155.977 2.83833 156 3.01552C156.045 3.21486 156.045 3.4142 156.045 3.59139V21.8643C156.045 22.0415 156.022 22.2408 156 22.4401C155.977 22.5952 155.931 22.7502 155.863 22.8831C155.795 23.016 155.704 23.1268 155.591 23.2375C155.477 23.3482 155.364 23.4368 155.227 23.5033C155.091 23.5697 154.955 23.614 154.773 23.6362C154.569 23.6805 154.365 23.6805 154.183 23.6805H121.915C121.756 23.6805 121.529 23.6583 121.325 23.6362C121.166 23.614 121.007 23.5697 120.871 23.4811C120.734 23.4147 120.621 23.3261 120.507 23.2153C120.394 23.1046 120.303 22.9939 120.235 22.861C120.167 22.7281 120.121 22.5952 120.099 22.418C120.053 22.2186 120.053 22.0193 120.053 21.8421V3.90147V3.59139C120.053 3.4142 120.076 3.21486 120.099 3.01552C120.121 2.86047 120.167 2.70543 120.235 2.57254C120.303 2.43965 120.394 2.3289 120.507 2.21816C120.621 2.10741 120.734 2.01882 120.871 1.95237C121.007 1.88592 121.143 1.84162 121.325 1.81947C121.529 1.77518 121.734 1.77518 121.915 1.77518H153.479Z" fill="white"/>
<path d="M129.522 8.88499C129.84 8.48631 130.067 7.95473 129.999 7.42316C129.522 7.44531 128.954 7.73324 128.614 8.10977C128.319 8.44201 128.046 8.99573 128.114 9.50516C128.659 9.57161 129.182 9.28367 129.522 8.88499ZM129.999 9.63805C129.227 9.59375 128.568 10.0589 128.205 10.0589C127.842 10.0589 127.274 9.6602 126.661 9.6602C125.866 9.68235 125.14 10.1032 124.731 10.8119C123.913 12.2073 124.504 14.2672 125.321 15.3968C125.707 15.9505 126.184 16.5707 126.797 16.5485C127.388 16.5264 127.615 16.172 128.319 16.172C129.023 16.172 129.227 16.5485 129.863 16.5264C130.499 16.5042 130.907 15.9727 131.293 15.3968C131.748 14.7545 131.929 14.1343 131.929 14.1121C131.906 14.09 130.68 13.647 130.68 12.2738C130.658 11.122 131.634 10.5683 131.679 10.5462C131.157 9.7488 130.294 9.6602 129.999 9.63805Z" fill="black"/>
<path d="M136.675 8.06549C138.356 8.06549 139.514 9.19509 139.514 10.812C139.514 12.451 138.333 13.5806 136.63 13.5806H134.79V16.4378H133.451V8.06549H136.675ZM134.79 12.4953H136.312C137.47 12.4953 138.128 11.8751 138.128 10.8341C138.128 9.77096 137.47 9.17294 136.312 9.17294H134.768V12.4953H134.79ZM139.854 14.7323C139.854 13.6692 140.694 13.0047 142.193 12.9161L143.919 12.8275V12.3624C143.919 11.6758 143.442 11.2771 142.67 11.2771C141.921 11.2771 141.467 11.6315 141.353 12.163H140.127C140.195 11.0556 141.171 10.2361 142.715 10.2361C144.237 10.2361 145.213 11.0113 145.213 12.2516V16.4599H143.987V15.4632H143.964C143.601 16.1499 142.806 16.5707 141.989 16.5707C140.717 16.5707 139.854 15.8176 139.854 14.7323ZM143.919 14.1786V13.6913L142.375 13.7799C141.603 13.8242 141.171 14.1565 141.171 14.688C141.171 15.2196 141.625 15.574 142.307 15.574C143.215 15.574 143.919 14.976 143.919 14.1786ZM146.349 18.7191V17.7003C146.439 17.7224 146.667 17.7224 146.757 17.7224C147.348 17.7224 147.666 17.4788 147.87 16.8586C147.87 16.8365 147.984 16.4821 147.984 16.4821L145.713 10.369H147.098L148.688 15.3525H148.71L150.3 10.369H151.662L149.323 16.8143C148.778 18.2983 148.165 18.7634 146.871 18.7634C146.78 18.7413 146.462 18.7413 146.349 18.7191Z" fill="black"/>
</g>
<g clip-path="url(#clip6)">
<path d="M163.295 1H193.807C194.781 1 195.665 1.41622 196.306 2.08655C196.947 2.757 197.344 3.68228 197.344 4.70041V20.7775C197.344 21.7955 196.946 22.7208 196.306 23.3912C195.665 24.0617 194.781 24.4779 193.808 24.4779H163.295C162.322 24.4779 161.438 24.0617 160.797 23.3912C160.156 22.7209 159.758 21.7957 159.758 20.7775V4.70041C159.758 3.68216 160.156 2.75689 160.797 2.08655C161.437 1.41622 162.322 1 163.295 1H163.295ZM193.807 2.27543H163.295C162.658 2.27543 162.079 2.54854 161.659 2.98835C161.238 3.42816 160.977 4.03432 160.977 4.70053V20.7776C160.977 21.4437 161.238 22.0498 161.659 22.4896C162.079 22.9296 162.658 23.2027 163.295 23.2027H193.807C194.444 23.2027 195.023 22.9296 195.444 22.4896C195.864 22.0497 196.125 21.4436 196.125 20.7777V4.70064C196.125 4.03467 195.864 3.4284 195.444 2.98847C195.024 2.54866 194.444 2.27543 193.807 2.27543Z" fill="white"/>
<path fill-rule="evenodd" clip-rule="evenodd" d="M190.505 10.6141L187.547 17.7101H186.651L187.757 15.2405L185.815 10.6453H186.771L188.175 14.1777H188.205L189.579 10.6453H190.505V10.614L190.505 10.6141ZM177.897 12.6147V15.5219H177V8.33212H179.331C179.899 8.33212 180.436 8.55097 180.855 8.95739C181.273 9.33255 181.482 9.89518 181.482 10.4891C181.482 11.0831 181.273 11.6144 180.855 12.0207C180.436 12.4272 179.928 12.646 179.331 12.646L177.897 12.6147ZM177.897 9.20738V11.7082H179.391C179.719 11.7082 180.048 11.5833 180.257 11.3331C180.735 10.8641 180.735 10.0828 180.287 9.6138L180.257 9.58254C180.018 9.33243 179.719 9.17623 179.391 9.20738H177.897ZM183.544 10.4578C184.201 10.4578 184.709 10.6453 185.097 11.0204C185.486 11.3956 185.665 11.8958 185.665 12.5209V15.5219H184.828V14.8342H184.799C184.44 15.3968 183.932 15.6782 183.335 15.6782C182.827 15.6782 182.379 15.5219 182.02 15.2092C181.691 14.8966 181.482 14.459 181.482 13.9901C181.482 13.4899 181.662 13.0836 182.02 12.7709C182.379 12.4584 182.886 12.3334 183.484 12.3334C184.022 12.3334 184.44 12.4272 184.769 12.646V12.4272C184.769 12.1145 184.649 11.8019 184.41 11.6144C184.171 11.3956 183.872 11.2705 183.544 11.2705C183.036 11.2705 182.647 11.4894 182.379 11.9271L181.602 11.427C182.08 10.7706 182.707 10.4579 183.544 10.4579L183.544 10.4578ZM182.408 14.0214C182.408 14.2715 182.528 14.4903 182.707 14.6154C182.916 14.7716 183.155 14.8655 183.394 14.8655C183.753 14.8655 184.111 14.7092 184.38 14.4278C184.679 14.1464 184.828 13.8025 184.828 13.4275C184.559 13.2086 184.171 13.0836 183.663 13.0836C183.304 13.0836 183.006 13.1774 182.767 13.3649C182.528 13.5213 182.408 13.7401 182.408 14.0215L182.408 14.0214Z" fill="white"/>
<path fill-rule="evenodd" clip-rule="evenodd" d="M174.341 11.9897C174.341 11.7083 174.311 11.4269 174.282 11.1457H170.547V12.74H172.668C172.579 13.2401 172.31 13.709 171.891 13.9904V15.022H173.176C173.923 14.303 174.341 13.2401 174.341 11.9898L174.341 11.9897Z" fill="white"/>
<path fill-rule="evenodd" clip-rule="evenodd" d="M170.547 16.0221C171.623 16.0221 172.519 15.6469 173.176 15.0218L171.892 13.9902C171.533 14.2403 171.085 14.3965 170.547 14.3965C169.531 14.3965 168.635 13.6776 168.336 12.6773H167.021V13.7401C167.709 15.1468 169.053 16.0221 170.547 16.0221Z" fill="white"/>
<path fill-rule="evenodd" clip-rule="evenodd" d="M168.336 12.6773C168.157 12.1772 168.157 11.6145 168.336 11.0831V10.0203H167.022C166.454 11.1769 166.454 12.5524 167.022 13.7403L168.336 12.6775V12.6773Z" fill="white"/>
<path fill-rule="evenodd" clip-rule="evenodd" d="M170.547 9.39503C171.115 9.39503 171.652 9.61387 172.071 10.0203L173.206 8.8324C172.489 8.14461 171.533 7.7383 170.577 7.76957C169.083 7.76957 167.709 8.64482 167.051 10.0516L168.366 11.1144C168.635 10.1141 169.531 9.39503 170.547 9.39503Z" fill="white"/>
</g>
<defs>
<clipPath id="clip0">
<rect width="55.033" height="23.4779" fill="white" transform="translate(184.79 27.5793)"/>
</clipPath>
<clipPath id="clip1">
<rect width="66.7719" height="23.4779" fill="white" transform="translate(243.011 27.5793)"/>
</clipPath>
<clipPath id="clip2">
<rect width="37.5861" height="23.4779" fill="white" transform="translate(39.7402 1)"/>
</clipPath>
<clipPath id="clip3">
<rect width="37.5861" height="23.4779" fill="white" transform="translate(0 1)"/>
</clipPath>
<clipPath id="clip4">
<rect width="37.5861" height="23.4779" fill="white" transform="translate(79 1)"/>
</clipPath>
<clipPath id="clip5">
<rect width="37.5861" height="23.4779" fill="white" transform="translate(119.256 1)"/>
</clipPath>
<clipPath id="clip6">
<rect width="37.5861" height="23.4779" fill="white" transform="translate(159.757 1)"/>
</clipPath>
</defs>
</svg>
