<svg width="40" height="60" viewBox="0 0 40 60" fill="none" xmlns="http://www.w3.org/2000/svg">
<g clip-path="url(#clip0)">
<path d="M0 0H39.95V60.3167L19.975 48.9583L0 60.3167V0Z" fill="#00FFB2"/>
<path d="M8.63633 19L12.96 9.22363V5.83633H3.37637V9.22363H8.9209L4.59727 19H8.63633ZM18.3055 19.1836C20.0221 19.1836 21.3348 18.7154 22.2344 17.7883C23.1248 16.8611 23.5746 15.732 23.5746 14.3918C23.5746 13.024 23.1524 11.95 22.3078 11.1605C21.4541 10.3711 20.3709 9.97637 19.0582 9.97637C18.2229 9.97637 17.4977 10.1324 16.901 10.4445H16.7816L16.9377 8.93906H22.8219V5.83633H13.89L13.119 13.5473H16.7082C17.0479 13.0424 17.5436 12.7945 18.2137 12.7945C18.7645 12.7945 19.1684 12.9414 19.4254 13.2443C19.6824 13.5473 19.8109 13.8961 19.8109 14.3C19.8109 14.7131 19.6732 15.0711 19.407 15.3648C19.1408 15.6586 18.7369 15.8055 18.2137 15.8055C17.7455 15.8055 17.3967 15.6953 17.158 15.475C16.9193 15.2547 16.7725 15.016 16.7082 14.7682H12.9445C13.0822 16.191 13.6514 17.2742 14.6336 18.0361C15.6158 18.798 16.8367 19.1836 18.3055 19.1836ZM27.9379 19L36.1078 5.83633H33.7854L25.6063 19H27.9379ZM36.7229 18.3023C37.292 17.7148 37.5766 16.9438 37.5766 15.9891C37.5766 15.0436 37.292 14.2725 36.7229 13.6758C36.1537 13.0883 35.4102 12.7945 34.483 12.7945C33.5559 12.7945 32.8031 13.0883 32.234 13.6758C31.6557 14.2725 31.3711 15.0436 31.3711 15.9891C31.3711 16.9438 31.6557 17.7148 32.234 18.3023C32.8031 18.8898 33.5559 19.1836 34.483 19.1836C35.4102 19.1836 36.1537 18.8898 36.7229 18.3023ZM33.6569 16.9621C33.4457 16.7326 33.3447 16.4021 33.3447 15.9891C33.3447 15.576 33.4457 15.2547 33.6569 15.0252C33.868 14.7957 34.1434 14.6764 34.483 14.6764C34.8227 14.6764 35.0889 14.7957 35.3 15.0252C35.502 15.2547 35.6029 15.576 35.6029 15.9891C35.6029 16.4021 35.502 16.7326 35.3 16.9621C35.0889 17.1916 34.8227 17.3109 34.483 17.3109C34.1434 17.3109 33.868 17.1916 33.6569 16.9621ZM29.4893 11.1605C30.0584 10.573 30.343 9.80195 30.343 8.84727C30.343 7.89258 30.0584 7.12148 29.4893 6.53398C28.911 5.94648 28.1674 5.65273 27.2402 5.65273C26.3131 5.65273 25.5604 5.94648 24.9912 6.53398C24.4221 7.12148 24.1375 7.89258 24.1375 8.84727C24.1375 9.80195 24.4221 10.573 24.9912 11.1605C25.5604 11.748 26.3131 12.0418 27.2402 12.0418C28.1674 12.0418 28.911 11.748 29.4893 11.1605ZM26.4233 9.81113C26.2121 9.58164 26.1111 9.26035 26.1111 8.84727C26.1111 8.43418 26.2121 8.10371 26.4233 7.87422C26.6344 7.64473 26.9006 7.53457 27.2402 7.53457C27.5799 7.53457 27.8461 7.64473 28.0572 7.87422C28.2684 8.10371 28.3694 8.43418 28.3694 8.84727C28.3694 9.26035 28.2684 9.58164 28.0572 9.81113C27.8461 10.0406 27.5799 10.16 27.2402 10.16C26.9006 10.16 26.6344 10.0406 26.4233 9.81113Z" fill="#15193F"/>
<path d="M5.85278 29.6281C6.21079 30.0366 6.66748 30.2408 7.22285 30.2408C7.77822 30.2408 8.23262 30.0366 8.58603 29.6281C8.94404 29.2196 9.12305 28.6252 9.12305 27.8449C9.12305 27.0646 8.94404 26.4703 8.58603 26.0618C8.23262 25.6533 7.77822 25.449 7.22285 25.449C6.66748 25.449 6.21079 25.6533 5.85278 26.0618C5.49478 26.4703 5.31577 27.0646 5.31577 27.8449C5.31577 28.6252 5.49478 29.2196 5.85278 29.6281ZM6.94058 31.721C5.96294 31.721 5.17808 31.3837 4.58599 30.709C3.9939 30.0343 3.69785 29.0819 3.69785 27.8518C3.69785 26.6171 3.9939 25.6624 4.58599 24.9877C5.17808 24.3084 5.96294 23.9688 6.94058 23.9688C7.41792 23.9688 7.84707 24.0698 8.22803 24.2717C8.60898 24.4737 8.88437 24.7009 9.0542 24.9533H9.12305V21.7106H10.7479V31.5833H9.40532L9.19878 30.6677H9.12305C8.89814 30.9798 8.59521 31.2345 8.21426 31.4319C7.8333 31.6246 7.40874 31.721 6.94058 31.721ZM12.1614 31.5833V24.1134H13.7862V31.5833H12.1614ZM12.9669 23.2665C12.6778 23.2665 12.4345 23.1724 12.2372 22.9843C12.0444 22.7961 11.948 22.562 11.948 22.282C11.948 21.9974 12.0444 21.7611 12.2372 21.5729C12.4299 21.3847 12.6732 21.2906 12.9669 21.2906C13.2699 21.2906 13.5154 21.3847 13.7036 21.5729C13.8964 21.7611 13.9928 21.9974 13.9928 22.282C13.9928 22.562 13.8964 22.7961 13.7036 22.9843C13.5154 23.1724 13.2699 23.2665 12.9669 23.2665ZM17.7334 31.721C16.8476 31.721 16.1338 31.5099 15.5922 31.0876C15.0552 30.6654 14.711 30.1031 14.5595 29.4009H16.322C16.3955 29.6533 16.5538 29.8576 16.7971 30.0136C17.0449 30.1651 17.357 30.2408 17.7334 30.2408C18.6743 30.2408 19.1448 29.9838 19.1448 29.4697C19.1448 29.2173 18.9956 29.0245 18.6973 28.8914C18.4035 28.7583 18.0478 28.6527 17.6301 28.5747C17.2125 28.4921 16.7902 28.3888 16.3633 28.2649C15.9411 28.1364 15.5808 27.8954 15.2824 27.542C14.9887 27.1886 14.8418 26.7273 14.8418 26.1581C14.8418 25.5293 15.0897 25.0084 15.5854 24.5953C16.0857 24.1776 16.7764 23.9688 17.6577 23.9688C18.5435 23.9688 19.2458 24.1661 19.7644 24.5609C20.2831 24.9556 20.6158 25.488 20.7627 26.1581H19.0002C18.812 25.69 18.3668 25.4536 17.6646 25.449C16.9118 25.449 16.5355 25.6854 16.5355 26.1581C16.5355 26.3739 16.641 26.5506 16.8522 26.6883C17.0633 26.8214 17.3272 26.9155 17.6439 26.9705C17.9652 27.021 18.3117 27.1014 18.6835 27.2115C19.0553 27.3171 19.3995 27.441 19.7162 27.5833C20.0375 27.721 20.3037 27.9528 20.5149 28.2786C20.7306 28.5999 20.8384 28.997 20.8384 29.4697C20.8384 30.1352 20.5745 30.6768 20.0467 31.0945C19.5189 31.5122 18.7478 31.721 17.7334 31.721ZM24.8545 31.721C23.785 31.721 22.929 31.3791 22.2864 30.6952C21.6485 30.0067 21.3295 29.0566 21.3295 27.8449C21.3295 26.6332 21.6485 25.6854 22.2864 25.0015C22.9244 24.313 23.7804 23.9688 24.8545 23.9688C25.7265 23.9688 26.4494 24.2029 27.0232 24.671C27.5969 25.1346 27.9778 25.7221 28.166 26.4335H26.5481C26.1809 25.7772 25.6164 25.449 24.8545 25.449C24.2807 25.449 23.8195 25.6578 23.4706 26.0755C23.1218 26.4932 22.9474 27.083 22.9474 27.8449C22.9474 28.6068 23.1218 29.1966 23.4706 29.6143C23.8195 30.032 24.2807 30.2408 24.8545 30.2408C25.6164 30.2408 26.1809 29.9126 26.5481 29.2563H28.166C27.9778 29.9723 27.5969 30.5621 27.0232 31.0257C26.4494 31.4892 25.7265 31.721 24.8545 31.721ZM34.7432 30.6952C34.1052 31.3791 33.2492 31.721 32.1752 31.721C31.1057 31.721 30.252 31.3791 29.614 30.6952C28.976 30.0067 28.6571 29.0566 28.6571 27.8449C28.6571 26.6332 28.976 25.6854 29.614 25.0015C30.252 24.313 31.1057 23.9688 32.1752 23.9688C33.2492 23.9688 34.1052 24.313 34.7432 25.0015C35.3858 25.6854 35.7071 26.6332 35.7071 27.8449C35.7071 29.0566 35.3858 30.0067 34.7432 30.6952ZM30.812 29.6281C31.17 30.0366 31.6267 30.2408 32.1821 30.2408C32.7374 30.2408 33.1918 30.0366 33.5452 29.6281C33.9032 29.2196 34.0822 28.6252 34.0822 27.8449C34.0822 27.0646 33.9032 26.4703 33.5452 26.0618C33.1918 25.6533 32.7374 25.449 32.1821 25.449C31.6267 25.449 31.17 25.6533 30.812 26.0618C30.454 26.4703 30.275 27.0646 30.275 27.8449C30.275 28.6252 30.454 29.2196 30.812 29.6281ZM6.796 43.721C5.979 43.721 5.31577 43.4456 4.8063 42.8949C4.30142 42.3395 4.04897 41.6051 4.04897 40.6917V36.1134H5.67378V40.554C5.67378 41.0819 5.81606 41.495 6.10063 41.7933C6.38979 42.0916 6.76387 42.2408 7.22285 42.2408C7.7002 42.2408 8.08804 42.0779 8.38638 41.752C8.68931 41.4215 8.84077 41.013 8.84077 40.5265V36.1134H10.4656V43.5833H9.12305L8.9165 42.6677H8.84077C8.41851 43.3699 7.73691 43.721 6.796 43.721ZM11.8034 43.5833V36.1134H13.146L13.3525 37.029H13.4282C13.8505 36.3222 14.5321 35.9688 15.473 35.9688C16.29 35.9688 16.9509 36.2465 17.4558 36.8018C17.9653 37.3572 18.22 38.0893 18.22 38.9981V43.5833H16.5952V39.1427C16.5952 38.6148 16.4529 38.2017 16.1684 37.9034C15.8838 37.6005 15.5097 37.449 15.0461 37.449C14.5688 37.449 14.1787 37.6142 13.8757 37.9447C13.5774 38.2706 13.4282 38.6791 13.4282 39.1702V43.5833H11.8034ZM22.1672 43.5833C21.5017 43.5833 20.983 43.402 20.6112 43.0394C20.2395 42.6768 20.0536 42.1765 20.0536 41.5386V37.5936H18.8556V36.1134H20.0536L20.267 34.1374H21.6784V36.1134H23.5097V37.5936H21.6784V41.3251C21.6784 41.5409 21.7472 41.7244 21.8849 41.8759C22.0272 42.0274 22.2154 42.1031 22.4495 42.1031H23.5097V43.5833H22.1672Z" fill="#15193F"/>
</g>
<defs>
<clipPath id="clip0">
<rect width="40" height="60" fill="white"/>
</clipPath>
</defs>
</svg>
