<svg width="170" height="88" viewBox="0 0 170 88" fill="none" xmlns="http://www.w3.org/2000/svg">
<path fill-rule="evenodd" clip-rule="evenodd" d="M84.4215 0.706495C90.3091 1.96119 95.2218 7.25414 96.1777 13.3735C96.454 15.1421 96.7421 17.1582 96.8177 17.8542C96.9225 18.8184 97.2292 18.9907 98.1066 18.5792C105.815 14.9595 112.761 17.4152 118.664 25.8474C120.392 28.3163 121.302 30.5498 122.906 36.2565L124.949 43.5225L128.024 43.0357C129.716 42.7678 131.451 42.6592 131.88 42.7949C132.309 42.93 133.509 45.5331 134.548 48.5792C135.587 51.6254 137.034 55.628 137.763 57.4744L139.09 60.8307L136.363 62.3545C133.909 63.7264 133.785 63.9028 135.128 64.1191C135.949 64.2508 136.719 64.7275 136.84 65.1776C136.96 65.6278 137.367 65.9133 137.745 65.8122C138.228 65.6825 138.666 66.958 139.228 70.1351C141.828 84.8194 141.627 84.0803 143.015 84.073C144.366 84.0665 146.329 87.1291 145.9 88.5719C145.771 89.0028 146.046 90.4905 146.511 91.8785C146.975 93.2659 147.212 95.0217 147.036 95.7791C146.801 96.7933 147.608 99.1886 150.098 104.869C151.958 109.111 153.629 113.741 153.813 115.159C154.164 117.877 154.115 117.817 163.291 126.916C165.298 128.907 167.215 131.524 168.087 133.464C168.886 135.241 170.6 137.746 171.896 139.031C174 141.116 174.336 141.814 175.032 145.531C175.671 148.946 176.625 151.178 180.329 157.926C185.764 167.828 186.319 170.362 183.362 171.775C182.347 172.26 179.453 173.12 176.932 173.686L172.347 174.715L171.687 171.636C168.975 158.973 167.336 155.605 162.712 153.185C161.298 152.445 159.735 151.092 159.239 150.179C158.742 149.266 156.655 146.44 154.599 143.899C152.035 140.729 150.63 138.412 150.122 136.515C149.183 133.013 147.886 131.217 144.67 128.967C138.408 124.586 137.393 123.643 136.163 121.062C134.184 116.912 129.969 111.371 126.765 108.711C125.181 107.394 123.792 105.974 123.68 105.556C123.333 104.26 122.613 104.983 121.884 107.357C121.429 108.843 120.59 109.906 119.465 110.423C118.031 111.082 117.273 112.582 114.93 119.409C113.382 123.917 111.829 127.917 111.479 128.299C111.129 128.682 109.832 129.27 108.599 129.606C107.005 130.041 106.265 130.606 106.044 131.56C105.568 133.615 107.057 138.337 108.625 139.743C109.793 140.791 110.207 141.971 111.167 146.994C112.33 153.08 112.745 160.099 112.037 161.697C111.46 162.998 114.811 173.097 117.539 178.279C119.853 182.678 119.893 182.83 119.011 183.961C118.373 184.78 117.165 185.265 114.929 185.602C112.904 185.906 110.717 186.716 108.898 187.837C106.894 189.07 103.997 190.087 99.1826 191.248L92.3219 192.902L91.6062 190.985C90.9167 189.14 91.0333 188.944 94.7351 185.732C98.866 182.148 101.887 176.798 101.743 173.324C101.602 169.938 100.095 165.065 98.5801 163.096C97.5373 161.741 96.6827 159.502 95.8252 155.879C95.1419 152.99 93.1923 146.991 91.4933 142.549C89.0703 136.215 88.4676 134.086 88.699 132.686C88.8617 131.705 88.8755 130.457 88.7302 129.915C88.5847 129.372 88.7762 128.318 89.1559 127.573C89.5358 126.829 90.1972 123.294 90.6254 119.719C91.7181 110.593 93.1245 104.779 95.6481 98.9525C97.237 95.285 97.7421 93.1891 97.5154 91.2061C97.1199 87.7395 96.4442 87.1067 94.3176 88.2111C90.6993 90.0902 88.6126 87.4107 85.0157 76.27C82.4429 68.301 82.3389 67.7364 83.1763 66.2782C83.6646 65.4279 84.3795 64.5234 84.7653 64.2677C85.2579 63.9416 85.1682 63.1811 84.4641 61.7095L83.4618 59.6158L78.5486 64.1312C75.846 66.6146 72.5829 69.118 71.2965 69.6938C70.0103 70.2702 68.8747 71.0192 68.7737 71.3582C68.5348 72.1599 66.4756 71.6849 61.7554 69.7391C57.8655 68.1353 57.1735 67.3688 54.654 61.8747C53.8751 60.177 53.299 59.7103 52.0028 59.7294C50.4949 59.7519 50.331 59.5491 50.1662 57.4492C49.5998 50.2344 49.4458 49.8264 46.6877 48.2645C45.2649 47.4581 43.6306 46.4473 43.0558 46.0173C42.1815 45.3641 40.6688 45.5956 33.8149 47.4321C26.2959 49.4468 25.5691 49.54 25.0145 48.5635C24.4466 47.5639 23.7024 47.6936 12.8443 50.6851C1.65381 53.7682 1.26779 53.8319 0.952826 52.6564C0.638834 51.4846 0.956492 51.3617 9.9096 49.1991L19.1921 46.9573L18.7835 45.4325C18.5119 44.4187 18.7516 43.6929 19.4992 43.266C20.4177 42.7419 20.4865 42.1134 19.8758 39.8341C19.4644 38.299 19.4001 36.9704 19.7326 36.8813C20.0652 36.7922 20.7402 38.2228 21.2325 40.0604C22.0887 43.2558 23.0907 44.2426 23.3119 42.1077C23.4012 41.2438 26.1255 40.3771 42.784 35.9135C53.5882 33.0185 62.0884 30.4863 62.0083 30.1874C61.9292 29.8922 62.3704 29.3618 62.9886 29.0087C63.6614 28.6246 63.9759 27.856 63.7721 27.0954C63.2332 25.0841 64.4114 25.3381 65.4227 27.4508C66.3002 29.2842 66.5167 29.3544 70.5038 29.0961C72.794 28.9479 74.749 28.6858 74.8475 28.5142C74.9459 28.342 74.9043 27.0308 74.7547 25.5994C74.4921 23.0784 74.4211 22.9998 72.4859 23.0866C71.3869 23.1356 70.0824 22.7416 69.5868 22.2103C68.3547 20.8918 67.3374 16.6523 67.3162 12.7495C67.2998 9.78095 67.5663 9.22513 70.5201 6.06822C73.2385 3.16254 74.3458 2.42635 77.6129 1.353C80.6988 0.338621 82.0804 0.207388 84.4215 0.706495ZM56.4817 45.3797C56.7412 47.132 59.7492 50.3231 62.4176 51.6786C63.8841 52.4231 63.9401 52.3781 64.6207 49.9117C65.5126 46.6783 65.4846 46.6103 62.9798 45.9064C61.8234 45.5814 60.7862 44.9758 60.6749 44.5602C59.9815 41.9724 56.0887 42.7328 56.4817 45.3797Z" fill="#B620FD"/>
</svg>
