<svg width="159" height="114" viewBox="0 0 159 114" fill="none" xmlns="http://www.w3.org/2000/svg">
<path fill-rule="evenodd" clip-rule="evenodd" d="M81.4596 23.1323C72.2571 36.0741 64.5979 46.979 64.4397 47.3642C64.2808 47.7503 72.7384 48.0656 83.2335 48.0656C93.7287 48.0656 102.309 47.7737 102.301 47.4178C102.198 42.6279 98.8898 0.298887 98.5952 0.00345996C98.3731 -0.217678 90.662 10.1896 81.4596 23.1323ZM19.403 63.2775C30.0744 71.1694 39.3442 78.1361 40.0027 78.7589C41.0119 79.7135 38.5233 83.6542 24.2332 103.737C14.9011 116.852 7.26606 127.767 7.26606 127.994C7.26606 128.221 20.4839 121.796 36.6397 113.719C52.7954 105.64 66.3943 99.0311 66.8583 99.0311C67.3232 99.0311 76.5602 105.64 87.3854 113.717C106.905 128.283 107.07 128.382 107.335 125.854C107.482 124.452 106.996 114.922 106.255 104.677C105.514 94.4313 104.907 84.3738 104.907 82.3274V78.6061L135.593 64.4981C152.469 56.7384 166.153 50.2641 165.999 50.1112C165.846 49.9574 138.237 56.4318 104.647 64.4981C71.0577 72.5636 43.3164 79.1632 43.0002 79.1632C42.6839 79.1632 44.7214 77.6774 47.5279 75.8608C56.3096 70.1769 61.8743 62.0017 63.1134 52.9626L63.6664 48.9295H31.8336H0L19.403 63.2775Z" fill="#00993F"/>
</svg>
