<svg width="144" height="80" viewBox="0 0 144 80" fill="none" xmlns="http://www.w3.org/2000/svg">
<path d="M86.1474 71.0035C84.9023 70.329 83.7298 69.5545 82.489 68.7358C81.912 68.3547 81.3143 67.9599 80.6708 67.5482C79.1003 66.5452 79.1657 65.689 79.185 65.5633L81.0117 62.4182C81.0797 62.4326 81.1425 62.4348 81.2039 62.409C81.2991 62.3829 81.3711 62.3473 81.427 62.3215C81.5113 62.2805 81.6165 62.2288 82.3494 62.6494C83.1172 63.0901 84.8463 64.2038 85.8078 64.8283C86.1965 65.0803 86.4928 65.2738 86.6142 65.3539C86.7505 65.6945 86.8062 66.1675 86.4906 66.7108C85.851 67.8121 85.6712 68.5202 83.2618 68.2381C83.226 68.1652 82.9889 68.485 83.6543 68.7707C84.3198 69.056 85.3674 68.8183 85.838 68.5906C86.3081 68.3628 87.6696 67.3616 87.7912 67.1954L88.5389 67.3855C88.5389 67.3855 89.3164 67.4961 89.7596 67.2041L89.854 67.2656L88.9157 68.8811C88.9157 68.8811 88.1015 69.7055 87.8051 70.7932C87.7389 71.0355 87.751 71.1755 87.8022 71.2967C87.419 71.4118 86.8948 71.4078 86.1474 71.0035ZM23.0395 22.8958L23.2214 23.0002C23.4078 23.1072 23.6476 23.0415 23.7565 22.8539C23.8426 22.7056 23.8192 22.5283 23.7155 22.406L23.7287 22.3834L33.0766 27.7483L35.0776 28.8967L34.68 29.5813L23.0374 22.8995L23.0395 22.8958ZM5.65163 12.9216C6.10525 12.7421 6.58801 12.5461 6.58801 12.5461L7.29943 12.9544L17.2273 18.6522C17.2418 18.6777 17.2542 18.7058 17.2723 18.7272L17.2586 18.7508L18.0731 19.2182C17.9456 19.2264 17.8231 19.2891 17.7536 19.4087C17.6446 19.5963 17.7073 19.8355 17.8942 19.9428L20.6744 21.5384C20.6744 21.5384 20.6737 21.5417 20.6731 21.5426L5.65163 12.9216ZM6.00075 6.31246C6.30905 5.78165 6.9868 5.59593 7.5127 5.89775L9.34188 6.94754L9.18754 9.42383L6.39543 7.8214C5.86953 7.51958 5.693 6.84234 6.00075 6.31246ZM25.6792 18.8874L25.8737 18.5524L31.6695 21.8788L35.4118 24.0265L35.4753 24.2619L34.4825 25.2351L25.1749 19.8933L25.448 19.423L25.388 19.3886L25.6792 18.8874ZM38.8207 26.2231L38.8202 26.2241L40.5156 27.1971L40.5449 27.2034C41.7477 27.4872 42.786 27.8848 43.7187 28.42C44.7192 28.9942 45.3677 29.595 45.8891 30.0771C46.2128 30.3768 46.4677 30.6131 46.7192 30.7574L49.0889 32.1174L49.1191 32.1243C50.2106 32.3725 51.167 32.7292 51.9614 33.1851C52.8551 33.6981 53.3782 34.2329 53.76 34.6239C53.9324 34.8005 54.0742 34.9348 54.2127 35.0371C53.9458 34.9455 53.7855 35.0913 53.685 35.1833C53.5582 35.2996 53.4151 35.4313 52.744 35.0461L49.6455 33.2678C49.3784 33.1145 49.389 33.0658 49.4046 32.9916C49.4588 32.7363 49.4076 32.5289 48.9807 32.2838L45.3287 30.1879C44.9022 29.9432 44.695 30.0023 44.5002 30.1769C44.4433 30.2274 44.4062 30.2609 44.1387 30.1073L41.1798 28.4092C40.9127 28.2559 40.9233 28.2072 40.9394 28.1333C40.9931 27.8777 40.942 27.6703 40.515 27.4253L38.9547 26.5298L38.4228 26.2289L37.8706 27.1796L37.243 26.8194L37.8972 25.6931L38.8207 26.2231ZM143.137 95.5356C143.113 95.0815 142.798 94.6336 142.084 94.0365C141.612 93.6442 140.723 92.9016 139.572 91.9412C134.584 87.7768 125.298 80.0235 122.815 78.1176C122.204 77.6495 121.657 77.2779 121.138 76.9805C119.985 76.3185 119.222 76.1733 118.55 76.0451C118.134 75.966 117.774 75.8975 117.354 75.7162C117.124 75.6171 116.861 75.4836 116.577 75.3203C115.373 74.6297 114.1 73.6032 113.98 73.5055C113.8 73.335 111.052 70.7332 110.144 69.8745C109.847 69.5941 109.573 69.3811 109.327 69.2402C108.866 68.9755 108.599 69.0185 108.482 69.0689L108.403 69.1027L108.348 69.1691C108.347 69.17 108.342 69.1762 108.339 69.1801C107.56 68.5499 106.412 67.6352 106.412 67.6352L105.762 66.8603C106.561 65.3668 105.498 63.2147 105.067 62.7956C105.123 62.7533 105.176 62.7006 105.223 62.6193C105.52 62.1074 105.358 59.3211 103.638 58.3341L69.8457 38.9404L69.8897 38.8646L69.6521 38.3346L69.0671 37.9989L69.0977 37.9462L70.8114 38.9298L71.5072 37.7319C71.691 37.4154 71.7237 37.3338 71.4049 37.1508C70.9175 36.8711 70.1352 37.4588 70.1352 37.4588L69.1846 36.9132C69.3084 36.5445 69.2029 36.155 68.9038 35.9833C68.6051 35.8119 68.2126 35.9156 67.9537 36.2068L67.7764 36.105C67.3365 34.8948 65.636 34.5994 65.636 34.5994L64.9246 34.1911L64.8475 33.8999L63.7948 33.2958C63.7121 32.0952 62.6839 32.6582 62.6839 32.6582L61.748 32.1211L61.5742 32.4205L61.2984 32.2622L61.297 32.2645C61.2584 32.0797 61.1691 31.92 60.9501 31.7944C60.0147 31.2575 59.5735 31.6597 59.1624 32.3674L58.9773 32.6862C58.9381 32.6138 58.8789 32.5453 58.7946 32.4969C58.6947 32.4396 58.5861 32.4204 58.4918 32.4346L58.6509 32.1607C58.8189 31.8715 58.8658 31.7149 58.476 31.4912L58.1507 31.3045C58.1488 31.2794 58.1547 31.2556 58.149 31.2296C58.097 30.9805 57.8889 30.7668 57.4514 30.5157C56.9099 30.205 53.6121 28.3954 50.1205 26.4797C46.7185 24.6128 43.2006 22.6825 42.6417 22.3618C42.2711 22.1491 41.9225 22.09 41.6001 22.1718L41.1709 21.9254C40.8328 21.7314 40.0972 21.3289 39.5797 22.2201L39.6709 22.063L27.7676 15.2316C27.6023 15.1367 27.4416 15.0611 27.2841 14.9978C27.2324 14.9774 27.1826 14.9642 27.132 14.9462C27.0269 14.9106 26.9226 14.8766 26.8208 14.8532C26.7639 14.8397 26.7079 14.831 26.6522 14.8218C26.5581 14.806 26.4653 14.7933 26.3739 14.7877C26.3183 14.7835 26.2637 14.7818 26.2088 14.7817C26.1171 14.7808 26.0264 14.7854 25.9367 14.7937C25.8872 14.7979 25.8373 14.8019 25.7885 14.809C25.6899 14.8232 25.5932 14.8435 25.4966 14.8669C25.4591 14.8756 25.4209 14.8826 25.3838 14.8928C25.1102 14.9685 24.8437 15.0761 24.5804 15.2034C24.5732 15.2073 24.5663 15.2108 24.5587 15.2144C24.4297 15.2777 24.3009 15.3449 24.1726 15.4154L24.159 15.423C23.7334 15.6573 23.3109 15.9199 22.8743 16.1522C22.8521 16.1641 22.8295 16.1746 22.8073 16.1865C22.5982 16.2962 22.3854 16.3977 22.1676 16.4846C22.1546 16.4901 22.1418 16.4963 22.1291 16.5013C22.062 16.5275 21.9934 16.5478 21.9255 16.5711C21.5773 16.6891 21.2138 16.7638 20.8286 16.7719L20.7209 16.7101L20.7034 16.7099C20.0947 16.6987 19.4892 16.5151 18.8502 16.1483L18.7902 16.1139L18.7615 16.1633C18.7337 16.1585 18.7031 16.1618 18.6731 16.1619L9.4525 10.87L9.87188 10.148L10.2168 3.9005C10.4531 3.87227 10.7669 3.60642 10.9977 3.20912C11.2891 2.70742 11.3362 2.19303 11.1044 2.06L10.4965 1.71112L10.4708 1.69639L9.47859 1.12693L9.30176 1.02545L8.84504 0.76333C8.61324 0.630298 8.18865 0.928054 7.89726 1.42976C7.67161 1.81827 7.59436 2.21312 7.67819 2.4337L7.61452 2.39716L7.58583 2.47494C7.57831 2.49526 6.83075 4.51221 5.73887 5.6928C5.73181 5.68813 5.7254 5.68445 5.72036 5.68156C5.63332 5.6316 5.48339 5.57635 5.4769 5.57386L5.42232 5.55424L4.73463 6.73827C4.6817 6.82309 3.76915 7.49617 3.18691 7.16202L3.13808 7.24609L2.32311 6.77838L2.25486 6.73921C1.84991 6.50679 1.19804 6.87615 0.798524 7.56402C0.399268 8.25144 0.403681 8.99682 0.80864 9.22923L0.876891 9.2684L2.31944 10.0963C2.31944 10.0963 3.16722 10.7399 3.02294 12.1514C3.07746 12.1827 3.66773 12.8554 4.66092 13.1519C4.79764 13.2414 4.94102 13.3311 5.09585 13.42L20.6057 22.3213C20.6382 22.7501 20.804 23.2555 21.3363 23.561L21.8823 23.8744C21.8823 23.8744 22.2512 23.3876 22.6282 23.604L22.6813 23.5125L35.7051 30.987C35.3495 31.9779 36.1164 32.4199 37.2997 33.099C37.7683 33.368 38.4679 33.9093 39.3531 34.5935C41.0175 35.8819 43.5331 37.8289 46.7787 39.6916C51.3528 42.3168 54.1181 44.3608 55.4811 46.1249C55.7632 46.5468 56.1753 46.8184 56.5414 47.0285C56.7246 47.1336 56.9149 47.233 57.1155 47.3376C57.3256 47.4471 57.5423 47.5598 57.7594 47.6844C57.95 47.7938 58.1233 47.8236 58.2892 47.7766C58.3588 47.7567 58.4199 47.7198 58.4796 47.677C58.8991 47.858 59.2288 47.8372 59.4861 47.7077L59.5922 47.8216L59.629 47.8445C59.6994 47.8905 62.6405 49.7854 66.1251 52.0316L66.6807 53.5054C66.3284 54.0257 64.7013 56.2728 61.3805 58.6399C57.8988 61.1221 51.7881 64.249 42.4525 65.0465L42.4022 65.0552C42.1656 65.1208 42.1654 65.3136 42.1645 65.8304C42.1641 66.1308 42.1716 66.5712 42.1874 67.1371C42.2133 68.0864 42.2619 69.4066 42.3312 71.0614C42.4503 73.8757 42.591 76.7221 42.5926 76.7508L42.6046 77.0077L42.8623 77.0121C42.915 77.0128 48.2037 77.0637 55.14 74.9151C61.0201 73.0947 69.2267 69.2932 76.1907 61.4832C76.4733 61.614 76.8981 61.8627 76.9895 62.2133L77.0738 62.2617C76.5479 63.1807 76.101 64.1574 76.4809 64.6538L76.4777 64.652C76.4777 64.652 75.8529 66.2577 75.9122 66.9034L76.2718 67.1098L76.7134 66.3494C76.7134 66.3494 76.6418 65.7964 77.1089 65.6684L77.2761 65.7465L77.5482 65.2781L77.5432 65.2752C77.7467 65.2707 77.9616 65.1069 78.0602 65.6206C78.0481 65.6309 78.136 65.6868 78.2578 65.7568C78.2702 66.3244 78.5603 67.3286 80.158 68.349C80.797 68.757 81.3906 69.1494 81.966 69.529C83.0285 70.2299 84.0403 70.8993 85.0998 71.5074C85.2945 71.6191 85.4901 71.7283 85.6891 71.8357C86.8122 72.4439 87.6409 72.3547 88.207 72.1351C88.3425 72.6674 88.3924 73.6015 88.1201 75.4471C87.4502 79.9898 87.2378 83.2581 86.4748 85.4405C85.7126 87.6234 85.1347 88.183 88.3514 89.6097C91.5667 91.0367 93.854 89.4131 94.38 88.3519C94.9053 87.2908 95.3438 81.7771 95.7851 79.5671C96.2264 77.3572 96.5769 76.4046 97.5573 75.7619C98.2945 75.2782 99.3575 74.2493 99.5855 73.6243L99.7676 73.743L100.68 73.1811C101.144 73.6276 102.127 74.5682 102.696 75.0769C102.847 75.2123 102.969 75.3303 103.08 75.4359C102.749 76.3369 103.884 77.7311 105.623 79.8673C106.158 80.5251 106.766 81.271 107.388 82.0747C109.938 85.3676 124.9 106.548 126.567 109.464C127.005 110.231 127.483 110.765 127.989 111.055C129.124 111.707 130.371 111.16 131.506 109.507C133.361 106.67 141.497 97.8279 142.322 96.9589C142.792 96.4627 143.164 96.0704 143.137 95.5356Z" fill="#1E99E7"/>
</svg>
