<svg width="53" height="20" viewBox="0 0 53 20" fill="none" xmlns="http://www.w3.org/2000/svg">
<path d="M8.63791 7.48564H10.6759C11.0038 7.48564 11.2556 7.40049 11.4313 7.23018C11.607 7.05987 11.6948 6.82025 11.6948 6.51132C11.6948 6.20239 11.607 5.96277 11.4313 5.79246C11.2556 5.62215 11.0038 5.537 10.6759 5.537H8.63791V7.48564ZM6.8342 9.06595V0.546571H10.793C11.6246 0.546571 12.2629 0.758466 12.708 1.18226C13.153 1.60209 13.3756 2.18232 13.3756 2.92297C13.3756 3.32695 13.2721 3.69133 13.0652 4.01611C12.8622 4.34088 12.6045 4.58446 12.2922 4.74685C12.6435 4.90924 12.9305 5.15876 13.153 5.49541C13.3795 5.83207 13.4927 6.23209 13.4927 6.69549C13.4927 7.43217 13.2702 8.01241 12.8251 8.4362C12.3839 8.85603 11.7475 9.06595 10.916 9.06595H6.8342ZM8.63791 4.07552H10.5529C10.8808 4.07552 11.1326 3.99036 11.3083 3.82005C11.484 3.64975 11.5719 3.41211 11.5719 3.10714C11.5719 2.7982 11.484 2.55858 11.3083 2.38828C11.1326 2.21797 10.8808 2.13281 10.5529 2.13281H8.63791V4.07552Z" fill="#0038FF"/>
<path d="M19.3742 8.3055C18.8198 8.89168 18.0585 9.18476 17.0903 9.18476C16.122 9.18476 15.3607 8.89168 14.8064 8.3055C14.252 7.71932 13.9748 6.89947 13.9748 5.84593C13.9748 4.78843 14.252 3.9666 14.8064 3.38042C15.3607 2.79028 16.122 2.49521 17.0903 2.49521C18.0585 2.49521 18.8198 2.79028 19.3742 3.38042C19.9325 3.9666 20.2116 4.78843 20.2116 5.84593C20.2116 6.89947 19.9325 7.71932 19.3742 8.3055ZM16.0596 7.21236C16.3329 7.51337 16.6764 7.66387 17.0903 7.66387C17.508 7.66387 17.8516 7.51337 18.121 7.21236C18.3943 6.90739 18.5309 6.45191 18.5309 5.84593C18.5309 5.23599 18.3943 4.77853 18.121 4.47356C17.8516 4.16859 17.508 4.01611 17.0903 4.01611C16.6764 4.01611 16.3329 4.16859 16.0596 4.47356C15.7863 4.77853 15.6496 5.23599 15.6496 5.84593C15.6496 6.45191 15.7863 6.90739 16.0596 7.21236Z" fill="#0038FF"/>
<path d="M26.0287 8.3055C25.4743 8.89168 24.713 9.18476 23.7448 9.18476C22.7766 9.18476 22.0153 8.89168 21.4609 8.3055C20.9065 7.71932 20.6293 6.89947 20.6293 5.84593C20.6293 4.78843 20.9065 3.9666 21.4609 3.38042C22.0153 2.79028 22.7766 2.49521 23.7448 2.49521C24.713 2.49521 25.4743 2.79028 26.0287 3.38042C26.587 3.9666 26.8661 4.78843 26.8661 5.84593C26.8661 6.89947 26.587 7.71932 26.0287 8.3055ZM22.7141 7.21236C22.9874 7.51337 23.3309 7.66387 23.7448 7.66387C24.1625 7.66387 24.5061 7.51337 24.7755 7.21236C25.0488 6.90739 25.1854 6.45191 25.1854 5.84593C25.1854 5.23599 25.0488 4.77853 24.7755 4.47356C24.5061 4.16859 24.1625 4.01611 23.7448 4.01611C23.3309 4.01611 22.9874 4.16859 22.7141 4.47356C22.4408 4.77853 22.3042 5.23599 22.3042 5.84593C22.3042 6.45191 22.4408 6.90739 22.7141 7.21236Z" fill="#0038FF"/>
<path d="M29.9191 9.18476C29.0485 9.18476 28.3848 8.98871 27.928 8.59661C27.4751 8.2045 27.1999 7.6916 27.1023 7.05789H28.9001C28.9313 7.22028 29.0387 7.36286 29.2222 7.48564C29.4096 7.60446 29.6419 7.66387 29.9191 7.66387C30.6374 7.66387 30.9986 7.50347 31.0025 7.18265C31.0025 7.03611 30.9107 6.91927 30.7272 6.83213C30.5477 6.74104 30.3212 6.67767 30.0479 6.64202C29.7785 6.60242 29.4857 6.53905 29.1695 6.45191C28.8533 6.36082 28.5585 6.25388 28.2852 6.1311C28.0158 6.00436 27.7913 5.79642 27.6117 5.50729C27.4322 5.21817 27.3424 4.86369 27.3424 4.44386C27.3424 3.87748 27.5669 3.41211 28.0158 3.04773C28.4687 2.67938 29.1031 2.49521 29.9191 2.49521C30.7663 2.49521 31.4144 2.67938 31.8633 3.04773C32.3123 3.41607 32.5837 3.90125 32.6774 4.50327H30.8795C30.8014 4.17849 30.4813 4.01611 29.9191 4.01611C29.6536 4.01611 29.4467 4.05769 29.2983 4.14087C29.1539 4.22008 29.0817 4.32108 29.0817 4.44386C29.0817 4.5904 29.1714 4.70922 29.351 4.80032C29.5306 4.88745 29.7551 4.94884 30.0245 4.98449C30.2978 5.02013 30.5926 5.0835 30.9088 5.1746C31.225 5.26173 31.5178 5.36867 31.7872 5.49541C32.0605 5.62215 32.2869 5.83009 32.4665 6.11922C32.65 6.40438 32.7418 6.75886 32.7418 7.18265C32.7418 7.76487 32.5212 8.24411 32.08 8.62037C31.6389 8.99663 30.9185 9.18476 29.9191 9.18476Z" fill="#0038FF"/>
<path d="M35.8533 9.06595C34.5337 9.06595 33.8739 8.43818 33.8739 7.18265V4.20028H32.8549V2.61998H33.8739L34.114 0.914912H35.5546V2.61998H37.0538V4.20028H35.5546V6.87372C35.5546 7.05195 35.6073 7.1985 35.7127 7.31335C35.8221 7.42821 35.9685 7.48564 36.152 7.48564H37.0538V9.06595H35.8533Z" fill="#0038FF"/>
<path d="M37.8346 9.06595V2.61998H39.5153V9.06595H37.8346ZM39.3572 1.66942C39.1737 1.85557 38.9453 1.94864 38.672 1.94864C38.4026 1.94864 38.1742 1.85557 37.9868 1.66942C37.8033 1.48327 37.7116 1.25157 37.7116 0.974322C37.7116 0.697076 37.8033 0.465377 37.9868 0.279226C38.1742 0.0930755 38.4026 0 38.672 0C38.9453 0 39.1737 0.0930755 39.3572 0.279226C39.5407 0.465377 39.6324 0.697076 39.6324 0.974322C39.6324 1.25157 39.5407 1.48327 39.3572 1.66942Z" fill="#0038FF"/>
<path d="M40.5303 9.06595V2.61998H41.9709L42.1466 3.34478H42.211C42.6444 2.7784 43.2027 2.49521 43.8859 2.49521C44.5886 2.49521 45.1547 2.72889 45.5842 3.19625C46.0136 3.66361 46.2284 4.30127 46.2284 5.10925V9.06595H44.5476V5.35283C44.5476 4.933 44.4481 4.60625 44.249 4.37257C44.0499 4.13493 43.7688 4.01611 43.4057 4.01611C43.0465 4.01611 42.7576 4.14087 42.539 4.39039C42.3203 4.63595 42.211 4.95676 42.211 5.35283V9.06595H40.5303Z" fill="#0038FF"/>
<path d="M50.0016 11.5017C48.3619 11.5017 47.3624 10.771 47.0033 9.30953H48.7425C48.8714 9.75708 49.2911 9.98086 50.0016 9.98086C50.4155 9.98086 50.7376 9.87788 50.9679 9.67193C51.2021 9.46993 51.3193 9.18675 51.3193 8.82236V7.90745H51.2607C51.1084 8.10153 50.884 8.28372 50.5872 8.45402C50.2944 8.62037 49.9587 8.70355 49.58 8.70355C48.7562 8.70355 48.1003 8.43422 47.6123 7.89557C47.1282 7.35296 46.8861 6.58657 46.8861 5.59641C46.8861 4.60625 47.1301 3.84184 47.6182 3.30319C48.1062 2.76454 48.7601 2.49521 49.58 2.49521C50.2593 2.49521 50.8391 2.7784 51.3193 3.34478H51.3837L51.5594 2.61998H53V8.82236C53 9.68975 52.7501 10.3532 52.2504 10.8126C51.7507 11.272 51.0011 11.5017 50.0016 11.5017ZM48.9299 6.7549C49.1798 7.04007 49.5156 7.18265 49.9372 7.18265C50.3628 7.18265 50.6985 7.04007 50.9445 6.7549C51.1943 6.46973 51.3193 6.08357 51.3193 5.59641C51.3193 5.10925 51.1943 4.72506 50.9445 4.44386C50.6985 4.15869 50.3628 4.01611 49.9372 4.01611C49.5156 4.01611 49.1798 4.15869 48.9299 4.44386C48.684 4.72506 48.561 5.10925 48.561 5.59641C48.561 6.08357 48.684 6.46973 48.9299 6.7549Z" fill="#0038FF"/>
<path d="M10.4405 19.8812L12.1212 12.6391H12.1797L13.8605 19.8812H15.3597L17.4562 11.3618H16.3786L14.6393 18.7227H14.5808L12.8415 11.3618H11.4594L9.72014 18.7227H9.66158L7.92229 11.3618H6.84475L8.94127 19.8812H10.4405Z" fill="#15193F"/>
<path d="M22.7228 19.1386C23.2498 18.5623 23.5134 17.7543 23.5134 16.7146C23.5134 15.675 23.2498 14.8729 22.7228 14.2967C22.1957 13.7204 21.4988 13.4352 20.638 13.4352C19.7713 13.4352 19.0744 13.7204 18.5473 14.2967C18.0202 14.8729 17.7567 15.675 17.7567 16.7146C17.7567 17.7543 18.0202 18.5623 18.5473 19.1386C19.0744 19.7148 19.7713 20 20.638 20C21.4988 20 22.1957 19.7148 22.7228 19.1386ZM19.2032 18.5088C18.8401 18.087 18.6586 17.487 18.6586 16.7146C18.6586 15.9483 18.8401 15.3482 19.2032 14.9205C19.5663 14.4987 20.0465 14.2848 20.638 14.2848C21.2294 14.2848 21.7038 14.4987 22.0727 14.9205C22.4358 15.3482 22.6174 15.9483 22.6174 16.7146C22.6174 17.487 22.4358 18.087 22.0727 18.5088C21.7038 18.9366 21.2294 19.1505 20.638 19.1505C20.0465 19.1505 19.5663 18.9366 19.2032 18.5088Z" fill="#15193F"/>
<path d="M25.3775 19.8812V15.9898C25.3775 15.5324 25.5356 15.1581 25.8577 14.8551C26.1798 14.5521 26.578 14.4036 27.0582 14.4036H27.7141V13.554H27.0582C26.2735 13.554 25.7113 13.8392 25.3775 14.4036H25.3189L25.196 13.554H24.4757V19.8812H25.3775Z" fill="#15193F"/>
<path d="M29.2796 19.8812V11.3618H28.3836V19.8812H29.2796Z" fill="#15193F"/>
<path d="M31.7177 18.5148C31.3721 18.093 31.1965 17.4929 31.1965 16.7146C31.1965 15.9364 31.3721 15.3363 31.7177 14.9145C32.0632 14.4927 32.5317 14.2848 33.1173 14.2848C33.6971 14.2848 34.1656 14.4927 34.5111 14.9145C34.8566 15.3363 35.0323 15.9364 35.0323 16.7146C35.0323 17.4929 34.8566 18.093 34.5111 18.5148C34.1656 18.9366 33.6971 19.1505 33.1173 19.1505C32.5317 19.1505 32.0632 18.9366 31.7177 18.5148ZM32.9943 20C33.902 20 34.5813 19.6792 35.0323 19.0316H35.0908L35.2138 19.8812H35.9341V11.3618H35.0323V14.3442H34.9737C34.5111 13.7382 33.8493 13.4352 32.9943 13.4352C32.192 13.4352 31.542 13.7204 31.0442 14.2967C30.5464 14.8729 30.2946 15.675 30.2946 16.7146C30.2946 17.7543 30.5464 18.5623 31.0442 19.1386C31.542 19.7148 32.192 20 32.9943 20Z" fill="#15193F"/>
<path d="M3.43678 3.76747C3.06274 4.14534 2.58301 4.33428 1.99756 4.33428C1.41392 4.33428 0.935086 4.14534 0.561051 3.76747C0.187017 3.38776 0 2.90166 0 2.30917C0 1.71485 0.187017 1.22783 0.561051 0.848125C0.935086 0.468418 1.41392 0.278564 1.99756 0.278564C2.58301 0.278564 3.06274 0.468418 3.43678 0.848125C3.81081 1.22783 3.99783 1.71485 3.99783 2.30917C3.99783 2.90166 3.81081 3.38776 3.43678 3.76747ZM0.937796 3.40702C1.21245 3.68767 1.5657 3.828 1.99756 3.828C2.43122 3.828 2.78448 3.68767 3.05732 3.40702C3.33198 3.12453 3.4693 2.75767 3.4693 2.30642C3.4693 1.85517 3.33198 1.48923 3.05732 1.20857C2.78448 0.926085 2.43122 0.784841 1.99756 0.784841C1.5657 0.784841 1.21245 0.926085 0.937796 1.20857C0.66495 1.48923 0.528527 1.85517 0.528527 2.30642C0.528527 2.75767 0.66495 3.12453 0.937796 3.40702ZM1.24949 3.34924V1.23609H2.1385C2.37159 1.23609 2.55409 1.30029 2.686 1.42869C2.81971 1.55526 2.88657 1.72585 2.88657 1.94047C2.88657 2.09822 2.84591 2.2358 2.7646 2.3532C2.68329 2.46876 2.56674 2.54764 2.41496 2.58983L2.91638 3.34924H2.36075L1.88914 2.61734H1.75091V3.34924H1.24949ZM1.75091 2.19361H2.1114C2.2957 2.19361 2.38786 2.10923 2.38786 1.94047C2.38786 1.77171 2.2957 1.68733 2.1114 1.68733H1.75091V2.19361Z" fill="#15193F"/>
</svg>
