<svg width="68" height="18" viewBox="0 0 68 18" fill="none" xmlns="http://www.w3.org/2000/svg">
<g clip-path="url(#clip0)">
<path d="M18.127 6.68768H24.9313V7.97999H22.2558V15.2447H20.7847V7.97999H18.1211V6.68768H18.127ZM24.6406 9.04886H25.8982V10.2445H25.9219C25.9635 10.0755 26.0406 9.91241 26.1533 9.7554C26.266 9.59839 26.4025 9.44742 26.5626 9.32061C26.7228 9.18775 26.9008 9.08509 27.0965 9.00055C27.2923 8.92205 27.494 8.87977 27.6957 8.87977C27.8499 8.87977 27.9626 8.88581 28.0219 8.89185C28.0813 8.89789 28.1406 8.90997 28.2058 8.91601V10.2325C28.1109 10.2144 28.016 10.2023 27.9152 10.1902C27.8143 10.1781 27.7194 10.1721 27.6245 10.1721C27.3991 10.1721 27.1855 10.2204 26.9838 10.311C26.7821 10.4016 26.6101 10.5405 26.4618 10.7156C26.3135 10.8967 26.1948 11.1141 26.1058 11.3798C26.0169 11.6456 25.9753 11.9475 25.9753 12.2917V15.2387H24.6347V9.04886H24.6406ZM34.3694 15.2447H33.0525V14.3811H33.0287C32.8626 14.6952 32.6194 14.9427 32.2931 15.13C31.9669 15.3172 31.6347 15.4138 31.2965 15.4138C30.4957 15.4138 29.9143 15.2145 29.5584 14.8099C29.2025 14.4053 29.0245 13.7954 29.0245 12.9801V9.04886H30.3652V12.8473C30.3652 13.3908 30.466 13.7773 30.6736 14.0007C30.8753 14.2241 31.166 14.3389 31.5338 14.3389C31.8186 14.3389 32.0499 14.2966 32.2397 14.206C32.4296 14.1154 32.5838 14.0007 32.6965 13.8497C32.8152 13.7048 32.8982 13.5236 32.9516 13.3183C33.005 13.113 33.0287 12.8896 33.0287 12.648V9.0549H34.3694V15.2447ZM36.6533 13.2579C36.6948 13.6565 36.8431 13.9343 37.0982 14.0973C37.3592 14.2543 37.6677 14.3389 38.0296 14.3389C38.1542 14.3389 38.2965 14.3268 38.4567 14.3087C38.6169 14.2906 38.7711 14.2483 38.9075 14.1939C39.0499 14.1396 39.1626 14.055 39.2575 13.9463C39.3465 13.8376 39.388 13.6988 39.3821 13.5236C39.3762 13.3485 39.3109 13.2036 39.1923 13.0949C39.0736 12.9801 38.9253 12.8956 38.7414 12.8231C38.5575 12.7567 38.3499 12.6963 38.1126 12.648C37.8753 12.5997 37.638 12.5453 37.3948 12.491C37.1457 12.4366 36.9025 12.3642 36.6711 12.2857C36.4397 12.2072 36.2321 12.0985 36.0482 11.9596C35.8643 11.8267 35.716 11.6516 35.6092 11.4402C35.4965 11.2289 35.4431 10.9692 35.4431 10.6552C35.4431 10.317 35.5262 10.0392 35.6864 9.80975C35.8465 9.58028 36.0541 9.39911 36.2974 9.26022C36.5465 9.12133 36.8194 9.02471 37.1219 8.96432C37.4245 8.90997 37.7152 8.87977 37.988 8.87977C38.3025 8.87977 38.605 8.91601 38.8897 8.98243C39.1745 9.04886 39.4355 9.15756 39.6669 9.31457C39.8982 9.46554 40.088 9.66482 40.2423 9.90637C40.3965 10.1479 40.4914 10.4438 40.533 10.788H39.133C39.0677 10.4619 38.9253 10.2385 38.694 10.1298C38.4626 10.0151 38.1957 9.96072 37.8991 9.96072C37.8041 9.96072 37.6914 9.96676 37.5609 9.98488C37.4304 10.003 37.3118 10.0332 37.1931 10.0755C37.0804 10.1177 36.9855 10.1842 36.9025 10.2687C36.8253 10.3532 36.7838 10.4619 36.7838 10.6008C36.7838 10.7699 36.8431 10.9028 36.9558 11.0054C37.0686 11.1081 37.2169 11.1926 37.4008 11.2651C37.5847 11.3315 37.7923 11.3919 38.0296 11.4402C38.2669 11.4885 38.5101 11.5429 38.7592 11.5972C39.0025 11.6516 39.2397 11.7241 39.477 11.8026C39.7143 11.8811 39.9219 11.9898 40.1058 12.1287C40.2897 12.2676 40.438 12.4366 40.5508 12.642C40.6635 12.8473 40.7228 13.1069 40.7228 13.4089C40.7228 13.7773 40.6397 14.0852 40.4736 14.3449C40.3075 14.5985 40.094 14.8099 39.833 14.9669C39.5719 15.1239 39.2753 15.2447 38.955 15.3172C38.6347 15.3896 38.3143 15.4259 37.9999 15.4259C37.6143 15.4259 37.2584 15.3836 36.9321 15.293C36.6058 15.2024 36.3211 15.0696 36.0838 14.8944C35.8465 14.7133 35.6567 14.4898 35.5203 14.2241C35.3838 13.9584 35.3126 13.6384 35.3008 13.27H36.6533V13.2579ZM41.0787 9.04886H42.0931V7.18891H43.4338V9.04886H44.644V10.0694H43.4338V13.3787C43.4338 13.5236 43.4397 13.6444 43.4516 13.7531C43.4635 13.8558 43.4931 13.9463 43.5347 14.0188C43.5762 14.0913 43.6414 14.1456 43.7304 14.1819C43.8194 14.2181 43.9321 14.2362 44.0864 14.2362C44.1813 14.2362 44.2762 14.2362 44.3711 14.2302C44.466 14.2241 44.5609 14.2121 44.6558 14.1879V15.2447C44.5075 15.2628 44.3592 15.2749 44.2228 15.293C44.0804 15.3111 43.938 15.3172 43.7897 15.3172C43.4338 15.3172 43.1491 15.2809 42.9355 15.2145C42.7219 15.1481 42.5499 15.0454 42.4313 14.9126C42.3067 14.7797 42.2296 14.6167 42.1821 14.4174C42.1406 14.2181 42.1109 13.9886 42.105 13.735V10.0815H41.0906V9.04886H41.0787ZM45.5931 9.04886H46.8626V9.88826H46.8864C47.0762 9.52593 47.3372 9.2723 47.6753 9.11529C48.0135 8.95828 48.3753 8.87977 48.7728 8.87977C49.2533 8.87977 49.6686 8.96432 50.0245 9.13944C50.3804 9.30853 50.677 9.54404 50.9143 9.84599C51.1516 10.1479 51.3236 10.4982 51.4423 10.8967C51.5609 11.2953 51.6203 11.7241 51.6203 12.177C51.6203 12.5936 51.5669 12.9982 51.4601 13.3847C51.3533 13.7773 51.1931 14.1215 50.9796 14.4234C50.766 14.7254 50.4931 14.9609 50.1609 15.142C49.8287 15.3232 49.4431 15.4138 48.9923 15.4138C48.7965 15.4138 48.6008 15.3957 48.405 15.3594C48.2092 15.3232 48.0194 15.2628 47.8414 15.1843C47.6635 15.1058 47.4914 15.0031 47.3431 14.8763C47.1889 14.7495 47.0643 14.6046 46.9575 14.4415H46.9338V17.5334H45.5931V9.04886ZM50.2796 12.1528C50.2796 11.875 50.244 11.6033 50.1728 11.3376C50.1016 11.0719 49.9948 10.8424 49.8525 10.6371C49.7101 10.4318 49.5321 10.2687 49.3245 10.1479C49.1109 10.0272 48.8677 9.96072 48.5948 9.96072C48.0313 9.96072 47.6042 10.16 47.3194 10.5586C47.0347 10.9571 46.8923 11.4885 46.8923 12.1528C46.8923 12.4668 46.9279 12.7567 47.005 13.0224C47.0821 13.2881 47.1889 13.5176 47.3431 13.7108C47.4914 13.9041 47.6694 14.055 47.877 14.1637C48.0847 14.2785 48.3279 14.3328 48.6008 14.3328C48.9092 14.3328 49.1643 14.2664 49.3779 14.1396C49.5914 14.0128 49.7635 13.8437 49.8999 13.6444C50.0364 13.4391 50.1372 13.2096 50.1965 12.9499C50.2499 12.6903 50.2796 12.4246 50.2796 12.1528ZM52.6465 6.68768H53.9872V7.97999H52.6465V6.68768ZM52.6465 9.04886H53.9872V15.2447H52.6465V9.04886ZM55.1855 6.68768H56.5262V15.2447H55.1855V6.68768ZM60.6372 15.4138C60.1508 15.4138 59.7177 15.3292 59.3381 15.1662C58.9584 15.0031 58.6381 14.7737 58.3711 14.4898C58.1101 14.2 57.9084 13.8558 57.772 13.4572C57.6355 13.0586 57.5643 12.6178 57.5643 12.1407C57.5643 11.6697 57.6355 11.2349 57.772 10.8364C57.9084 10.4378 58.1101 10.0936 58.3711 9.80371C58.6321 9.51385 58.9584 9.29041 59.3381 9.12737C59.7177 8.96432 60.1508 8.87977 60.6372 8.87977C61.1236 8.87977 61.5567 8.96432 61.9364 9.12737C62.316 9.29041 62.6364 9.51989 62.9033 9.80371C63.1643 10.0936 63.366 10.4378 63.5025 10.8364C63.6389 11.2349 63.7101 11.6697 63.7101 12.1407C63.7101 12.6178 63.6389 13.0586 63.5025 13.4572C63.366 13.8558 63.1643 14.2 62.9033 14.4898C62.6423 14.7797 62.316 15.0031 61.9364 15.1662C61.5567 15.3292 61.1236 15.4138 60.6372 15.4138ZM60.6372 14.3328C60.9338 14.3328 61.1948 14.2664 61.4143 14.1396C61.6338 14.0128 61.8118 13.8437 61.9542 13.6384C62.0965 13.433 62.1974 13.1975 62.2686 12.9379C62.3338 12.6782 62.3694 12.4125 62.3694 12.1407C62.3694 11.875 62.3338 11.6154 62.2686 11.3497C62.2033 11.0839 62.0965 10.8545 61.9542 10.6491C61.8118 10.4438 61.6338 10.2808 61.4143 10.154C61.1948 10.0272 60.9338 9.96072 60.6372 9.96072C60.3406 9.96072 60.0796 10.0272 59.8601 10.154C59.6406 10.2808 59.4626 10.4499 59.3203 10.6491C59.1779 10.8545 59.077 11.0839 59.0058 11.3497C58.9406 11.6154 58.905 11.875 58.905 12.1407C58.905 12.4125 58.9406 12.6782 59.0058 12.9379C59.0711 13.1975 59.1779 13.433 59.3203 13.6384C59.4626 13.8437 59.6406 14.0128 59.8601 14.1396C60.0796 14.2724 60.3406 14.3328 60.6372 14.3328ZM64.1016 9.04886H65.116V7.18891H66.4567V9.04886H67.6669V10.0694H66.4567V13.3787C66.4567 13.5236 66.4626 13.6444 66.4745 13.7531C66.4864 13.8558 66.516 13.9463 66.5575 14.0188C66.5991 14.0913 66.6643 14.1456 66.7533 14.1819C66.8423 14.2181 66.955 14.2362 67.1092 14.2362C67.2042 14.2362 67.2991 14.2362 67.394 14.2302C67.4889 14.2241 67.5838 14.2121 67.6787 14.1879V15.2447C67.5304 15.2628 67.3821 15.2749 67.2457 15.293C67.1033 15.3111 66.9609 15.3172 66.8126 15.3172C66.4567 15.3172 66.172 15.2809 65.9584 15.2145C65.7448 15.1481 65.5728 15.0454 65.4542 14.9126C65.3296 14.7797 65.2525 14.6167 65.205 14.4174C65.1635 14.2181 65.1338 13.9886 65.1279 13.735V10.0815H64.1135V9.04886H64.1016Z" fill="#15193F"/>
<path d="M16.5609 6.68768H10.4151L8.5168 0.733398L6.61256 6.68768L0.466797 6.68164L5.44392 10.3653L3.53968 16.3136L8.5168 12.6359L13.488 16.3136L11.5897 10.3653L16.5609 6.68768Z" fill="#00B67A"/>
<path d="M12.0166 11.712L11.5895 10.3653L8.5166 12.6359L12.0166 11.712Z" fill="#005128"/>
</g>
<defs>
<clipPath id="clip0">
<rect width="67.2" height="16.8" fill="white" transform="translate(0.466797 0.733398)"/>
</clipPath>
</defs>
</svg>
