<svg width="422" height="339" viewBox="0 0 422 339" fill="none" xmlns="http://www.w3.org/2000/svg">
<g clip-path="url(#clip0)">
<path fill-rule="evenodd" clip-rule="evenodd" d="M421.826 217.512L416.054 217.199C416.163 215.178 416.219 213.112 416.219 211C416.219 209.181 416.182 207.412 416.11 205.691L421.885 205.448C421.961 207.253 422 209.103 422 211C422 213.214 421.941 215.384 421.826 217.512ZM415.048 173.453L409.762 175.794C408.368 172.646 406.767 169.735 404.978 167.023L409.802 163.839C411.768 166.818 413.523 170.011 415.048 173.453ZM386.098 141.326C383.082 139.383 379.923 137.543 376.64 135.774L373.898 140.863C377.072 142.574 380.098 144.337 382.967 146.185L386.098 141.326ZM346.756 121.946L344.494 127.266C343.496 126.841 342.49 126.414 341.477 125.984C339.141 124.992 336.77 123.986 334.383 122.964L336.659 117.65C339.037 118.668 341.395 119.669 343.728 120.66C344.742 121.09 345.752 121.519 346.756 121.946ZM306.774 103.799L304.116 108.933C300.842 107.238 297.555 105.459 294.266 103.58L297.134 98.5606C300.347 100.396 303.563 102.137 306.774 103.799ZM269.875 80.1435L266.258 84.6527C264.792 83.4767 263.332 82.2705 261.878 81.0328C260.525 79.8805 259.124 78.7544 257.677 77.6561L261.172 73.0515C262.703 74.2134 264.189 75.4073 265.627 76.6318C267.036 77.8323 268.453 79.0023 269.875 80.1435ZM231.204 56.5238L229.108 61.9112C225.716 60.5916 222.25 59.4051 218.733 58.3613L220.378 52.8195C224.047 53.9083 227.664 55.1463 231.204 56.5238ZM186.59 47.304L186.426 53.0825C182.767 52.9788 179.141 53.0526 175.571 53.3117L175.153 47.5461C178.925 47.2723 182.746 47.195 186.59 47.304ZM142.14 56.1367L144.717 61.3113C143.142 62.0956 141.605 62.9378 140.109 63.839C138.552 64.7775 136.993 65.71 135.433 66.6372L132.479 61.6678C134.03 60.7459 135.58 59.8194 137.126 58.8876C138.757 57.9047 140.43 56.9882 142.14 56.1367ZM104.412 78.034L107.323 83.0288C104.199 84.8487 101.098 86.6664 98.0261 88.49L95.0756 83.5188C98.1656 81.6848 101.281 79.8588 104.412 78.034ZM67.5803 100.822L70.8348 105.6C67.8793 107.613 64.986 109.652 62.1631 111.726L58.7405 107.067C61.6247 104.949 64.5745 102.869 67.5803 100.822ZM34.0841 128.165L38.2197 132.204C35.7775 134.705 33.4474 137.267 31.2387 139.901L26.8096 136.186C29.1181 133.433 31.5469 130.763 34.0841 128.165ZM9.53039 163.569L14.8151 165.912C13.4497 168.991 12.2247 172.171 11.15 175.459L5.65512 173.663C6.7912 170.187 8.08659 166.825 9.53039 163.569ZM0.105806 205.557C0.035553 207.346 0 209.16 0 211C0 212.838 0.023489 214.67 0.0701832 216.496L5.84912 216.348C5.80368 214.571 5.78082 212.788 5.78082 211C5.78082 209.234 5.81494 207.496 5.88217 205.784L0.105806 205.557ZM3.46061 249.263L9.14682 248.221C9.79132 251.74 10.5255 255.226 11.347 258.679L5.7231 260.017C4.87835 256.466 4.12334 252.881 3.46061 249.263ZM15.8432 291.363L21.1877 289.16C22.5484 292.461 23.9928 295.718 25.5181 298.93L20.2963 301.41C18.7277 298.107 17.2425 294.757 15.8432 291.363ZM36.712 329.967L41.4836 326.704C43.497 329.648 45.5851 332.537 47.7452 335.368L43.1494 338.875C40.9287 335.964 38.7819 332.994 36.712 329.967ZM65.1038 363.432L69.1015 359.256C70.3886 360.488 71.6917 361.704 73.0105 362.903C74.4128 364.177 75.8285 365.399 77.2569 366.568L73.5948 371.041C72.0885 369.808 70.5975 368.521 69.1222 367.18C67.7665 365.948 66.4269 364.699 65.1038 363.432ZM104.03 388.436C107.724 389.775 111.475 390.895 115.277 391.811L116.63 386.19C113.03 385.324 109.486 384.265 106 383.001L104.03 388.436ZM150.269 394.907L150.014 389.132C153.741 388.968 157.506 388.659 161.308 388.216L161.978 393.957C158.047 394.416 154.142 394.737 150.269 394.907ZM196.462 386.845L194.872 381.287C198.526 380.242 202.196 379.108 205.877 377.895L207.686 383.385C203.937 384.621 200.194 385.777 196.462 386.845ZM240.591 370.76L238.299 365.453C241.843 363.923 245.384 362.345 248.92 360.726L251.326 365.982C247.755 367.617 244.175 369.212 240.591 370.76ZM282.998 350.502L280.351 345.362C283.825 343.573 287.283 341.768 290.721 339.954L293.419 345.067C289.966 346.888 286.491 348.702 282.998 350.502ZM324.458 328.349L321.695 323.272C323.419 322.333 325.136 321.399 326.843 320.471C328.746 319.437 330.638 318.402 332.518 317.365L335.31 322.427C333.418 323.471 331.515 324.511 329.604 325.55C327.898 326.477 326.183 327.411 324.458 328.349ZM368.659 302.217L365.369 297.464C368.889 295.027 372.284 292.531 375.534 289.958L379.122 294.49C375.763 297.15 372.268 299.719 368.659 302.217ZM405.916 266.354L401.114 263.135C403.373 259.764 405.41 256.247 407.203 252.563L412.401 255.092C410.487 259.025 408.316 262.772 405.916 266.354Z" fill="#00FFB2"/>
<path d="M393.096 219.671C393.096 264.598 365.971 288.865 332.021 309.395C250.098 358.934 135.408 413.571 73.2972 340.718C45.6386 308.275 28.9038 265.958 28.9038 219.671C28.9038 152.504 82.083 125.032 135.299 93.492C172.847 71.239 233.538 84.567 268.775 110.323C326.745 152.695 393.096 145.385 393.096 219.671Z" fill="#00FFB2"/>
<path d="M171.243 294.822C178.423 294.822 184.243 289.128 184.243 282.104C184.243 275.08 178.423 269.387 171.243 269.387C164.063 269.387 158.242 275.08 158.242 282.104C158.242 289.128 164.063 294.822 171.243 294.822Z" fill="#15193F"/>
<path d="M236.245 294.822C243.425 294.822 249.246 289.128 249.246 282.104C249.246 275.08 243.425 269.387 236.245 269.387C229.065 269.387 223.245 275.08 223.245 282.104C223.245 289.128 229.065 294.822 236.245 294.822Z" fill="#15193F"/>
<path d="M148.148 168.317C144.937 166.746 141.033 168.019 139.427 171.16C137.822 174.301 139.123 178.121 142.334 179.692L148.858 182.882C150.871 183.867 152.22 185.801 152.424 187.994L157.194 239.319C158.107 249.145 166.529 256.669 176.615 256.669H232.939C241.646 256.669 249.298 251.023 251.69 242.833L259.629 215.651C262.002 207.527 255.766 199.439 247.129 199.439H169.51C167.829 199.439 166.425 198.185 166.273 196.548L165.371 186.843C164.76 180.263 160.712 174.462 154.672 171.507L148.148 168.317Z" fill="#15193F"/>
</g>
<defs>
<clipPath id="clip0">
<rect width="422" height="339" fill="white"/>
</clipPath>
</defs>
</svg>
