<svg width="24" height="24" viewBox="0 0 24 24" fill="none" xmlns="http://www.w3.org/2000/svg">
<path fill-rule="evenodd" clip-rule="evenodd" d="M12.0003 2.20001C6.58768 2.19973 2.19971 6.58748 2.19971 12C2.19971 17.4125 6.58768 21.8003 12.0003 21.8C17.4125 21.7997 21.7997 17.4122 21.7997 12C21.7997 6.58776 17.4125 2.20029 12.0003 2.20001ZM11.9998 16.8C12.4416 16.8 12.7998 16.4418 12.7998 16V9.93138L14.4341 11.5657C14.7465 11.8781 15.253 11.8781 15.5654 11.5657C15.8779 11.2533 15.8779 10.7467 15.5654 10.4343L12.5654 7.43432C12.4154 7.2843 12.2119 7.20001 11.9998 7.20001C11.7876 7.20001 11.5841 7.2843 11.4341 7.43432L8.43403 10.4343C8.12161 10.7467 8.12161 11.2533 8.43403 11.5657C8.74645 11.8781 9.25298 11.8781 9.5654 11.5657L11.1998 9.93138V16C11.1998 16.4418 11.5579 16.8 11.9998 16.8Z" fill="#0038FF"/>
</svg>
