<svg width="16" height="14" viewBox="0 0 16 14" fill="none" xmlns="http://www.w3.org/2000/svg">
<path d="M13.5447 1.91319C12.5074 1.43704 11.4126 1.09749 10.2879 0.90306C10.2777 0.901154 10.2672 0.902518 10.2578 0.906959C10.2484 0.911399 10.2406 0.91869 10.2356 0.927793C10.0949 1.17799 9.93914 1.50433 9.83007 1.76079C8.60027 1.57666 7.37674 1.57666 6.1722 1.76079C6.06314 1.49859 5.90167 1.17799 5.7604 0.927793C5.75517 0.918897 5.74738 0.911785 5.73804 0.907385C5.72871 0.902985 5.71826 0.901501 5.70807 0.903126C4.58326 1.0971 3.48847 1.43662 2.45127 1.91313C2.4424 1.91692 2.43492 1.92337 2.42987 1.93159C0.355603 5.03053 -0.212664 8.05326 0.066136 11.0385C0.0669243 11.0458 0.0691714 11.0529 0.0727443 11.0593C0.0763171 11.0658 0.081143 11.0714 0.086936 11.0759C1.45547 12.081 2.78114 12.6911 4.0822 13.0955C4.09232 13.0985 4.10312 13.0984 4.11315 13.0951C4.12318 13.0918 4.13197 13.0855 4.13834 13.0771C4.44607 12.6569 4.7204 12.2137 4.95567 11.7477C4.9589 11.7413 4.96075 11.7343 4.96109 11.7271C4.96142 11.72 4.96024 11.7129 4.95762 11.7062C4.955 11.6995 4.951 11.6935 4.94589 11.6885C4.94077 11.6835 4.93465 11.6797 4.92794 11.6772C4.49274 11.5121 4.0784 11.3109 3.6798 11.0823C3.67253 11.0781 3.66643 11.0721 3.66203 11.0649C3.65762 11.0577 3.65506 11.0495 3.65456 11.0411C3.65405 11.0327 3.65563 11.0243 3.65915 11.0166C3.66267 11.009 3.66803 11.0023 3.67474 10.9972C3.7586 10.9343 3.84254 10.869 3.9226 10.8029C3.92972 10.7971 3.93833 10.7933 3.94747 10.7921C3.95661 10.7908 3.96592 10.7922 3.97434 10.7959C6.59287 11.9915 9.42767 11.9915 12.0153 10.7959C12.0237 10.7919 12.0331 10.7904 12.0424 10.7915C12.0516 10.7926 12.0604 10.7964 12.0676 10.8023C12.1477 10.8683 12.2316 10.9343 12.3161 10.9972C12.3229 11.0022 12.3282 11.0089 12.3318 11.0165C12.3354 11.0241 12.337 11.0325 12.3366 11.0409C12.3361 11.0493 12.3337 11.0575 12.3293 11.0647C12.325 11.0719 12.319 11.0779 12.3117 11.0823C11.913 11.3152 11.4953 11.514 11.0631 11.6765C11.0564 11.6791 11.0503 11.683 11.0452 11.6881C11.0401 11.6932 11.0362 11.6993 11.0336 11.706C11.031 11.7127 11.0299 11.7199 11.0303 11.7271C11.0307 11.7343 11.0326 11.7413 11.0359 11.7477C11.2762 12.213 11.5505 12.6562 11.8526 13.0765C11.8588 13.0851 11.8675 13.0916 11.8776 13.0951C11.8877 13.0985 11.8986 13.0986 11.9087 13.0955C13.2161 12.6911 14.5417 12.0809 15.9103 11.0759C15.9162 11.0716 15.9211 11.0661 15.9247 11.0598C15.9283 11.0534 15.9305 11.0464 15.9311 11.0391C16.2647 7.58779 15.3723 4.58986 13.5655 1.93219C13.561 1.92356 13.5537 1.9168 13.5447 1.91313V1.91319ZM5.34667 9.22079C4.55834 9.22079 3.90874 8.49699 3.90874 7.60813C3.90874 6.71933 4.54574 5.99553 5.34674 5.99553C6.15394 5.99553 6.7972 6.72566 6.7846 7.60819C6.7846 8.49699 6.1476 9.22079 5.34667 9.22079ZM10.6632 9.22079C9.87487 9.22079 9.22527 8.49699 9.22527 7.60813C9.22527 6.71933 9.8622 5.99553 10.6632 5.99553C11.4704 5.99553 12.1137 6.72566 12.1011 7.60819C12.1011 8.49699 11.4704 9.22079 10.6632 9.22079Z" fill="#15193F"/>
</svg>