<svg width="14" height="11" viewBox="0 0 14 11" fill="none" xmlns="http://www.w3.org/2000/svg">
<path fill-rule="evenodd" clip-rule="evenodd" d="M1.55556 0H12.4444C13.3036 0 14 0.757672 14 1.69231V9.30769C14 10.2423 13.3036 11 12.4444 11H1.55556C0.696446 11 0 10.2423 0 9.30769V1.69231C0 0.757672 0.696446 0 1.55556 0ZM11.779 1.55662L7 4.35615L2.221 1.55662C1.93734 1.39046 1.58358 1.50592 1.43084 1.81451C1.2781 2.12311 1.38423 2.50798 1.66789 2.67415L6.72344 5.63568C6.89609 5.73682 7.10391 5.73682 7.27656 5.63568L12.3321 2.67415C12.6158 2.50798 12.7219 2.12311 12.5692 1.81451C12.4164 1.50592 12.0627 1.39046 11.779 1.55662Z" fill="#15193F"/>
</svg>