<?xml version="1.0" encoding="utf-8"?><svg viewBox="0 0 92 30" xmlns="http://www.w3.org/2000/svg" xmlns:xlink="http://www.w3.org/1999/xlink"><style>:root>svg{display:none}:root>svg:target{display:block}</style><svg fill="none" viewBox="0 0 19 20" id="card" xmlns="http://www.w3.org/2000/svg"><path d="M5 20a2 2 0 100-4 2 2 0 000 4zM15 20a2 2 0 100-4 2 2 0 000 4zM1.448.106a1 1 0 00-.895 1.789l1.004.502a1 1 0 01.548.804l.734 8.071a3 3 0 002.988 2.729h8.665a3 3 0 002.884-2.176l1.222-4.275A2 2 0 0016.675 5H4.734a.5.5 0 01-.498-.454l-.139-1.527A3 3 0 002.451.608L1.448.106z" fill="#15193F"/></svg><svg fill="none" viewBox="0 0 92 30" id="header-logo__logo" xmlns="http://www.w3.org/2000/svg"><path d="M18.842 5.482c-.552.55-1.26.824-2.124.824-.862 0-1.569-.275-2.12-.824-.553-.553-.829-1.26-.829-2.122 0-.865.276-1.573.828-2.126.552-.552 1.26-.829 2.12-.829.865 0 1.573.277 2.125.829.552.553.828 1.261.828 2.126 0 .862-.276 1.57-.828 2.122zm-3.689-.525c.406.409.927.613 1.565.613.64 0 1.161-.204 1.564-.613.405-.41.608-.945.608-1.601 0-.657-.203-1.19-.608-1.598-.403-.41-.924-.616-1.564-.616-.638 0-1.16.205-1.565.616-.402.409-.604.941-.604 1.598 0 .656.202 1.19.604 1.601zm.46-.084V1.8h1.313c.344 0 .613.093.808.28.197.184.296.432.296.744 0 .23-.06.43-.18.6a.903.903 0 01-.516.345l.74 1.105h-.82l-.697-1.065h-.203v1.065h-.74zm.74-1.681h.533c.272 0 .408-.123.408-.369 0-.245-.136-.368-.408-.368h-.532v.737zM26.52 10.892h3.007c.484 0 .856-.124 1.115-.372.26-.248.39-.597.39-1.046 0-.45-.13-.798-.39-1.046-.259-.248-.63-.372-1.115-.372H26.52v2.836zm-2.663 2.299V.795H29.7c1.228 0 2.17.309 2.827.925.657.611.985 1.455.985 2.533 0 .588-.153 1.118-.458 1.59-.3.473-.68.827-1.141 1.064.519.236.942.599 1.27 1.089.335.49.502 1.072.502 1.746 0 1.072-.329 1.916-.985 2.533-.652.61-1.59.916-2.818.916h-6.025zm2.662-7.261h2.827c.484 0 .855-.124 1.115-.372s.389-.593.389-1.037c0-.45-.13-.798-.39-1.046-.259-.248-.63-.372-1.114-.372h-2.827V5.93zM42.366 12.084c-.818.853-1.942 1.28-3.37 1.28-1.43 0-2.554-.427-3.372-1.28-.818-.852-1.227-2.045-1.227-3.578 0-1.539.409-2.735 1.227-3.588.818-.858 1.942-1.287 3.371-1.287 1.43 0 2.553.429 3.371 1.287.825.853 1.236 2.05 1.236 3.588 0 1.533-.411 2.726-1.236 3.578zm-4.892-1.59c.403.438.91.657 1.521.657.617 0 1.124-.22 1.522-.657.403-.444.605-1.107.605-1.988 0-.888-.202-1.553-.605-1.997-.398-.444-.905-.666-1.522-.666-.61 0-1.118.222-1.521.666-.403.444-.605 1.11-.605 1.997 0 .881.202 1.544.605 1.988zM52.189 12.084c-.818.853-1.942 1.28-3.371 1.28-1.43 0-2.553-.427-3.371-1.28-.819-.852-1.228-2.045-1.228-3.578 0-1.539.41-2.735 1.227-3.588.819-.858 1.943-1.287 3.372-1.287 1.429 0 2.553.429 3.37 1.287.825.853 1.237 2.05 1.237 3.588 0 1.533-.412 2.726-1.236 3.578zm-4.893-1.59c.404.438.91.657 1.522.657.616 0 1.123-.22 1.521-.657.403-.444.605-1.107.605-1.988 0-.888-.202-1.553-.605-1.997-.398-.444-.905-.666-1.521-.666-.611 0-1.118.222-1.522.666-.403.444-.605 1.11-.605 1.997 0 .881.202 1.544.605 1.988zM57.931 13.364c-1.285 0-2.264-.286-2.939-.856-.668-.57-1.074-1.317-1.218-2.239h2.653c.046.236.205.444.476.623.276.172.62.259 1.028.259 1.06 0 1.594-.233 1.6-.7 0-.213-.136-.383-.407-.51-.265-.133-.6-.225-1.003-.277a10.99 10.99 0 01-1.296-.277 9.897 9.897 0 01-1.305-.466c-.398-.185-.73-.487-.995-.908-.265-.42-.397-.936-.397-1.547 0-.824.331-1.501.994-2.032.668-.536 1.605-.803 2.81-.803 1.25 0 2.206.267 2.87.803.662.536 1.062 1.242 1.2 2.118H59.35c-.115-.472-.588-.709-1.418-.709-.392 0-.697.06-.916.182-.213.115-.32.262-.32.44 0 .214.133.387.398.52.265.126.596.216.994.267.403.052.838.144 1.305.277.467.127.9.282 1.297.467.403.184.737.487 1.002.907.271.415.407.931.407 1.548 0 .847-.326 1.544-.977 2.092-.651.547-1.714.82-3.19.82zM66.69 13.19c-1.947 0-2.921-.912-2.921-2.74V6.112h-1.504V3.812h1.504l.354-2.48h2.127v2.48h2.213v2.3H66.25v3.89c0 .258.078.472.233.639.161.167.377.25.648.25h1.332v2.3H66.69zM69.615 13.19V3.813h2.48v9.379h-2.48zM71.862 2.43c-.27.27-.608.406-1.01.406a1.391 1.391 0 01-1.419-1.417A1.391 1.391 0 0170.851 0c.403 0 .74.135 1.011.406.271.271.407.608.407 1.012 0 .403-.136.74-.407 1.011zM73.594 13.19V3.813h2.127l.259 1.055h.095c.64-.824 1.464-1.236 2.472-1.236 1.037 0 1.873.34 2.507 1.02.634.68.95 1.607.95 2.783v5.757h-2.48V7.788c0-.61-.147-1.086-.441-1.426-.294-.346-.709-.519-1.245-.519-.53 0-.956.182-1.28.545-.322.357-.483.824-.483 1.4v5.403h-2.481zM87.574 16.735c-2.42 0-3.895-1.063-4.425-3.19h2.567c.19.652.81.977 1.858.977.611 0 1.087-.15 1.427-.45.345-.293.518-.705.518-1.236v-1.33h-.086c-.225.282-.556.547-.994.794-.433.243-.928.364-1.487.364-1.216 0-2.184-.392-2.904-1.176-.715-.79-1.072-1.905-1.072-3.345 0-1.441.36-2.553 1.08-3.337.72-.784 1.686-1.175 2.896-1.175 1.003 0 1.858.412 2.567 1.236h.095l.26-1.055H92v9.024c0 1.262-.369 2.228-1.106 2.896-.738.669-1.845 1.003-3.32 1.003zm-1.582-6.907c.37.415.865.623 1.487.623.628 0 1.124-.208 1.487-.623.369-.415.553-.976.553-1.685 0-.71-.184-1.268-.553-1.677-.363-.415-.859-.623-1.487-.623-.622 0-1.118.208-1.487.623-.363.409-.544.968-.544 1.677 0 .709.181 1.27.544 1.685zM29.18 28.927l2.48-10.537h.087l2.48 10.537h2.214l3.094-12.396h-1.59l-2.568 10.71h-.086l-2.567-10.71h-2.04l-2.568 10.71h-.086l-2.567-10.71h-1.59l3.094 12.396h2.213zM47.309 27.846c.778-.838 1.167-2.014 1.167-3.526 0-1.513-.39-2.68-1.167-3.518-.778-.839-1.807-1.254-3.077-1.254-1.28 0-2.308.415-3.086 1.254-.778.838-1.167 2.005-1.167 3.518 0 1.512.389 2.688 1.167 3.526.778.839 1.806 1.254 3.086 1.254 1.27 0 2.299-.415 3.077-1.254zm-5.195-.916c-.536-.614-.804-1.487-.804-2.61 0-1.116.268-1.989.804-2.61.536-.615 1.245-.926 2.118-.926.873 0 1.573.311 2.117.925.536.622.804 1.495.804 2.61 0 1.124-.268 1.997-.804 2.611-.544.622-1.244.934-2.117.934s-1.582-.312-2.118-.934zM51.227 28.927v-5.662c0-.666.234-1.21.71-1.651.475-.44 1.063-.657 1.771-.657h.968v-1.236h-.968c-1.158 0-1.988.415-2.48 1.236h-.087l-.181-1.236h-1.064v9.206h1.331zM56.987 28.927V16.53h-1.322v12.396h1.322zM60.586 26.939c-.51-.614-.77-1.487-.77-2.62 0-1.132.26-2.005.77-2.618.51-.614 1.201-.917 2.066-.917.856 0 1.547.303 2.057.917.51.613.77 1.486.77 2.619 0 1.132-.26 2.005-.77 2.619-.51.613-1.201.925-2.057.925-.865 0-1.556-.312-2.066-.925zm1.884 2.16c1.34 0 2.343-.466 3.008-1.408h.087l.181 1.236h1.064V16.53h-1.332v4.34h-.086c-.683-.882-1.66-1.323-2.922-1.323-1.184 0-2.143.415-2.878 1.254-.735.838-1.107 2.005-1.107 3.518 0 1.512.372 2.688 1.107 3.526.735.839 1.694 1.254 2.878 1.254z" fill="#15193F"/><g clip-path="url(#bclip0)"><path d="M13.113 9.257a6.557 6.557 0 016.557 6.556h-6.557V9.258z" fill="#0038FF"/><path d="M13.113 9.257v6.556H6.557V9.258h6.556z" fill="#86A0FF"/><path d="M6.557 9.257v6.556H0a6.557 6.557 0 016.557-6.556z" fill="#7996FE"/><path d="M19.67 15.813v6.557h-6.557v-6.557h6.557z" fill="#1A4CFF"/><path d="M13.113 15.813v6.557H6.557v-6.557h6.556z" fill="#AABCFF"/><path d="M6.557 15.813v6.557H0v-6.557h6.557z" fill="#6889FF"/><path d="M19.67 22.37a6.557 6.557 0 01-6.557 6.557V22.37h6.557z" fill="#2D5BFF"/><path d="M13.113 22.37v6.557H6.557V22.37h6.556z" fill="#3F69FF"/><path d="M6.557 22.37v6.557A6.557 6.557 0 010 22.37h6.557z" fill="#5278FF"/><path d="M12.717 24.548c-.211-.115-.41-.247-.62-.387l-.308-.202c-.267-.171-.256-.317-.252-.339l.31-.536a.052.052 0 00.032-.002c.016-.004.028-.01.038-.015.014-.007.032-.015.156.056a17.976 17.976 0 01.723.461.256.256 0 01-.021.232c-.108.188-.139.308-.547.26-.006-.012-.046.042.066.091.113.049.29.008.37-.03.08-.04.31-.21.332-.239l.126.033s.132.019.207-.031l.016.01-.159.276s-.138.14-.188.326c-.011.041-.01.065 0 .086-.066.02-.154.019-.281-.05zM2.02 16.345l.03.018a.066.066 0 00.092-.025.067.067 0 00-.007-.077l.002-.004 1.584.915.34.196-.068.117-1.973-1.14zm-2.947-1.701c.077-.03.158-.064.158-.064l.121.07 1.683.971c.002.005.004.01.007.013l-.002.004.138.08a.066.066 0 00-.03.123l.471.272v.001l-2.546-1.47zm.059-1.127a.188.188 0 01.256-.07l.31.178-.026.423-.473-.274a.188.188 0 01-.067-.257zm3.335 2.144l.033-.057.983.567.634.367.01.04-.167.166-1.578-.911.046-.08-.01-.006.05-.086zm2.228 1.251l.287.166.005.001c.204.049.38.116.538.208.17.098.28.2.368.282.055.051.098.092.14.116l.402.232.006.001c.185.043.347.104.481.181.152.088.24.179.305.246.03.03.053.053.077.07-.045-.016-.073.01-.09.025-.021.02-.045.042-.159-.023l-.525-.304c-.046-.026-.044-.034-.041-.047.01-.043 0-.079-.072-.12l-.619-.358c-.072-.042-.107-.032-.14-.002-.01.009-.016.015-.062-.012l-.501-.29c-.045-.025-.044-.034-.04-.046.008-.044 0-.08-.073-.12l-.264-.154-.09-.05-.094.161-.106-.061.11-.192.157.09zm17.682 11.819c-.005-.078-.058-.154-.179-.256l-.426-.357c-.845-.71-2.42-2.032-2.84-2.357a2.58 2.58 0 00-.284-.194c-.196-.113-.325-.138-.439-.16-.07-.013-.131-.025-.203-.056a1.322 1.322 0 01-.131-.067 3.865 3.865 0 01-.44-.31l-.65-.619a.763.763 0 00-.14-.108c-.077-.045-.122-.038-.142-.029l-.014.006-.01.011v.002l-.327-.263-.11-.133c.135-.254-.045-.621-.118-.693a.1.1 0 00.026-.03c.05-.087.023-.562-.268-.73L9.954 19.08l.007-.013-.04-.09-.1-.058.006-.009.29.168.118-.204c.032-.054.037-.068-.017-.1-.083-.047-.215.053-.215.053l-.161-.093c.02-.063.003-.13-.048-.159-.05-.029-.117-.011-.161.038l-.03-.017c-.075-.206-.363-.257-.363-.257l-.12-.07-.013-.049-.179-.103c-.014-.205-.188-.109-.188-.109l-.159-.091-.03.05-.046-.026a.113.113 0 00-.06-.08c-.158-.091-.232-.023-.302.098l-.032.054a.08.08 0 00-.03-.032.08.08 0 00-.052-.01l.027-.047c.029-.05.037-.076-.03-.115l-.055-.031v-.013c-.009-.043-.044-.08-.118-.122a209.1 209.1 0 00-1.243-.688c-.576-.319-1.173-.648-1.267-.702a.232.232 0 00-.177-.033l-.073-.042c-.057-.033-.182-.101-.27.05l.016-.026-2.018-1.165a.65.65 0 00-.082-.04l-.025-.009a.546.546 0 00-.053-.016l-.029-.005a.461.461 0 00-.12-.005c-.01 0-.018.002-.026.003a.553.553 0 00-.05.01l-.019.004a.807.807 0 00-.136.053l-.003.002c-.022.01-.044.022-.066.034l-.002.001c-.072.04-.144.085-.218.125l-.011.006a1.15 1.15 0 01-.109.05l-.006.003-.035.012a.61.61 0 01-.186.034l-.018-.01h-.003a.646.646 0 01-.314-.096l-.01-.006-.005.009H1.28l-1.563-.903.071-.123.059-1.065c.04-.005.093-.05.132-.118.05-.086.057-.173.018-.196l-.103-.06-.004-.002-.169-.097-.03-.017-.077-.045c-.04-.023-.111.028-.16.114-.039.066-.052.133-.038.17l-.01-.006-.005.014c-.002.003-.128.347-.313.548l-.004-.002a.329.329 0 00-.04-.018l-.01-.003-.117.202c-.009.014-.163.129-.262.072l-.008.014-.138-.08-.012-.006c-.069-.04-.18.023-.247.14-.067.118-.067.245.002.284l.011.007.245.141s.144.11.12.35c.008.006.109.12.277.171l.074.046 2.628 1.518c.006.073.034.16.124.211l.093.054s.062-.083.126-.047l.01-.015 2.207 1.274c-.06.17.07.245.27.36.08.046.198.139.348.255.282.22.709.552 1.259.87.775.447 1.244.796 1.475 1.097a.515.515 0 00.18.154c.03.018.063.035.097.052.036.02.072.038.11.06.031.018.06.023.089.015a.106.106 0 00.032-.017c.071.031.127.028.17.006l.019.019.006.004 1.101.714.094.251c-.06.089-.335.472-.898.876-.59.423-1.626.956-3.208 1.092l-.009.002c-.04.01-.04.044-.04.132a49.183 49.183 0 00.028.892c.02.48.044.965.044.97l.002.044h.044c.009 0 .905.01 2.081-.357a7.906 7.906 0 003.568-2.29c.048.022.12.064.136.124l.014.008c-.09.157-.165.324-.1.408h-.001s-.106.274-.096.384l.06.035.076-.13s-.012-.094.067-.116l.028.013.046-.08c.034 0 .07-.029.087.059-.002.002.013.011.034.023.002.097.05.268.322.442l.306.201c.18.12.352.234.531.338l.1.056c.19.104.331.088.427.05.023.092.031.25-.015.566-.113.774-.15 1.331-.279 1.704-.129.372-.227.467.318.71.545.244.933-.033 1.022-.214.09-.18.164-1.121.238-1.498.075-.377.135-.54.3-.649.126-.082.306-.258.345-.364l.03.02.155-.096c.079.076.245.237.342.323l.065.062c-.056.153.136.391.431.755.09.112.194.24.3.377.431.561 2.967 4.173 3.25 4.67.074.13.155.222.241.271.192.111.404.018.596-.264.314-.483 1.694-1.991 1.833-2.14.08-.084.143-.15.139-.242z" fill="#fff"/></g><defs><clipPath id="bclip0"><rect x="19.67" y="9.257" width="19.67" height="19.67" rx="9.835" transform="rotate(90 19.67 9.257)" fill="#fff"/></clipPath></defs></svg><svg fill="none" viewBox="0 0 17 17" id="header__menu-button" xmlns="http://www.w3.org/2000/svg"><path d="M0 .5h16.5M0 8.5h16.5M0 16.5h16.5" stroke="#848593"/></svg><svg fill="none" viewBox="0 0 20 20" id="members-area__icon" xmlns="http://www.w3.org/2000/svg"><path fill-rule="evenodd" clip-rule="evenodd" d="M10 1.833a4 4 0 00-4 4v-.002.001a3.989 3.989 0 003.974 4.001H10a4 4 0 000-8z" fill="#fff"/><path d="M5.55 12.168C6.726 11.448 8.307 11 10 11c1.683 0 3.263.443 4.442 1.16 1.155.7 2.058 1.755 2.058 3.016 0 .642-.24 1.185-.658 1.61-.402.407-.944.684-1.53.877-1.169.385-2.716.504-4.312.504-1.587 0-3.133-.114-4.302-.494-.588-.191-1.132-.465-1.535-.871a2.223 2.223 0 01-.663-1.61c0-1.258.895-2.317 2.05-3.024z" fill="#fff"/></svg><svg fill="none" viewBox="0 0 18 18" id="search" xmlns="http://www.w3.org/2000/svg"><path clip-rule="evenodd" d="M2.25 7.875a5.625 5.625 0 1111.25 0 5.625 5.625 0 01-11.25 0z" stroke="#0038FF" stroke-width="1.6" stroke-linecap="round" stroke-linejoin="round"/><path d="M14.652 14.652L12 12" stroke="#0038FF" stroke-width="1.6" stroke-linecap="round"/></svg><svg fill="none" viewBox="0 0 22 22" id="status-purchase__error" xmlns="http://www.w3.org/2000/svg"><path d="M2 2l9 9m9 9l-9-9m0 0l-9 9L20 2" stroke="#fff" stroke-width="4"/></svg><svg fill="none" viewBox="0 0 25 19" id="status-purchase_success" xmlns="http://www.w3.org/2000/svg"><path d="M2 9.368L8.75 16 23 2" stroke="#15193F" stroke-width="4"/></svg></svg>