<svg width="16" height="14" viewBox="0 0 16 14" fill="none" xmlns="http://www.w3.org/2000/svg">
<path fill-rule="evenodd" clip-rule="evenodd" d="M8.00028 0.399902C6.5878 0.399902 5.39895 0.44641 4.4169 0.606985C3.43387 0.767725 2.60807 1.05014 1.95829 1.55864C0.63347 2.59542 0.274902 4.37675 0.274902 6.9999C0.274902 9.62303 0.63347 11.4044 1.95829 12.4412C2.60807 12.9497 3.43387 13.2321 4.4169 13.3928C5.39895 13.5534 6.5878 13.5999 8.00028 13.5999C9.41268 13.5999 10.6015 13.5534 11.5835 13.3928C12.5664 13.2321 13.3922 12.9497 14.0419 12.4412C15.3666 11.4044 15.7249 9.62303 15.7249 6.9999C15.7249 4.37681 15.3666 2.59547 14.0419 1.55867C13.3922 1.05015 12.5664 0.767725 11.5835 0.606985C10.6015 0.44641 9.41268 0.399902 8.00028 0.399902ZM12.7638 4.93845C12.8087 4.89954 12.8549 4.85894 12.8994 4.81946C13.1459 4.598 13.1677 4.21726 12.9462 3.97077C12.7248 3.72431 12.3453 3.70414 12.0988 3.92553L12.0977 3.92653L12.0924 3.93129L12.0696 3.95146C12.0492 3.96947 12.0185 3.99641 11.9786 4.03097C11.8986 4.10013 11.7819 4.19969 11.6366 4.31949C11.3454 4.55961 10.9425 4.87851 10.4939 5.19613C10.0431 5.5152 9.5578 5.82465 9.10045 6.05198C8.62728 6.2871 8.2513 6.3999 7.9999 6.3999C7.77055 6.3999 7.4062 6.29003 6.93228 6.0531C6.47672 5.82533 5.98786 5.51535 5.53148 5.19586C5.07722 4.87788 4.66668 4.55866 4.36909 4.31829C4.2206 4.19836 4.10098 4.09867 4.01895 4.02936C3.97794 3.99473 3.94638 3.96772 3.92535 3.94962L3.90186 3.92932L3.8963 3.92448L3.89492 3.92328C3.64554 3.70514 3.26654 3.73044 3.04836 3.9798C2.83015 4.22918 2.85713 4.60973 3.10651 4.82794C3.15175 4.86728 3.19873 4.90734 3.24453 4.94603C3.33241 5.02028 3.45888 5.12566 3.61509 5.25183C3.92687 5.50365 4.36008 5.8407 4.84333 6.17895C5.32444 6.5157 5.86684 6.86198 6.39564 7.12643C6.9061 7.38165 7.47925 7.5999 7.9999 7.5999C8.536 7.5999 9.11628 7.38413 9.63453 7.12658C10.1685 6.86115 10.7098 6.51353 11.1872 6.17558C11.6667 5.83613 12.0936 5.498 12.3999 5.24536C12.5535 5.11878 12.6776 5.01301 12.7638 4.93845Z" fill="#0038FF"/>
</svg>
