<?xml version="1.0" encoding="utf-8"?><svg width="20" height="20" fill="none" xmlns="http://www.w3.org/2000/svg" viewBox="0 0 20 20"><path fill-rule="evenodd" clip-rule="evenodd" d="M10 1.833a4 4 0 00-4 4v-.002.001a3.989 3.989 0 003.974 4.001H10a4 4 0 000-8z" fill="#fff"/><path d="M5.55 12.168C6.726 11.448 8.307 11 10 11c1.683 0 3.263.443 4.442 1.16 1.155.7 2.058 1.755 2.058 3.016 0 .642-.24 1.185-.658 1.61-.402.407-.944.684-1.53.877-1.169.385-2.716.504-4.312.504-1.587 0-3.133-.114-4.302-.494-.588-.191-1.132-.465-1.535-.871a2.223 2.223 0 01-.663-1.61c0-1.258.895-2.317 2.05-3.024z" fill="#fff"/></svg>