<svg width="43" height="43" viewBox="0 0 43 43" fill="none" xmlns="http://www.w3.org/2000/svg">
<g clip-path="url(#clip0)">
<rect width="43" height="43" rx="21.5" fill="#B620FD"/>
<g clip-path="url(#clip1)">
<path fill-rule="evenodd" clip-rule="evenodd" d="M28.7862 9.6285C30.6577 10.0273 32.2194 11.7098 32.5232 13.655C32.611 14.2172 32.7026 14.8581 32.7267 15.0793C32.76 15.3858 32.8575 15.4406 33.1364 15.3098C35.5867 14.1592 37.7946 14.9398 39.6709 17.6202C40.2203 18.4049 40.5096 19.1149 41.0196 20.9289L41.6688 23.2386L42.6464 23.0838C43.1843 22.9987 43.7356 22.9642 43.872 23.0073C44.0084 23.0503 44.39 23.8777 44.7203 24.846C45.0504 25.8143 45.5104 27.0866 45.7422 27.6736L46.1641 28.7404L45.2972 29.2248C44.5171 29.6609 44.4777 29.717 44.9047 29.7857C45.1656 29.8276 45.4103 29.9791 45.4487 30.1222C45.487 30.2653 45.6164 30.356 45.7363 30.3239C45.8901 30.2827 46.0292 30.6881 46.2079 31.6981C47.0343 36.3658 46.9703 36.1309 47.4116 36.1285C47.8409 36.1265 48.4652 37.1 48.3285 37.5587C48.2878 37.6956 48.3751 38.1685 48.5228 38.6097C48.6704 39.0508 48.7456 39.6089 48.6898 39.8496C48.6151 40.172 48.8717 40.9334 49.6632 42.7391C50.2544 44.0874 50.7856 45.5594 50.844 46.01C50.9555 46.8738 50.9401 46.8548 53.8568 49.7473C54.4949 50.3802 55.1042 51.2119 55.3813 51.8287C55.6353 52.3935 56.1801 53.1899 56.5922 53.5983C57.2609 54.2611 57.3679 54.4828 57.589 55.6646C57.792 56.7499 58.0952 57.4595 59.2728 59.6046C61.0005 62.752 61.1769 63.5577 60.2369 64.0068C59.9142 64.1609 58.9944 64.4343 58.1928 64.6141L56.7355 64.9413L56.5258 63.9626C55.6635 59.9374 55.1426 58.8666 53.6726 58.0975C53.2234 57.8623 52.7266 57.4323 52.5687 57.142C52.411 56.8517 51.7474 55.9535 51.094 55.1459C50.2789 54.1382 49.8323 53.4016 49.6706 52.7984C49.3724 51.6853 48.9601 51.1145 47.9376 50.3991C45.9473 49.0066 45.6245 48.7067 45.2335 47.8863C44.6046 46.5674 43.2646 44.8061 42.2462 43.9602C41.7425 43.5418 41.3012 43.0905 41.2656 42.9574C41.1552 42.5455 40.9263 42.7753 40.6947 43.5301C40.5499 44.0023 40.2832 44.3401 39.9257 44.5044C39.4697 44.7139 39.229 45.1909 38.484 47.3611C37.992 48.7939 37.4984 50.0655 37.3871 50.187C37.2758 50.3088 36.8637 50.4955 36.4715 50.6025C35.9649 50.7405 35.7298 50.9202 35.6594 51.2235C35.5081 51.8768 35.9816 53.3778 36.48 53.8248C36.851 54.1577 36.9827 54.5329 37.2879 56.1296C37.6575 58.064 37.7896 60.2953 37.5644 60.8033C37.3812 61.2167 38.4463 64.4269 39.3134 66.0743C40.0491 67.4725 40.0617 67.5208 39.7813 67.8805C39.5787 68.1408 39.1946 68.295 38.4837 68.4019C37.8401 68.4988 37.145 68.7562 36.5666 69.1124C35.9296 69.5045 35.0089 69.8278 33.4784 70.1967L31.2976 70.7225L31.0701 70.1133C30.8509 69.5267 30.888 69.4644 32.0647 68.4433C33.3778 67.304 34.3382 65.6035 34.2924 64.4991C34.2475 63.4229 33.7686 61.8738 33.2869 61.2478C32.9554 60.8172 32.6838 60.1056 32.4112 58.9538C32.194 58.0355 31.5742 56.1286 31.0342 54.7165C30.264 52.7031 30.0724 52.0266 30.1459 51.5815C30.1977 51.2694 30.2021 50.8729 30.1558 50.7005C30.1096 50.5279 30.1705 50.193 30.2912 49.9562C30.4119 49.7196 30.6222 48.5959 30.7583 47.4594C31.1056 44.5586 31.5527 42.7104 32.3549 40.8584C32.8599 39.6926 33.0205 39.0264 32.9484 38.396C32.8227 37.2941 32.6079 37.0929 31.9319 37.4439C30.7818 38.0413 30.1185 37.1895 28.9751 33.6482C28.1573 31.1151 28.1242 30.9356 28.3904 30.4721C28.5456 30.2018 28.7729 29.9142 28.8955 29.833C29.0521 29.7293 29.0236 29.4876 28.7998 29.0198L28.4812 28.3543L26.9194 29.7896C26.0603 30.579 25.0231 31.3747 24.6141 31.5578C24.2053 31.741 23.8443 31.9791 23.8122 32.0869C23.7363 32.3417 23.0817 32.1907 21.5812 31.5722C20.3448 31.0624 20.1248 30.8187 19.3239 29.0723C19.0763 28.5327 18.8932 28.3843 18.4811 28.3904C18.0018 28.3975 17.9497 28.333 17.8974 27.6655C17.7173 25.3721 17.6684 25.2425 16.7916 24.746C16.3394 24.4896 15.8198 24.1683 15.6372 24.0316C15.3592 23.824 14.8784 23.8976 12.6997 24.4814C10.3096 25.1218 10.0786 25.1514 9.90227 24.841C9.72174 24.5233 9.48517 24.5645 6.03369 25.5154C2.47651 26.4955 2.35381 26.5157 2.25368 26.142C2.15387 25.7696 2.25485 25.7305 5.10081 25.0431L8.05148 24.3304L7.92161 23.8458C7.83525 23.5235 7.91146 23.2928 8.14909 23.1571C8.44106 22.9905 8.46293 22.7907 8.2688 22.0662C8.13804 21.5782 8.11758 21.1559 8.2233 21.1275C8.32901 21.0992 8.54357 21.554 8.70008 22.1381C8.97225 23.1538 9.29074 23.4675 9.36105 22.7889C9.38944 22.5143 10.2554 22.2388 15.5507 20.8199C18.9851 19.8997 21.6871 19.0947 21.6617 18.9997C21.6365 18.9059 21.7767 18.7373 21.9733 18.625C22.1871 18.5029 22.2871 18.2586 22.2223 18.0169C22.051 17.3775 22.4255 17.4582 22.747 18.1298C23.0259 18.7126 23.0948 18.7349 24.3622 18.6528C25.0901 18.6057 25.7116 18.5224 25.7429 18.4679C25.7742 18.4131 25.761 17.9963 25.7134 17.5413C25.6299 16.74 25.6074 16.715 24.9922 16.7426C24.6429 16.7581 24.2282 16.6329 24.0707 16.464C23.679 16.0449 23.3556 14.6973 23.3489 13.4566C23.3437 12.513 23.4284 12.3364 24.3673 11.3329C25.2314 10.4092 25.5834 10.1752 26.622 9.834C27.6029 9.51156 28.0421 9.46984 28.7862 9.6285ZM19.9049 23.829C19.9874 24.386 20.9435 25.4003 21.7918 25.8312C22.2579 26.0679 22.2757 26.0536 22.4921 25.2696C22.7756 24.2418 22.7667 24.2201 21.9705 23.9964C21.6029 23.8931 21.2732 23.7006 21.2378 23.5685C21.0174 22.7459 19.78 22.9876 19.9049 23.829Z" fill="white"/>
</g>
</g>
<defs>
<clipPath id="clip0">
<rect width="43" height="43" rx="21.5" fill="white"/>
</clipPath>
<clipPath id="clip1">
<rect width="54.172" height="32.5947" fill="white" transform="matrix(-0.965926 0.258819 0.258819 0.965926 48.3262 4)"/>
</clipPath>
</defs>
</svg>
