<svg width="43" height="43" viewBox="0 0 43 43" fill="none" xmlns="http://www.w3.org/2000/svg">
<g clip-path="url(#clip0)">
<rect width="43" height="43" rx="21.5" fill="#00993F"/>
<g clip-path="url(#clip1)">
<path fill-rule="evenodd" clip-rule="evenodd" d="M24.4683 16.4787C22.269 19.5439 20.4385 22.1266 20.4007 22.2178C20.3627 22.3093 22.384 22.384 24.8923 22.384C27.4006 22.384 29.4512 22.3148 29.4493 22.2305C29.4248 21.0961 28.634 11.0708 28.5636 11.0008C28.5106 10.9484 26.6677 13.4133 24.4683 16.4787ZM9.63718 25.9868C12.1876 27.8559 14.403 29.5059 14.5604 29.6534C14.8016 29.8795 14.2068 30.8128 10.7916 35.5693C8.56127 38.6754 6.73654 41.2606 6.73654 41.3144C6.73654 41.368 9.89553 39.8465 13.7566 37.9334C17.6178 36.0201 20.8678 34.4547 20.9787 34.4547C21.0898 34.4547 23.2974 36.0201 25.8846 37.933C30.5496 41.3827 30.5891 41.4063 30.6525 40.8074C30.6876 40.4754 30.5713 38.2184 30.3943 35.7919C30.2171 33.3653 30.0722 30.9833 30.0722 30.4986V29.6172L37.4058 26.2759C41.4391 24.438 44.7094 22.9046 44.6726 22.8684C44.6361 22.832 38.0379 24.3654 30.01 26.2759C21.9824 28.1861 15.3523 29.7492 15.2768 29.7492C15.2012 29.7492 15.6881 29.3973 16.3589 28.967C18.4576 27.6208 19.7876 25.6846 20.0837 23.5438L20.2159 22.5886H12.608H5L9.63718 25.9868Z" fill="white"/>
</g>
</g>
<defs>
<clipPath id="clip0">
<rect width="43" height="43" rx="21.5" fill="white"/>
</clipPath>
<clipPath id="clip1">
<rect width="38" height="36" fill="white" transform="translate(5 11)"/>
</clipPath>
</defs>
</svg>
