<svg width="43" height="43" viewBox="0 0 43 43" fill="none" xmlns="http://www.w3.org/2000/svg">
<g clip-path="url(#clip0)">
<rect width="43" height="43" rx="21.5" fill="#1E99E7"/>
<g clip-path="url(#clip1)">
<path d="M30.2553 28.0011C29.8378 27.7763 29.4447 27.5181 29.0287 27.2452C28.8352 27.1182 28.6348 26.9866 28.419 26.8493C27.8925 26.515 27.9144 26.2296 27.9209 26.1877L28.5333 25.1394C28.5561 25.1442 28.5772 25.1449 28.5978 25.1363C28.6297 25.1276 28.6538 25.1157 28.6726 25.1071C28.7008 25.0935 28.7361 25.0762 28.9819 25.2164C29.2393 25.3633 29.8191 25.7346 30.1415 25.9427C30.2718 26.0267 30.3711 26.0912 30.4118 26.1179C30.4575 26.2315 30.4762 26.3891 30.3704 26.5702C30.1559 26.9373 30.0957 27.1734 29.2878 27.0793C29.2758 27.055 29.1963 27.1616 29.4194 27.2569C29.6425 27.352 29.9938 27.2727 30.1516 27.1968C30.3092 27.1209 30.7657 26.7871 30.8065 26.7318L31.0572 26.7951C31.0572 26.7951 31.3178 26.832 31.4665 26.7346L31.4981 26.7552L31.1835 27.2937C31.1835 27.2937 30.9105 27.5685 30.8111 27.931C30.7889 28.0118 30.793 28.0585 30.8102 28.0988C30.6817 28.1372 30.5059 28.1359 30.2553 28.0011ZM9.09561 11.9652L9.15659 12C9.2191 12.0357 9.29948 12.0138 9.336 11.9513C9.36488 11.9018 9.35702 11.8427 9.32227 11.802L9.32667 11.7944L12.461 13.5827L13.1319 13.9655L12.9986 14.1937L9.09489 11.9665L9.09561 11.9652ZM3.26555 8.64048C3.41764 8.58066 3.57951 8.51532 3.57951 8.51532L3.81804 8.65142L7.14681 10.5507C7.15167 10.5592 7.15583 10.5686 7.16189 10.5757L7.1573 10.5836L7.4304 10.7394C7.38765 10.7421 7.34656 10.763 7.32326 10.8029C7.28673 10.8654 7.30773 10.9451 7.3704 10.9809L8.30258 11.5128C8.30258 11.5128 8.30235 11.5139 8.30217 11.5142L3.26555 8.64048ZM3.38261 6.43745C3.48598 6.26051 3.71322 6.1986 3.88955 6.29921L4.50287 6.64914L4.45112 7.47457L3.51494 6.94043C3.33861 6.83982 3.27942 6.61407 3.38261 6.43745ZM9.98066 10.6291L10.0459 10.5174L11.9892 11.6262L13.2439 12.3421L13.2653 12.4206L12.9324 12.745L9.81158 10.9644L9.90317 10.8076L9.88305 10.7962L9.98066 10.6291ZM14.387 13.0743L14.3868 13.0747L14.9552 13.399L14.9651 13.4011C15.3683 13.4957 15.7165 13.6282 16.0292 13.8066C16.3647 13.998 16.5821 14.1983 16.7569 14.359C16.8655 14.4589 16.9509 14.5377 17.0353 14.5858L17.8298 15.0391L17.8399 15.0414C18.2059 15.1241 18.5266 15.243 18.7929 15.395C19.0926 15.566 19.268 15.7443 19.396 15.8746C19.4538 15.9334 19.5014 15.9782 19.5478 16.0123C19.4583 15.9818 19.4045 16.0304 19.3709 16.0611C19.3283 16.0998 19.2804 16.1437 19.0554 16.0153L18.0164 15.4226C17.9269 15.3715 17.9304 15.3552 17.9357 15.3305C17.9538 15.2454 17.9367 15.1762 17.7935 15.0946L16.569 14.3959C16.426 14.3143 16.3566 14.334 16.2912 14.3922C16.2722 14.4091 16.2597 14.4203 16.17 14.3691L15.1779 13.803C15.0884 13.7519 15.0919 13.7357 15.0973 13.711C15.1154 13.6259 15.0982 13.5567 14.955 13.4751L14.4319 13.1766L14.2535 13.0762L14.0684 13.3932L13.858 13.2731L14.0773 12.8977L14.387 13.0743ZM49.3636 36.1785C49.3556 36.0271 49.2501 35.8778 49.0106 35.6788C48.8523 35.548 48.5542 35.3005 48.1684 34.9804C46.4958 33.5922 43.3822 31.0078 42.5497 30.3725C42.345 30.2164 42.1613 30.0926 41.9876 29.9935C41.6009 29.7728 41.3451 29.7244 41.1198 29.6817C40.9804 29.6553 40.8594 29.6325 40.7185 29.572C40.6416 29.539 40.5535 29.4945 40.4581 29.4401C40.0546 29.2099 39.6276 28.8677 39.5875 28.8351C39.5271 28.7783 38.6055 27.911 38.3011 27.6248C38.2017 27.5313 38.1096 27.4603 38.0273 27.4134C37.8726 27.3251 37.7833 27.3395 37.744 27.3563L37.7174 27.3675L37.6989 27.3897C37.6988 27.39 37.6969 27.392 37.696 27.3933C37.4347 27.1833 37.05 26.8784 37.05 26.8784L36.8319 26.6201C37.0998 26.1222 36.7436 25.4049 36.5991 25.2651C36.6176 25.251 36.6354 25.2335 36.6512 25.2064C36.7509 25.0358 36.6963 24.107 36.1197 23.778L24.7895 17.3134L24.8042 17.2882L24.7245 17.1115L24.5284 16.9996L24.5386 16.982L25.1133 17.3099L25.3465 16.9106C25.4082 16.8051 25.4191 16.7779 25.3122 16.7169C25.1488 16.6237 24.8865 16.8195 24.8865 16.8195L24.5678 16.6377C24.6093 16.5148 24.5739 16.385 24.4736 16.3277C24.3735 16.2706 24.2419 16.3052 24.1551 16.4022L24.0956 16.3683C23.9481 15.9649 23.3779 15.8664 23.3779 15.8664L23.1394 15.7303L23.1136 15.6333L22.7606 15.4319C22.7329 15.0317 22.3881 15.2194 22.3881 15.2194L22.0743 15.0403L22.016 15.1401L21.9236 15.0874L21.9231 15.0881C21.9102 15.0265 21.8802 14.9733 21.8068 14.9314C21.4932 14.7525 21.3452 14.8865 21.2074 15.1224L21.1453 15.2287C21.1322 15.2046 21.1123 15.1817 21.0841 15.1656C21.0506 15.1465 21.0142 15.1401 20.9825 15.1448L21.0359 15.0535C21.0922 14.9571 21.108 14.9049 20.9772 14.8303L20.8682 14.7681C20.8676 14.7598 20.8695 14.7518 20.8676 14.7432C20.8502 14.6601 20.7804 14.5889 20.6337 14.5052C20.4522 14.4016 19.3464 13.7984 18.1757 13.1598C17.035 12.5376 15.8555 11.8941 15.6681 11.7872C15.5439 11.7163 15.4269 11.6966 15.3189 11.7239L15.1749 11.6418C15.0616 11.5771 14.815 11.4429 14.6414 11.74L14.672 11.6876L10.6809 9.41049C10.6255 9.37885 10.5716 9.35365 10.5188 9.33256C10.5015 9.32575 10.4848 9.32136 10.4678 9.31537C10.4326 9.30348 10.3976 9.29216 10.3634 9.28437C10.3444 9.27986 10.3256 9.27694 10.3069 9.27388C10.2754 9.26861 10.2442 9.26441 10.2136 9.26252C10.1949 9.26113 10.1767 9.26055 10.1582 9.26051C10.1275 9.26021 10.0971 9.26176 10.067 9.26452C10.0504 9.26593 10.0337 9.26726 10.0173 9.26964C9.98426 9.27437 9.95184 9.28113 9.91944 9.28893C9.90689 9.29183 9.89406 9.29416 9.88164 9.29754C9.78988 9.3228 9.70052 9.35866 9.61224 9.4011C9.60984 9.4024 9.60753 9.40355 9.60498 9.40476C9.56173 9.42587 9.51854 9.44825 9.47553 9.47175L9.47097 9.47429C9.32827 9.5524 9.18661 9.63994 9.0402 9.71737C9.03276 9.72134 9.02519 9.72482 9.01775 9.72879C8.94764 9.76538 8.87628 9.79919 8.80324 9.82815C8.7989 9.82998 8.79461 9.83206 8.79036 9.83373C8.76786 9.84245 8.74484 9.84924 8.72209 9.85699C8.60532 9.89631 8.48345 9.92123 8.35429 9.92392L8.31819 9.90332L8.3123 9.90324C8.10824 9.89954 7.90521 9.83831 7.69094 9.71606L7.67082 9.70458L7.66119 9.72106C7.6519 9.71945 7.64162 9.72056 7.63157 9.72058L4.53996 7.95664L4.68057 7.71595L4.79622 5.63346C4.87545 5.62405 4.98067 5.53543 5.05804 5.403C5.15574 5.23577 5.17154 5.0643 5.09382 5.01996L4.89 4.90366L4.88139 4.89876L4.5487 4.70894L4.48941 4.67511L4.33628 4.58774C4.25856 4.54339 4.1162 4.64264 4.01849 4.80988C3.94283 4.93938 3.91693 5.071 3.94504 5.14453L3.92369 5.13235L3.91407 5.15827C3.91155 5.16504 3.6609 5.83736 3.2948 6.23089C3.29243 6.22934 3.29028 6.22811 3.28859 6.22714C3.25941 6.21049 3.20914 6.19208 3.20696 6.19125L3.18866 6.18471L2.95808 6.57938C2.94034 6.60765 2.63436 6.83202 2.43914 6.72063L2.42277 6.74866L2.14951 6.59275L2.12663 6.57969C1.99085 6.50222 1.77229 6.62534 1.63833 6.85463C1.50446 7.08377 1.50594 7.33223 1.64172 7.4097L1.6646 7.42276L2.14828 7.69873C2.14828 7.69873 2.43254 7.91327 2.38416 8.38377C2.40244 8.3942 2.60036 8.61841 2.93337 8.71725C2.97921 8.7471 3.02728 8.77699 3.0792 8.80661L8.27956 11.7737C8.29045 11.9167 8.34604 12.0851 8.52452 12.187L8.70761 12.2914C8.70761 12.2914 8.83128 12.1292 8.95769 12.2013L8.97551 12.1708L13.3423 14.6623C13.2231 14.9926 13.4802 15.1399 13.877 15.3663C14.0341 15.4559 14.2686 15.6364 14.5655 15.8645C15.1235 16.2939 15.967 16.9429 17.0552 17.5638C18.5889 18.4389 19.5161 19.1202 19.9731 19.7083C20.0677 19.8489 20.2058 19.9394 20.3286 20.0094C20.39 20.0445 20.4538 20.0776 20.5211 20.1125C20.5915 20.149 20.6642 20.1866 20.737 20.2281C20.8009 20.2646 20.859 20.2745 20.9146 20.2588C20.9379 20.2522 20.9585 20.2399 20.9785 20.2256C21.1191 20.286 21.2297 20.279 21.3159 20.2359L21.3515 20.2738L21.3638 20.2815C21.3874 20.2968 22.3736 20.9284 23.5419 21.6772L23.7282 22.1684C23.6101 22.3419 23.0646 23.0909 21.9511 23.8799C20.7837 24.7073 18.7348 25.7496 15.6047 26.0155L15.5878 26.0184C15.5085 26.0402 15.5084 26.1045 15.5081 26.2768C15.508 26.3769 15.5105 26.5237 15.5158 26.7123C15.5245 27.0287 15.5408 27.4688 15.564 28.0204C15.6039 28.9585 15.6511 29.9073 15.6516 29.9169L15.6557 30.0025L15.7421 30.004C15.7597 30.0042 17.533 30.0212 19.8587 29.305C21.8303 28.6982 24.5819 27.431 26.9169 24.8277C27.0116 24.8713 27.1541 24.9542 27.1847 25.0711L27.213 25.0872C27.0367 25.3935 26.8868 25.7191 27.0142 25.8846L27.0131 25.884C27.0131 25.884 26.8036 26.4192 26.8235 26.6344L26.9441 26.7032L27.0922 26.4497C27.0922 26.4497 27.0681 26.2654 27.2248 26.2228L27.2808 26.2488L27.372 26.0926L27.3704 26.0917C27.4386 26.0902 27.5106 26.0356 27.5437 26.2068C27.5397 26.2103 27.5691 26.2289 27.61 26.2522C27.6141 26.4414 27.7114 26.7762 28.2471 27.1163C28.4613 27.2523 28.6604 27.3831 28.8533 27.5096C29.2095 27.7433 29.5488 27.9664 29.9041 28.1691C29.9693 28.2063 30.0349 28.2427 30.1016 28.2785C30.4782 28.4813 30.7561 28.4515 30.9459 28.3783C30.9913 28.5558 31.0081 28.8671 30.9167 29.4823C30.6921 30.9965 30.6209 32.086 30.3651 32.8135C30.1095 33.5411 29.9158 33.7276 30.9943 34.2032C32.0724 34.6789 32.8393 34.1377 33.0157 33.7839C33.1918 33.4302 33.3388 31.5923 33.4868 30.8557C33.6347 30.119 33.7522 29.8015 34.081 29.5872C34.3281 29.426 34.6846 29.083 34.761 28.8747L34.8221 28.9143L35.1279 28.727C35.2836 28.8758 35.6133 29.1894 35.804 29.3589C35.8546 29.4041 35.8955 29.4434 35.9327 29.4786C35.8218 29.7789 36.2024 30.2437 36.7854 30.9557C36.9649 31.175 37.1686 31.4236 37.3772 31.6915C38.2322 32.7892 43.2487 39.8491 43.8076 40.8212C43.9546 41.0769 44.1149 41.255 44.2845 41.3517C44.6651 41.5689 45.0833 41.3866 45.4639 40.8357C46.0856 39.8901 48.8135 36.9426 49.0903 36.6529C49.2478 36.4875 49.3727 36.3568 49.3636 36.1785Z" fill="white"/>
</g>
</g>
<defs>
<clipPath id="clip0">
<rect width="43" height="43" rx="21.5" fill="white"/>
</clipPath>
<clipPath id="clip1">
<rect width="57" height="47" fill="white" transform="translate(-5 4)"/>
</clipPath>
</defs>
</svg>
