<svg width="73" height="73" viewBox="0 0 73 73" fill="none" xmlns="http://www.w3.org/2000/svg">
<path d="M71.7973 30.0049C72.4739 31.5326 72.8876 33.3438 72.9802 35.5395L72.4806 35.5606C72.4935 35.8656 72.5 36.1786 72.5 36.5C72.5 36.8742 72.4901 37.2405 72.4706 37.5993L72.9699 37.6264C72.8358 40.097 72.2593 42.2368 71.3395 44.1273L70.8899 43.9086C70.5693 44.5674 70.2054 45.1956 69.8023 45.797L70.2176 46.0754C68.9838 47.9161 67.3984 49.5053 65.5828 50.9426L65.2725 50.5506C64.7008 51.0032 64.1048 51.4413 63.4882 51.8681L63.7728 52.2792C61.9801 53.5202 60.0258 54.6598 58.0039 55.7752L57.7624 55.3375C57.4361 55.5175 57.1078 55.6969 56.778 55.8762C56.6183 55.9631 56.4582 56.0502 56.2975 56.1376C56.1612 56.2117 56.0246 56.2861 55.8877 56.3606L56.1267 56.7998C56.1069 56.8106 56.087 56.8213 56.0672 56.8321C54.3433 57.7703 52.5678 58.7366 50.7572 59.6917L50.5239 59.2494C49.9279 59.5638 49.3283 59.8769 48.7257 60.1873L48.9546 60.6318C47.1517 61.5603 45.3202 62.4654 43.4759 63.3097L43.2678 62.8551C42.653 63.1365 42.0371 63.411 41.4206 63.6772L41.6188 64.1362C39.7236 64.9545 37.8206 65.6959 35.9268 66.3202L35.7703 65.8453C35.1276 66.0571 34.4865 66.2552 33.8476 66.4379L33.9851 66.9186C31.9727 67.4942 29.9774 67.9206 28.0199 68.149L27.962 67.6524C27.2931 67.7304 26.6297 67.7849 25.9723 67.8138L25.9943 68.3133C23.9158 68.4049 21.8895 68.2467 19.9413 67.7777L20.0583 67.2916C19.4181 67.1374 18.7871 66.9489 18.1661 66.7239L17.9957 67.1939C16.1502 66.5251 14.3872 65.5409 12.7309 64.1848L13.0476 63.798C12.7938 63.5901 12.5424 63.3732 12.2935 63.147C12.0621 62.9367 11.8336 62.7235 11.6078 62.5074L11.262 62.8685C9.88926 61.5542 8.61893 60.1338 7.46422 58.6205L7.86173 58.3172C7.48282 57.8206 7.11654 57.3138 6.76336 56.7974L6.35065 57.0797C5.28132 55.5161 4.33045 53.8651 3.51097 52.1396L3.96262 51.9251C3.69502 51.3617 3.44163 50.7902 3.20291 50.2111L2.74064 50.4016C2.02185 48.658 1.43421 46.8464 0.990015 44.9793L1.47644 44.8635C1.33233 44.2578 1.20352 43.646 1.09045 43.0288L0.598637 43.1189C0.26073 41.2742 0.061497 39.3811 0.0121407 37.4507L0.511977 37.4379C0.504009 37.1263 0.5 36.8136 0.5 36.5C0.5 36.1881 0.506026 35.8808 0.517918 35.5781L0.0183029 35.5584C0.0974256 33.5439 0.43099 31.7159 0.978255 30.0413L1.45352 30.1966C1.64474 29.6115 1.86274 29.0457 2.10571 28.4977L1.64862 28.2951C2.41912 26.5573 3.43394 24.9933 4.63768 23.5582L5.02076 23.8795C5.41148 23.4137 5.82308 22.9611 6.25376 22.5201L5.89606 22.1707C7.17509 20.8612 8.61351 19.6582 10.1613 18.5211L10.4573 18.9241C10.9509 18.5614 11.4563 18.2052 11.9719 17.854L11.6904 17.4407C13.2073 16.4075 14.8066 15.421 16.4467 14.4476L16.7019 14.8775C17.2349 14.5612 17.7725 14.246 18.3136 13.9308L18.0619 13.4988C18.5734 13.2007 19.0875 12.9029 19.6029 12.6042C20.7053 11.9655 21.814 11.3232 22.917 10.6676L23.1724 11.0975C23.4416 10.9375 23.7104 10.7767 23.9789 10.615C24.2493 10.452 24.5269 10.2999 24.811 10.1584L24.5881 9.71083C26.3171 8.84974 28.2666 8.37232 30.299 8.22478L30.3352 8.72347C30.9701 8.67738 31.6143 8.66431 32.2632 8.6827L32.2774 8.1829C34.2297 8.23825 36.2164 8.57129 38.1223 9.137L37.98 9.61633C38.6015 9.80079 39.2141 10.0105 39.8137 10.2438L39.995 9.77779C41.8918 10.5158 43.6619 11.4853 45.1791 12.6369L44.8768 13.0351C45.1343 13.2306 45.3841 13.4313 45.6254 13.6369C45.873 13.8477 46.1218 14.0533 46.3717 14.2537L46.6845 13.8637C48.2271 15.1011 49.8111 16.142 51.3999 17.0496L51.1519 17.4837C51.7142 17.8049 52.2767 18.1094 52.8376 18.3998L53.0675 17.9558C54.8167 18.8613 56.5562 19.6318 58.2373 20.3517L58.0404 20.8114C58.4526 20.9879 58.8616 21.1615 59.2656 21.333C59.4408 21.4074 59.6151 21.4814 59.7882 21.555L59.9839 21.0949C61.8266 21.8785 63.5731 22.6354 65.1533 23.487L64.9162 23.9271C65.4747 24.2281 66.0097 24.5398 66.5187 24.8677L66.7894 24.4473C68.437 25.5086 69.8379 26.7477 70.89 28.3418L70.4727 28.6172C70.7975 29.1094 71.0878 29.6374 71.3402 30.2074L71.7973 30.0049Z" stroke="#00FFB2" stroke-dasharray="2 6"/>
<path d="M68 38C68 45.7718 63.3078 49.9697 57.4349 53.521C43.2634 62.0905 23.4237 71.542 12.6794 58.9393C7.89488 53.3272 5 46.007 5 38C5 26.3811 14.1992 21.6288 23.4049 16.1728C29.9001 12.3234 40.3989 14.6289 46.4943 19.0843C56.5222 26.4141 68 25.1496 68 38Z" fill="#00FFB2"/>
<path d="M35.6189 28.0789C34.9058 27.7652 34.0936 27.7652 33.3806 28.0789C32.937 28.274 32.6065 28.6043 32.3216 28.9515C32.0443 29.2894 31.7373 29.7374 31.3749 30.2663L31.351 30.301C30.6427 31.3346 30.3582 31.7422 30.0178 32.0751C29.664 32.4211 29.2616 32.7135 28.8232 32.943C28.4014 33.1639 27.9259 33.3085 26.724 33.6628L26.6835 33.6747C26.0685 33.856 25.5477 34.0095 25.1406 34.1688C24.7223 34.3325 24.3061 34.5448 23.9835 34.9063C23.4647 35.4876 23.2138 36.2599 23.2918 37.0351C23.3403 37.5171 23.5523 37.9336 23.7945 38.3118C24.0301 38.68 24.3613 39.1104 24.7523 39.6185L24.778 39.652C25.5421 40.645 25.8418 41.0416 26.0532 41.4681C26.273 41.9115 26.4267 42.3846 26.5095 42.8724C26.5892 43.3419 26.5798 43.8387 26.5454 45.0913L26.5442 45.1335C26.5266 45.7744 26.5116 46.3173 26.5373 46.7536C26.5638 47.202 26.6371 47.6635 26.8812 48.0819C27.2737 48.755 27.9307 49.2323 28.692 49.3977C29.1655 49.5005 29.627 49.4275 30.0617 49.3142C30.4846 49.2037 30.9962 49.0218 31.6003 48.8071L31.6401 48.7928C32.8207 48.373 33.2903 48.2105 33.7615 48.1413C34.251 48.0692 34.7484 48.0692 35.2379 48.1413C35.7091 48.2105 36.1787 48.373 37.3594 48.7928L37.399 48.8069C38.0032 49.0218 38.5148 49.2037 38.9377 49.3142C39.3725 49.4275 39.8339 49.5005 40.3074 49.3977C41.0687 49.2323 41.7257 48.755 42.1183 48.0819C42.3624 47.6635 42.4357 47.202 42.4621 46.7536C42.4878 46.3173 42.4728 45.7745 42.4552 45.1336L42.4541 45.0913C42.4197 43.8387 42.4102 43.3419 42.49 42.8724C42.5728 42.3846 42.7265 41.9115 42.9463 41.4681C43.1577 41.0416 43.4574 40.645 44.2214 39.652L44.2471 39.6185C44.6382 39.1104 44.9694 38.68 45.205 38.3118C45.4471 37.9336 45.6591 37.5171 45.7077 37.0351C45.7856 36.2599 45.5347 35.4876 45.0159 34.9063C44.6934 34.5448 44.2771 34.3325 43.8588 34.1688C43.4518 34.0095 42.9309 33.856 42.3159 33.6747L42.2755 33.6628C41.0736 33.3085 40.5981 33.1639 40.1761 32.943C39.7379 32.7135 39.3354 32.4211 38.9817 32.0751C38.6412 31.7422 38.3568 31.3346 37.6484 30.301L37.6246 30.2662C37.2621 29.7374 36.9552 29.2894 36.6779 28.9515C36.3929 28.6043 36.0624 28.274 35.6189 28.0789Z" fill="#15193F"/>
</svg>
