<svg width="66" height="24" viewBox="0 0 66 24" fill="none" xmlns="http://www.w3.org/2000/svg">
<rect width="66" height="24" rx="5" fill="#0038FF"/>
<path d="M29.5703 17V10.082H29.6318L34.5332 17H36.0508V7.13574H34.3555V14.0469H34.2939L29.3994 7.13574H27.8682V17H29.5703ZM44.0387 15.5098H39.4176V12.6934H43.7858V11.292H39.4176V8.62598H44.0387V7.13574H37.6539V17H44.0387V15.5098ZM51.179 9.86328H51.2473L53.2639 17H54.9251L57.5706 7.13574H55.7386L54.0296 14.6074H53.9749L51.9925 7.13574H50.4339L48.4514 14.6074H48.3968L46.6878 7.13574H44.8557L47.5012 17H49.1624L51.179 9.86328Z" fill="white"/>
<path d="M17.8669 7.60127V6.16662C17.8669 5.90888 18.0758 5.69995 18.3336 5.69995C18.5913 5.69995 18.8002 5.90888 18.8002 6.16662V7.89894C19.0952 8.03769 19.3539 8.21481 19.5761 8.43842C19.7939 8.65762 19.9667 8.91172 20.1023 9.19995H21.8336C22.0913 9.19995 22.3002 9.40888 22.3002 9.66662C22.3002 9.92435 22.0913 10.1333 21.8336 10.1333H20.3998C20.4847 10.5533 20.5281 11.0204 20.5435 11.5333H21.8336C22.0913 11.5333 22.3002 11.7422 22.3002 12C22.3002 12.2577 22.0913 12.4666 21.8336 12.4666H20.5435C20.5281 12.9795 20.4847 13.4466 20.3998 13.8666H21.8336C22.0913 13.8666 22.3002 14.0756 22.3002 14.3333C22.3002 14.591 22.0913 14.8 21.8336 14.8H20.1023C19.9667 15.0882 19.7939 15.3423 19.5761 15.5615C19.3539 15.7851 19.0952 15.9622 18.8002 16.101V17.8333C18.8002 18.091 18.5913 18.2999 18.3336 18.2999C18.0758 18.2999 17.8669 18.091 17.8669 17.8333V16.3986C17.4475 16.4836 16.9806 16.5276 16.4669 16.5432V17.8333C16.4669 18.091 16.2579 18.2999 16.0002 18.2999C15.7424 18.2999 15.5336 18.091 15.5336 17.8333V16.5434C15.02 16.5283 14.5531 16.4856 14.1335 16.4021V17.8333C14.1335 18.091 13.9246 18.2999 13.6669 18.2999C13.4091 18.2999 13.2002 18.091 13.2002 17.8333V16.1087C12.9059 15.9718 12.6475 15.7966 12.4256 15.5747C12.2037 15.3528 12.0284 15.0944 11.8914 14.8H10.1669C9.90913 14.8 9.7002 14.591 9.7002 14.3333C9.7002 14.0756 9.90913 13.8666 10.1669 13.8666H11.598C11.5146 13.4471 11.4719 12.9801 11.4567 12.4666H10.1669C9.90913 12.4666 9.7002 12.2577 9.7002 12C9.7002 11.7422 9.90913 11.5333 10.1669 11.5333H11.4567C11.4719 11.0198 11.5146 10.5528 11.598 10.1333H10.1669C9.90913 10.1333 9.7002 9.92435 9.7002 9.66662C9.7002 9.40888 9.90913 9.19995 10.1669 9.19995H11.8914C12.0284 8.90557 12.2037 8.6471 12.4256 8.42516C12.6475 8.20329 12.9059 8.02811 13.2002 7.89119V6.16662C13.2002 5.90888 13.4091 5.69995 13.6669 5.69995C13.9246 5.69995 14.1335 5.90888 14.1335 6.16662V7.59774C14.5531 7.51433 15.02 7.47162 15.5336 7.45648V6.16662C15.5336 5.90888 15.7424 5.69995 16.0002 5.69995C16.2579 5.69995 16.4669 5.90888 16.4669 6.16662V7.4567C16.9806 7.47233 17.4475 7.51633 17.8669 7.60127Z" fill="white"/>
</svg>
