<svg width="25" height="26" viewBox="0 0 25 26" fill="none" xmlns="http://www.w3.org/2000/svg">
<g filter="url(#filter0_d)">
<path fill-rule="evenodd" clip-rule="evenodd" d="M12.5003 1.7417C9.71642 1.7417 7.69614 2.12742 6.41186 3.41155C5.12756 4.69568 4.74164 6.71589 4.74164 9.50003C4.74164 12.2887 5.14427 14.3072 6.43626 15.5901C7.72712 16.8718 9.74461 17.2584 12.5003 17.2584C15.256 17.2584 17.2734 16.8718 18.5641 15.59C19.8559 14.3072 20.2583 12.2886 20.2583 9.50003C20.2583 6.71595 19.8726 4.69574 18.5885 3.41159C17.3044 2.12742 15.2842 1.7417 12.5003 1.7417ZM13.1333 7.12503C13.1333 6.77525 12.8498 6.4917 12.5 6.4917C12.1502 6.4917 11.8667 6.77525 11.8667 7.12503V8.8667H10.125C9.77519 8.8667 9.49164 9.15027 9.49164 9.50003C9.49164 9.84979 9.77519 10.1334 10.125 10.1334H11.8667V11.875C11.8667 12.2248 12.1502 12.5084 12.5 12.5084C12.8498 12.5084 13.1333 12.2248 13.1333 11.875V10.1334H14.875C15.2248 10.1334 15.5083 9.84979 15.5083 9.50003C15.5083 9.15027 15.2248 8.8667 14.875 8.8667H13.1333V7.12503Z" fill="white"/>
</g>
<defs>
<filter id="filter0_d" x="-1" y="0" width="27" height="27" filterUnits="userSpaceOnUse" color-interpolation-filters="sRGB">
<feFlood flood-opacity="0" result="BackgroundImageFix"/>
<feColorMatrix in="SourceAlpha" type="matrix" values="0 0 0 0 0 0 0 0 0 0 0 0 0 0 0 0 0 0 127 0"/>
<feOffset dy="4"/>
<feGaussianBlur stdDeviation="2"/>
<feColorMatrix type="matrix" values="0 0 0 0 1 0 0 0 0 1 0 0 0 0 1 0 0 0 0.43 0"/>
<feBlend mode="normal" in2="BackgroundImageFix" result="effect1_dropShadow"/>
<feBlend mode="normal" in="SourceGraphic" in2="effect1_dropShadow" result="shape"/>
</filter>
</defs>
</svg>
