<svg width="16" height="16" viewBox="0 0 16 16" fill="none" xmlns="http://www.w3.org/2000/svg">
<path d="M7.98598 0C3.78532 0 0.340648 3.24 0.0146484 7.358L4.30265 9.13C4.66598 8.88267 5.10465 8.73667 5.57732 8.73667C5.61932 8.73667 5.66065 8.73933 5.70265 8.74067L7.60998 5.97933V5.94C7.60998 4.27667 8.96198 2.924 10.626 2.924C12.2886 2.924 13.642 4.278 13.642 5.942C13.642 7.606 12.2886 8.95867 10.626 8.95867H10.556L7.83865 10.8993C7.83865 10.934 7.84132 10.9693 7.84132 11.0053C7.84132 12.2553 6.83132 13.2693 5.58132 13.2693C4.49131 13.2693 3.57065 12.4873 3.36065 11.4513L0.290648 10.18C1.24132 13.538 4.32398 16 7.98598 16C12.404 16 15.9853 12.418 15.9853 8C15.9853 3.582 12.4033 0 7.98598 0ZM5.02665 12.14L4.04465 11.7333C4.21932 12.0953 4.52065 12.3993 4.92065 12.5667C5.78532 12.926 6.78265 12.516 7.14198 11.65C7.31732 11.23 7.31798 10.7707 7.14532 10.3507C6.97265 9.93067 6.64531 9.60333 6.22731 9.42867C5.81131 9.25533 5.36732 9.26267 4.97532 9.40867L5.99065 9.82867C6.62798 10.0953 6.92998 10.8287 6.66331 11.4653C6.39865 12.1033 5.66532 12.4053 5.02732 12.14H5.02665ZM12.6366 5.938C12.6366 4.83 11.7346 3.928 10.6266 3.928C9.51665 3.928 8.61665 4.83 8.61665 5.938C8.61665 7.048 9.51665 7.948 10.6266 7.948C11.7353 7.948 12.6366 7.048 12.6366 5.938ZM9.12132 5.93467C9.12132 5.1 9.79665 4.424 10.6313 4.424C11.464 4.424 12.142 5.1 12.142 5.93467C12.142 6.76867 11.464 7.44467 10.6313 7.44467C9.79598 7.44467 9.12132 6.76867 9.12132 5.93467Z" fill="#0038FF"/>
</svg>
